<svg width="250" height="450" xmlns="http://www.w3.org/2000/svg">
 <g>
  <title>Arabidopsis thaliana</title>
  <g id="outlines">
   <path id="svg_1" d="m124.973785,345.065735l0.699738,0.257782c1.702332,-4.563049 -0.082062,-9.021637 -1.515106,-12.60318c-0.186485,-0.46521 -0.367744,-0.919312 -0.532616,-1.34967c-2.140213,-6.197144 2.308815,-11.437988 2.354332,-11.49057l-0.56546,-0.483002c-0.04776,0.05484 -4.77578,5.607544 -2.490097,12.225433c0.170837,0.447418 0.354347,0.902985 0.54158,1.373352c1.456909,3.642303 3.110016,7.773468 1.507629,12.069855z"/>
   <path id="svg_2" d="m151.510605,261.751648l-0.527405,-0.52298c-4.093216,4.063019 -8.815262,12.503204 -9.01445,12.859497l0.65274,0.358521c0.047729,-0.08667 4.870499,-8.705353 8.889114,-12.695038z"/>
   <path id="svg_3" d="m152.203613,294.9552l0.69751,-0.262238c-1.557617,-4.060791 -8.419159,-4.6586 -8.710831,-4.681549l-0.060425,0.737793c0.066391,0.004456 6.681747,0.577026 8.073746,4.205994z"/>
   <path id="svg_4" d="m111.040344,292.061829c-4.841423,1.477051 -14.776413,7.737183 -15.197136,8.004578l0.400581,0.625183c0.102203,-0.064453 10.269943,-6.471222 15.015129,-7.921631l-0.218575,-0.70813z"/>
   <path id="svg_5" d="m101.737953,303.645721l0.547546,0.503723c0.112656,-0.120758 11.331474,-12.066162 17.576828,-11.181702l0.105934,-0.733337c-6.651924,-0.940765 -17.760345,10.90686 -18.230309,11.411316z"/>
   <path id="svg_6" d="m75.292145,280.277924l0.475197,0.571106c0.115623,-0.095551 11.827545,-9.511292 29.185791,-7.510529l0.085785,-0.736298c-17.669319,-2.028168 -29.628159,7.577911 -29.746773,7.67572z"/>
   <path id="svg_7" d="m117.089508,262.459045l-0.689293,0.284454c0.130554,0.314087 3.232338,7.696411 5.872383,10.130554l0.508011,-0.542236c-2.522171,-2.327454 -5.659767,-9.797943 -5.691101,-9.872772z"/>
   <path id="svg_8" d="m131.318375,276.997833c0.007462,0.017792 0.731812,1.828186 0.909348,3.063751l0.73851,-0.105194c-0.190948,-1.325195 -0.924255,-3.156342 -0.955582,-3.232635l-0.692276,0.274078z"/>
   <path id="svg_9" d="m157.182297,320.228973c-2.977951,-6.651215 -10.445984,-14.111328 -10.521317,-14.18396l-0.52742,0.522247c0.073853,0.075562 7.445648,7.437164 10.36618,13.964691l0.682556,-0.302979z"/>
   <path id="svg_10" d="m210.151489,291.895874c-0.493851,-0.23111 -1.058563,-0.465912 -1.68219,-0.725189c-3.356918,-1.397797 -8.429596,-3.505249 -13.120331,-9.558685c-0.819839,-0.896301 -4.07605,-4.229706 -9.423981,-7.021606c1.927612,-0.663727 2.719849,-2.603027 3.326324,-4.092651c0.188736,-0.462982 0.367035,-0.900757 0.546051,-1.22226c0.51622,-0.853333 2.304352,-2.460785 4.663147,-3.363037l0.583359,-0.222961l-0.475204,-0.404449c-1.436752,-1.221497 -12.647369,-3.457855 -18.718918,-4.163025c-10.310211,0.358521 -21.06279,11.272064 -22.183243,12.438721c-3.315155,1.305939 -6.795898,3.071198 -10.434067,5.403809c2.54454,-2.651886 5.118195,-4.903778 7.039841,-6.582336c1.294281,-1.129669 2.316269,-2.023743 2.943634,-2.695587c1.578506,-1.960052 4.293869,-5.744568 4.743698,-9.120941c0,-2.519287 -0.856384,-4.209686 -2.546036,-5.020813c-3.048828,-1.467407 -7.878311,0.518524 -10.233368,2.374115c-5.095795,5.932709 -5.148773,8.103851 -5.276337,13.352112l-0.032806,1.297028c-0.47818,5.06604 -2.88324,8.311279 -5.245026,11.420959c0.074615,-0.469635 0.146225,-1.040771 0.203659,-1.709656l0.001495,0c0.005981,-0.044434 0.007462,-0.085205 0.01268,-0.129639c0.035812,-0.225189 0.175308,-0.76593 0.311813,-1.29483c0.411041,-1.591858 1.100342,-4.259338 1.356201,-6.929749c0.183517,-2.549683 0.008224,-7.657166 -0.961563,-10.541687c-1.021255,-2.364502 -4.73848,-11.815033 -5.323334,-13.304688l3.803772,-1.387421l-0.25737,-0.694824l-9.138275,3.333374l0.25737,0.694824l1.691132,-0.616302c0.443115,1.28006 2.066376,5.84903 3.802277,9.296478c1.964172,4.875641 2.003708,6.637909 2.074554,9.837219c0.017914,0.811127 0.038055,1.708191 0.091766,2.765228c-0.791489,-0.624451 -2.148422,-1.802246 -2.997345,-3.125977l-0.541595,-0.845947l-0.142487,0.991119c-0.006699,0.048157 -0.16037,1.137054 -0.327469,3.705261l-0.044022,-0.007416c-0.002228,0.014099 -0.002975,0.024475 -0.005219,0.037781c-1.759766,-1.727448 -2.983917,-6.338623 -2.983917,-9.05423c0,-3.33783 -11.669411,-13.23877 -13.000237,-14.3573l-0.450584,-0.380005l-0.150673,0.568909c-0.009705,0.035522 -0.944412,3.57486 -1.689651,7.468292c-0.83699,9.145325 1.512108,11.064636 3.584442,12.757996c0.279747,0.229645 0.557991,0.454071 0.824303,0.69632l0.138008,0.078491c3.85524,1.235596 8.234894,5.429016 11.752937,8.799438c0.335709,0.322205 0.662445,0.632599 0.978745,0.934814c-1.658325,-1.088165 -3.519547,-2.376312 -5.346451,-3.640778c-3.416603,-2.365234 -6.372177,-4.411926 -7.65303,-4.922333c-0.135025,-0.098511 -0.381943,-0.322235 -0.688538,-0.599274c-0.945168,-0.851868 -2.697479,-2.43634 -5.025681,-3.805237c-3.730659,-4.377106 -9.885002,-7.459412 -15.723808,-7.858673c-9.799965,0 -20.033348,11.563904 -25.531975,17.777344l-0.126816,0.143707c-6.279671,8.071259 -6.469154,9.701691 -6.034248,11.428375l0.115631,0.458527l0.420738,-0.220764c2.907829,-1.5289 5.553833,-1.280731 10.824936,-0.785919l0.917557,0.085175c5.634399,0.295563 9.165131,-2.020782 12.279617,-4.057831c0.977226,-0.637085 1.900742,-1.242249 2.854858,-1.739288c3.117462,-1.905243 8.988335,-5.176392 13.235954,-5.686066c16.128876,-0.183685 23.462624,8.120148 26.594246,11.657257c0.076096,0.084442 0.1492,0.168915 0.21933,0.248169c-2.181992,-0.334808 -6.25058,-1.152618 -10.518349,-2.006714c-5.977547,-1.198517 -12.751808,-2.556335 -15.698441,-2.859314c-5.423279,-0.601501 -13.911812,7.016418 -16.943474,11.265381l-0.044006,0.082245c-3.112991,8.11496 1.032425,12.026123 5.154724,15.052094c6.457214,5.006042 14.86219,-1.100006 19.378365,-4.383026c1.009315,-0.73111 1.880623,-1.366699 2.522171,-1.722229c1.292786,-0.964478 4.570625,-3.923065 7.717178,-8.219421c2.436371,-3.107483 7.243492,-3.694885 9.676125,-3.57785c0.157425,0.602234 0.559494,2.397827 0.84668,5.957153c0.129074,3.471893 -1.694107,7.155701 -3.303192,10.409088c-0.654221,1.321503 -1.273392,2.573364 -1.712784,3.71933c-1.702316,5.07193 2.207382,11.249084 3.985794,13.690613c4.165558,4.855621 5.129364,8.663116 5.880569,12.757996c0.807159,8.494965 -0.777313,12.625427 -2.308823,16.621063c-0.22229,0.578491 -0.4431,1.155548 -0.633331,1.689636c-1.042145,1.957794 -0.986191,5.53418 -0.931,8.992767c0.036575,2.29483 0.070892,4.460083 -0.211853,5.880096c-0.645264,1.922241 -1.036896,3.966736 -1.196564,5.983032l-0.201401,-0.205933c-0.25737,0.248169 -6.291618,6.137207 -4.951065,11.6521c0.895905,3.558594 1.659042,8.127563 1.130142,10.330566c-1.107773,2.022217 -1.709793,3.585266 -1.5121,5.540833l0.742264,-0.074097c-0.180527,-1.789673 0.37001,-3.194092 1.447952,-5.156372l0.034302,-0.087402c0.584106,-2.319336 -0.194702,-7.06604 -1.118225,-10.732056c-1.0578,-4.354858 3.09584,-9.196472 4.373688,-10.558716c-0.12233,2.405273 0.105194,4.740112 0.71019,6.734253c4.182709,8.486755 4.072296,11.148315 3.709015,19.96698l-0.019394,0.417786c-0.308105,7.188293 1.763504,11.252075 4.167786,15.944763c0.04776,0.159973 0.087296,0.314819 0.138016,0.478516l0.091019,-0.028137c0.460266,0.900024 0.930237,1.823669 1.395721,2.804504c1.282349,8.917114 1.664291,13.578735 1.66803,13.62616l0.743744,-0.059265c-0.003723,-0.045959 -0.388672,-4.744568 -1.680695,-13.726196l-0.031342,-0.105957c-0.544586,-1.148865 -1.095108,-2.222961 -1.627747,-3.262268c-3.016754,-10.103088 -1.579239,-17.298096 -0.948135,-20.469238c0,-0.786682 -0.132767,-2.000061 -0.313309,-3.304504c0.969772,0.639282 3.297989,2.484497 3.302475,5.466064c-0.547546,3.263733 -0.98172,5.848938 1.336792,8.212708c0.073105,0.32074 0.102203,0.817078 0.135773,1.382263c0.108902,1.843689 0.258102,4.367493 2.064133,5.415649l0.375961,-0.637817c-1.460617,-0.848145 -1.59639,-3.142273 -1.69487,-4.819336c-0.039536,-0.665222 -0.073853,-1.241455 -0.185745,-1.6297l-0.026855,-0.091797l-0.068634,-0.068176c-2.129028,-2.114136 -1.739624,-4.431946 -1.196548,-7.700867c0,-4.248962 -3.947739,-6.351929 -4.116333,-6.439392l-0.045502,0.085938c-0.19693,-1.325989 -0.423706,-2.669678 -0.597534,-3.703003l-0.093994,-0.559998l-0.021637,-0.077087c-0.115631,-0.288147 -0.264069,-0.902954 -0.437149,-1.614807c-0.364761,-1.503784 -0.865311,-3.566772 -1.644882,-5.110474c-0.901901,-1.435608 -1.982086,-5.226746 -1.623245,-7.546814c0.05072,-0.504456 0.219315,-1.350403 0.432663,-2.423035c0.550537,-2.769623 1.383041,-6.95639 1.246521,-10.602386c-0.357315,-4.972687 0.699738,-7.38382 2.450562,-11.377991l0.147705,-0.345917c0.446838,-1.554108 0.659454,-3.794128 0.753433,-6.250488c1.020523,0.601471 4.109619,2.882263 4.110367,8.357178c-0.187988,5.420868 -0.19693,7.911285 1.573273,10.059448l0.246918,0.301483c1.408417,1.722992 3.161484,3.868958 2.471436,10.725372l0.742264,0.074097c0.721359,-7.161621 -1.139114,-9.437225 -2.634064,-11.266113l-0.245422,-0.301514c-1.602371,-1.944489 -1.589706,-4.337128 -1.407684,-9.580902c0,-6.730499 -4.304306,-8.955719 -4.828735,-9.20166c0.066391,-2.39856 0.035065,-4.948975 0.006729,-7.240143c-0.014191,-1.09259 -0.026871,-2.111877 -0.027603,-3.023743c-0.226791,-3.937836 -2.097702,-6.504578 -4.078293,-9.221649c-1.324127,-1.816345 -2.693741,-3.694885 -3.596375,-6.08606c-2.720596,-6.454163 -0.807892,-9.624603 0.879501,-12.423157c0.345413,-0.573334 0.672867,-1.11557 0.95636,-1.674835c0.067886,-0.084473 0.114868,-0.188904 0.176056,-0.279999c1.669495,4.182281 2.574371,7.889008 2.678818,11.003143c0,3.893402 3.693344,6.943085 4.433365,7.515686l0.458038,-0.584442c-0.692276,-0.536316 -4.145432,-3.380829 -4.146164,-6.942352c-0.10968,-3.287476 -1.06752,-7.176422 -2.845932,-11.560211c-0.054459,-0.135559 -0.092514,-0.228912 -0.120834,-0.302246c0.792206,-1.981506 0.614685,-4.808228 0.440872,-7.370483c-0.030594,-0.454071 -0.061188,-0.900757 -0.085785,-1.277069c0.091003,-0.992615 0.269287,-1.743713 0.458023,-2.541504c0.146957,-0.620026 0.297653,-1.25708 0.402084,-2.011169c1.405441,1.148163 3.211456,3.829712 5.497131,8.157196c2.302124,13.874298 4.634048,17.057312 7.919342,20.320343c11.324005,11.959503 19.234406,7.531982 22.212357,5.864563c0.158157,-0.08667 0.301376,-0.168884 0.428955,-0.234833l0.166336,-0.088867l0.026855,-0.185211c0.266327,-1.854095 0.525177,-6.974915 -2.816071,-14.437286c-2.510239,-6.903076 -14.83609,-9.7276 -19.426865,-10.775726c-3.532959,-1.337097 -9.706711,-9.213531 -11.886475,-12.218018c2.110382,0.357025 4.288666,3.003021 6.234177,5.364532c1.456894,1.768921 2.715378,3.295624 3.851501,3.821564c7.838028,4.178589 14.519043,-0.694824 15.752151,-2.122253l0.182007,-0.210388l-0.152908,-0.23111c-0.028351,-0.044464 -2.84668,-4.320831 -5.805237,-7.624603c-2.836212,-3.441528 -12.828659,-2.617065 -18.197479,-2.174103c-0.853409,0.071869 -1.583725,0.132599 -2.139481,0.162964c0.049255,-0.08371 0.104446,-0.168884 0.155167,-0.252594c0.807907,-0.509644 12.039398,-7.504578 22.090012,-7.320862c6.152863,0.662231 12.059555,3.778595 18.067673,9.537201c3.461365,3.08078 10.648895,8.356445 19.261993,8.356445c4.352066,0 9.068924,-1.34668 13.85141,-5.00528l0.484131,-0.370392l-0.553513,-0.263702zm-34.331573,-30.039063c5.741074,0.671143 15.031525,2.55191 17.66037,3.660095c-2.055923,0.941498 -3.723938,2.384491 -4.328201,3.382996c-0.208115,0.371887 -0.394608,0.830383 -0.5923,1.315582c-0.694504,1.705231 -1.476303,3.623016 -3.687393,3.842316c-3.914917,-1.891144 -8.836899,-3.425995 -14.652573,-3.595642c1.541214,-0.681488 6.305038,-2.531128 11.381454,-1.940033l0.08728,-0.734802c-6.384109,-0.746704 -12.096848,2.13855 -12.337051,2.261505l0.209625,0.403717c-4.27298,-0.047424 -9.013702,0.643707 -14.180374,2.463745c3.224136,-3.055634 12.149811,-10.766876 20.439163,-11.059479zm-44.75444,-1.460022c-1.73439,-3.443024 -3.350937,-8.003082 -3.782135,-9.246826l2.243179,-0.81781c0.568436,1.446716 4.308792,10.955017 5.327805,13.313568c0.926514,2.761566 1.093597,7.734222 0.915298,10.217987c-0.178268,1.861511 -0.575867,3.72821 -0.93692,5.221588c-0.314087,-2.637848 -1.283844,-4.680084 -1.494217,-5.099365c-0.085052,-1.368195 -0.109665,-2.481537 -0.132034,-3.461548c-0.070862,-3.180054 -0.113388,-5.098602 -2.140976,-10.127594zm-4.029053,19.710724c-3.550865,-3.400787 -7.964836,-7.628265 -11.96479,-8.944611c-0.25811,-0.231079 -0.525169,-0.44812 -0.794472,-0.668884c-2.023849,-1.652618 -4.117081,-3.363037 -3.320366,-12.083191c0.560226,-2.920044 1.233109,-5.6586 1.525536,-6.80899c4.49826,3.821533 12.28183,11.043884 12.28183,13.408356c0,2.994873 1.429321,8.271301 3.611313,9.922424c-0.421494,3.529694 0.174561,5.735657 1.049591,7.426056c-0.720627,-0.654816 -1.52179,-1.421509 -2.388641,-2.25116zm-24.598,-2.691895c-0.155907,0 -0.313309,0.000763 -0.470711,0.00296c-4.429642,0.527435 -10.408684,3.855652 -13.555984,5.780121c-0.964554,0.50296 -1.902992,1.116302 -2.895905,1.765961c-3.018982,1.97113 -6.452736,4.205261 -11.815598,3.934875l-0.901146,-0.084442c-5.163689,-0.484467 -7.876076,-0.741486 -10.80629,0.648163c-0.174568,-1.148895 0.288689,-3.000061 5.985008,-10.320953l0.1119,-0.126648c5.420296,-6.126038 15.508965,-17.525513 24.945633,-17.526245c5.642601,0.385925 11.616417,3.387482 15.218765,7.645325l0.09623,0.079987c2.288681,1.339294 3.959671,2.846741 4.957054,3.74823c0.381195,0.345184 0.633339,0.571136 0.806404,0.687408l0.073105,0.037781c1.171944,0.447418 4.264038,2.588196 7.537407,4.856384c3.344246,2.31485 6.798134,4.705292 8.964455,5.836395c0.035812,0.050385 0.071625,0.105225 0.107422,0.154846c0.323013,0.464447 0.628128,0.902954 0.892197,1.35556c0.347641,1.413361 0.255127,2.518585 -0.276016,3.286743c-0.463989,0.667419 -1.160004,0.908173 -1.481506,0.985931c-0.214111,-0.222961 -0.459534,-0.496307 -0.760162,-0.836304c-2.896637,-3.274139 -10.541466,-11.912079 -26.732262,-11.912079zm36.556847,10.368347c4.859329,-0.400024 14.970367,-1.235565 17.567871,1.914856c2.528137,2.823761 4.95108,6.363068 5.586655,7.308258c-1.541199,1.532623 -7.579163,5.51123 -14.661514,1.740051c-1.000366,-0.463715 -2.267044,-2.000793 -3.607574,-3.627502c-2.281952,-2.768921 -4.866028,-5.902313 -7.587387,-5.663788l-0.637054,0.05777l0.364029,0.521515c0.078323,0.111115 8.071518,11.359467 12.718231,13.113556c4.531845,1.036316 16.569763,3.797119 18.951675,10.345398c3.167435,7.076385 3.039139,11.944641 2.793716,13.873566c-0.0858,0.047424 -0.176804,0.100006 -0.273788,0.152588c-2.839951,1.589661 -10.381073,5.80899 -21.311203,-5.733429c-3.195038,-3.172668 -5.459839,-6.280121 -7.728363,-19.984802l-0.037308,-0.111847c-2.676575,-5.074188 -4.676559,-7.886078 -6.293106,-8.847565l-0.509506,-0.303711l-0.053696,0.588165c-0.091019,0.992584 -0.269318,1.743713 -0.458038,2.541504c-0.186508,0.787415 -0.378967,1.599304 -0.475189,2.69931c0.023865,0.432617 0.054443,0.880035 0.085785,1.337799c0.202896,2.988953 0.433411,6.377167 -0.934723,8.038666l-0.044754,0.069641c-0.275269,0.545197 -0.602005,1.088165 -0.947403,1.661499c-1.690384,2.801544 -3.794052,6.290497 -0.933212,13.077301c0.93248,2.469635 2.331924,4.389679 3.68515,6.246765c1.914932,2.627441 3.723206,5.108215 3.937271,8.810516c0,0.894104 0.012695,1.916321 0.026871,3.011902c0.058197,4.639343 0.138,10.992798 -0.741516,14.061005l-0.130539,0.298523c-1.796326,4.099335 -2.880981,6.573456 -2.510971,11.714294c0.13205,3.547455 -0.690033,7.68161 -1.233841,10.416473c-0.217834,1.094788 -0.388672,1.955627 -0.440887,2.475586c-0.394638,2.547485 0.780289,6.521606 1.713516,8.000122c0.72435,1.437866 1.212234,3.452698 1.56955,4.923828c0.179779,0.741516 0.322998,1.333374 0.4543,1.676331l0.088013,0.522278c0.38121,2.257751 1.019775,6.036377 1.026489,7.639343c-0.560989,2.786682 -1.771698,8.82312 0.069366,17.27887c-1.597885,-3.445984 -2.731049,-7.031982 -2.502014,-12.377258l0.017151,-0.411926c0.359573,-8.726807 0.481171,-11.667603 -3.761993,-20.264771c-1.104797,-3.657837 -0.892181,-8.610535 0.567703,-12.971344c0.310318,-1.540039 0.275269,-3.746735 0.238708,-6.081604c-0.053711,-3.365234 -0.108902,-6.843811 0.865341,-8.680908c0.210373,-0.579254 0.429688,-1.151123 0.650482,-1.725952c1.562103,-4.073395 3.177902,-8.286072 2.349869,-16.984741c-0.775085,-4.231171 -1.764999,-8.1409 -6.032028,-13.113556c-1.692627,-2.327454 -5.458344,-8.253479 -3.870148,-12.984711c0.422226,-1.099243 1.033188,-2.334106 1.679962,-3.643005c1.647873,-3.330444 3.515808,-7.105316 3.37854,-10.777985c-0.372238,-4.620819 -0.927246,-6.311951 -0.950378,-6.38382l-0.078339,-0.23111l-0.246918,-0.018524c-2.472183,-0.194061 -7.860397,0.371857 -10.587715,3.854889c-3.101044,4.234161 -6.307274,7.129761 -7.525459,8.041626c-0.639313,0.353333 -1.486,0.968903 -2.557976,1.745209c-4.662384,3.387482 -12.46685,9.057953 -18.486176,4.390472c-4.081261,-2.994873 -7.822372,-6.555695 -4.925713,-14.154327c3.373322,-4.706024 11.526909,-11.43576 16.228081,-10.918732c2.913811,0.298523 9.669418,1.654114 15.630562,2.84967c5.077156,1.017792 9.872314,1.980042 11.598541,2.150421l1.039886,0.103699l-0.286469,-0.285187c0.456543,-0.17038 1.052582,-0.501465 1.502411,-1.14447c0.670639,-0.958527 0.79895,-2.286713 0.38121,-3.946716l-0.038071,-0.094086c-0.28569,-0.496307 -0.609451,-0.960754 -0.951859,-1.452637c-1.32338,-1.898529 -2.805634,-4.037842 -2.331192,-8.73938l0.125336,0.073334l0.035797,-0.601501c0.096222,-1.623016 0.193207,-2.756348 0.263321,-3.466736c1.226395,1.533356 2.82579,2.703003 3.174911,2.950439c0.261841,0.532593 1.865707,3.983765 1.427811,7.711975c-0.009705,0.06369 -0.015656,0.116302 -0.015656,0.157043c-0.179794,2.14151 -0.53862,3.237091 -0.542343,3.248199l0.070862,0.037018c-0.40358,2.159332 -0.281219,3.737122 -0.274506,3.814178l0.743744,-0.061493c-0.001495,-0.017059 -0.120117,-1.572632 0.274506,-3.663788c0.240967,-0.3237 0.484146,-0.64444 0.731079,-0.9711c2.350586,-3.093414 5.014465,-6.599396 5.523239,-11.991333l0.034317,-1.324493c0.126816,-5.208221 0.173798,-7.157135 5.045822,-12.84024c2.239441,-1.754822 6.749649,-3.508179 9.392654,-2.237793c1.409897,0.678528 2.125305,2.144501 2.128281,4.305267c-0.422974,3.151917 -3.053299,6.806793 -4.566147,8.688293c-0.583359,0.623718 -1.59343,1.505219 -2.872025,2.622284c-2.460251,2.148193 -5.979813,5.228241 -9.162903,8.900146c-0.135025,0.094818 -0.268555,0.184448 -0.404312,0.281494l0.075317,0.105194c-1.666504,1.960022 -3.228592,4.07785 -4.47438,6.311951l-0.30661,0.549652l0.632599,0c0.590836,-0.004456 1.590424,-0.08667 2.856369,-0.191864zm38.619476,0.847412c-6.122269,-5.869751 -12.171432,-9.053497 -18.528702,-9.734253c-8.545975,-0.157776 -17.852081,4.700806 -21.249283,6.662354c1.000366,-1.49707 2.117828,-2.931183 3.289032,-4.286011c19.121002,-13.380249 34.07196,-11.01944 43.317673,-6.598633l0,0.148163c0.095474,0 0.183502,-0.010376 0.275253,-0.014832c5.739594,2.803009 9.221832,6.363068 10.058838,7.276428c4.792175,6.187531 9.974518,8.342377 13.403793,9.769073c0.385681,0.160004 0.747482,0.311096 1.084656,0.457031c-13.624619,9.959442 -26.651688,0.770386 -31.65126,-3.679321z"/>
   <path id="svg_11" d="m160.244553,275.591125l0.280502,0.685944c0.126053,-0.050354 12.863693,-4.916382 30.944809,10.861664l0.492355,-0.557037c-18.423523,-16.076569 -31.586365,-11.043884 -31.717667,-10.99057z"/>
   <path id="svg_12" d="m102.242233,239.278625l0.658707,0.34964c0.073105,-0.138519 7.458313,-13.675079 17.353775,-12.768372l0.067879,-0.737793c-10.397491,-0.935577 -17.770775,12.578735 -18.08036,13.156525z"/>
   <path id="svg_13" d="m145.691193,157.949768l0.667664,-0.331116c-4.886185,-9.70462 -11.58287,-10.365387 -11.865601,-10.388336l-0.062653,0.737793c0.064911,0.005188 6.574326,0.675568 11.26059,9.981659z"/>
   <path id="svg_14" d="m86.305077,108.588135c3.033165,0 6.572098,-0.373337 9.155441,-0.646698c1.269653,-0.134064 2.272255,-0.23999 2.745209,-0.248123c0.267059,-0.004456 0.531883,-0.007416 0.795212,-0.007416c2.475914,0 4.268509,0.253326 5.993973,0.847412c0.487869,0.168152 1.074959,0.43483 1.697105,0.717804c1.464363,0.665192 3.124168,1.420013 4.569138,1.420013c0.310333,0 0.602753,-0.035538 0.869072,-0.105911c0.419983,-0.110382 0.716888,-0.274826 0.914574,-0.480026l0.011932,0.102982c1.195061,-0.132599 3.453148,0.754822 7.37851,5.732681c0.415504,0.52742 1.016769,1.125214 1.653099,1.758545c1.594147,1.585953 3.578468,3.560074 3.423302,5.254929l0.364792,0.032593c-1.25177,11.123169 -2.082039,29.160522 -2.229744,44.229675c-1.609825,19.181854 -1.85675,45.788239 -1.201782,54.646179c-9.856651,-9.4935 -13.259079,-20.264069 -16.005783,-28.959045c-0.242439,-0.767426 -0.47966,-1.518524 -0.711662,-2.237823c-4.429642,-15.735107 -3.689621,-32.613159 -3.549385,-35.114685c8.39901,-0.652618 10.994278,4.936371 13.282211,9.868317c0.255127,0.550385 0.507263,1.093353 0.76165,1.617798l0.602753,1.239288l0.105179,-1.37262c0.399101,-5.203796 -0.811623,-9.109039 -3.59861,-11.607605c-4.040985,-3.623047 -10.058075,-3.137115 -11.709686,-2.922272l-0.157402,-3.89859c0.111153,0.014801 0.224548,0.023682 0.340172,0.023682c0.415512,0 0.858627,-0.097015 1.31218,-0.292603c1.333069,-0.574066 2.430412,-1.845215 2.609444,-3.021515c0.106682,-0.702972 -0.126816,-1.45929 -0.594536,-1.92746c-0.368515,-0.368134 -0.854904,-0.533325 -1.371124,-0.456299c-0.306595,0.044434 -0.573662,0.197784 -0.813866,0.403717c0.128311,-0.265198 0.226028,-0.532593 0.257362,-0.789642c0.093994,-0.765198 -0.300629,-1.352631 -1.083916,-1.611877c-0.209618,-0.069641 -0.406555,-0.111877 -0.596031,-0.139252c0.038048,-0.278534 0.086533,-0.571136 0.134277,-0.859283c0.106674,-0.639282 0.205147,-1.245972 0.193954,-1.714111c0.414017,-0.185944 0.721359,-0.428894 0.907112,-0.7341c0.305107,-0.501495 0.282722,-1.12149 -0.067139,-1.841492c-0.534126,-1.100037 -1.509865,-1.242249 -2.238693,-0.896332c-0.02462,0.011871 -0.046997,0.0289 -0.070869,0.041473c-0.228264,-0.491089 -0.618416,-0.824432 -1.121208,-0.921478c-1.201042,-0.231842 -1.530754,0.450378 -1.616539,0.755554c-0.270798,0.965942 0.572166,2.617096 1.526276,3.054871c-0.001488,0.34964 -0.09623,0.781494 -0.204399,1.239288c-0.171577,0.724457 -0.359566,1.528931 -0.212616,2.268921c-0.189468,-0.071838 -0.428932,-0.11554 -0.755669,-0.120728c-0.883247,-0.015564 -1.504646,0.367401 -1.821686,1.071869c-0.24543,0.543701 -0.255127,1.217072 -0.068634,1.831879c-0.085037,0.042236 -0.169342,0.079254 -0.256622,0.134827c-1.112251,0.706665 -1.403183,1.694855 -0.798943,2.710419c0.285713,0.480011 0.596786,0.719269 0.93248,0.839264c-0.067894,0.122986 -0.116371,0.252594 -0.12011,0.394073c-0.007454,0.291138 0.089523,0.545227 0.280495,0.734833c0.449829,0.447418 1.298752,0.429657 1.9776,0.413361c0.046997,-0.000763 0.097725,-0.001495 0.148445,-0.00296l-0.130547,2.203003c-2.428917,-2.096344 -4.793671,-2.931183 -7.041328,-2.482269c-3.917137,0.782959 -6.302795,5.297852 -7.14724,7.202332l0.604988,0.411133c6.702644,-6.654205 10.183395,-4.580841 12.486237,-3.208221c0.132042,0.078522 0.259613,0.154816 0.38343,0.226685c-0.963806,0.79483 -3.310654,2.865967 -5.220367,5.638611c-2.083527,2.634857 -2.700455,5.717896 -2.130524,10.60022c0,4.503784 2.231972,6.354156 3.911179,7.354919l0.564713,0.336304l0,-0.654083c0,-0.031128 0.006714,-3.123016 0.519943,-5.019348c0.768364,-1.52597 1.15329,-2.291168 1.345009,-5.906769c0,-3.06601 1.087639,-6.101593 2.107399,-8.280914c0.080566,1.986725 0.249153,6.283081 0.50428,13.492126c0.875786,12.350586 4.242401,22.027039 6.46991,28.430145l0.441612,1.26889c2.890678,10.81723 8.146126,17.624756 11.929749,21.367065c-12.163979,-2.34079 -21.140381,6.480103 -23.612579,10.163879c-1.099564,1.403717 -4.639992,10.386108 -6.754852,15.755829c-0.4655,1.182251 -0.857132,2.176361 -1.130157,2.854156l-0.186493,0.460724l0.499046,0.045929c0.838493,0.074799 1.653107,0.110382 2.446831,0.110382c13.373962,0 20.552544,-10.182434 24.510712,-15.797333c0.506531,-0.718536 0.953369,-1.351135 1.32785,-1.842987c2.831757,-3.142303 6.108849,-4.016388 7.537399,-3.835632c-0.394615,7.773468 2.545303,15.950653 3.251007,17.789948l-3.522545,1.000763l0.204407,0.711853l10.443748,-2.963013l-0.204407,-0.711853l-6.20134,1.759277c-0.650513,-1.681488 -3.700073,-10.040924 -3.207726,-17.861816l0.018646,-0.297028l-0.288689,-0.080719c-1.603119,-0.455597 -5.437462,0.503693 -8.604904,4.021545c-0.398354,0.519989 -0.851166,1.161499 -1.364395,1.890381c-4.059631,5.757904 -11.577644,16.419586 -25.780396,15.412903c0.253647,-0.634827 0.575905,-1.455597 0.945168,-2.391907c1.962677,-4.981567 5.615753,-14.251373 6.664604,-15.593628c2.475166,-3.688202 11.586586,-12.610596 23.846046,-9.660889l0.026863,-0.108185c2.090988,1.934875 3.560562,2.822296 3.601601,2.845978l0.378952,-0.637024c-0.11264,-0.06665 -11.305351,-6.816406 -16.061729,-24.615997l-0.449829,-1.295593c-2.214821,-6.366028 -5.562782,-15.986938 -6.431107,-28.227173c-0.368515,-10.436493 -0.557999,-14.775818 -0.559486,-14.818054l-0.008209,0c0.592308,-1.108887 1.050339,-1.79483 1.063774,-1.814087l-0.617676,-0.415558c-0.162628,0.237762 -3.98056,5.903809 -3.979813,11.855011c-0.182022,3.441559 -0.544571,4.160828 -1.292786,5.663086c-0.414024,1.50592 -0.52816,3.561523 -0.560234,4.611176c-1.418114,-0.982971 -2.996605,-2.726715 -2.998848,-6.407532c-0.55426,-4.771179 -0.00074,-7.603088 1.988792,-10.119415c2.360283,-3.425262 5.482216,-5.817169 5.51355,-5.840851l0.474442,-0.360016l-0.534119,-0.265198c-0.256622,-0.127411 -0.532631,-0.292603 -0.834015,-0.471863c-2.173782,-1.295563 -5.702278,-3.400787 -11.852905,1.886719c1.142845,-1.970428 3.04734,-4.406769 5.672447,-4.931213c2.176033,-0.43335 4.516922,0.514069 6.963745,2.820068l0.581863,0.548157l0.218575,-3.686737l1.713524,-0.523712l0.184258,4.573395l0.421471,-0.074799c0.071617,-0.011841 7.158447,-1.216339 11.503044,2.683014c2.337158,2.097809 3.485229,5.294159 3.420326,9.514252c-0.038788,-0.084473 -0.078331,-0.168915 -0.117867,-0.254089c-2.41996,-5.2164 -5.162193,-11.129089 -14.347473,-10.269073l-0.314796,0.029633l-0.022377,0.313324c-0.013428,0.183716 -1.254745,18.595886 3.559822,35.695465c0.235725,0.73111 0.472206,1.480774 0.714645,2.246704c2.836975,8.981659 6.367706,20.16037 16.916634,29.9487l0.721375,0.669647l-0.095505,-0.976318c-0.753426,-7.668274 -0.551277,-35.57843 1.120476,-55.517303c0.196182,-19.880371 1.570297,-44.885254 3.538177,-52.349838c0.487885,-2.854858 1.218201,-6.701599 2.046997,-10.850571l0.182755,-0.049622c-0.032074,-0.116302 -0.070862,-0.228165 -0.104431,-0.342972c1.994003,-9.955719 4.53183,-21.524094 5.692581,-25.366379c1.217438,-3.562286 6.489304,-18.755157 12.0961,-31.397598c0.384171,-0.351868 0.623642,-0.960022 0.769852,-1.713364c1.241318,-2.730423 2.490814,-5.308258 3.708267,-7.574966l0.041046,-0.128143c0.308075,-2.445969 0.391617,-4.740082 0.386398,-6.600859l0.509506,0.102966c-0.30957,0.76149 -0.484879,1.473356 -0.321518,2.100035l0.722107,-0.185928c-0.190964,-0.732605 0.373001,-1.877806 0.919067,-2.985975c0.100708,-0.204453 0.201401,-0.410385 0.299133,-0.616318c-0.205154,1.417068 -0.59903,2.843763 -1.026474,4.10008l-0.173813,0.031113c0.024628,0.134811 0.018646,0.304443 -0.008209,0.49704c-0.32077,0.890396 -0.643036,1.671146 -0.898911,2.251163l0.199936,0.08667c-0.21933,0.631851 -0.430435,1.265942 -0.519211,1.800034l0.389404,0.122223c-2.399078,5.409714 -7.004761,17.161789 -8.275177,20.769257c-2.253616,5.097134 -5.199493,16.595852 -7.350906,24.991558c-1.069,4.172668 -1.992508,7.776443 -2.551254,9.505356c-1.624008,5.913437 -4.481125,19.055161 -5.231583,29.122757c-0.302109,2.251892 -0.56395,5.12674 -0.785507,8.119385c-0.041763,0.108185 -0.088776,0.214081 -0.128311,0.322968l0.101456,0.036316c-0.572906,7.880859 -0.865341,16.438812 -0.86908,16.558807l-0.029831,0.885193l0.655731,-0.601471c1.371841,-1.257813 6.496735,-3.268219 11.828278,-2.792664c4.228973,0.37558 7.593353,2.171173 9.990936,5.323822c3.436737,4.948975 5.141296,8.897919 5.529221,17.954376l0.031326,0.134827c0.474442,1.06076 0.597534,2.159302 0.274521,2.449677c-0.205154,0.184448 -0.737778,0.061462 -1.388275,-0.303711c-0.847427,-0.631866 -2.14917,-1.412628 -3.656052,-2.317078c-3.779907,-2.268921 -8.957748,-5.377136 -10.79361,-8.501648c-0.337189,-0.565186 -0.691528,-1.172607 -1.0578,-1.802246c-2.496063,-4.28598 -5.324829,-9.143127 -7.83432,-9.470551c-0.651978,-0.085175 -1.246521,0.131134 -1.786621,0.668182c-0.463242,0.552582 -0.94664,0.534088 -1.615784,0.503693c-0.422226,-0.018494 -0.900406,-0.038513 -1.386047,0.122986l0.235748,0.702209c0.261078,-0.085907 0.530365,-0.099976 0.81012,-0.094788c-0.077576,1.524475 -1.130905,22.126312 -1.487473,30.101288c-0.17009,4.550446 -0.146225,12.729095 -0.12384,20.638885c0.027603,9.542389 0.055954,19.409973 -0.249161,23.246338c-0.367767,7.85495 0.892197,18.528473 2.643021,22.392242l0.680328,-0.303711c-1.712769,-3.780792 -2.942154,-14.291351 -2.579605,-22.04187c0.30661,-3.855621 0.278259,-13.738037 0.250656,-23.295959c-0.022385,-7.902374 -0.046249,-16.073639 0.123093,-20.606323c0.358063,-8.009766 1.419586,-28.769379 1.48822,-30.110168c0.593811,-0.000732 1.218201,-0.108154 1.759766,-0.755554c0.348373,-0.345947 0.719864,-0.485931 1.13913,-0.43335c2.144684,0.279999 5.115936,5.381561 7.285248,9.106842c0.367767,0.631866 0.723602,1.242249 1.060043,1.806702c1.930588,3.28598 7.201706,6.449738 11.050964,8.760162c1.489746,0.894073 2.77655,1.666687 3.63295,2.300781c1.040634,0.590363 1.812729,0.668884 2.29686,0.235535c0.714661,-0.641479 0.417755,-2.127441 -0.0634,-3.234863c-0.361053,-8.279419 -1.687408,-12.558014 -5.667221,-18.286987c-2.502777,-3.291931 -6.143906,-5.237885 -10.528793,-5.628265c-4.793686,-0.427429 -9.592575,1.076324 -11.746979,2.48819c0.08728,-2.324493 0.374481,-9.427551 0.857147,-15.991394c0.893677,-2.265228 2.34462,-4.391167 4.131989,-6.020844c0.440872,-0.401482 1.089874,-0.823723 1.777679,-1.270386c1.292038,-0.840027 2.733276,-1.78598 3.309174,-2.952637c0.630341,0.09259 1.210724,0.146667 1.742615,0.146667c2.230484,0 3.938782,-0.81485 5.53891,-2.640808c0.386414,-0.441483 0.754929,-0.88002 1.117493,-1.311874c1.443466,-1.720764 2.806366,-3.345978 4.874969,-4.528229c2.963043,-1.694107 6.098404,-3.143768 9.131577,-4.545273c1.647873,-0.76149 3.352432,-1.549652 5.015228,-2.369659c4.036499,-1.99115 5.95369,-3.75119 5.863419,-5.380844c-0.048492,-0.88002 -0.604248,-1.384476 -1.523285,-1.384476c-1.148071,0 -2.697479,0.740753 -3.623245,1.183731c-0.139496,0.066666 -0.261093,0.124451 -0.359558,0.169632l-0.323761,0.1474c-10.181152,4.634918 -21.720016,9.888336 -27.781113,19.696655l-0.668396,0.663727l0.223053,0.036285c-0.558746,0.899292 -1.815704,1.717804 -2.942902,2.450409c-0.714661,0.463715 -1.388275,0.902252 -1.874649,1.345215c-1.395737,1.272614 -2.563934,2.785248 -3.462112,4.446747c0.185013,-2.245972 0.39389,-4.354889 0.626633,-6.091949c0.167847,-2.244469 0.44014,-4.641571 0.779556,-7.075684l0.071609,0.057022c0.56546,-0.701477 1.153305,-1.610382 1.776184,-2.571884c0.898911,-1.388916 1.827652,-2.824493 2.865326,-3.944519c0.637054,-0.687424 1.292786,-1.370392 1.949982,-2.054855c1.036179,-1.080017 2.097702,-2.189644 3.094345,-3.325974c2.688507,-0.694077 4.836182,-2.561539 6.7556,-4.519348c3.59787,-3.669693 7.494141,-6.662338 12.262451,-9.418701c1.002594,-0.580002 2.008926,-1.179993 3.016006,-1.780762c1.259964,-0.751862 2.563202,-1.528915 3.841064,-2.253372l0.484879,-0.269638c1.832138,-1.009644 5.24202,-2.890411 5.221878,-4.882309l-0.002991,-0.335556l-0.337173,-0.029633c-0.114883,-0.010376 -0.227539,-0.003708 -0.341675,-0.008896l0.001495,-0.018509c-0.12532,-0.012589 -0.256607,0.00148 -0.385666,0.008881c-2.469208,0.000748 -4.830978,1.057053 -7.050262,2.168182c-3.975357,1.990417 -7.666473,4.491943 -11.235992,6.911987c-0.627365,0.425186 -1.25473,0.850372 -1.884354,1.274094c-2.481888,1.668182 -4.483337,3.560074 -6.29982,5.954178c-0.27301,0.360016 -0.572159,0.731873 -0.879501,1.114838c-1.136887,1.414841 -2.405777,3.006729 -2.945877,4.698608c-0.013428,0.014069 -0.027603,0.027405 -0.041031,0.040741l-0.000748,-0.000748c-0.002991,0.003708 -0.006714,0.007416 -0.009705,0.011856c-0.237961,0.234818 -0.470703,0.462234 -0.713165,0.70372l0.005234,0.005173c-0.120102,0.025192 -0.237961,0.056305 -0.360306,0.076309l0.062653,0.377792c-0.906372,1.016296 -1.862701,2.014847 -2.797424,2.98819c-0.660187,0.688171 -1.319641,1.3741 -1.958954,2.065231c-1.081665,1.167419 -2.070831,2.69635 -2.943634,4.045258c-0.352859,0.545181 -0.693024,1.065933 -1.022003,1.543732c1.195068,-8.028305 3.042847,-16.229187 4.226746,-20.541122c0.560974,-1.734085 1.487457,-5.348221 2.559448,-9.532761c0.093262,-0.365189 0.190231,-0.742966 0.287201,-1.119278l0.298401,0.157043c2.786987,-5.221573 6.316223,-9.809799 10.995758,-14.269897c0.024628,-0.015549 0.050751,-0.026657 0.074615,-0.042953l-0.011185,-0.016296c0.657196,-0.625198 1.336792,-1.248169 2.040253,-1.869659c2.443085,-2.157822 5.156219,-4.074886 7.779846,-5.929745c2.848145,-2.013367 5.794037,-4.094879 8.419144,-6.499374l0.240219,-0.216293c1.062271,-0.951126 3.55011,-3.177841 3.560562,-4.821579c0.000732,-0.139999 -0.020889,-0.27037 -0.053711,-0.396301c0.179779,-0.230377 0.353592,-0.471115 0.513977,-0.735565l-0.639313,-0.382233c-0.091003,0.150375 -0.187988,0.288895 -0.286453,0.425934c-0.003723,-0.003693 -0.006699,-0.008148 -0.010437,-0.011856c-1.373352,-1.260757 -4.623596,0.225937 -7.622452,1.84523l-0.449814,0.240738c-5.735123,2.992645 -10.467621,7.291245 -14.892792,13.5284c-3.578476,5.044533 -6.48407,10.479439 -9.089783,15.629913c1.968643,-7.595695 4.308029,-16.210667 6.16777,-20.418156c0.348389,-0.988907 0.945908,-2.584488 1.676971,-4.488968l0.032074,0.051849c0.687057,-0.422226 1.138367,-1.402985 1.57402,-2.351151c0.22081,-0.480011 0.429688,-0.934082 0.636337,-1.230392c0.407288,-0.582977 0.866074,-1.148163 1.309937,-1.694839c0.436401,-0.537796 0.887726,-1.093353 1.2995,-1.676331c0.264069,-0.373337 0.826538,-1.000015 1.477783,-1.72522c1.681458,-1.871887 2.862335,-3.248199 3.136856,-4.151184c0.729568,-0.35556 1.404694,-1.148163 2.117096,-1.990402c0.520706,-0.616302 1.059296,-1.252625 1.560593,-1.614853c0.693771,-0.5 1.454666,-0.954086 2.190948,-1.393356c0.875046,-0.522232 1.779922,-1.062973 2.598267,-1.692612c3.250977,-2.502274 5.597839,-5.612701 7.54187,-8.332016l-0.50354,-0.527405c-1.033173,0.648893 -2.127548,1.218534 -3.186081,1.768171c-1.817215,0.944458 -3.695602,1.921524 -5.320343,3.331179l-0.555023,0.480742c-1.51358,1.311876 -3.079407,2.6682 -4.565399,4.057848c-0.834763,0.780762 -3.485229,4.097855 -2.571411,5.712708c-0.217819,0.75853 -2.067841,2.820053 -3.000336,3.857849c-0.666901,0.742233 -1.243546,1.383728 -1.531494,1.792633c-0.397614,0.562958 -0.840714,1.108887 -1.269653,1.636322c-0.452072,0.557037 -0.919052,1.132599 -1.342026,1.737808c-0.093994,0.134811 -0.184998,0.294067 -0.273773,0.462219c2.005936,-5.112686 4.411743,-11.032043 5.738083,-13.889877c0.020889,-0.069626 0.053711,-0.157776 0.08429,-0.242233l0.018661,0.017044c0.422974,-0.452606 0.825058,-0.918533 1.228638,-1.385208c0.822815,-0.951874 1.673233,-1.937073 2.702682,-2.792648c0.531891,-0.44223 1.120468,-0.885193 1.690399,-1.314087c0.807144,-0.607422 1.633698,-1.23558 2.360291,-1.897812c1.716492,-0.93854 5.558304,-3.211184 5.668716,-4.806765c0.019394,-0.279999 -0.056702,-0.677795 -0.528152,-0.985929c-0.305862,-0.199266 -0.825058,-0.367432 -1.558365,-0.039261c-1.789612,0.800751 -3.859711,4.164518 -4.000702,5.139341l0.067139,0.009628c-0.034317,0.032593 -0.073105,0.064438 -0.10817,0.097046c-0.266312,0.143707 -0.505783,0.268158 -0.682571,0.351852l0.082809,0.17334c-0.559494,0.467421 -1.160751,0.923721 -1.751572,1.368179c-0.575897,0.434067 -1.172684,0.882233 -1.717987,1.336317c-0.95784,0.795563 -1.750824,1.680756 -2.5065,2.552628c1.227875,-2.529663 3.121185,-5.991957 3.816437,-7.106047c1.544922,0.059998 3.221893,-2.034103 4.465454,-3.596376c0.249161,-0.313324 0.474442,-0.596298 0.666885,-0.818527l0.070892,-0.081482l0.015656,-0.106659c0.161118,-1.123734 -1.096588,-2.040787 -1.879883,-2.496353l0.038803,-0.025925c0.01268,-0.008148 0.018646,-0.020737 0.030579,-0.029617l0.108917,0.042953c0.034317,-0.08519 0.077576,-0.172592 0.114883,-0.258514c0.261841,-0.302231 0.38118,-0.671875 0.42894,-0.95929c0.043259,-0.095551 0.08728,-0.190369 0.128296,-0.285919l2.193192,-1.694107l-0.458023,-0.584457l-0.695251,0.537048l-0.499069,0.165176c-0.252136,0.08371 -0.432663,0.167419 -0.569946,0.242966l-0.056671,-0.088898l-0.084305,-0.117035c0.005981,-0.015549 0.007462,-0.026657 0.021637,-0.048141l0.206635,-0.308151l-1.538208,-1.018538c-0.081314,-0.315568 -0.186493,-0.625198 -0.323761,-0.896317l-0.551285,-1.094101l-0.658691,5.234923c-0.40657,-0.070374 -0.762405,0 -1.060791,0.205185c-0.561722,0.386673 -0.877274,1.20668 -0.994385,2.652634c-0.049988,-0.032593 -0.102951,-0.061478 -0.158905,-0.08592c-0.502045,-0.217791 -1.149551,-0.041491 -1.965668,0.537781c-0.661667,0.43779 -0.948883,1.027435 -1.096603,1.616333l0.005249,-0.034805l-0.020157,-0.074097c-0.005203,-0.019258 -0.509506,-1.895569 -0.026093,-3.60524c1.226395,-1.340776 1.11673,-2.371155 0.938431,-2.870422c-0.237228,-0.666687 -0.856384,-1.162994 -1.578491,-1.263733c-0.586349,-0.084442 -1.126434,0.117783 -1.454651,0.537796c-1.450195,1.126677 -2.270782,2.531891 -2.440857,4.177841c-0.226044,2.191895 0.80864,4.33046 1.603836,5.308243c0.073868,0.757797 0.470734,5.355667 -0.188705,10.66316c-0.924301,1.724472 -1.867203,3.627487 -2.810135,5.636398c0.015671,-0.561493 0.014191,-1.137054 0.006729,-1.70076l-0.004486,-0.509644c-0.002243,-1.098541 0.017914,-2.205978 0.042526,-3.31488c0.19841,-1.325943 0.390884,-2.686722 0.473694,-4.042297c0.234238,-3.826735 0.232727,-7.472733 0.230515,-11.333542l0,-1.25705l0.000732,-0.203705c0.009705,-1.999298 -0.094727,-4.400833 -0.994385,-5.229734c-0.24765,-0.228149 -0.549057,-0.335556 -0.873535,-0.309631l-0.322281,0.025925l-0.020889,0.320007c-0.212585,3.288956 0.093262,6.629013 0.390167,9.859436c0.124573,1.358551 0.253616,2.763763 0.340149,4.131195c0.153687,2.43782 0.097733,4.962309 0.044022,7.403826c-0.004471,0.191132 -0.008957,0.382233 -0.01268,0.572613c-0.020157,0.135559 -0.041046,0.271103 -0.061157,0.40593c-0.361801,2.405964 -0.737061,4.893417 -0.540863,7.465321l0.261108,-0.01926c-3.955948,8.746078 -7.807449,18.984787 -10.279633,25.84935c-0.170837,-1.8741 -0.421478,-3.751907 -0.667648,-5.583054c-0.470734,-3.500809 -0.957108,-7.120132 -0.863113,-10.669815c0.016418,-0.625946 0.03656,-1.241516 0.056702,-1.84819c0.154419,-4.74379 0.287949,-8.840912 -1.242813,-13.535065c-0.71167,-2.183731 -1.26741,-4.508221 -1.801529,-7.537916c-0.055206,-0.313339 -0.108185,-0.693344 -0.166367,-1.113342c-0.30809,-2.220047 -0.730301,-5.260834 -2.368484,-6.336411c-0.609467,-0.400743 -1.161499,-0.478531 -1.638947,-0.231857c-1.048828,0.539261 -1.221909,2.434845 -1.246521,3.22525c-0.086533,2.697815 0.898926,5.2749 1.8508,7.766798l0.137253,0.359253c0.40358,1.058548 0.781036,2.114853 1.157013,3.166c1.280853,3.583771 2.491577,6.968277 4.58107,10.206848l0.081314,-0.051865c0,0.071121 0,0.142975 0,0.214081c-0.154419,-0.011108 -0.242447,-0.120743 -0.252884,-0.147415c0.053696,0.192612 0.157394,0.278534 0.252884,0.314835c-0.006714,1.194092 -0.046249,2.411896 -0.087296,3.676361c-0.020126,0.608154 -0.040253,1.225204 -0.056686,1.852615c-0.095474,3.608963 0.394638,7.257919 0.869827,10.787613c0.317764,2.362259 0.646027,4.805267 0.792221,7.200867c-0.869797,2.441528 -1.511368,4.301559 -1.847031,5.283798c-1.11824,3.701553 -3.49942,14.493591 -5.453156,24.154526c-0.858612,-2.37561 -2.034286,-4.580841 -3.271103,-6.885315c-0.386429,-0.720016 -0.775101,-1.444473 -1.154785,-2.177826c-0.666168,-1.28595 -1.43602,-2.717834 -2.318535,-4.045258c-0.021614,-0.045929 -0.044006,-0.09259 -0.065636,-0.138519c-0.951874,-1.982254 -1.851524,-3.855621 -2.302841,-6.054916c-0.869064,-4.236389 -3.459114,-7.897186 -5.963387,-11.436508c-0.819084,-1.157791 -1.665764,-2.354858 -2.418465,-3.530441c-0.066399,-0.104431 -6.835434,-10.438702 -10.307228,-10.516476c-0.30735,-0.00296 -0.588585,0.074814 -0.839233,0.217789l-0.114876,-0.125198c-0.174561,0.157776 -0.29467,0.344452 -0.370766,0.553345c-0.017899,0.022964 -0.039536,0.039261 -0.056679,0.063705l0.029076,0.020004c-0.035797,0.122971 -0.061913,0.250366 -0.065636,0.388901c-0.045502,1.648911 2.387131,4.099335 4.163322,5.888988c0.550537,0.554825 1.025726,1.034088 1.276375,1.342987c2.526642,3.117096 4.665367,6.325287 6.424393,9.052002c2.118599,3.286743 3.994743,6.520126 5.706764,9.525375c0.544563,0.957047 1.32785,1.745956 2.084274,2.509674c0.528152,0.53334 1.074966,1.084457 1.522552,1.678543c0.224548,0.297775 0.436394,0.61409 0.648254,0.930374c0.311073,0.648911 0.625137,1.305954 0.926506,1.987457l0.230515,-0.100739c0.409538,0.724457 0.795212,1.447433 1.147324,2.127441c0.381927,0.737045 0.772079,1.464462 1.160004,2.187439c1.433777,2.672653 2.785492,5.208984 3.632172,8.011261c-0.845947,4.229706 -1.591156,8.154953 -2.086502,11.050568c-0.414764,1.573364 -0.803421,3.93045 -1.160736,6.845322c-0.567719,-1.570404 -2.116364,-3.114883 -3.424065,-4.415649c-0.619919,-0.61705 -1.206268,-1.200027 -1.59417,-1.691879c-3.141327,-3.984528 -5.728394,-6.005295 -7.714203,-6.026031c-0.064896,-2.0793 -7.82534,-5.385277 -7.904427,-5.418625c-2.166328,-0.906677 -4.369949,-1.328171 -6.935387,-1.328171c-2.012657,0 -4.023834,0.255554 -6.152855,0.525192l-1.262955,0.158524c-0.375221,0.045929 -1.065262,0.051117 -1.864204,0.057785c-2.726563,0.021469 -6.848114,0.054825 -8.326645,1.585953c-0.396126,0.410378 -0.58783,0.902237 -0.568436,1.461517c0.046997,1.43779 1.958199,2.107437 6.011116,2.107437zm12.422089,38.594757c-0.033562,-0.037781 -0.076088,-0.068146 -0.115623,-0.100006c0.020889,-0.039246 0.044754,-0.077026 0.063408,-0.117035c0.005974,0.014069 0.005974,0.0289 0.01268,0.042969l0.680336,-0.302979c-0.12085,-0.268127 -0.071609,-0.548889 0.146217,-0.834076c0.264069,-0.34668 0.717628,-0.602234 1.166718,-0.711121c0.061913,-0.010376 0.123077,-0.02298 0.185738,-0.041473c0.144722,-0.020752 0.288696,-0.030396 0.419991,-0.011871c0.117867,0.017029 0.215591,0.055542 0.304359,0.103699c-0.029083,0.05484 -0.061913,0.120026 -0.089516,0.167419l0.440872,0.250366c0.12384,0.343719 -0.124573,0.843719 -0.668396,1.338562c-0.793724,0.722961 -1.726204,1.010376 -1.99102,0.885925c-0.019402,-0.009613 -0.079826,-0.037781 -0.068634,-0.233337l-0.278999,-0.015533c-0.035805,-0.194092 -0.129051,-0.334076 -0.20813,-0.421509zm3.209961,-2.622253c-0.016411,-0.008881 -0.030586,-0.019257 -0.046982,-0.027405c0.044006,-0.037781 0.085777,-0.080017 0.129044,-0.120026c-0.027603,0.049652 -0.055206,0.098541 -0.082062,0.14743zm1.929855,-1.044464c0.281982,-0.040009 0.530396,0.041473 0.734795,0.245911c0.302124,0.302246 0.457283,0.822235 0.385674,1.294098c-0.140244,0.925964 -1.072723,1.980804 -2.167824,2.452637c-0.298393,0.128174 -0.78627,0.279266 -1.280106,0.2052c0.082054,-0.065918 0.162621,-0.133331 0.237968,-0.201477c0.789993,-0.720032 1.10405,-1.502991 0.862358,-2.149689c-0.0373,-0.099243 -0.091011,-0.185181 -0.143234,-0.271118c0.347626,-0.656281 0.831024,-1.497803 1.370369,-1.575562zm-1.983559,-2.027466c0.446091,0.14743 0.630348,0.40744 0.579628,0.818542c-0.099968,0.81189 -1.005585,1.794861 -1.688164,2.069672c-0.412529,0.055542 -0.828781,0.216309 -1.19133,0.450378c-0.002243,-0.077789 -0.005966,-0.154816 -0.020889,-0.231842c0.066391,-0.087433 0.123093,-0.188171 0.167847,-0.304474c0.068626,-0.059998 0.123833,-0.180725 0.12458,-0.424438c0.038048,-0.178528 0.071617,-0.365936 0.104439,-0.568176c0.114876,-0.722229 0.24617,-1.540741 0.721367,-1.828156c0.008202,-0.005188 0.018639,-0.005951 0.027596,-0.011108c0,0.008118 -0.00074,0.017761 -0.00074,0.025909l0.745979,0.001465c0,-0.032562 0.003731,-0.070343 0.005219,-0.104431c0.131294,0.023712 0.27079,0.056305 0.424469,0.106659zm-0.960831,-1.822235c-0.055954,0.334076 -0.111153,0.671875 -0.152924,0.996307c-0.17083,0.036316 -0.333458,0.088898 -0.476685,0.175568c-0.437141,0.263702 -0.677353,0.715576 -0.829529,1.20816c-0.073112,-0.2948 -0.153679,-0.537781 -0.302124,-0.723724l0.399841,-0.157013c-0.248405,-0.624481 -0.055199,-1.439301 0.131294,-2.226715c0.03656,-0.154083 0.071617,-0.305206 0.103691,-0.454102c0.49086,-0.025177 0.926514,-0.080719 1.305473,-0.167389c-0.020889,0.377045 -0.098473,0.863708 -0.179039,1.348907zm-0.146957,-4.397858c0.186501,-0.08963 0.826546,-0.309631 1.245041,0.550385c0.23349,0.480011 0.267067,0.862976 0.099968,1.137054c-0.259605,0.426666 -1.021996,0.700012 -2.164093,0.780762c0,-0.007416 0.00074,-0.015564 0.00074,-0.023712l0.002243,-0.10965l-0.037308,0c0,-0.00296 0,-0.005157 0,-0.008148c0.485641,-0.472595 0.713905,-1.272614 0.682579,-1.994843c-0.002983,-0.072601 -0.014175,-0.139252 -0.022377,-0.209625c0.061165,-0.047424 0.124573,-0.08963 0.193207,-0.122223zm-2.411758,-0.594818c0.021629,-0.077057 0.073105,-0.261505 0.439377,-0.261505c0.08654,0 0.190979,0.010376 0.316299,0.034088c0.392387,0.076294 0.575897,0.40741 0.663177,0.710358c-0.301376,0.411865 -0.414764,0.952637 -0.159637,1.487457l0.063408,-0.029633c-0.014175,0.033325 -0.027603,0.066681 -0.043266,0.097778l-0.199181,0.117767c-0.599022,-0.307404 -1.245789,-1.563721 -1.080177,-2.156311zm-1.506134,7.617889c0.193947,-0.429626 0.578133,-0.660004 1.129417,-0.634064c0.616173,0.009613 0.623634,0.041473 0.754181,0.575562c0.031334,0.128876 0.067139,0.273315 0.114883,0.432587c0.061913,0.2052 0.202164,0.857056 0.24543,1.160034c-0.039543,0.164429 -0.084297,0.301483 -0.13652,0.348145l0.0746,0.082245l-0.314056,0.225159c0.116371,0.160767 0.152184,0.383728 0.093246,0.581512c-0.003731,0.012573 -0.011185,0.02887 -0.016411,0.042969c-0.089516,-0.307434 -0.226784,-0.592621 -0.411034,-0.828186c-0.339424,-0.432587 -0.889961,-0.754089 -1.568802,-0.678528c-0.13353,-0.445923 -0.13279,-0.934082 0.035065,-1.307434zm-1.162247,3.997864c-0.144722,-0.242981 -0.584846,-0.982971 0.558739,-1.708923c0.055954,-0.035553 0.108917,-0.048126 0.163376,-0.077026c0.085037,0.136292 0.176796,0.266663 0.284966,0.382965l0.548294,-0.502228c-0.005219,-0.005188 -0.008949,-0.012604 -0.014175,-0.017792c0.211121,0.051849 0.405067,0.162231 0.56546,0.366669c0.411034,0.524475 0.510994,1.417816 0.116371,2.072662c-0.340912,-0.051117 -0.712418,-0.021515 -1.039154,0.071838c-0.593056,0.014801 -0.859367,-0.042236 -1.183876,-0.588165zm2.411758,2.017822c-0.482658,0.011841 -1.209236,0.027405 -1.433029,-0.195557c-0.032074,-0.032593 -0.064911,-0.08075 -0.061913,-0.194092c0.002235,-0.098511 0.152168,-0.218506 0.372246,-0.299255c0.005966,-0.002228 0.01268,-0.002228 0.018639,-0.004456c0.053719,-0.001465 0.106682,-0.00296 0.16114,-0.004425c0.118599,-0.004456 0.244682,-0.008911 0.378212,-0.011139l-0.000755,-0.072571c0.267815,-0.005188 0.497574,0.043701 0.601265,0.134064l0.022385,0.023712c0.002235,-0.002228 0.003731,-0.005188 0.005966,-0.007416l0.000748,0c0.051468,0.057037 0.039536,0.162231 -0.036552,0.311127l0.489365,0.243713c0.024605,0.036285 0.052963,0.059998 0.079819,0.08963c-0.170082,-0.014832 -0.361053,-0.019257 -0.597534,-0.013336zm68.255096,-47.556427l0.323761,-0.1474c0.101456,-0.046661 0.227524,-0.106674 0.372238,-0.175568c0.81163,-0.388153 2.32225,-1.110382 3.300232,-1.110382c0.533386,0 0.751205,0.191864 0.778809,0.683716c0.048492,0.882233 -0.857132,2.410416 -5.450897,4.676376c-1.653839,0.816315 -3.353943,1.601517 -4.99733,2.361526c-3.047333,1.408173 -6.198364,2.864502 -9.189011,4.57489c-2.184235,1.248917 -3.588913,2.923035 -5.075653,4.695648c-0.35881,0.428162 -0.723618,0.862976 -1.10704,1.300018c-1.465103,1.672638 -2.953339,2.386719 -4.975693,2.386719c-0.399094,0 -0.822083,-0.027405 -1.280838,-0.08371c5.984238,-9.456482 17.30304,-14.609909 27.301422,-19.161835zm0.345398,-15.931396l-0.493103,0.274078c-1.285324,0.728165 -2.591537,1.508179 -3.855225,2.26152c-1.004105,0.599274 -2.007446,1.1978 -3.007065,1.775604c-4.828735,2.791885 -8.775726,5.823807 -12.422089,9.542389c-1.546417,1.577057 -3.237549,3.098557 -5.22934,3.9319c3.711273,-3.654114 6.949585,-6.54454 10.948792,-9.249786c2.006683,-1.357071 3.988007,-2.783752 5.903702,-4.163773c2.292389,-1.651138 4.662384,-3.358582 7.072647,-4.942307c0.384918,-0.252609 0.831024,-0.592606 1.303223,-0.952621c1.430801,-1.090378 3.203995,-2.430405 4.522141,-2.364487c0.015686,0 0.031342,0 0.04776,0.000748c-0.404327,1.467438 -3.330063,3.080795 -4.791443,3.886734zm-22.248917,13.265427c0.311829,-0.388153 0.615448,-0.76593 0.892197,-1.131119c1.764984,-2.326706 3.710526,-4.165268 6.122269,-5.786041c0.630371,-0.423706 1.259232,-0.849655 1.887344,-1.275574c3.549377,-2.405975 7.219604,-4.893433 11.150925,-6.86235c1.196564,-0.598526 2.434891,-1.178543 3.697845,-1.579285c-0.604248,0.401489 -1.192825,0.845932 -1.733658,1.258545c-0.461761,0.351852 -0.898178,0.684448 -1.260712,0.922974c-2.423706,1.591873 -4.8004,3.304504 -7.09877,4.960083c-1.911957,1.377075 -3.888062,2.800797 -5.88504,4.151199c-3.592651,2.429657 -6.571365,5.003799 -9.812653,8.127548c0.584106,-0.974106 1.339783,-1.914856 2.040253,-2.78598zm23.101578,-44.338577l-0.246185,0.221497c-2.591537,2.37262 -5.517273,4.440811 -8.346039,6.440842c-2.64003,1.865967 -5.369583,3.795639 -7.842514,5.980118c-0.703445,0.62149 -1.37558,1.245209 -2.033539,1.869659c-0.431183,0.26149 -0.93396,0.325928 -1.3741,0.170364c0,-0.033325 0.008209,-0.072586 0.008942,-0.106659c0.677368,-0.467422 1.144348,-1.102234 1.586716,-1.72818c0.226776,-0.32074 0.461029,-0.651871 0.719116,-0.947418c0.982468,-1.126694 2.074585,-2.043747 3.237564,-3.020065c0.618423,-0.519257 1.256241,-1.0215 1.896286,-1.525208c0.795975,-0.625946 1.61879,-1.274094 2.401321,-1.954117c2.314041,-2.012619 4.921234,-3.655609 7.443405,-5.24379c0.830276,-0.52298 1.661301,-1.046692 2.486359,-1.58522l0.585602,-0.377792c0.95932,-0.616302 1.885086,-1.210373 2.694489,-1.984467c-0.46402,1.324463 -2.49382,3.142273 -3.217422,3.790436zm-18.770401,10.669815c4.354294,-6.137878 9.00325,-10.363144 14.629456,-13.2995l0.458771,-0.245178c1.12793,-0.60965 4.134979,-2.233383 5.838791,-2.233383c0.386429,0 0.705704,0.08371 0.920547,0.280746c0.021637,0.019257 0.029099,0.044449 0.047012,0.064453c-0.836258,0.940018 -1.863464,1.600021 -3.007813,2.334854l-0.590073,0.380737c-0.822067,0.536316 -1.649368,1.0578 -2.476654,1.578552c-2.545288,1.603729 -5.177124,3.262283 -7.535156,5.312698c-0.767624,0.667416 -1.583725,1.309647 -2.372971,1.930405c-0.646774,0.508896 -1.290558,1.016312 -1.921661,1.545212c-1.179398,0.990387 -2.292389,1.925964 -3.312897,3.094864c-0.28273,0.324448 -0.528152,0.67186 -0.765381,1.007431c-0.269302,0.380737 -0.534866,0.742966 -0.836243,1.061493c0.019394,-0.099258 0.035049,-0.198517 0.055206,-0.297028c0.111893,-0.553345 0.210373,-1.072617 0.160385,-1.49263c0.235718,-0.340744 0.467728,-0.684448 0.708679,-1.023727zm-1.59491,2.34819c-0.00148,0.008148 -0.002975,0.015549 -0.004471,0.023712c-0.124588,0.614822 -0.265564,1.311127 -0.203659,1.925217l0.020142,0.197784l0.177536,0.09259c0.278259,0.145187 0.581131,0.214813 0.888474,0.234818c-2.836975,2.806717 -5.240524,5.676407 -7.306152,8.73201c1.918671,-3.72081 4.020844,-7.538651 6.428131,-11.206131zm11.595551,-30.202026c1.47554,-1.379272 3.0354,-2.731155 4.543777,-4.037842l0.555756,-0.481491c1.55835,-1.351883 3.31514,-2.265228 5.175613,-3.232651c0.559494,-0.291122 1.12941,-0.587418 1.697113,-0.898544c-1.705322,2.294861 -3.73439,4.732681 -6.353531,6.748276c-0.783279,0.602982 -1.669495,1.131866 -2.525894,1.64299c-0.74971,0.447418 -1.524048,0.910385 -2.244659,1.428177c-0.575897,0.415558 -1.144333,1.087433 -1.694122,1.737808c-0.563965,0.667419 -1.145081,1.354095 -1.680695,1.698547c-0.25589,-1.144455 1.553131,-3.694885 2.526642,-4.60527zm7.210663,-12.000946c0.202148,-0.091125 0.364044,-0.120743 0.489365,-0.120743c0.193954,0 0.303604,0.071854 0.352844,0.103699c0.182022,0.118515 0.200668,0.221481 0.193954,0.315567c-0.063416,0.914093 -2.537079,2.613373 -4.403534,3.717102c0.543823,-1.159286 2.070847,-3.435623 3.367371,-4.015625zm-13.410522,2.328186l0.372986,-0.037781c-0.114883,0.477051 -0.215591,0.96817 -0.225281,1.478546l0.745987,0.014069c0.008194,-0.432602 0.093246,-0.858538 0.199173,-1.29631c0.055939,0.117783 0.127563,0.238525 0.223785,0.364441c-0.128296,0.390381 -0.278259,0.785202 -0.433411,1.191133c-0.279739,0.728165 -0.567688,1.481522 -0.725098,2.240049c-0.005966,-1.863739 -0.100708,-3.27858 -0.158142,-3.954147zm1.211456,-2.596344c0.043274,-0.131851 0.081314,-0.254822 0.121597,-0.380753c0.044022,0.259262 0.088043,0.451859 0.11264,0.554092c-0.057434,0.3526 -0.159622,0.642227 -0.259598,0.922241l-0.292404,-0.04001c0.094727,-0.356308 0.206619,-0.714827 0.317764,-1.055573l0,0.000002zm0.115631,5.248978c0.082809,-0.226669 0.167862,-0.452591 0.253632,-0.6763c0.193222,-0.503723 0.384933,-1.017059 0.539352,-1.536331c0.068634,-0.062223 0.131287,-0.128141 0.185013,-0.199265c-0.167099,0.75705 -0.57515,1.594101 -0.977997,2.411896zm1.670273,-2.103745l0.166351,-0.024445l0.008194,0.342239l0.300629,0.008881c-0.061905,0.136307 -0.114868,0.276306 -0.16037,0.418533l0.016403,0.009626c-0.067886,0.120745 -0.135025,0.241488 -0.199173,0.364456c0,-0.000748 0,-0.001493 0,-0.002974l-0.499802,-0.044436c0.151428,-0.360016 0.278992,-0.718534 0.367767,-1.071884l0,0.000002zm2.723572,-0.133331c0.005219,0.003708 0.011185,0.00444 0.015656,0.008148c-0.624374,0.974838 -2.660172,4.665268 -3.9552,7.342361c0.071625,-0.248901 0.141006,-0.501495 0.217087,-0.741501c0.156662,-0.49704 0.35733,-1.000763 0.568436,-1.532623c0.352844,-0.886673 0.704208,-1.800766 0.869827,-2.719299c0.19693,-0.485199 0.446838,-0.957062 0.723602,-1.415588c0.01416,-0.023697 0.029083,-0.046661 0.042511,-0.069626c0.231247,-0.379272 0.477432,-0.749649 0.728073,-1.10965l-0.27153,-0.185928l0.073105,-0.286667l-0.008209,0.00148c0.305862,-0.317795 0.424469,-0.913361 0.413284,-1.514847c0.015671,1.055573 0.145462,1.90744 0.583359,2.22374zm0.948151,-1.757813c-0.409546,-0.548889 -0.217834,-1.794846 0.135773,-2.643005c-0.09549,0.340744 -0.161133,0.689636 -0.196198,1.022247c-0.054474,0.511856 -0.04776,1.105194 0.060425,1.620758zm0.03804,0.148895c0.111145,0.429642 0.298386,0.79335 0.599014,0.978546c0.015671,0.009628 0.041031,0.017775 0.058945,0.027405c-0.379715,0.250366 -0.743011,0.388884 -1.065277,0.35704l-0.140228,-0.3526c-0.09549,-0.062225 -0.19397,-0.308151 -0.243942,-0.935577c0.081314,0.161484 0.185745,0.307419 0.317795,0.430389l0.473694,-0.505203zm4.081268,-2.691896c-0.179047,0.211853 -0.38269,0.468157 -0.605743,0.748156c-0.567688,0.713346 -1.341278,1.682999 -2.114853,2.391159l-0.099213,-0.156296c-0.178284,0.113325 -0.24469,0.072584 -0.267807,0.058516c-0.255127,-0.157042 -0.461029,-0.982239 -0.349869,-2.042267c0.103699,-0.990387 0.511749,-2.250412 1.31665,-2.540039l-0.185745,-0.508896l0.275269,0.125931c0.54158,0.249634 2.02533,1.116318 2.031311,1.923737zm-1.701584,-3.116364l0.219315,0.127411c-0.001495,0.002975 -0.002991,0.006668 -0.004486,0.009628c-0.01416,0.011856 -0.021622,0.031113 -0.036545,0.040741l-0.272293,0.180756c0.028366,-0.111115 0.06044,-0.231125 0.094009,-0.358536zm0.484879,-2.336334c-0.031326,0.151123 -0.015671,0.282974 0.011185,0.382965c0.026855,0.098526 0.072357,0.184448 0.124588,0.263718c-0.090271,0.190371 -0.184998,0.401489 -0.29541,0.660006c-0.041779,0.097778 -0.08429,0.196302 -0.126068,0.292603c0.254379,-0.974091 0.297638,-1.311127 0.167099,-1.531876l-0.166367,-0.124451l0,-0.131851l0.284973,0.188889l0,-0.000002zm-2.730286,2.797091c0.071609,-0.048889 0.287201,-0.197039 0.822083,0.00148l0.442368,0.164442l0.372986,-2.962263c0.059662,0.543715 0.061905,0.960752 0.061905,0.968903l0.135025,0c-0.073105,0.307419 -0.170074,0.663712 -0.241699,0.927429c-0.113388,0.417038 -0.218567,0.808151 -0.260345,1.045197l0.352097,0.061478l-0.372238,0.246674l0.09848,0.045198c-0.531891,0.255552 -0.922775,0.755568 -1.190598,1.353348l-0.488617,-0.394073c-0.135025,0.165192 -0.278244,0.417038 -0.409546,0.714828c0.091003,-1.195587 0.317795,-1.925232 0.678101,-2.172638l0,-0.000002zm-3.119705,3.104506c0.767624,-0.543715 1.109283,-0.52594 1.242813,-0.468155c0.081299,0.035553 0.151428,0.123703 0.213348,0.241486c-0.002991,0.090364 -0.007462,0.190371 -0.011932,0.300735c-0.021637,0.523712 -0.035065,1.028915 -0.029846,1.499283c-0.019394,-0.613342 -0.170837,-1.222244 -0.394623,-1.534088l-0.607239,0.429626c0.287949,0.401489 0.36853,1.850403 0.050735,2.16597c-0.053711,0.052597 -0.196945,-0.03334 -0.276764,-0.090378l-0.034317,0.047409l-0.678085,-0.252594c-0.159653,0.262222 -0.205902,0.483719 -0.220062,0.691864l-0.358826,0c0.090271,-0.310379 0.132034,-0.644455 0.170074,-0.974823c0.091766,-0.799286 0.179047,-1.556335 0.934723,-2.056335zm-1.616547,1.504471c-0.023865,0.160736 -0.042526,0.317781 -0.059677,0.468887c-0.029831,0.26001 -0.059677,0.484467 -0.101456,0.680023l-0.199921,-0.025192c0.033569,-0.121475 0.076843,-0.251114 0.13353,-0.40889c0.076096,-0.214828 0.159653,-0.447418 0.227524,-0.714828zm-0.689285,-7.612732c0.449081,0.062958 0.833267,0.368149 0.979477,0.777054c0.186493,0.524446 -0.016403,1.180758 -0.572159,1.874102l-0.147705,-0.331118c-0.387177,0.170382 -0.703476,0.17853 -0.950378,0.064453c0.044754,-0.104445 0.088745,-0.213346 0.134262,-0.309647l-0.588577,-0.273331c-0.014908,-0.061478 -0.023865,-0.125183 -0.029846,-0.190384c0.004486,-0.00444 0.006729,-0.011108 0.0112,-0.015549l-0.01416,-0.011856c-0.029114,-0.454819 0.174545,-0.956314 0.637802,-1.186676l-0.115631,-0.228165c0.227524,-0.18889 0.522934,-0.186661 0.655716,-0.168884zm-0.966782,3.076355c0.011948,0.005175 0.022369,0.01259 0.034317,0.017029c-0.083542,0.471115 -0.296158,1.068911 -0.5177,1.693359c-0.13652,0.38446 -0.279022,0.78743 -0.403595,1.193359c0.22081,-0.829636 0.530396,-1.929657 0.886978,-2.903748zm-0.95636,-1.682999c-0.38269,0.576309 -0.593796,1.240768 -0.772842,1.841507c-0.111893,0.376312 -0.221542,0.725952 -0.359558,1.017807c0.004486,-0.065186 0,-0.130371 0.006714,-0.195557c0.102203,-0.988174 0.484146,-1.877823 1.125687,-2.663757zm-1.135376,2.96524l0.630356,0.32074c0.189468,-0.366669 0.314804,-0.788162 0.447601,-1.234085c0.097717,-0.326675 0.19693,-0.659271 0.322998,-0.974106c0.024612,0.041489 0.048492,0.08223 0.077576,0.122238c-0.515472,1.347427 -0.942902,2.990417 -1.168198,3.862289l0.716141,0.182968c-0.104446,0.436295 -0.169342,0.865189 -0.167099,1.271132c-0.499069,-0.928907 -0.921295,-2.213379 -0.859375,-3.551178l0,0.000002zm0.928757,3.683762l0.675095,-0.030365c-0.039536,-0.872604 0.358078,-1.99115 0.708694,-2.978577c0.234985,-0.662231 0.458771,-1.29631 0.552032,-1.841507c0.076828,-0.006668 0.152176,-0.010376 0.23349,-0.027405c-0.170105,0.584442 -0.234985,1.176315 -0.24617,1.724472l-0.311829,0.045929c0.057434,0.394821 -0.162628,1.071121 -0.396118,1.786697c-0.254379,0.779264 -0.519943,1.64299 -0.537109,2.437073c-0.002991,-0.031113 -0.005234,-0.055557 -0.005966,-0.05777l-0.01268,-0.113342l-0.0746,-0.08667c-0.184998,-0.216293 -0.388657,-0.509628 -0.584839,-0.858536zm-3.800781,-9.4935c0.765381,0.728165 0.75119,3.696365 0.746719,4.674896l-0.000748,0.207415l0,1.257065c0.001495,2.223007 0.002243,4.374893 -0.041779,6.529007c-0.082062,-1.133362 -0.187241,-2.277817 -0.290192,-3.391922c-0.278229,-3.047455 -0.56694,-6.193436 -0.414001,-9.27646l0,-0.000001zm-16.668213,22.565599c-0.37674,-1.05484 -0.756439,-2.116333 -1.162262,-3.180054l-0.137253,-0.359268c-0.926498,-2.424503 -1.885101,-4.9312 -1.803024,-7.480135c0.035034,-1.091873 0.310303,-2.316345 0.844437,-2.591171c0.070114,-0.036283 0.148453,-0.054062 0.234253,-0.054062c0.182755,0 0.400574,0.082214 0.650482,0.246658c1.356949,0.890396 1.768723,3.857117 2.041016,5.819366c0.059677,0.430389 0.113388,0.818542 0.170074,1.140028c0.540833,3.065231 1.10405,5.420837 1.82692,7.63866c0.901138,2.763748 1.209229,5.33194 1.278595,7.963837c-1.70903,-2.896347 -2.797424,-5.939362 -3.943237,-9.14386zm-19.948311,29.870163c0.096977,0.151855 0.204399,0.303696 0.304359,0.455566c-0.135025,-0.142227 -0.27005,-0.297058 -0.40432,-0.431854c-1.538216,-1.540787 -3.312912,-2.95488 -5.028664,-4.322311l-0.0746,-0.059265c-0.244682,-0.194824 -0.516968,-0.405182 -0.805656,-0.628159c-1.406929,-1.087418 -3.334541,-2.577072 -4.043221,-3.885239l-0.041031,0.022217c-0.167099,-0.343719 -0.264824,-0.659271 -0.257362,-0.925949c0.001488,-0.05777 0.020142,-0.102966 0.032074,-0.153336c0.169334,-0.166676 0.369263,-0.24297 0.623642,-0.24445c2.416229,0.054077 7.669434,7.008289 9.694778,10.172779zm7.12487,15.64917c-1.717247,-3.01413 -3.599358,-6.258621 -5.728394,-9.560165c-1.76947,-2.743759 -3.921623,-5.972702 -6.470642,-9.117203c-0.218575,-0.269638 -0.575897,-0.639282 -0.996635,-1.065201c0.134277,0.104431 0.279747,0.216293 0.401337,0.312576l0.0746,0.05928c1.700089,1.354828 3.457626,2.7556 4.966003,4.266006c2.631073,2.63559 5.326302,6.759369 7.393425,11.313538l0.202904,0.44519c0.774338,1.6978 1.696365,3.737839 2.072334,5.646759c-0.73703,-0.742233 -1.430046,-1.449646 -1.914932,-2.300781zm-37.184952,21.552979c1.261452,-1.305939 5.350922,-1.338547 7.794762,-1.357803c0.855637,-0.006653 1.531487,-0.011841 1.949249,-0.062958l1.266678,-0.158524c2.104416,-0.266678 4.092453,-0.519272 6.058121,-0.519272c2.461739,0 4.573608,0.403717 6.645203,1.270401c2.568413,1.074097 7.527702,3.731186 7.454597,4.768234c-0.009697,0.135559 -0.244682,0.277039 -0.62812,0.377777c-0.204391,0.054077 -0.432678,0.08075 -0.678093,0.08075c-1.282341,0 -2.863091,-0.718536 -4.258064,-1.352615c-0.638565,-0.290375 -1.242058,-0.564468 -1.763496,-0.743713c-1.807518,-0.622238 -3.673218,-0.888184 -6.237915,-0.888184c-0.267799,0 -0.537094,0.002975 -0.807899,0.007416c-0.506508,0.008896 -1.523293,0.116302 -2.8116,0.252594c-2.566917,0.271149 -6.082733,0.642242 -9.076355,0.642242c-4.542282,0 -5.250221,-0.872604 -5.268135,-1.392624c-0.012672,-0.35704 0.105194,-0.659271 0.361069,-0.923721z" fill="black"/>
   <path id="svg_15" d="m95.032318,158.93866c-0.295403,0.343719 -0.601997,0.698547 -0.807899,1.075592l0.655724,0.354828c0.169334,-0.308899 0.449081,-0.633362 0.719872,-0.948181c0.419243,-0.486664 0.851906,-0.989655 0.992897,-1.545959l-0.723602,-0.179993c-0.098465,0.386658 -0.474442,0.822235 -0.83699,1.243713z"/>
   <path id="svg_16" d="m93.315071,164.051361c-0.800438,1.123718 -0.721367,3.111908 -0.657211,4.708954c0.015656,0.388916 0.030586,0.749664 0.029091,1.059296l0.745987,0.002197c0.00074,-0.318512 -0.014175,-0.689636 -0.029839,-1.090363c-0.055946,-1.406708 -0.133537,-3.334137 0.520691,-4.252686l-0.608727,-0.427399l0.000008,0z"/>
  </g>
 </g>
</svg>