<?xml version="1.0" encoding="utf-8"?>
<!-- Generator: Adobe Illustrator 16.0.0, SVG Export Plug-In . SVG Version: 6.00 Build 0)  -->
<!DOCTYPE svg PUBLIC "-//W3C//DTD SVG 1.1//EN" "http://www.w3.org/Graphics/SVG/1.1/DTD/svg11.dtd">
<svg version="1.1" xmlns="http://www.w3.org/2000/svg" xmlns:xlink="http://www.w3.org/1999/xlink" x="0px" y="0px" width="226.5px"
	 height="620px" viewBox="0 0 226.5 620" enable-background="new 0 0 226.5 620" xml:space="preserve">
<g id="Layer_1">
	<g id="Seeds_Stage_4_w_x2F__Siliques">
		<path fill="none" stroke="#000000" stroke-width="0.5" stroke-miterlimit="10" d="M144.5,65c0,0-1.5-2.75,3-6.875
			c4-3.625,8.75-8.25,13.125-10.25c4.25-2.125,4.75-2.5,4.75-2.5C163.5,48,160,53.25,157.25,55.375c-3.25,1.875-7.5,4.5-8,5
			C148.125,61.625,145.875,65.375,144.5,65z"/>
	</g>
	<g id="Seeds_Stage_5_w_x2F__Siliques">
		<path fill="none" stroke="#000000" stroke-width="0.5" stroke-miterlimit="10" d="M116.625,74.375c0,0-6-12.75-8.5-20.875
			c-1.5-5.875-2.125-11.5,0.75-11.625c1.375,0.625,3.75,3.25,3.875,7.875c0.625,5.125,2.125,10.875,3.375,14.25
			C116.375,68,118.5,73.5,116.625,74.375z"/>
	</g>
	<g id="Seeds_Stage_3_w_x2F__Siliques">
		<path fill="none" stroke="#000000" stroke-width="0.5" stroke-miterlimit="10" d="M403,84.333"/>
	</g>
	<g id="Cauline_Leaf">
		<path fill="none" stroke="#000000" stroke-width="0.5" stroke-miterlimit="10" d="M107.125,208.25c0,0,8.5-5.5,19.25-3.125
			c7.5,2.25,14.75,7.875,17.375,24.5c0.375,3.375,0.375,6.25,0.75,6.875c0.625,1.125,2.5,5.375-2.375,3.25
			c-4.875-3.25-16.75-9.25-20-15.5c-2.875-5.625-7.5-13.875-11.375-14.375c-1.75,0.625-2.75,2.125-4.125,1.75
			C106.75,209,107.125,208.25,107.125,208.25z"/>
		<path fill="none" stroke="#000000" stroke-width="0.5" stroke-miterlimit="10" d="M98.875,313c0,0-4.875-4.25-6.5-4.125
			c-4.25-0.5-16-0.25-26,8.75c-3.875,3.875-5.75,6.875-8.5,13.875c-2.125,5-5.75,15-6.375,16.125c1.625,0.375,15.75,1.75,25.25-8.5
			c4.75-4.625,11-12.375,12-14.625c2.375-2.75,5.625-5.875,11.125-5.5C98.5,318,98.25,316.665,98.875,313z"/>
	</g>
	<g id="Entire_Rosette_After_Transition_to_Flowering">
		<path fill="none" stroke="#000000" stroke-width="0.5" stroke-miterlimit="10" d="M18,400.25c0,0-2.375-1.375,6-12.25
			c6.875-8.5,15.375-18,21.25-21c6-3.625,11.875-8,24.625-3.125c4.125,2.375,6.659,4.115,10.625,8
			c2.167,3.125,7.833,5.682,8.333,6.557c2.75,1.375,15.917,10.818,19.417,12.068c-3.375-3.125-14.656-12.921-18.5-14.625
			c-3.917-1.875-7.375-5-6.375-17.125c1.25-6.875,2.5-10.875,2.5-10.875c2.75,2.375,14.375,12.875,16.5,16.875
			c1.855,2.75,0.625,4.875,1.625,8.125c0.75,2.875,2.625,6,3.75,6.75c0.25-2.125,0.875-5.125,0.875-5.125
			c1,1.5,4.625,4.25,4.625,4.25c0.625,1.375,2.875,7.5,2.625,9c-0.375,2.375-0.75,5.875-0.75,5.875c1.875-2.25,5.75-5.875,7.5-13.5
			c0.625-4.25,0.375-12.875,3.125-16.75c2.5-3.625,4.625-7.375,10.625-9c3.25-0.75,8.375-2.25,10.125,5.375
			c0.333,2.604-0.375,6.125-6.25,13c-4.125,3.625-12.875,11.5-13,12c-2,2.375-2.875,3.375-2.875,3.375
			c4.125-2.875,16.5-9.5,18.25-10.125c1.875-2.375,12.988-14.366,27.363-16.241c6.345-0.592,21.387,3.366,25.762,5.616
			c-2.375,1.25-6.25,3.375-6.875,5.375c-0.75,2.25-2.75,6.75-5.375,6.625C186,381,195,386.75,198.625,391.75
			c2.75,3.125,12,9.875,17.625,11.25c-1,1.5-18.75,8.25-27.75,5.375s-13.875-8.5-22.375-15.125c-5-3.375-12.75-8.75-24.375-6.75
			c-6.5,1.5-17.875,5.125-23,9.125c-1,1.25-1,1.25-1,1.25c2.75-0.125,24-2,28.125,3.25c3.5,4.625,7.25,9.75,7.25,9.75
			c-2.125,1.75-12.625,10.5-23.625-0.125c-4.25-4.875-7.75-9.625-11.5-9.25c1.75,2.25,10.375,13.875,16.125,17
			c6.5,1.75,23.5,4.125,27.5,17.5c2.375,7.625,2.75,16.375,2.75,16.375c-3.875,1.625-16,10.125-32.75-11
			c-3.875-7.5-4.5-8.125-7.75-24c-2.25-4.375-4.375-8.75-8-11.625c-3.875-0.25-5.375-0.375-5.875-0.125c-3,0.375-11,1-14.25,6
			c-3.75,4.875-9.625,12-22.125,18.375c-6.5,2.75-12.625,6-22.375-5.375C48.875,420,47.75,412.25,51.625,408
			C55.75,403.5,63,394.383,70.25,394.625c4.875,0.25,24.375,3.625,38.375,6.375C106.75,398.625,96.25,384.5,74,384.125
			c-4.25,0.375-9.75,1.125-16.375,5.5C50,394.375,40.5,402.5,28.75,398.875C25.5,398.875,21.25,398.5,18,400.25z"/>
	</g>
	<g id="Stem_x2C__2nd_Internode">
		<path fill="none" stroke="#000000" stroke-width="0.5" stroke-miterlimit="10" d="M101.875,211.75c0,3.25-0.5,17.375-0.375,18.125
			c0,4.375-1.625,23.875-1.375,26.625c-0.25,4.75-0.75,26.125-0.75,29.75c0,3.125,0.25,16.5,0.25,16.5"/>
		<path fill="none" stroke="#000000" stroke-width="0.5" stroke-miterlimit="10" d="M104.5,302.75c0-6.625,0-30.125,0-32.875
			c-0.125-6.625,0.75-31.625,1.125-36.375c0.75-9,1-21.875,1-21.875"/>
	</g>
	<g id="_x__x31_st_Node">
		<path fill="none" stroke="#000000" stroke-width="0.5" stroke-miterlimit="10" d="M104.5,302.75c0,0,0.25,7.125,0,7.75
			c-0.375,2-0.25,8.75-0.25,8.75"/>
		<path fill="none" stroke="#000000" stroke-width="0.5" stroke-miterlimit="10" d="M100,309.375c0,0-0.625-4.875-0.375-6.625"/>
		<path fill="none" stroke="#000000" stroke-width="0.5" stroke-miterlimit="10" d="M98.25,313.625"/>
		<path fill="none" stroke="#000000" stroke-width="0.5" stroke-miterlimit="10" d="M98.375,318.75"/>
	</g>
	<g id="outlines">
		<path fill="none" stroke="#000000" stroke-width="0.5" stroke-miterlimit="10" d="M103.719,475.174
			c2.282-6.16-0.11-12.179-2.031-17.014c-0.25-0.628-0.493-1.241-0.714-1.822c-2.869-8.366,4.674-16.418,4.735-16.488"/>
		<path fill="none" stroke="#000000" stroke-width="0.5" stroke-miterlimit="10" d="M126.438,379.492
			c0.064-0.117,6.529-11.752,11.916-17.139"/>
		<path fill="none" stroke="#000000" stroke-width="0.5" stroke-miterlimit="10" d="M140.218,406.824
			c-2.088-5.482-11.286-6.289-11.677-6.32"/>
		<path fill="none" stroke="#000000" stroke-width="0.5" stroke-miterlimit="10" d="M84.103,403.272
			c-6.49,1.994-19.808,10.445-20.372,10.806"/>
		<path fill="none" stroke="#000000" stroke-width="0.5" stroke-miterlimit="10" d="M96.071,403.505
			c-8.917-1.27-23.808,14.724-24.438,15.405"/>
		<path fill="none" stroke="#000000" stroke-width="0.5" stroke-miterlimit="10" d="M76.058,377.002
			c-23.686-2.738-39.717,10.23-39.876,10.362"/>
		<path fill="none" stroke="#000000" stroke-width="0.5" stroke-miterlimit="10" d="M99.841,376.636
			c-3.381-3.141-7.587-13.226-7.629-13.327"/>
		<path fill="none" stroke="#000000" stroke-width="0.5" stroke-miterlimit="10" d="M111.286,382.936
			c0.01,0.024,0.981,2.468,1.219,4.136"/>
		<path fill="none" stroke="#000000" stroke-width="0.5" stroke-miterlimit="10" d="M145.957,441.297
			c-3.992-8.979-14.003-19.05-14.104-19.148"/>
		<path fill="none" stroke="#000000" stroke-width="0.5" stroke-miterlimit="10" d="M106.164,389.115 M107.566,378.932l-0.059-0.01
			c-0.003,0.019-0.004,0.033-0.007,0.051 M103.833,343.423c0.594,1.728,3.876,12.863,6.203,17.517
			c2.633,6.582,2.686,8.961,2.781,13.28c0.024,1.095,0.051,2.306,0.123,3.733 M115.72,392.373c0.1-0.634,0.196-1.405,0.273-2.308
			h0.002c0.008-0.06,0.01-0.115,0.017-0.175c0.048-0.304,0.235-1.034,0.418-1.748c0.551-2.149,1.475-5.75,1.818-9.355
			c0.246-3.442,0.011-10.337-1.289-14.231c-1.369-3.192-8.316-20.271-9.1-22.281 M153.632,410.33 M123.99,447.956
			c-0.928-0.724-5.557-4.564-5.558-9.372c-0.147-4.438-1.431-9.688-3.815-15.606c-0.407-1.016-1.472-1.797-1.185-1.047
			c1.062-2.675,1.636-7.489,1.614-9.312c-0.041-0.613-0.082-1.216-0.115-1.724c0.122-1.34,0.361-2.354,0.614-3.431
			c0.197-0.837,0.399-1.697,0.539-2.715 M102.756,558.043c-0.265-2.641,0.542-4.75,2.027-7.48c0.709-2.975-0.314-9.143-1.515-13.946
			c-1.797-7.445,6.292-15.396,6.637-15.73l0.27,0.278c0.214-2.722,0.739-5.482,1.604-8.077c0.379-1.916,0.333-4.84,0.284-7.938
			c-0.074-4.669-0.149-9.497,1.248-12.14c0.255-0.722,0.551-1.5,0.849-2.281c2.053-5.394,4.177-10.97,3.095-22.438
			c-4.274-10.288-3.255-7.125-4.75-9.546s-3.671-1.245-5.88-12.079s0.042-15,0-20.333s2.542-18,3.375-21.708 M129.998,575.434
			c-2.421-1.414-2.621-4.821-2.767-7.311c-0.045-0.764-0.084-1.434-0.182-1.866c-3.108-3.19-2.526-6.681-1.792-11.087
			c-0.006-4.025-3.127-6.516-4.427-7.379c0.242,1.761,0.42,3.399,0.42,4.461c-0.846,4.281-2.773,13.994,1.271,27.633
			c0.714,1.403,1.452,2.854,2.182,4.404l0.042,0.143c1.732,12.125,2.5,22.173,2.505,22.235l-0.415-4.675
			c-0.005-0.063-1.351-5.307-3.07-17.345c-0.624-1.324-1.254-2.571-1.871-3.786l-0.122,0.038c-0.068-0.221-0.121-0.43-0.185-0.646
			c-3.223-6.335-6-11.821-5.587-21.525l0.026-0.561c0.487-11.905,0.635-15.498-4.972-26.955c-0.811-2.691-0.992-7.377-0.828-10.624
			 M132.754,519.451c0.925-9.257-1.425-12.153-3.313-14.479l-0.331-0.407c-2.373-2.9-2.361-6.262-2.109-13.58
			c-0.001-7.392-4.142-10.47-5.51-11.282c-0.126,3.315-0.411,6.34-1.01,8.438l-0.198,0.467c-2.347,5.393-3.764,8.647-3.285,15.36
			c0.183,4.923-0.933,10.574-1.671,14.313c-0.286,1.448-0.512,2.591-0.58,3.271c-0.481,3.132,0.967,8.25,2.176,10.188
			c1.045,2.084,1.716,4.869,2.205,6.899c0.232,0.961,0.431,1.791,0.586,2.18l0.029,0.104l0.126,0.756
			c0.233,1.395,0.537,3.209,0.801,4.999l0.16,1.114 M113.432,421.931c-1.023,5.861-0.755,5.907-0.927,11.571s-0.829,8.998,0,11.998
			s2.33,5.094,3.529,6.773c2.655,3.668,5.163,7.133,5.467,12.449c0.001,1.231,0.018,2.607,0.037,4.082
			c0.038,3.094,0.042,7.659-0.047,10.897 M25.774,384.999 M178.808,370.503c-8.558-1.008-17.317,3.47-17.639,3.636l2.265-0.024
			c-5.728-0.064-12.966,0.855-19.892,3.312 M183.076,378.968c-5.248-2.553-11.846-4.625-19.642-4.854 M105.877,348.042
			 M108.834,400.867c0.612-0.23,2.996-0.172,3.599-1.04c0.899-1.294,1.071-3.087,0.511-5.328l-0.051-0.127
			c-0.383-0.67-0.817-1.297-1.276-1.961c-1.774-2.563-4.294-6.572-3.658-12.919 M108.834,400.867 M115,394.333l0.095,0.05
			c-0.541,2.915-0.377,5.045-0.368,5.149"/>
		<path fill="none" stroke="#000000" stroke-width="0.5" stroke-miterlimit="10" d="M150.062,381.037l42.518,14.837
			C167.883,374.171,150.238,380.965,150.062,381.037z"/>
		<path fill="none" stroke="#000000" stroke-width="0.5" stroke-miterlimit="10" d="M96.546,314.254
			c-13.938-1.262-23.822,16.982-24.237,17.762"/>
		<path fill="none" stroke="#000000" stroke-width="0.5" stroke-miterlimit="10" d="M131.448,221.777
			c-6.55-13.101-15.527-13.993-15.906-14.024"/>
		<path fill="none" stroke="#000000" stroke-width="0.5" stroke-miterlimit="10" d="M115.765,135.126 M117.219,114.668
			 M109.483,149.442 M106.739,164.09 M62.414,323.032 M53.48,344.083 M52.213,347.312 M88.601,323.953 M107.859,342.274
			c-0.872-2.27-4.269-12.466-3.609-23.024 M99.385,345.734 M99.475,319.407c-0.529,10.494,3.412,21.533,4.358,24.016
			 M87.591,327.073 M51.454,348.25 M51.035,347.565 M52.55,343.713 M61.605,322.443 M99.391,308.478
			c1.977,1.918-12.82-11.567-21.456-39.094c-0.325-1.036-0.643-2.05-0.954-3.021c-5.938-21.242-4.946-44.027-4.758-47.404
			c11.259-0.881,14.738,6.664,17.805,13.322c0.342,0.743,0.68,1.476,1.021,2.184l0.808,1.673l0.141-1.853
			c0.535-7.025-1.088-12.297-4.824-15.67c-5.417-4.891-13.483-4.235-15.697-3.945l-0.211-5.263c0.149,0.02,0.301,0.032,0.456,0.032
			c0.557,0,1.151-0.131,1.759-0.395c1.787-0.775,3.258-2.491,3.498-4.079c0.143-0.949-0.17-1.97-0.797-2.602
			c-0.494-0.497-1.146-0.72-1.838-0.616c-0.411,0.06-0.769,0.267-1.091,0.545c0.172-0.358,0.303-0.719,0.345-1.066
			c0.126-1.033-0.403-1.826-1.453-2.176c-0.281-0.094-0.545-0.151-0.799-0.188c0.051-0.376,0.116-0.771,0.18-1.16
			c0.143-0.863,0.275-1.682,0.26-2.314c0.555-0.251,0.967-0.579,1.216-0.991c0.409-0.677,0.379-1.514-0.09-2.486
			c-0.716-1.485-2.024-1.677-3.001-1.21c-0.033,0.016-0.063,0.039-0.095,0.056c-0.306-0.663-0.829-1.113-1.503-1.244
			c-1.61-0.313-2.052,0.608-2.167,1.02c-0.363,1.304,0.767,3.533,2.046,4.124c-0.002,0.472-0.129,1.055-0.274,1.673
			c-0.23,0.978-0.482,2.064-0.285,3.063c-0.254-0.097-0.575-0.156-1.013-0.163c-1.184-0.021-2.017,0.496-2.442,1.447
			c-0.329,0.734-0.342,1.643-0.092,2.473c-0.114,0.057-0.227,0.107-0.344,0.182c-1.491,0.954-1.881,2.288-1.071,3.659
			c0.383,0.648,0.8,0.971,1.25,1.133c-0.091,0.166-0.156,0.341-0.161,0.532c-0.01,0.393,0.12,0.736,0.376,0.992
			c0.603,0.604,1.741,0.58,2.651,0.558c0.063-0.001,0.131-0.002,0.199-0.004l-0.175,2.974c-3.256-2.83-6.426-3.957-9.439-3.351
			c-5.251,1.057-8.449,7.152-9.581,9.723l0.811,0.555c8.985-8.983,13.651-6.184,16.738-4.331c0.177,0.106,0.348,0.209,0.514,0.306
			c-1.292,1.073-4.438,3.869-6.998,7.612c-2.793,3.557-3.62,7.719-2.856,14.31c0,6.08,2.992,8.578,5.243,9.929L62,248.383V247.5
			c0-0.042,0.009-4.216,0.697-6.776c1.03-2.06,1.546-3.093,1.803-7.974c0-4.139,1.458-8.237,2.825-11.179
			c0.108,2.682,0.334,8.482,0.676,18.214c1.174,16.673,5.687,29.736,8.673,38.38l0.592,1.713
			c3.875,14.603,10.92,23.793,15.992,28.845 M116.667,74.375c-0.009,1.612-0.062,3.771-0.117,5.478
			c-0.027,0.821-0.054,1.654-0.076,2.501c-0.128,4.872,0.529,9.798,1.166,14.563c0.426,3.189,0.866,6.487,1.062,9.721
			c-1.166,3.296-2.026,5.807-2.476,7.133c-1.499,4.997-4.691,19.566-7.31,32.608c-1.151-3.207-2.727-6.184-4.385-9.295
			c-0.518-0.972-1.039-1.95-1.548-2.94c-0.893-1.736-1.925-3.669-3.108-5.461c-0.029-0.062-0.059-0.125-0.088-0.187
			c-1.276-2.676-2.482-5.205-3.087-8.174c-1.165-5.719-4.637-10.661-7.994-15.439c-1.098-1.563-2.233-3.179-3.242-4.766
			c-0.089-0.141-9.163-14.092-13.817-14.197c-0.412-0.004-0.789,0.101-1.125,0.294l0,0c-0.234,0.213-0.549,0.296-0.651,0.578
			c-0.024,0.031-0.053,0.053-0.076,0.086l0.039,0.027c-0.048,0.166-0.083,0.338-0.088,0.525c-0.061,2.226,3.2,5.534,5.581,7.95
			c0.738,0.749,1.375,1.396,1.711,1.813c3.387,4.208,6.254,8.539,8.612,12.22c2.84,4.437,5.355,8.802,7.65,12.859
			c0.73,1.292,1.78,2.357,2.794,3.388c0.708,0.72,1.441,1.464,2.041,2.266c0.301,0.402,0.585,0.829,0.869,1.256
			c0.417,0.876,1.147,1.627,1.551,2.547l0,0c0.549,0.978,1.066,1.954,1.538,2.872c0.512,0.995,1.035,1.977,1.555,2.953
			c1.922,3.608,3.734,7.032,4.869,10.815c-1.134,5.71-2.133,11.009-2.797,14.918c-0.556,2.124-0.972,4.459-1.451,8.395
			c-0.761-2.12-2.942-3.358-4.695-5.115c-0.831-0.833-1.617-1.62-2.137-2.284c-4.211-5.379-7.679-8.107-10.341-8.135
			c-0.087-2.807-10.49-7.27-10.596-7.315c-2.904-1.224-5.858-1.793-9.297-1.793c-2.698,0-5.394,0.345-8.248,0.709l-1.693,0.214
			c-0.503,0.062-1.428,0.069-2.499,0.078c-3.655,0.029-9.18,0.074-11.162,2.141c-0.531,0.554-0.788,1.218-0.762,1.973
			c0.063,1.941,2.625,2.845,8.058,2.845c4.066,0,8.81-0.504,12.273-0.873c1.702-0.181,3.046-0.324,3.68-0.335
			c0.358-0.006,0.713-0.01,1.066-0.01c3.319,0,5.722,0.342,8.035,1.144c0.654,0.227,1.441,0.587,2.275,0.969
			c1.963,0.898,4.188,1.917,6.125,1.917c0.416,0,0.808-0.048,1.165-0.143c0.563-0.149,0.961-0.371,1.226-0.648l0.016,0.139
			c1.602-0.179,4.629,1.019,9.891,7.739c0.557,0.712,1.363,1.519,2.216,2.374c2.137,2.141,5.286,4.85,5.078,7.138l0,0
			c-3.081,27.569-1.993,29.7-2.068,37.339 M116.558,74.445l0.109-0.07c0,0.096,0,0.193,0,0.289 M144.373,64.655
			c-0.292,1.024-3.168,4.5-4.418,5.901c-0.894,1.002-1.667,1.868-2.053,2.42c-0.533,0.76-1.127,1.497-1.702,2.209
			c-0.606,0.752-1.232,1.529-1.799,2.346c-0.126,0.182-0.248,0.397-0.367,0.624c2.689-6.902,5.914-14.893,7.692-18.751
			c0.028-0.094,0.072-0.213,0.113-0.327l0.025,0.023c0.567-0.611,1.106-1.24,1.647-1.87c1.103-1.285,2.243-2.615,3.623-3.77
			c0.713-0.597,1.502-1.195,2.266-1.774c1.082-0.82,2.19-1.668,3.164-2.562c2.301-1.267,7.451-4.335,7.599-6.489
			c0.026-0.378-0.076-0.915-0.708-1.331c-0.41-0.269-1.106-0.496-2.089-0.053c-2.399,1.081-5.084,5.635-5.273,6.951l0,0
			c-0.046,0.044-0.098,0.087-0.145,0.131c-0.357,0.194-0.441,0.249-0.678,0.362l-0.126,0.347c-0.75,0.631-1.556,1.247-2.348,1.847
			c-0.772,0.586-1.572,1.191-2.303,1.804c-1.284,1.074-2.347,2.269-3.36,3.446c1.646-3.415,4.184-8.089,5.116-9.593
			c2.071,0.081,4.319-2.746,5.986-4.855c0.334-0.423,0.636-0.805,0.894-1.105l0.095-0.11l0.021-0.144
			c0.216-1.517-1.47-2.755-2.52-3.37l0.052-0.035c0.017-0.011,0.025-0.028,0.041-0.04l0.146,0.058
			c0.046-0.115,0.104-0.233,0.154-0.349c0.351-0.408,0.511-0.907,0.575-1.295c0.058-0.129,0.117-0.257,0.172-0.386l2.94-2.287
			l-0.614-0.789l-0.932,0.725l-0.669,0.223c-0.338,0.113-0.58,0.226-0.764,0.328L153.75,33l-0.113-0.158
			c0.008-0.021,0.01-0.036,0.029-0.065l0.277-0.416l-2.062-1.375c-0.109-0.426-0.25-0.844-0.434-1.21l-0.739-1.477l-0.883,7.067
			c-0.545-0.095-1.022,0-1.422,0.277c-0.753,0.522-1.176,1.629-1.333,3.581c-0.067-0.044-0.138-0.083-0.213-0.116
			c-0.673-0.294-1.541-0.056-2.635,0.726c-0.887,0.591-1.272,1.387-1.47,2.182l0.007-0.047l-0.027-0.1
			c-0.007-0.026-0.683-2.559-0.035-4.867c1.644-1.81,1.497-3.201,1.258-3.875c-0.318-0.9-1.148-1.57-2.116-1.706
			c-0.786-0.114-1.51,0.159-1.95,0.726c-1.944,1.521-3.044,3.418-3.272,5.64c-0.303,2.959,1.084,5.846,2.15,7.166
			c0.099,1.023,0.631,7.23-0.253,14.395c-1.239,2.328-2.503,4.897-3.767,7.609c0.021-0.758,0.019-1.535,0.009-2.296l-0.006-0.688
			c-0.003-1.483,0.024-2.978,0.057-4.475c0.266-1.79,0.524-3.627,0.635-5.457c0.314-5.166,0.312-10.088,0.309-15.3v-1.697
			l0.001-0.275c0.013-2.699-0.127-5.941-1.333-7.06c-0.332-0.308-0.736-0.453-1.171-0.418l-0.432,0.035l-0.028,0.432
			c-0.285,4.44,0.125,8.949,0.523,13.31c0.167,1.834,0.34,3.731,0.456,5.577c0.206,3.291,0.131,6.699,0.059,9.995
			c-0.006,0.258-0.012,0.516-0.017,0.773c-0.027,0.183-0.055,0.366-0.082,0.548c-0.485,3.248-0.988,6.606-0.725,10.078l0.35-0.026
			c-5.303,11.807-10.466,25.629-13.78,34.896c-0.229-2.53-0.565-5.065-0.895-7.537c-0.631-4.726-1.283-9.612-1.157-14.404
			c0.022-0.845,0.049-1.676,0.076-2.495c0.207-6.404-0.321-5.216-0.321-6.966 M147.424,57.637 M154.288,51.51 M161.42,47.013
			 M165.691,44.626 M164.684,74.329c-0.005-0.005-0.009-0.011-0.014-0.016c-1.841-1.702-6.198,0.305-10.218,2.491l-0.603,0.325
			c-7.688,4.04-14.032,9.843-19.964,18.263c-4.797,6.81-8.692,14.147-12.185,21.1c2.639-10.254,5.775-21.884,8.268-27.564
			c0.467-1.335,1.311-3.419,2.291-5.99l0,0c0.921-0.57,1.526-1.894,2.11-3.174c0.296-0.648,0.576-1.261,0.853-1.661
			c0.546-0.787,1.161-1.55,1.756-2.288c0.585-0.726,1.19-1.476,1.742-2.263c0.354-0.504,1.108-1.35,1.981-2.329
			c2.254-2.527,4.258-5.172,4.626-6.391 M107.125,208.25c0.117-3.138,0.909-13.761,1.556-22.622
			c1.198-3.058,3.143-5.928,5.539-8.128c0.591-0.542,1.461-1.112,2.383-1.715c1.732-1.134,3.664-2.411,4.436-3.986
			c0.845,0.125,1.623,0.198,2.336,0.198c2.99,0,5.28-1.1,7.425-3.565c0.518-0.596,1.012-1.188,1.498-1.771
			c1.935-2.323,3.762-4.517,6.535-6.113c3.972-2.287,8.175-4.244,12.241-6.136c2.209-1.028,4.494-2.092,6.723-3.199
			c5.411-2.688,7.981-5.064,7.86-7.264c-0.065-1.188-0.81-1.869-2.042-1.869c-1.539,0-3.616,1-4.857,1.598
			c-0.187,0.09-0.35,0.168-0.482,0.229l-0.434,0.199c-13.648,6.257-29.116,13.349-37.241,26.59l-0.896,0.896l0,0
			c-0.749,1.214-2.135,2.368-3.646,3.357c-0.958,0.626-1.861,1.218-2.513,1.816c-1.871,1.718-3.437,3.76-4.641,6.003
			c0.248-3.032,0.528-5.879,0.84-8.224c0.225-3.03,0.499-5.599,0.954-8.885l0.187-0.59c0.758-0.947,1.546-2.174,2.381-3.472
			c1.205-1.875,2.45-3.813,3.841-5.325c0.854-0.928,1.733-1.85,2.614-2.774c1.389-1.458,2.812-2.956,4.148-4.49
			c3.604-0.937,6.483-3.458,9.056-6.101c4.823-4.954,10.046-8.994,16.438-12.715c1.344-0.783,2.693-1.593,4.043-2.404
			c1.689-1.015,3.436-2.064,5.149-3.042l0.65-0.364c2.456-1.363,7.027-3.902,7-6.591l-0.004-0.453l-0.452-0.04
			c-0.154-0.014-0.305-0.005-0.458-0.012l0.002-0.025c-0.168-0.017-0.344,0.002-0.517,0.012c-3.31,0.001-6.476,1.427-9.451,2.927
			c-5.329,2.687-10.277,6.064-15.062,9.331c-0.841,0.574-1.682,1.148-2.526,1.72c-3.327,2.252-6.01,4.806-8.445,8.038
			c-0.366,0.486-0.767,0.988-1.179,1.505c-1.524,1.91-3.225,4.059-3.949,6.343c-0.018,0.019-0.037,0.037-0.055,0.055l-0.001-0.001
			c-0.004,0.005-0.009,0.01-0.013,0.016c-0.319,0.317-0.625,0.631-0.949,0.957l0,0c0.314-0.328-0.235,0.585-0.399,0.613l0,0
			c-1.215,1.372-2.497,2.72-3.75,4.034c-0.885,0.929-1.769,1.855-2.626,2.788c-1.45,1.576-2.776,3.64-3.946,5.461
			c-0.473,0.736-0.929,1.439-1.37,2.084c1.602-10.838,4.079-21.909,5.666-27.73c0.752-2.341,1.994-7.22,3.431-12.869
			c0.125-0.493,0.255-1.003,0.385-1.511l0,0c3.736-7.049,8.867-13.031,15.14-19.052c0.033-0.021,0.068-0.036,0.1-0.058l-0.015-0.022
			c0.881-0.844,1.792-1.685,2.735-2.524c3.275-2.913,6.912-5.501,10.429-8.005c3.818-2.718,7.767-5.528,11.286-8.774l0.322-0.292
			c1.424-1.284,4.759-4.29,4.773-6.509c0.001-0.189-0.028-0.365-0.072-0.535c0.241-0.311-0.552-0.934-0.552-0.934 M137.393,211.455
			 M145.075,240.509 M111.257,209.535 M121.759,222.32 M123.177,224.753 M137.646,236.23 M144.04,236.461 M123.193,204.854
			 M106.498,208.241 M107.663,185.887 M108.752,174.441 M68.456,207.045c-0.162-0.362-0.096-0.741,0.196-1.126
			c0.354-0.468,0.962-0.813,1.564-0.96c0.083-0.014,0.165-0.031,0.249-0.056c0.194-0.028,0.387-0.041,0.563-0.016
			c0.158,0.023,0.169,0.301,0.288,0.366c-0.039,0.074,0.037-0.064,0,0l0.591,0.338c0.166,0.464-0.167,1.139-0.896,1.807
			 M71.9,204.149c-0.022-0.012-0.041-0.026-0.063-0.037c0.059-0.051,0.115-0.108,0.173-0.162
			C71.973,204.017,71.936,204.083,71.9,204.149z M68.715,199.566c-0.333-0.843-0.074-1.943,0.176-3.006
			c0.049-0.208,0.096-0.412,0.139-0.613c0.658-0.034,1.242-0.109,1.75-0.226c-0.028,0.509-0.132,1.166-0.24,1.821
			c-0.075,0.451-0.149,0.907-0.205,1.345c-0.229,0.049-0.447,0.12-0.639,0.237c-0.586,0.356-0.908,0.966-1.112,1.631
			 M69.312,191.938c-0.404,0.556-0.856,0.803-0.515,1.524l0.14,0.476c-0.019,0.045-0.091-0.425-0.112-0.383 M67.72,204.827
			c-0.005,0.017-0.015,0.039-0.022,0.058c-0.12-0.415-0.304-0.8-0.551-1.118c-0.455-0.584-1.193-1.018-2.103-0.916 M141,43.216
			c0.127-0.481,0.277-0.965,0.426-1.425c0.058-0.178,0.109-0.344,0.163-0.514 M141.581,48.877c0.111-0.306,0.225-0.611,0.34-0.913
			c0.259-0.68,0.516-1.373,0.723-2.074c0.092-0.084,0.176-0.173,0.248-0.269C142.668,46.643,142.121,47.773,141.581,48.877z
			 M144.242,47.043 M147.471,45.857c0.007,0.005,0.015,0.006,0.021,0.011c-0.837,1.316-3.566,6.298-5.302,9.912
			c0.096-0.336,0.189-0.677,0.291-1.001c0.21-0.671,0.479-1.351,0.762-2.069c0.473-1.197,0.944-2.431,1.166-3.671
			c0.264-0.655,0.599-1.292,0.97-1.911c0.019-0.032,0.039-0.063,0.057-0.094c0.31-0.512,0.64-1.012,0.976-1.498l-0.364-0.251
			l0.098-0.387l-0.011,0.002c0.41-0.429,0.569-1.233,0.554-2.045C146.71,44.28,146.884,45.43,147.471,45.857z M151.541,37.454
			 M153.452,41.061c-0.761,0.963-1.798,2.272-2.835,3.228l-0.133-0.211c-0.239,0.153-0.328,0.098-0.359,0.079
			c-0.342-0.212-0.618-1.326-0.469-2.757c0.139-1.337,0.686-3.038,1.765-3.429 M148.064,39.399 M149.268,38.966 M150.759,36.662
			l0.472,0.083 M144.791,40.657c1.029-0.734,1.487-0.71,1.666-0.632c0.109,0.048,0.203,0.167,0.286,0.326
			c-0.004,0.122-0.01,0.257-0.016,0.406c-0.029,0.707-0.047,1.389-0.04,2.024c-0.026-0.828-0.229-1.65-0.529-2.071l-0.814,0.58
			c0.386,0.542,0.494,2.498,0.068,2.924c-0.072,0.071-0.264-0.045-0.371-0.122l-0.046,0.064l-0.909-0.341
			c-0.214,0.354-0.276,0.653-0.295,0.934h-0.481c0.121-0.419,0.177-0.87,0.228-1.316C143.661,42.354,143.778,41.332,144.791,40.657z
			 M140.774,35.63c0.06-0.141,0.119-0.288,0.18-0.418l-0.789-0.369c-0.02-0.083-0.032-0.169-0.04-0.257
			c0.006-0.006,0.009-0.015,0.015-0.021l-0.019-0.016c-0.039-0.614,0.234-1.291,0.855-1.602l-0.155-0.308 M142.246,35.99
			 M139.215,40.484c0.296-1.12,0.711-2.605,1.189-3.92c0.016,0.007,0.03,0.017,0.046,0.023 M139.582,35.912 M139.75,43.227
			 M141.44,36.72"/>
		<path fill="none" stroke="#000000" stroke-width="0.5" stroke-miterlimit="10" d="M60.342,230.461"/>
		<path fill="none" stroke="#000000" stroke-width="0.5" stroke-miterlimit="10" d="M63.766,221.88
			c-0.132,0.522-0.636,1.11-1.122,1.679"/>
		<path fill="none" stroke="#000000" stroke-width="0.5" stroke-miterlimit="10" d="M62.644,223.559
			c-3.186,4.441-3.269,11.103-3.183,13.259c0.021,0.525,0.041,1.012,0.039,1.43"/>
	</g>
	
		<line fill="none" stroke="#000000" stroke-width="0.5" stroke-miterlimit="10" x1="115.72" y1="392.373" x2="115.125" y2="393.625"/>
	
		<line fill="none" stroke="#000000" stroke-width="0.5" stroke-miterlimit="10" x1="115.095" y1="394.383" x2="115.125" y2="393.625"/>
	
		<line fill="none" stroke="#000000" stroke-width="0.5" stroke-miterlimit="10" x1="112.922" y1="377.579" x2="112.839" y2="378.432"/>
</g>
<g id="Layer_2">
</g>
</svg>
