<?xml version="1.0" encoding="utf-8"?>
<!-- Generator: Adobe Illustrator 16.0.0, SVG Export Plug-In . SVG Version: 6.00 Build 0)  -->
<!DOCTYPE svg PUBLIC "-//W3C//DTD SVG 1.1//EN" "http://www.w3.org/Graphics/SVG/1.1/DTD/svg11.dtd">
<svg version="1.1" id="Layer_1" xmlns="http://www.w3.org/2000/svg" xmlns:xlink="http://www.w3.org/1999/xlink" x="0px" y="0px"
	 width="201.832px" height="576.982px" viewBox="16.824 26.598 201.832 576.982"
	 enable-background="new 16.824 26.598 201.832 576.982" xml:space="preserve">
<g id="outlines">
	<path d="M102.781,474.826l0.938,0.348c2.282-6.16-0.11-12.179-2.031-17.014c-0.25-0.628-0.493-1.241-0.714-1.822
		c-2.869-8.366,3.095-15.441,3.156-15.512l-0.758-0.652c-0.064,0.074-6.402,7.57-3.338,16.504c0.229,0.604,0.475,1.219,0.726,1.854
		C102.713,463.449,104.929,469.026,102.781,474.826z"/>
	<path d="M138.354,362.354l-0.707-0.706c-5.487,5.485-11.817,16.879-12.084,17.36l0.875,0.484
		C126.502,379.375,132.967,367.74,138.354,362.354z"/>
	<path d="M139.283,407.178l0.935-0.354c-2.088-5.482-11.286-6.289-11.677-6.32l-0.081,0.996
		C128.549,401.506,137.417,402.279,139.283,407.178z"/>
	<path d="M84.103,403.272c-6.49,1.994-19.808,10.445-20.372,10.806l0.537,0.844c0.137-0.087,13.767-8.736,20.128-10.694
		L84.103,403.272z"/>
	<path d="M71.633,418.91l0.734,0.68c0.151-0.163,15.19-16.289,23.562-15.095l0.142-0.99
		C87.154,402.235,72.263,418.229,71.633,418.91z"/>
	<path d="M36.182,387.364l0.637,0.771c0.155-0.129,15.855-12.84,39.124-10.139l0.115-0.994
		C52.372,374.264,36.341,387.232,36.182,387.364z"/>
	<path d="M92.212,363.309l-0.924,0.384c0.175,0.424,4.333,10.39,7.872,13.676l0.681-0.732
		C96.46,373.495,92.254,363.41,92.212,363.309z"/>
	<path d="M111.286,382.936c0.01,0.024,0.981,2.468,1.219,4.136l0.99-0.142c-0.256-1.789-1.239-4.261-1.281-4.364L111.286,382.936z"
		/>
	<path d="M145.957,441.297c-3.992-8.979-14.003-19.05-14.104-19.148l-0.707,0.705c0.099,0.102,9.981,10.04,13.896,18.852
		L145.957,441.297z"/>
	<path d="M216.963,403.048c-0.662-0.312-1.419-0.629-2.255-0.979c-4.5-1.887-11.3-4.732-17.588-12.904
		c-1.099-1.21-5.464-5.71-12.633-9.479c2.584-0.896,3.646-3.514,4.459-5.525c0.253-0.625,0.492-1.216,0.732-1.65
		c0.692-1.152,3.089-3.322,6.251-4.54l0.782-0.301l-0.637-0.546c-1.926-1.649-16.954-4.668-25.093-5.62
		c-13.821,0.484-28.235,15.217-29.737,16.792c-4.444,1.763-9.11,4.146-13.987,7.295c3.411-3.58,6.861-6.62,9.437-8.886
		c1.735-1.525,3.105-2.732,3.946-3.639c2.116-2.646,5.756-7.755,6.359-12.313c0-3.401-1.148-5.683-3.413-6.778
		c-4.087-1.981-10.561,0.7-13.718,3.205c-6.831,8.009-6.902,10.94-7.073,18.025l-0.044,1.751c-0.641,6.839-3.865,11.22-7.031,15.418
		c0.1-0.634,0.196-1.405,0.273-2.308h0.002c0.008-0.06,0.01-0.115,0.017-0.175c0.048-0.304,0.235-1.034,0.418-1.748
		c0.551-2.149,1.475-5.75,1.818-9.355c0.246-3.442,0.011-10.337-1.289-14.231c-1.369-3.192-6.352-15.95-7.136-17.961l5.099-1.873
		l-0.345-0.938l-12.25,4.5l0.345,0.938l2.267-0.832c0.594,1.728,2.77,7.896,5.097,12.55c2.633,6.582,2.686,8.961,2.781,13.28
		c0.024,1.095,0.051,2.306,0.123,3.733c-1.061-0.843-2.88-2.433-4.018-4.22l-0.726-1.142l-0.191,1.338
		c-0.009,0.065-0.215,1.535-0.439,5.002l-0.059-0.01c-0.003,0.019-0.004,0.033-0.007,0.051c-2.359-2.332-4-8.557-4-12.223
		c0-4.506-15.643-17.872-17.427-19.382l-0.604-0.513l-0.202,0.768c-0.013,0.048-1.266,4.826-2.265,10.082
		c-1.122,12.346,2.027,14.937,4.805,17.223c0.375,0.31,0.748,0.613,1.105,0.94l0.185,0.106c5.168,1.668,11.039,7.329,15.755,11.879
		c0.45,0.435,0.888,0.854,1.312,1.262c-2.223-1.469-4.718-3.208-7.167-4.915c-4.58-3.193-8.542-5.956-10.259-6.645
		c-0.181-0.133-0.512-0.435-0.923-0.809c-1.267-1.15-3.616-3.289-6.737-5.137C76.077,365.7,67.827,361.539,60,361
		c-13.137,0-26.855,15.611-34.226,23.999l-0.17,0.194c-8.418,10.896-8.672,13.097-8.089,15.428l0.155,0.619l0.564-0.298
		c3.898-2.064,7.445-1.729,14.511-1.061l1.23,0.115c7.553,0.399,12.286-2.728,16.461-5.478c1.31-0.86,2.548-1.677,3.827-2.348
		c4.179-2.572,12.049-6.988,17.743-7.676c21.621-0.248,31.452,10.962,35.65,15.737c0.102,0.114,0.2,0.228,0.294,0.335
		c-2.925-0.452-8.379-1.556-14.1-2.709c-8.013-1.618-17.094-3.451-21.044-3.86c-7.27-0.812-18.649,9.472-22.713,15.208l-0.059,0.111
		c-4.173,10.955,1.384,16.235,6.91,20.32c8.656,6.758,19.923-1.485,25.977-5.917c1.353-0.987,2.521-1.845,3.381-2.325
		c1.733-1.302,6.127-5.296,10.345-11.096c3.266-4.195,9.71-4.988,12.971-4.83c0.211,0.813,0.75,3.237,1.135,8.042
		c0.173,4.687-2.271,9.66-4.428,14.052c-0.877,1.784-1.707,3.474-2.296,5.021c-2.282,6.847,2.959,15.186,5.343,18.482
		c5.584,6.555,6.876,11.695,7.883,17.223c1.082,11.468-1.042,17.044-3.095,22.438c-0.298,0.781-0.594,1.56-0.849,2.281
		c-1.397,2.643-1.322,7.471-1.248,12.14c0.049,3.098,0.095,6.021-0.284,7.938c-0.865,2.595-1.39,5.355-1.604,8.077l-0.27-0.278
		c-0.345,0.335-8.434,8.285-6.637,15.73c1.201,4.804,2.224,10.972,1.515,13.946c-1.485,2.73-2.292,4.84-2.027,7.48l0.995-0.1
		c-0.242-2.416,0.496-4.312,1.941-6.961l0.046-0.118c0.783-3.131-0.261-9.539-1.499-14.488c-1.418-5.879,4.15-12.415,5.863-14.254
		c-0.164,3.247,0.141,6.399,0.952,9.091c5.607,11.457,5.459,15.05,4.972,26.955L116,558.729c-0.413,9.704,2.364,15.19,5.587,21.525
		c0.064,0.216,0.117,0.425,0.185,0.646l0.122-0.038c0.617,1.215,1.247,2.462,1.871,3.786c1.719,12.038,2.231,18.331,2.236,18.395
		l0.997-0.08c-0.005-0.062-0.521-6.405-2.253-18.53l-0.042-0.143c-0.73-1.551-1.468-3.001-2.182-4.404
		c-4.044-13.639-2.117-23.352-1.271-27.633c0-1.062-0.178-2.7-0.42-4.461c1.3,0.863,4.421,3.354,4.427,7.379
		c-0.734,4.406-1.316,7.896,1.792,11.087c0.098,0.433,0.137,1.103,0.182,1.866c0.146,2.489,0.346,5.896,2.767,7.311l0.504-0.861
		c-1.958-1.145-2.14-4.242-2.272-6.506c-0.053-0.898-0.099-1.676-0.249-2.2l-0.036-0.124l-0.092-0.092
		c-2.854-2.854-2.332-5.983-1.604-10.396c0-5.736-5.292-8.575-5.518-8.693l-0.061,0.116c-0.264-1.79-0.568-3.604-0.801-4.999
		l-0.126-0.756l-0.029-0.104c-0.155-0.389-0.354-1.219-0.586-2.18c-0.489-2.03-1.16-4.815-2.205-6.899
		c-1.209-1.938-2.657-7.056-2.176-10.188c0.068-0.681,0.294-1.823,0.58-3.271c0.738-3.739,1.854-9.391,1.671-14.313
		c-0.479-6.713,0.938-9.968,3.285-15.36l0.198-0.467c0.599-2.098,0.884-5.122,1.01-8.438c1.368,0.812,5.509,3.891,5.51,11.282
		c-0.252,7.318-0.264,10.68,2.109,13.58l0.331,0.407c1.888,2.326,4.238,5.223,3.313,14.479l0.995,0.1
		c0.967-9.668-1.527-12.74-3.531-15.209l-0.329-0.407c-2.148-2.625-2.131-5.855-1.887-12.934c0-9.086-5.77-12.09-6.473-12.422
		c0.089-3.238,0.047-6.681,0.009-9.774c-0.019-1.475-0.036-2.851-0.037-4.082c-0.304-5.316-2.812-8.781-5.467-12.449
		c-1.775-2.452-3.611-4.988-4.821-8.216c-3.647-8.713-1.083-12.993,1.179-16.771c0.463-0.774,0.902-1.506,1.282-2.261
		c0.091-0.114,0.154-0.255,0.236-0.378c2.238,5.646,3.451,10.65,3.591,14.854c0,5.256,4.951,9.373,5.943,10.146l0.614-0.789
		c-0.928-0.724-5.557-4.564-5.558-9.372c-0.147-4.438-1.431-9.688-3.815-15.606c-0.073-0.183-0.124-0.309-0.162-0.408
		c1.062-2.675,0.824-6.491,0.591-9.95c-0.041-0.613-0.082-1.216-0.115-1.724c0.122-1.34,0.361-2.354,0.614-3.431
		c0.197-0.837,0.399-1.697,0.539-2.715c1.884,1.55,4.305,5.17,7.369,11.012c3.086,18.73,6.212,23.027,10.616,27.432
		c15.18,16.145,25.784,10.168,29.776,7.917c0.212-0.117,0.404-0.228,0.575-0.317l0.223-0.12l0.036-0.25
		c0.357-2.503,0.704-9.416-3.775-19.49c-3.365-9.319-19.888-13.132-26.042-14.547c-4.736-1.805-13.012-12.438-15.934-16.494
		c2.829,0.482,5.749,4.054,8.357,7.242c1.953,2.388,3.64,4.449,5.163,5.159c10.507,5.641,19.463-0.938,21.116-2.865l0.244-0.284
		l-0.205-0.312c-0.038-0.06-3.816-5.833-7.782-10.293c-3.802-4.646-17.197-3.533-24.394-2.935c-1.144,0.097-2.123,0.179-2.868,0.22
		c0.066-0.113,0.14-0.228,0.208-0.341c1.083-0.688,16.139-10.131,29.612-9.883c8.248,0.894,16.166,5.101,24.22,12.875
		c4.64,4.159,14.275,11.281,25.821,11.281c5.834,0,12.157-1.818,18.568-6.757l0.649-0.5L216.963,403.048z M170.941,362.496
		c7.696,0.906,20.15,3.445,23.674,4.941c-2.756,1.271-4.992,3.219-5.802,4.567c-0.279,0.502-0.529,1.121-0.794,1.776
		c-0.931,2.302-1.979,4.891-4.943,5.187c-5.248-2.553-11.846-4.625-19.642-4.854c2.066-0.92,8.452-3.417,15.257-2.619l0.117-0.992
		c-8.558-1.008-16.216,2.887-16.538,3.053l0.281,0.545c-5.728-0.064-12.083,0.869-19.009,3.326
		C147.864,373.301,159.829,362.891,170.941,362.496z M110.947,360.525c-2.325-4.648-4.492-10.804-5.07-12.483l3.007-1.104
		c0.762,1.953,5.776,14.789,7.142,17.973c1.242,3.728,1.466,10.441,1.227,13.794c-0.239,2.513-0.772,5.033-1.256,7.049
		c-0.421-3.561-1.721-6.318-2.003-6.884c-0.114-1.847-0.147-3.35-0.177-4.673C113.722,369.904,113.665,367.314,110.947,360.525z
		 M105.546,387.134c-4.76-4.591-10.677-10.298-16.039-12.075c-0.346-0.312-0.704-0.605-1.065-0.903
		c-2.713-2.231-5.519-4.54-4.451-16.312c0.751-3.942,1.653-7.639,2.045-9.192c6.03,5.159,16.464,14.909,16.464,18.101
		c0,4.043,1.916,11.166,4.841,13.395c-0.565,4.765,0.234,7.743,1.407,10.025C107.782,389.289,106.708,388.254,105.546,387.134z
		 M72.572,383.5c-0.209,0-0.42,0.001-0.631,0.004c-5.938,0.712-13.953,5.205-18.172,7.803c-1.293,0.679-2.551,1.507-3.882,2.384
		c-4.047,2.661-8.65,5.677-15.839,5.312l-1.208-0.114c-6.922-0.654-10.558-1.001-14.486,0.875c-0.234-1.551,0.387-4.05,8.023-13.933
		l0.15-0.171c7.266-8.27,20.79-23.659,33.44-23.66c7.564,0.521,15.572,4.573,20.401,10.321l0.129,0.108
		c3.068,1.808,5.308,3.843,6.645,5.06c0.511,0.466,0.849,0.771,1.081,0.928l0.098,0.051c1.571,0.604,5.716,3.494,10.104,6.556
		c4.483,3.125,9.113,6.352,12.017,7.879c0.048,0.068,0.096,0.142,0.144,0.209c0.433,0.627,0.842,1.219,1.196,1.83
		c0.466,1.908,0.342,3.4-0.37,4.437c-0.622,0.901-1.555,1.226-1.986,1.331c-0.287-0.301-0.616-0.67-1.019-1.129
		C104.524,395.161,94.276,383.5,72.572,383.5z M121.577,397.497c6.514-0.54,20.068-1.668,23.55,2.585
		c3.389,3.812,6.637,8.59,7.489,9.866c-2.066,2.069-10.16,7.44-19.654,2.349c-1.341-0.626-3.039-2.701-4.836-4.897
		c-3.059-3.738-6.523-7.968-10.171-7.646l-0.854,0.078l0.488,0.704c0.105,0.15,10.82,15.335,17.049,17.703
		c6.075,1.399,22.212,5.126,25.405,13.966c4.246,9.553,4.074,16.125,3.745,18.729c-0.115,0.064-0.237,0.135-0.367,0.206
		c-3.807,2.146-13.916,7.842-28.568-7.74c-4.283-4.283-7.319-8.478-10.36-26.979l-0.05-0.151c-3.588-6.85-6.269-10.646-8.436-11.944
		l-0.683-0.41l-0.072,0.794c-0.122,1.34-0.361,2.354-0.614,3.431c-0.25,1.063-0.508,2.159-0.637,3.644
		c0.032,0.584,0.073,1.188,0.115,1.806c0.272,4.035,0.581,8.609-1.253,10.852l-0.06,0.094c-0.369,0.736-0.807,1.469-1.27,2.243
		c-2.266,3.782-5.086,8.492-1.251,17.654c1.25,3.334,3.126,5.926,4.94,8.433c2.567,3.547,4.991,6.896,5.278,11.894
		c0,1.207,0.017,2.587,0.036,4.066c0.078,6.263,0.185,14.84-0.994,18.982l-0.175,0.403c-2.408,5.534-3.862,8.874-3.366,15.814
		c0.177,4.789-0.925,10.37-1.654,14.062c-0.292,1.478-0.521,2.64-0.591,3.342c-0.529,3.439,1.046,8.804,2.297,10.8
		c0.971,1.941,1.625,4.661,2.104,6.647c0.241,1.001,0.433,1.8,0.609,2.263l0.118,0.705c0.511,3.048,1.367,8.149,1.376,10.313
		c-0.752,3.762-2.375,11.911,0.093,23.326c-2.142-4.652-3.661-9.493-3.354-16.709l0.023-0.556
		c0.482-11.781,0.645-15.751-5.043-27.357c-1.481-4.938-1.196-11.624,0.761-17.511c0.416-2.079,0.369-5.058,0.32-8.21
		c-0.072-4.543-0.146-9.239,1.16-11.719c0.282-0.782,0.576-1.554,0.872-2.33c2.094-5.499,4.26-11.186,3.15-22.929
		c-1.039-5.712-2.366-10.99-8.086-17.703c-2.269-3.142-7.317-11.142-5.188-17.529c0.566-1.484,1.385-3.151,2.252-4.918
		c2.209-4.496,4.713-9.592,4.529-14.55c-0.499-6.238-1.243-8.521-1.274-8.618l-0.105-0.312l-0.331-0.025
		c-3.314-0.262-10.537,0.502-14.193,5.204c-4.157,5.716-8.455,9.625-10.088,10.856c-0.857,0.477-1.992,1.308-3.429,2.356
		c-6.25,4.573-16.712,12.228-24.781,5.927c-5.471-4.043-10.486-8.85-6.603-19.108c4.522-6.353,15.452-15.438,21.754-14.74
		c3.906,0.403,12.962,2.233,20.953,3.847c6.806,1.374,13.234,2.673,15.548,2.903l1.394,0.14l-0.384-0.385
		c0.612-0.23,1.411-0.677,2.014-1.545c0.899-1.294,1.071-3.087,0.511-5.328l-0.051-0.127c-0.383-0.67-0.817-1.297-1.276-1.961
		c-1.774-2.563-3.761-5.451-3.125-11.798l0.168,0.099l0.048-0.812c0.129-2.191,0.259-3.721,0.353-4.68
		c1.644,2.07,3.788,3.649,4.256,3.983c0.351,0.719,2.501,5.378,1.914,10.411c-0.013,0.086-0.021,0.157-0.021,0.212
		c-0.241,2.891-0.722,4.37-0.727,4.385l0.095,0.05c-0.541,2.915-0.377,5.045-0.368,5.149l0.997-0.083
		c-0.002-0.023-0.161-2.123,0.368-4.946c0.323-0.437,0.649-0.87,0.98-1.311c3.151-4.176,6.722-8.909,7.404-16.188l0.046-1.788
		c0.17-7.031,0.233-9.662,6.764-17.334c3.002-2.369,9.048-4.736,12.591-3.021c1.89,0.916,2.849,2.895,2.853,5.812
		c-0.567,4.255-4.093,9.189-6.121,11.729c-0.782,0.842-2.136,2.032-3.85,3.54c-3.298,2.9-8.016,7.058-12.283,12.015
		c-0.181,0.128-0.36,0.249-0.542,0.38l0.101,0.142c-2.234,2.646-4.328,5.505-5.998,8.521l-0.411,0.742h0.848
		C118.54,397.75,119.88,397.639,121.577,397.497z M173.347,398.641c-8.207-7.924-16.316-12.222-24.838-13.141
		c-11.456-0.213-23.931,6.346-28.485,8.994c1.341-2.021,2.839-3.957,4.409-5.786c25.632-18.063,45.674-14.876,58.068-8.908v0.2
		c0.128,0,0.246-0.014,0.369-0.02c7.694,3.784,12.362,8.59,13.484,9.823c6.424,8.353,13.371,11.262,17.968,13.188
		c0.517,0.216,1.002,0.42,1.454,0.617C197.512,417.053,180.049,404.648,173.347,398.641z"/>
	<path d="M150.062,381.037l0.376,0.926c0.169-0.068,17.244-6.637,41.482,14.663l0.66-0.752
		C167.883,374.171,150.238,380.965,150.062,381.037z"/>
	<path d="M72.309,332.016l0.883,0.472c0.098-0.187,9.998-18.461,23.263-17.237l0.091-0.996
		C82.608,312.992,72.724,331.236,72.309,332.016z"/>
	<path d="M130.553,222.224l0.895-0.447c-6.55-13.101-15.527-13.993-15.906-14.024l-0.084,0.996
		C115.545,208.756,124.271,209.661,130.553,222.224z"/>
	<path d="M50.945,155.587c4.066,0,8.81-0.504,12.273-0.873c1.702-0.181,3.046-0.324,3.68-0.335c0.358-0.006,0.713-0.01,1.066-0.01
		c3.319,0,5.722,0.342,8.035,1.144c0.654,0.227,1.441,0.587,2.275,0.969c1.963,0.898,4.188,1.917,6.125,1.917
		c0.416,0,0.808-0.048,1.165-0.143c0.563-0.149,0.961-0.371,1.226-0.648l0.016,0.139c1.602-0.179,4.629,1.019,9.891,7.739
		c0.557,0.712,1.363,1.519,2.216,2.374c2.137,2.141,4.797,4.806,4.589,7.094l0.489,0.044c-1.678,15.016-2.791,39.366-2.989,59.709
		c-2.158,25.895-2.489,61.813-1.611,73.771c-13.213-12.816-17.774-27.356-21.456-39.094c-0.325-1.036-0.643-2.05-0.954-3.021
		c-5.938-21.242-4.946-44.027-4.758-47.404c11.259-0.881,14.738,6.664,17.805,13.322c0.342,0.743,0.68,1.476,1.021,2.184
		l0.808,1.673l0.141-1.853c0.535-7.025-1.088-12.297-4.824-15.67c-5.417-4.891-13.483-4.235-15.697-3.945l-0.211-5.263
		c0.149,0.02,0.301,0.032,0.456,0.032c0.557,0,1.151-0.131,1.759-0.395c1.787-0.775,3.258-2.491,3.498-4.079
		c0.143-0.949-0.17-1.97-0.797-2.602c-0.494-0.497-1.146-0.72-1.838-0.616c-0.411,0.06-0.769,0.267-1.091,0.545
		c0.172-0.358,0.303-0.719,0.345-1.066c0.126-1.033-0.403-1.826-1.453-2.176c-0.281-0.094-0.545-0.151-0.799-0.188
		c0.051-0.376,0.116-0.771,0.18-1.16c0.143-0.863,0.275-1.682,0.26-2.314c0.555-0.251,0.967-0.579,1.216-0.991
		c0.409-0.677,0.379-1.514-0.09-2.486c-0.716-1.485-2.024-1.677-3.001-1.21c-0.033,0.016-0.063,0.039-0.095,0.056
		c-0.306-0.663-0.829-1.113-1.503-1.244c-1.61-0.313-2.052,0.608-2.167,1.02c-0.363,1.304,0.767,3.533,2.046,4.124
		c-0.002,0.472-0.129,1.055-0.274,1.673c-0.23,0.978-0.482,2.064-0.285,3.063c-0.254-0.097-0.575-0.156-1.013-0.163
		c-1.184-0.021-2.017,0.496-2.442,1.447c-0.329,0.734-0.342,1.643-0.092,2.473c-0.114,0.057-0.227,0.107-0.344,0.182
		c-1.491,0.954-1.881,2.288-1.071,3.659c0.383,0.648,0.8,0.971,1.25,1.133c-0.091,0.166-0.156,0.341-0.161,0.532
		c-0.01,0.393,0.12,0.736,0.376,0.992c0.603,0.604,1.741,0.58,2.651,0.558c0.063-0.001,0.131-0.002,0.199-0.004l-0.175,2.974
		c-3.256-2.83-6.426-3.957-9.439-3.351c-5.251,1.057-8.449,7.152-9.581,9.723l0.811,0.555c8.985-8.983,13.651-6.184,16.738-4.331
		c0.177,0.106,0.348,0.209,0.514,0.306c-1.292,1.073-4.438,3.869-6.998,7.612c-2.793,3.557-3.62,7.719-2.856,14.31
		c0,6.08,2.992,8.578,5.243,9.929L62,248.383V247.5c0-0.042,0.009-4.216,0.697-6.776c1.03-2.06,1.546-3.093,1.803-7.974
		c0-4.139,1.458-8.237,2.825-11.179c0.108,2.682,0.334,8.482,0.676,18.214c1.174,16.673,5.687,29.736,8.673,38.38l0.592,1.713
		c3.875,14.603,10.92,23.793,15.992,28.845c-16.306-3.16-28.339,8.748-31.653,13.721c-1.474,1.895-6.22,14.021-9.055,21.27
		c-0.624,1.596-1.149,2.938-1.515,3.853l-0.25,0.622l0.669,0.062c1.124,0.101,2.216,0.149,3.28,0.149
		c17.928,0,27.551-13.746,32.857-21.326c0.679-0.97,1.278-1.824,1.78-2.488c3.796-4.242,8.189-5.422,10.104-5.178
		c-0.529,10.494,3.412,21.533,4.358,24.016l-4.722,1.351l0.274,0.961l14-4l-0.274-0.961l-8.313,2.375
		c-0.872-2.27-4.96-13.555-4.3-24.113l0.025-0.401l-0.387-0.109c-2.149-0.615-7.289,0.68-11.535,5.429
		c-0.534,0.702-1.141,1.568-1.829,2.552c-5.442,7.773-15.52,22.166-34.559,20.807c0.34-0.857,0.772-1.965,1.267-3.229
		c2.631-6.725,7.528-19.239,8.934-21.051c3.318-4.979,15.532-17.024,31.966-13.042l0.036-0.146c2.803,2.612,4.773,3.81,4.828,3.842
		l0.508-0.86c-0.151-0.09-15.155-9.202-21.531-33.231l-0.603-1.749c-2.969-8.594-7.457-21.582-8.621-38.106
		c-0.494-14.089-0.748-19.947-0.75-20.004h-0.011c0.794-1.497,1.408-2.423,1.426-2.449l-0.828-0.561
		c-0.218,0.321-5.336,7.97-5.335,16.004c-0.244,4.646-0.73,5.617-1.733,7.645c-0.555,2.033-0.708,4.808-0.751,6.225
		c-1.901-1.327-4.017-3.681-4.02-8.65c-0.743-6.441-0.001-10.264,2.666-13.661c3.164-4.624,7.349-7.853,7.391-7.885l0.636-0.486
		l-0.716-0.358c-0.344-0.172-0.714-0.395-1.118-0.637c-2.914-1.749-7.644-4.591-15.889,2.547c1.532-2.66,4.085-5.949,7.604-6.657
		c2.917-0.585,6.055,0.694,9.335,3.807l0.78,0.74l0.293-4.977l2.297-0.707l0.247,6.174l0.565-0.101
		c0.096-0.016,9.596-1.642,15.42,3.622c3.133,2.832,4.672,7.147,4.585,12.844c-0.052-0.114-0.105-0.228-0.158-0.343
		c-3.244-7.042-6.92-15.024-19.233-13.863l-0.422,0.04l-0.03,0.423c-0.018,0.248-1.682,25.104,4.772,48.188
		c0.316,0.987,0.633,1.999,0.958,3.033c3.803,12.125,8.536,27.216,22.677,40.43l0.967,0.904l-0.128-1.318
		c-1.01-10.352-0.739-48.03,1.502-74.947c0.263-26.838,2.105-60.594,4.743-70.671c0.654-3.854,1.633-9.047,2.744-14.648l0.245-0.067
		c-0.043-0.157-0.095-0.308-0.14-0.463c2.673-13.44,6.075-29.057,7.631-34.244c1.632-4.809,8.699-25.319,16.215-42.386
		c0.515-0.475,0.836-1.296,1.032-2.313c1.664-3.686,3.339-7.166,4.971-10.226l0.055-0.173c0.413-3.302,0.525-6.399,0.518-8.911
		l0.683,0.139c-0.415,1.028-0.65,1.989-0.431,2.835l0.968-0.251c-0.256-0.989,0.5-2.535,1.232-4.031
		c0.135-0.276,0.27-0.554,0.401-0.832c-0.275,1.913-0.803,3.839-1.376,5.535l-0.233,0.042c0.033,0.182,0.025,0.411-0.011,0.671
		c-0.43,1.202-0.862,2.256-1.205,3.039l0.268,0.117c-0.294,0.853-0.577,1.709-0.696,2.43l0.522,0.165
		c-3.216,7.303-9.39,23.168-11.093,28.038c-3.021,6.881-6.97,22.404-9.854,33.738c-1.433,5.633-2.671,10.498-3.42,12.832
		c-2.177,7.983-6.007,25.724-7.013,39.315c-0.405,3.04-0.756,6.921-1.053,10.961c-0.056,0.146-0.119,0.289-0.172,0.436l0.136,0.049
		c-0.768,10.639-1.16,22.192-1.165,22.354l-0.04,1.195l0.879-0.812c1.839-1.698,8.709-4.412,15.856-3.77
		c5.669,0.507,10.179,2.931,13.393,7.187c4.607,6.681,6.892,12.012,7.412,24.238l0.042,0.182c0.636,1.432,0.801,2.915,0.368,3.307
		c-0.275,0.249-0.989,0.083-1.861-0.41c-1.136-0.853-2.881-1.907-4.901-3.128c-5.067-3.063-12.008-7.259-14.469-11.477
		c-0.452-0.763-0.927-1.583-1.418-2.433c-3.346-5.786-7.138-12.343-10.502-12.785c-0.874-0.115-1.671,0.177-2.395,0.902
		c-0.621,0.746-1.269,0.721-2.166,0.68c-0.566-0.025-1.207-0.052-1.858,0.166l0.316,0.948c0.35-0.116,0.711-0.135,1.086-0.128
		c-0.104,2.058-1.516,29.87-1.994,40.636c-0.228,6.143-0.196,17.184-0.166,27.862c0.037,12.882,0.075,26.203-0.334,31.382
		c-0.493,10.604,1.196,25.013,3.543,30.229l0.912-0.41c-2.296-5.104-3.944-19.293-3.458-29.756
		c0.411-5.205,0.373-18.546,0.336-31.449c-0.03-10.668-0.062-21.699,0.165-27.818c0.48-10.813,1.903-38.838,1.995-40.648
		c0.796-0.001,1.633-0.146,2.359-1.02c0.467-0.467,0.965-0.656,1.527-0.585c2.875,0.378,6.858,7.265,9.766,12.294
		c0.493,0.853,0.97,1.677,1.421,2.439c2.588,4.436,9.654,8.707,14.814,11.826c1.997,1.207,3.722,2.25,4.87,3.106
		c1.395,0.797,2.43,0.903,3.079,0.318c0.958-0.866,0.56-2.872-0.085-4.367c-0.484-11.177-2.262-16.953-7.597-24.687
		c-3.355-4.444-8.236-7.071-14.114-7.598c-6.426-0.577-12.859,1.453-15.747,3.359c0.117-3.138,0.502-12.727,1.149-21.588
		c1.198-3.058,3.143-5.928,5.539-8.128c0.591-0.542,1.461-1.112,2.383-1.715c1.732-1.134,3.664-2.411,4.436-3.986
		c0.845,0.125,1.623,0.198,2.336,0.198c2.99,0,5.28-1.1,7.425-3.565c0.518-0.596,1.012-1.188,1.498-1.771
		c1.935-2.323,3.762-4.517,6.535-6.113c3.972-2.287,8.175-4.244,12.241-6.136c2.209-1.028,4.494-2.092,6.723-3.199
		c5.411-2.688,7.981-5.064,7.86-7.264c-0.065-1.188-0.81-1.869-2.042-1.869c-1.539,0-3.616,1-4.857,1.598
		c-0.187,0.09-0.35,0.168-0.482,0.229l-0.434,0.199c-13.648,6.257-29.116,13.349-37.241,26.59l-0.896,0.896l0.299,0.049
		c-0.749,1.214-2.434,2.319-3.945,3.308c-0.958,0.626-1.861,1.218-2.513,1.816c-1.871,1.718-3.437,3.76-4.641,6.003
		c0.248-3.032,0.528-5.879,0.84-8.224c0.225-3.03,0.59-6.266,1.045-9.552l0.096,0.077c0.758-0.947,1.546-2.174,2.381-3.472
		c1.205-1.875,2.45-3.813,3.841-5.325c0.854-0.928,1.733-1.85,2.614-2.774c1.389-1.458,2.812-2.956,4.148-4.49
		c3.604-0.937,6.483-3.458,9.056-6.101c4.823-4.954,10.046-8.994,16.438-12.715c1.344-0.783,2.693-1.593,4.043-2.404
		c1.689-1.015,3.436-2.064,5.149-3.042l0.65-0.364c2.456-1.363,7.027-3.902,7-6.591l-0.004-0.453l-0.452-0.04
		c-0.154-0.014-0.305-0.005-0.458-0.012l0.002-0.025c-0.168-0.017-0.344,0.002-0.517,0.012c-3.31,0.001-6.476,1.427-9.451,2.927
		c-5.329,2.687-10.277,6.064-15.062,9.331c-0.841,0.574-1.682,1.148-2.526,1.72c-3.327,2.252-6.01,4.806-8.445,8.038
		c-0.366,0.486-0.767,0.988-1.179,1.505c-1.524,1.91-3.225,4.059-3.949,6.343c-0.018,0.019-0.037,0.037-0.055,0.055l-0.001-0.001
		c-0.004,0.005-0.009,0.01-0.013,0.016c-0.319,0.317-0.631,0.624-0.956,0.95l0.007,0.007c-0.161,0.034-0.319,0.076-0.483,0.103
		l0.084,0.51c-1.215,1.372-2.497,2.72-3.75,4.034c-0.885,0.929-1.769,1.855-2.626,2.788c-1.45,1.576-2.776,3.64-3.946,5.461
		c-0.473,0.736-0.929,1.439-1.37,2.084c1.602-10.838,4.079-21.909,5.666-27.73c0.752-2.341,1.994-7.22,3.431-12.869
		c0.125-0.493,0.255-1.003,0.385-1.511l0.4,0.212c3.736-7.049,8.467-13.243,14.74-19.264c0.033-0.021,0.068-0.036,0.1-0.058
		l-0.015-0.022c0.881-0.844,1.792-1.685,2.735-2.524c3.275-2.913,6.912-5.501,10.429-8.005c3.818-2.718,7.767-5.528,11.286-8.774
		l0.322-0.292c1.424-1.284,4.759-4.29,4.773-6.509c0.001-0.189-0.028-0.365-0.072-0.535c0.241-0.311,0.474-0.636,0.689-0.993
		l-0.857-0.516c-0.122,0.203-0.252,0.39-0.384,0.575c-0.005-0.005-0.009-0.011-0.014-0.016c-1.841-1.702-6.198,0.305-10.218,2.491
		l-0.603,0.325c-7.688,4.04-14.032,9.843-19.964,18.263c-4.797,6.81-8.692,14.147-12.185,21.1
		c2.639-10.254,5.775-21.884,8.268-27.564c0.467-1.335,1.268-3.489,2.248-6.06l0.043,0.07c0.921-0.57,1.526-1.894,2.11-3.174
		c0.296-0.648,0.576-1.261,0.853-1.661c0.546-0.787,1.161-1.55,1.756-2.288c0.585-0.726,1.19-1.476,1.742-2.263
		c0.354-0.504,1.108-1.35,1.981-2.329c2.254-2.527,3.837-4.385,4.205-5.604c0.978-0.48,1.883-1.55,2.838-2.687
		c0.698-0.832,1.42-1.691,2.092-2.18c0.93-0.675,1.95-1.288,2.937-1.881c1.173-0.705,2.386-1.435,3.483-2.285
		c4.358-3.378,7.504-7.577,10.11-11.248l-0.675-0.712c-1.385,0.876-2.852,1.645-4.271,2.387c-2.436,1.275-4.954,2.594-7.132,4.497
		l-0.744,0.649c-2.029,1.771-4.128,3.602-6.12,5.478c-1.119,1.054-4.672,5.532-3.447,7.712c-0.292,1.024-2.772,3.807-4.022,5.208
		c-0.894,1.002-1.667,1.868-2.053,2.42c-0.533,0.76-1.127,1.497-1.702,2.209c-0.606,0.752-1.232,1.529-1.799,2.346
		c-0.126,0.182-0.248,0.397-0.367,0.624c2.689-6.902,5.914-14.893,7.692-18.751c0.028-0.094,0.072-0.213,0.113-0.327l0.025,0.023
		c0.567-0.611,1.106-1.24,1.647-1.87c1.103-1.285,2.243-2.615,3.623-3.77c0.713-0.597,1.502-1.195,2.266-1.774
		c1.082-0.82,2.19-1.668,3.164-2.562c2.301-1.267,7.451-4.335,7.599-6.489c0.026-0.378-0.076-0.915-0.708-1.331
		c-0.41-0.269-1.106-0.496-2.089-0.053c-2.399,1.081-5.174,5.622-5.363,6.938l0.09,0.013c-0.046,0.044-0.098,0.087-0.145,0.131
		c-0.357,0.194-0.678,0.362-0.915,0.475l0.111,0.234c-0.75,0.631-1.556,1.247-2.348,1.847c-0.772,0.586-1.572,1.191-2.303,1.804
		c-1.284,1.074-2.347,2.269-3.36,3.446c1.646-3.415,4.184-8.089,5.116-9.593c2.071,0.081,4.319-2.746,5.986-4.855
		c0.334-0.423,0.636-0.805,0.894-1.105l0.095-0.11l0.021-0.144c0.216-1.517-1.47-2.755-2.52-3.37l0.052-0.035
		c0.017-0.011,0.025-0.028,0.041-0.04l0.146,0.058c0.046-0.115,0.104-0.233,0.154-0.349c0.351-0.408,0.511-0.907,0.575-1.295
		c0.058-0.129,0.117-0.257,0.172-0.386l2.94-2.287l-0.614-0.789l-0.932,0.725l-0.669,0.223c-0.338,0.113-0.58,0.226-0.764,0.328
		L153.75,33l-0.113-0.158c0.008-0.021,0.01-0.036,0.029-0.065l0.277-0.416l-2.062-1.375c-0.109-0.426-0.25-0.844-0.434-1.21
		l-0.739-1.477l-0.883,7.067c-0.545-0.095-1.022,0-1.422,0.277c-0.753,0.522-1.176,1.629-1.333,3.581
		c-0.067-0.044-0.138-0.083-0.213-0.116c-0.673-0.294-1.541-0.056-2.635,0.726c-0.887,0.591-1.272,1.387-1.47,2.182l0.007-0.047
		l-0.027-0.1c-0.007-0.026-0.683-2.559-0.035-4.867c1.644-1.81,1.497-3.201,1.258-3.875c-0.318-0.9-1.148-1.57-2.116-1.706
		c-0.786-0.114-1.51,0.159-1.95,0.726c-1.944,1.521-3.044,3.418-3.272,5.64c-0.303,2.959,1.084,5.846,2.15,7.166
		c0.099,1.023,0.631,7.23-0.253,14.395c-1.239,2.328-2.503,4.897-3.767,7.609c0.021-0.758,0.019-1.535,0.009-2.296l-0.006-0.688
		c-0.003-1.483,0.024-2.978,0.057-4.475c0.266-1.79,0.524-3.627,0.635-5.457c0.314-5.166,0.312-10.088,0.309-15.3v-1.697
		l0.001-0.275c0.013-2.699-0.127-5.941-1.333-7.06c-0.332-0.308-0.736-0.453-1.171-0.418l-0.432,0.035l-0.028,0.432
		c-0.285,4.44,0.125,8.949,0.523,13.31c0.167,1.834,0.34,3.731,0.456,5.577c0.206,3.291,0.131,6.699,0.059,9.995
		c-0.006,0.258-0.012,0.516-0.017,0.773c-0.027,0.183-0.055,0.366-0.082,0.548c-0.485,3.248-0.988,6.606-0.725,10.078l0.35-0.026
		c-5.303,11.807-10.466,25.629-13.78,34.896c-0.229-2.53-0.565-5.065-0.895-7.537c-0.631-4.726-1.283-9.612-1.157-14.404
		c0.022-0.845,0.049-1.676,0.076-2.495c0.207-6.404,0.386-11.935-1.666-18.272c-0.954-2.948-1.699-6.086-2.415-10.176
		c-0.074-0.423-0.145-0.936-0.223-1.503c-0.413-2.997-0.979-7.102-3.175-8.554c-0.817-0.541-1.557-0.646-2.197-0.313
		c-1.406,0.728-1.638,3.287-1.671,4.354c-0.116,3.642,1.205,7.121,2.481,10.485l0.184,0.485c0.541,1.429,1.047,2.855,1.551,4.274
		c1.717,4.838,3.34,9.407,6.141,13.779l0.109-0.07c0,0.096,0,0.193,0,0.289c-0.207-0.015-0.325-0.163-0.339-0.199
		c0.072,0.26,0.211,0.376,0.339,0.425c-0.009,1.612-0.062,3.256-0.117,4.963c-0.027,0.821-0.054,1.654-0.076,2.501
		c-0.128,4.872,0.529,9.798,1.166,14.563c0.426,3.189,0.866,6.487,1.062,9.721c-1.166,3.296-2.026,5.807-2.476,7.133
		c-1.499,4.997-4.691,19.566-7.31,32.608c-1.151-3.207-2.727-6.184-4.385-9.295c-0.518-0.972-1.039-1.95-1.548-2.94
		c-0.893-1.736-1.925-3.669-3.108-5.461c-0.029-0.062-0.059-0.125-0.088-0.187c-1.276-2.676-2.482-5.205-3.087-8.174
		c-1.165-5.719-4.637-10.661-7.994-15.439c-1.098-1.563-2.233-3.179-3.242-4.766c-0.089-0.141-9.163-14.092-13.817-14.197
		c-0.412-0.004-0.789,0.101-1.125,0.294l-0.154-0.169c-0.234,0.213-0.395,0.465-0.497,0.747c-0.024,0.031-0.053,0.053-0.076,0.086
		l0.039,0.027c-0.048,0.166-0.083,0.338-0.088,0.525c-0.061,2.226,3.2,5.534,5.581,7.95c0.738,0.749,1.375,1.396,1.711,1.813
		c3.387,4.208,6.254,8.539,8.612,12.22c2.84,4.437,5.355,8.802,7.65,12.859c0.73,1.292,1.78,2.357,2.794,3.388
		c0.708,0.72,1.441,1.464,2.041,2.266c0.301,0.402,0.585,0.829,0.869,1.256c0.417,0.876,0.838,1.763,1.242,2.683l0.309-0.136
		c0.549,0.978,1.066,1.954,1.538,2.872c0.512,0.995,1.035,1.977,1.555,2.953c1.922,3.608,3.734,7.032,4.869,10.815
		c-1.134,5.71-2.133,11.009-2.797,14.918c-0.556,2.124-1.077,5.306-1.556,9.241c-0.761-2.12-2.837-4.205-4.59-5.961
		c-0.831-0.833-1.617-1.62-2.137-2.284c-4.211-5.379-7.679-8.107-10.341-8.135c-0.087-2.807-10.49-7.27-10.596-7.315
		c-2.904-1.224-5.858-1.793-9.297-1.793c-2.698,0-5.394,0.345-8.248,0.709l-1.693,0.214c-0.503,0.062-1.428,0.069-2.499,0.078
		c-3.655,0.029-9.18,0.074-11.162,2.141c-0.531,0.554-0.788,1.218-0.762,1.973C42.95,154.683,45.512,155.587,50.945,155.587z
		 M67.597,207.689c-0.045-0.051-0.102-0.092-0.155-0.135c0.028-0.053,0.06-0.104,0.085-0.158c0.008,0.019,0.008,0.039,0.017,0.058
		l0.912-0.409c-0.162-0.362-0.096-0.741,0.196-1.126c0.354-0.468,0.962-0.813,1.564-0.96c0.083-0.014,0.165-0.031,0.249-0.056
		c0.194-0.028,0.387-0.041,0.563-0.016c0.158,0.023,0.289,0.075,0.408,0.14c-0.039,0.074-0.083,0.162-0.12,0.226l0.591,0.338
		c0.166,0.464-0.167,1.139-0.896,1.807c-1.064,0.976-2.314,1.364-2.669,1.196c-0.026-0.013-0.107-0.051-0.092-0.315l-0.374-0.021
		C67.828,207.996,67.703,207.807,67.597,207.689z M71.9,204.149c-0.022-0.012-0.041-0.026-0.063-0.037
		c0.059-0.051,0.115-0.108,0.173-0.162C71.973,204.017,71.936,204.083,71.9,204.149z M74.487,202.739
		c0.378-0.054,0.711,0.056,0.985,0.332c0.405,0.408,0.613,1.11,0.517,1.747c-0.188,1.25-1.438,2.674-2.906,3.311
		c-0.4,0.173-1.054,0.377-1.716,0.277c0.11-0.089,0.218-0.18,0.319-0.272c1.059-0.972,1.48-2.029,1.156-2.902
		c-0.05-0.134-0.122-0.25-0.192-0.366C73.116,203.98,73.764,202.844,74.487,202.739z M71.828,200.002
		c0.598,0.199,0.845,0.55,0.777,1.105c-0.134,1.096-1.348,2.423-2.263,2.794c-0.553,0.075-1.111,0.292-1.597,0.608
		c-0.003-0.105-0.008-0.209-0.028-0.313c0.089-0.118,0.165-0.254,0.225-0.411c0.092-0.081,0.166-0.244,0.167-0.573
		c0.051-0.241,0.096-0.494,0.14-0.767c0.154-0.975,0.33-2.08,0.967-2.468c0.011-0.007,0.025-0.008,0.037-0.015
		c0,0.011-0.001,0.024-0.001,0.035l1,0.002c0-0.044,0.005-0.095,0.007-0.141C71.435,199.89,71.622,199.934,71.828,200.002z
		 M70.54,197.542c-0.075,0.451-0.149,0.907-0.205,1.345c-0.229,0.049-0.447,0.12-0.639,0.237c-0.586,0.356-0.908,0.966-1.112,1.631
		c-0.098-0.398-0.206-0.726-0.405-0.977l0.536-0.212c-0.333-0.843-0.074-1.943,0.176-3.006c0.049-0.208,0.096-0.412,0.139-0.613
		c0.658-0.034,1.242-0.109,1.75-0.226C70.752,196.23,70.648,196.887,70.54,197.542z M70.343,191.605
		c0.25-0.121,1.108-0.418,1.669,0.743c0.313,0.648,0.358,1.165,0.134,1.535c-0.348,0.576-1.37,0.945-2.901,1.054
		c0-0.01,0.001-0.021,0.001-0.032l0.003-0.148h-0.05c0-0.004,0-0.007,0-0.011c0.651-0.638,0.957-1.718,0.915-2.693
		c-0.004-0.098-0.019-0.188-0.03-0.283C70.166,191.706,70.251,191.649,70.343,191.605z M67.11,190.802
		c0.029-0.104,0.098-0.353,0.589-0.353c0.116,0,0.256,0.014,0.424,0.046c0.526,0.103,0.772,0.55,0.889,0.959
		c-0.404,0.556-0.556,1.286-0.214,2.008l0.085-0.04c-0.019,0.045-0.037,0.09-0.058,0.132l-0.267,0.159
		C67.755,193.298,66.888,191.602,67.11,190.802z M65.091,201.086c0.26-0.58,0.775-0.891,1.514-0.856
		c0.826,0.013,0.836,0.056,1.011,0.777c0.042,0.174,0.09,0.369,0.154,0.584c0.083,0.277,0.271,1.157,0.329,1.566
		c-0.053,0.222-0.113,0.407-0.183,0.47l0.1,0.111l-0.421,0.304c0.156,0.217,0.204,0.518,0.125,0.785
		c-0.005,0.017-0.015,0.039-0.022,0.058c-0.12-0.415-0.304-0.8-0.551-1.118c-0.455-0.584-1.193-1.018-2.103-0.916
		C64.865,202.249,64.866,201.59,65.091,201.086z M63.533,206.483c-0.194-0.328-0.784-1.327,0.749-2.307
		c0.075-0.048,0.146-0.065,0.219-0.104c0.114,0.184,0.237,0.36,0.382,0.517l0.735-0.678c-0.007-0.007-0.012-0.017-0.019-0.024
		c0.283,0.07,0.543,0.219,0.758,0.495c0.551,0.708,0.685,1.914,0.156,2.798c-0.457-0.069-0.955-0.029-1.393,0.097
		C64.325,207.297,63.968,207.22,63.533,206.483z M66.766,209.207c-0.647,0.016-1.621,0.037-1.921-0.264
		c-0.043-0.044-0.087-0.109-0.083-0.262c0.003-0.133,0.204-0.295,0.499-0.404c0.008-0.003,0.017-0.003,0.025-0.006
		c0.072-0.002,0.143-0.004,0.216-0.006c0.159-0.006,0.328-0.012,0.507-0.015l-0.001-0.098c0.359-0.007,0.667,0.059,0.806,0.181
		l0.03,0.032c0.003-0.003,0.005-0.007,0.008-0.01h0.001c0.069,0.077,0.053,0.219-0.049,0.42l0.656,0.329
		c0.033,0.049,0.071,0.081,0.107,0.121C67.339,209.205,67.083,209.199,66.766,209.207z M158.263,145.007l0.434-0.199
		c0.136-0.063,0.305-0.144,0.499-0.237c1.088-0.524,3.113-1.499,4.424-1.499c0.715,0,1.007,0.259,1.044,0.923
		c0.065,1.191-1.149,3.254-7.307,6.313c-2.217,1.102-4.496,2.162-6.699,3.188c-4.085,1.901-8.309,3.867-12.318,6.176
		c-2.928,1.686-4.811,3.946-6.804,6.339c-0.481,0.578-0.97,1.165-1.484,1.755c-1.964,2.258-3.959,3.222-6.67,3.222
		c-0.535,0-1.102-0.037-1.717-0.113C129.687,158.109,144.86,151.152,158.263,145.007z M158.726,123.5l-0.661,0.37
		c-1.723,0.983-3.474,2.036-5.168,3.053c-1.346,0.809-2.691,1.617-4.031,2.397c-6.473,3.769-11.764,7.862-16.652,12.882
		c-2.073,2.129-4.34,4.183-7.01,5.308c4.975-4.933,9.316-8.835,14.677-12.487c2.69-1.832,5.346-3.758,7.914-5.621
		c3.073-2.229,6.25-4.534,9.481-6.672c0.516-0.341,1.114-0.8,1.747-1.286c1.918-1.472,4.295-3.281,6.062-3.192
		c0.021,0,0.042,0,0.064,0.001C164.607,120.234,160.685,122.412,158.726,123.5z M128.901,141.408
		c0.418-0.524,0.825-1.034,1.196-1.527c2.366-3.141,4.974-5.623,8.207-7.811c0.845-0.572,1.688-1.147,2.53-1.722
		c4.758-3.248,9.678-6.606,14.948-9.264c1.604-0.808,3.264-1.591,4.957-2.132c-0.81,0.542-1.599,1.142-2.324,1.699
		c-0.619,0.475-1.204,0.924-1.69,1.246c-3.249,2.149-6.435,4.461-9.516,6.696c-2.563,1.859-5.212,3.781-7.889,5.604
		c-4.816,3.28-8.809,6.755-13.154,10.972C126.949,143.854,127.962,142.584,128.901,141.408z M159.869,81.552l-0.33,0.299
		c-3.474,3.203-7.396,5.995-11.188,8.695c-3.539,2.519-7.198,5.124-10.513,8.073c-0.943,0.839-1.844,1.681-2.726,2.524
		c-0.578,0.353-1.252,0.44-1.842,0.23c0-0.045,0.011-0.098,0.012-0.144c0.908-0.631,1.534-1.488,2.127-2.333
		c0.304-0.433,0.618-0.88,0.964-1.279c1.317-1.521,2.781-2.759,4.34-4.077c0.829-0.701,1.684-1.379,2.542-2.059
		c1.067-0.845,2.17-1.72,3.219-2.638c3.102-2.717,6.597-4.935,9.978-7.079c1.113-0.706,2.227-1.413,3.333-2.14l0.785-0.51
		c1.286-0.832,2.527-1.634,3.612-2.679C163.56,78.223,160.839,80.677,159.869,81.552z M134.707,95.956
		c5.837-8.286,12.069-13.99,19.611-17.954l0.615-0.331c1.512-0.823,5.543-3.015,7.827-3.015c0.518,0,0.946,0.113,1.234,0.379
		c0.029,0.026,0.039,0.06,0.063,0.087c-1.121,1.269-2.498,2.16-4.032,3.152l-0.791,0.514c-1.102,0.724-2.211,1.428-3.32,2.131
		c-3.412,2.165-6.94,4.404-10.101,7.172c-1.029,0.901-2.123,1.768-3.181,2.606c-0.867,0.687-1.73,1.372-2.576,2.086
		c-1.581,1.337-3.073,2.6-4.441,4.178c-0.379,0.438-0.708,0.907-1.026,1.36c-0.361,0.514-0.717,1.003-1.121,1.433
		c0.026-0.134,0.047-0.268,0.074-0.401c0.15-0.747,0.282-1.448,0.215-2.015C134.073,96.878,134.384,96.414,134.707,95.956z
		 M132.569,99.126c-0.002,0.011-0.004,0.021-0.006,0.032c-0.167,0.83-0.356,1.77-0.273,2.599l0.027,0.267l0.238,0.125
		c0.373,0.196,0.779,0.29,1.191,0.317c-3.803,3.789-7.025,7.663-9.794,11.788C126.524,109.231,129.342,104.077,132.569,99.126z
		 M148.113,58.354c1.978-1.862,4.069-3.687,6.091-5.451l0.745-0.65c2.089-1.825,4.444-3.058,6.938-4.364
		c0.75-0.393,1.514-0.793,2.275-1.213c-2.286,3.098-5.006,6.389-8.517,9.11c-1.05,0.814-2.238,1.528-3.386,2.218
		c-1.005,0.604-2.043,1.229-3.009,1.928c-0.772,0.561-1.534,1.468-2.271,2.346c-0.756,0.901-1.535,1.828-2.253,2.293
		C144.383,63.026,146.808,59.583,148.113,58.354z M157.779,42.153c0.271-0.123,0.488-0.163,0.656-0.163
		c0.26,0,0.407,0.097,0.473,0.14c0.244,0.16,0.269,0.299,0.26,0.426c-0.085,1.234-3.401,3.528-5.903,5.018
		C153.994,46.009,156.041,42.936,157.779,42.153z M139.802,45.296l0.5-0.051c-0.154,0.644-0.289,1.307-0.302,1.996l1,0.019
		c0.011-0.584,0.125-1.159,0.267-1.75c0.075,0.159,0.171,0.322,0.3,0.492c-0.172,0.527-0.373,1.06-0.581,1.608
		c-0.375,0.983-0.761,2-0.972,3.024C140.006,48.118,139.879,46.208,139.802,45.296z M141.426,41.791
		c0.058-0.178,0.109-0.344,0.163-0.514c0.059,0.35,0.118,0.61,0.151,0.748c-0.077,0.476-0.214,0.867-0.348,1.245L141,43.216
		C141.127,42.735,141.277,42.251,141.426,41.791z M141.581,48.877c0.111-0.306,0.225-0.611,0.34-0.913
		c0.259-0.68,0.516-1.373,0.723-2.074c0.092-0.084,0.176-0.173,0.248-0.269C142.668,46.643,142.121,47.773,141.581,48.877z
		 M143.82,46.037l0.223-0.033l0.011,0.462l0.403,0.012c-0.083,0.184-0.154,0.373-0.215,0.565l0.022,0.013
		c-0.091,0.163-0.181,0.326-0.267,0.492c0-0.001,0-0.002,0-0.004l-0.67-0.06C143.53,46.998,143.701,46.514,143.82,46.037z
		 M147.471,45.857c0.007,0.005,0.015,0.006,0.021,0.011c-0.837,1.316-3.566,6.298-5.302,9.912c0.096-0.336,0.189-0.677,0.291-1.001
		c0.21-0.671,0.479-1.351,0.762-2.069c0.473-1.197,0.944-2.431,1.166-3.671c0.264-0.655,0.599-1.292,0.97-1.911
		c0.019-0.032,0.039-0.063,0.057-0.094c0.31-0.512,0.64-1.012,0.976-1.498l-0.364-0.251l0.098-0.387l-0.011,0.002
		c0.41-0.429,0.569-1.233,0.554-2.045C146.71,44.28,146.884,45.43,147.471,45.857z M148.742,43.484
		c-0.549-0.741-0.292-2.423,0.182-3.568c-0.128,0.46-0.216,0.931-0.263,1.38C148.588,41.987,148.597,42.788,148.742,43.484z
		 M148.793,43.685c0.149,0.58,0.4,1.071,0.803,1.321c0.021,0.013,0.055,0.024,0.079,0.037c-0.509,0.338-0.996,0.525-1.428,0.482
		l-0.188-0.476c-0.128-0.084-0.26-0.416-0.327-1.263c0.109,0.218,0.249,0.415,0.426,0.581L148.793,43.685z M154.264,40.051
		c-0.24,0.286-0.513,0.632-0.812,1.01c-0.761,0.963-1.798,2.272-2.835,3.228l-0.133-0.211c-0.239,0.153-0.328,0.098-0.359,0.079
		c-0.342-0.212-0.618-1.326-0.469-2.757c0.139-1.337,0.686-3.038,1.765-3.429l-0.249-0.687l0.369,0.17
		C152.267,37.791,154.256,38.961,154.264,40.051z M151.983,35.844l0.294,0.172c-0.002,0.004-0.004,0.009-0.006,0.013
		c-0.019,0.016-0.029,0.042-0.049,0.055l-0.365,0.244C151.895,36.178,151.938,36.016,151.983,35.844z M152.633,32.69
		c-0.042,0.204-0.021,0.382,0.015,0.517c0.036,0.133,0.097,0.249,0.167,0.356c-0.121,0.257-0.248,0.542-0.396,0.891
		c-0.056,0.132-0.113,0.265-0.169,0.395c0.341-1.315,0.399-1.77,0.224-2.068l-0.223-0.168v-0.178L152.633,32.69z M148.973,36.466
		c0.096-0.066,0.385-0.266,1.102,0.002l0.593,0.222l0.5-3.999c0.08,0.734,0.083,1.297,0.083,1.308h0.181
		c-0.098,0.415-0.228,0.896-0.324,1.252c-0.152,0.563-0.293,1.091-0.349,1.411l0.472,0.083l-0.499,0.333l0.132,0.061
		c-0.713,0.345-1.237,1.02-1.596,1.827l-0.655-0.532c-0.181,0.223-0.373,0.563-0.549,0.965
		C148.186,37.785,148.49,36.8,148.973,36.466z M144.791,40.657c1.029-0.734,1.487-0.71,1.666-0.632
		c0.109,0.048,0.203,0.167,0.286,0.326c-0.004,0.122-0.01,0.257-0.016,0.406c-0.029,0.707-0.047,1.389-0.04,2.024
		c-0.026-0.828-0.229-1.65-0.529-2.071l-0.814,0.58c0.386,0.542,0.494,2.498,0.068,2.924c-0.072,0.071-0.264-0.045-0.371-0.122
		l-0.046,0.064l-0.909-0.341c-0.214,0.354-0.276,0.653-0.295,0.934h-0.481c0.121-0.419,0.177-0.87,0.228-1.316
		C143.661,42.354,143.778,41.332,144.791,40.657z M142.624,42.688c-0.032,0.217-0.057,0.429-0.08,0.633
		c-0.04,0.351-0.08,0.654-0.136,0.918l-0.268-0.034c0.045-0.164,0.103-0.339,0.179-0.552
		C142.421,43.363,142.533,43.049,142.624,42.688z M141.7,32.411c0.602,0.085,1.117,0.497,1.313,1.049
		c0.25,0.708-0.022,1.594-0.767,2.53l-0.198-0.447c-0.519,0.23-0.943,0.241-1.274,0.087c0.06-0.141,0.119-0.288,0.18-0.418
		l-0.789-0.369c-0.02-0.083-0.032-0.169-0.04-0.257c0.006-0.006,0.009-0.015,0.015-0.021l-0.019-0.016
		c-0.039-0.614,0.234-1.291,0.855-1.602l-0.155-0.308C141.126,32.384,141.522,32.387,141.7,32.411z M140.404,36.564
		c0.016,0.007,0.03,0.017,0.046,0.023c-0.112,0.636-0.397,1.443-0.694,2.286c-0.183,0.519-0.374,1.063-0.541,1.611
		C139.511,39.364,139.926,37.879,140.404,36.564z M139.122,34.292c-0.513,0.778-0.796,1.675-1.036,2.486
		c-0.15,0.508-0.297,0.98-0.482,1.374c0.006-0.088,0-0.176,0.009-0.264C137.75,36.554,138.262,35.353,139.122,34.292z M137.6,38.295
		l0.845,0.433c0.254-0.495,0.422-1.064,0.6-1.666c0.131-0.441,0.264-0.89,0.433-1.315c0.033,0.056,0.065,0.111,0.104,0.165
		c-0.691,1.819-1.264,4.037-1.566,5.214l0.96,0.247c-0.14,0.589-0.227,1.168-0.224,1.716
		C138.083,41.835,137.517,40.101,137.6,38.295z M138.845,43.268l0.905-0.041c-0.053-1.178,0.48-2.688,0.95-4.021
		c0.315-0.894,0.615-1.75,0.74-2.486c0.103-0.009,0.204-0.014,0.313-0.037c-0.228,0.789-0.315,1.588-0.33,2.328l-0.418,0.062
		c0.077,0.533-0.218,1.446-0.531,2.412c-0.341,1.052-0.697,2.218-0.72,3.29c-0.004-0.042-0.007-0.075-0.008-0.078l-0.017-0.153
		l-0.1-0.117C139.381,44.135,139.108,43.739,138.845,43.268z M133.75,30.452c1.026,0.983,1.007,4.99,1.001,6.311l-0.001,0.28v1.697
		c0.002,3.001,0.003,5.906-0.056,8.814c-0.11-1.53-0.251-3.075-0.389-4.579C133.932,38.861,133.545,34.614,133.75,30.452z
		 M111.406,60.915c-0.505-1.424-1.014-2.857-1.558-4.293l-0.184-0.485c-1.242-3.273-2.527-6.657-2.417-10.098
		c0.047-1.474,0.416-3.127,1.132-3.498c0.094-0.049,0.199-0.073,0.314-0.073c0.245,0,0.537,0.111,0.872,0.333
		c1.819,1.202,2.371,5.207,2.736,7.856c0.08,0.581,0.152,1.105,0.228,1.539c0.725,4.138,1.48,7.318,2.449,10.312
		c1.208,3.731,1.621,7.198,1.714,10.751C114.401,69.349,112.942,65.241,111.406,60.915z M84.665,101.239
		c0.13,0.205,0.274,0.41,0.408,0.615c-0.181-0.192-0.362-0.401-0.542-0.583c-2.062-2.08-4.441-3.989-6.741-5.835l-0.1-0.08
		c-0.328-0.263-0.693-0.547-1.08-0.848c-1.886-1.468-4.47-3.479-5.42-5.245l-0.055,0.03c-0.224-0.464-0.355-0.89-0.345-1.25
		c0.002-0.078,0.027-0.139,0.043-0.207c0.227-0.225,0.495-0.328,0.836-0.33C74.908,87.579,81.95,96.967,84.665,101.239z
		 M94.216,122.365c-2.302-4.069-4.825-8.449-7.679-12.906c-2.372-3.704-5.257-8.063-8.674-12.308
		c-0.293-0.364-0.772-0.863-1.336-1.438c0.18,0.141,0.375,0.292,0.538,0.422l0.1,0.08c2.279,1.829,4.635,3.72,6.657,5.759
		c3.527,3.558,7.14,9.125,9.911,15.273l0.272,0.601c1.038,2.292,2.274,5.046,2.778,7.623
		C95.795,124.469,94.866,123.514,94.216,122.365z M44.369,151.461c1.691-1.763,7.173-1.807,10.449-1.833
		c1.147-0.009,2.053-0.016,2.613-0.085l1.698-0.214c2.821-0.36,5.486-0.701,8.121-0.701c3.3,0,6.131,0.545,8.908,1.715
		c3.443,1.45,10.091,5.037,9.993,6.437c-0.013,0.183-0.328,0.374-0.842,0.51c-0.274,0.073-0.58,0.109-0.909,0.109
		c-1.719,0-3.838-0.97-5.708-1.826c-0.856-0.392-1.665-0.762-2.364-1.004c-2.423-0.84-4.924-1.199-8.362-1.199
		c-0.359,0-0.72,0.004-1.083,0.01c-0.679,0.012-2.042,0.157-3.769,0.341c-3.441,0.366-8.154,0.867-12.167,0.867
		c-6.089,0-7.038-1.178-7.062-1.88C43.868,152.226,44.026,151.818,44.369,151.461z"/>
	<path d="M62.644,223.559c-0.396,0.464-0.807,0.943-1.083,1.452l0.879,0.479c0.227-0.417,0.602-0.855,0.965-1.28
		c0.562-0.657,1.142-1.336,1.331-2.087l-0.97-0.243C63.634,222.402,63.13,222.99,62.644,223.559z"/>
	<path d="M60.342,230.461c-1.073,1.517-0.967,4.201-0.881,6.357c0.021,0.525,0.041,1.012,0.039,1.43l1,0.003
		c0.001-0.43-0.019-0.931-0.04-1.472c-0.075-1.899-0.179-4.501,0.698-5.741L60.342,230.461z"/>
</g>
</svg>
