<?xml version="1.0" encoding="utf-8"?>
<!-- Generator: Adobe Illustrator 16.0.0, SVG Export Plug-In . SVG Version: 6.00 Build 0)  -->
<!DOCTYPE svg PUBLIC "-//W3C//DTD SVG 1.1//EN" "http://www.w3.org/Graphics/SVG/1.1/DTD/svg11.dtd">
<svg version="1.1" id="Poplar" xmlns="http://www.w3.org/2000/svg" xmlns:xlink="http://www.w3.org/1999/xlink" x="0px" y="0px"
	 width="148px" height="445.334px" viewBox="0 0 148 445.334" enable-background="new 0 0 148 445.334" xml:space="preserve">
<g id="Tracing">
	<g>
		<path fill="none" stroke="#000000" stroke-miterlimit="10" d="M122.125,225.25c6.062,0.505,10.833-0.167,11.266,8
			c0.197,3.722-5.099,14.333-12.999,17.193c-1.382,2.84-0.763,4.677,0.086,6.547c0.758,1.67,1.756,3.61,0.604,5.248
			c-4.309,6.121-1.295,12.439-0.127,18.348c2.02,10.222,0.385,16.292-7.921,22.469c-2.131,1.586-5.067,2.889-6.056,5.045
			c-2.049,4.468-5.86,5.913-9.796,6.859c-6.552,1.574-10.04,5.935-12.651,11.62c-0.957,2.082-1.378,3.575,0.888,5.079
			c3.519,2.335,3.02,5.399,0.625,8.102c-2.286,2.579-3.586,5.53-4.747,8.675c-1.627,4.412-3.882,8.516-7.291,11.819
			c-2.342,2.27-3.041,4.911-3.083,8.095c-0.096,7.157-0.389,14.316-0.809,21.463c-0.667,11.349,0.849,13.703,11.795,17.227
			c2.216,0.713,4.54,1.087,6.758,1.794c2.992,0.952,5.401,0.226,11.708,2.086c6,1.157,13.472,14,12.583,14
			c-0.945,0-7.583-12.491-20.834-13.168c-0.888-0.045-3.073-0.79-2.666,0c5.917,11.501-2.954,20.334-2.333,18.668
			c8.167-21.917-7.444-18.668-9.666-18.668c-0.983,0-1.965,0-2.948,0c-2.247,0,1.867,4.717-5.288,16.459
			c-0.252,0.413,7.184-20.419-3.223-16.959c-4.292,1.427-8.513,6.57,0.678,20.817c0.301,0.467-0.396-1.514-0.75-1.043
			c0,0-10.68-10.343-6.1-19.016c0.066-0.126-17.33,0.799-23.828,17.241c-0.197,0.499-1.523-6.727,2-10.25
			c3.75-3.75,6.512-6.914,4.625-7.25c-10.75-1.916-34.752,13.334-35.667,13.334c-1.945,0,17.833-13.166,20.917-14.583
			c3.658-1.469,4.881-1.522,6.911-1.732c4.463-0.461,8.954-0.715,13.44-0.864c4.505-0.15,10.708-3.615,10.997-6.561
			c1.268-12.921,2.864-25.828,2.135-38.861c-0.19-3.405-0.834-6.718-3.307-9.193c-4.168-4.174-9.053-7.844-6.903-14.985
			c0.423-1.407-0.758-2.88-1.755-4.007c-7.216-8.164-10.305-17.659-8.917-28.452c0.312-2.428-1.131-2.12-2.229-1.96
			c-8.221,1.197-10.911-4.63-13.437-10.545c-0.686-1.605-2.026-3.641-0.771-5.177c1.555-1.903,2.94,1.821,5.81,0.222
			c-4.772-9.203-1.211-20.078-6.338-30.268c5.923,2.763,6.908,8.162,9.437,13.086c1.063-3.676-0.128-6.283-1.26-8.832
			c-2.474-5.568-3.948-11.16-3.056-17.432c0.506-3.559-0.439-7.307-2.959-10.291c-1.536-1.818-2.591-3.902-3.146-6.185
			c-1.067-4.392-3.419-7.905-6.903-10.714c0-2.334,5.138-2.332,6-3.5c2.75-4.366,2.843-13.386,7.649-18.017
			c3.099-2.986,5.338-6.657,1.052-11.737c-5.23-6.2-6.347-14.694-4.914-22.337c1.139-6.075,1.974-11.479-0.793-17.103
			c-0.35-0.71-0.538-1.758,0.339-2.255c1.163-0.658,2.312-0.017,3.261,0.626c2.943,1.994,4.126,0.611,4.753-2.26
			c0.638-2.926,1.378-5.83,2.104-8.736c0.558-2.235,0.641-5.105,3.202-5.806c2.677-0.733,3.258,2.287,4.574,3.825
			c1.33,1.554,2.425,3.561,4.745,1.465c2.162-1.955,0.824-3.322-0.77-4.908c-5.157-5.131-7.453-11.389-5.978-18.577
			c0.474-2.31-0.139-3.751-1.333-5.44c-4.506-6.375-3.185-14.328,0.553-18.749c4.231-5.004,3.51-8.893,2.77-13.864
			c-0.646-4.343,0.92-8.524,3.343-11.696c4.657-6.096,7.728-12.703,9.325-20.105c0.205-0.951,0.054-2.29,1.205-2.503
			c1.48-0.275,1.728,1.266,2.245,2.22c2.112,3.895,3.374,8.152,5.405,12.131c2.682,5.252,3.559,10.777,2.081,17.239
			c-1.586,6.937-0.358,14.517-0.358,22.679c2.011-2.935,1.443-5.471,1.41-7.819c-0.061-4.25,0.429-8.017,5.161-9.691
			c2.508-0.888,1.241-2.639,0.732-4.135c-0.964-2.833-2.681-5.883-1.316-8.661c1.607-3.27,2.417-5.796-0.697-8.542
			c-0.96-0.847-1.24-2.764-0.331-3.741c4.233-4.552,1.396-9.051,0-13.455c-0.739-2.334-0.192-4.55-0.38-6.728
			c-0.528-6.123,3.08-10.638,4.959-15.816c1.333,0,2.667,0,4,0c0.623,2.37,1.245,4.74,1.87,7.118
			c1.773-0.231,1.896-1.909,2.884-2.711c0.991-0.805,1.833-1.371,2.968-0.139c2.549,2.768,5.842,5.092,7.614,8.275
			c2.409,4.327,8.175,8.247,3.298,14.506c-0.953,1.223-0.907,3.375,1.284,4.105c1.699,0.566,1.558,1.776,1.658,3.164
			c0.441,6.091,1.694,12.131-1.425,18.068c-0.903,1.719-1.144,5.088,2.302,5.412c5.074,0.478,6.975,4.043,7.53,8.03
			c1.28,9.188,2.992,18.472-1.156,27.542c-0.977,2.136-2.029,5.436,0.775,6.743c3.722,1.735,3.876,4.699,3.162,7.462
			c-1.479,5.715,1.976,11.662-1.137,17.198c-0.317,0.563-0.196,1.617,0.591,1.602c3.149-0.059,2.116,1.92,1.615,3.359
			c-0.816,2.347-0.388,4.585,0.041,6.889c0.686,3.683,0.75,7.301-2.186,10.929c4.637-1.202,6.559,1.604,7.186,4.655
			c0.825,4.02,2.623,8.376,1.198,12.282c-2.229,6.109,0.225,11.407,1.504,16.954c1.09,4.726,2.034,9.434,1.847,14.319
			C122.983,209.159,125.792,217.75,122.125,225.25 M70.358,246.48c0-0.551,0.064-1.386-0.014-2.208
			c-0.147-1.558,0.411-3.877-1.939-3.878c-2.151-0.002-4.271,1.002-4.419,3.785c-0.071,1.324-0.02,2.656-0.116,3.979
			c-0.495,6.787,2.702,12.934,3.444,19.534c0.253,2.248-1.027,6.884,1.87,6.536c3.07-0.367,2.994-5.451,1.963-7.769
			C68.2,259.835,69.466,253.359,70.358,246.48z"/>
	</g>
</g>
<path fill="none" stroke="#000000" stroke-miterlimit="10" d="M93.748,114.197c0-0.276,0.064-0.694-0.014-1.105
	c-0.147-0.779,0.411-1.94-1.939-1.941c-2.151-0.001-4.271,0.501-4.419,1.895c-0.071,0.663-0.02,1.33-0.116,1.992
	c-0.495,3.397,2.702,6.474,3.444,9.778c0.253,1.125-1.027,3.445,1.87,3.271c3.07-0.184,2.994-2.729,1.964-3.889
	C91.59,120.881,92.856,117.64,93.748,114.197z"/>
<path fill="none" stroke="#000000" stroke-miterlimit="10" d="M51.88,157.202c-0.051-0.21-0.065-0.544-0.217-0.84
	c-0.287-0.56,0.042-1.577-2.243-1.025c-2.091,0.504-4.059,1.386-3.946,2.483c0.053,0.522,0.226,1.019,0.254,1.547
	c0.145,2.709,3.82,4.306,5.15,6.653c0.453,0.799-0.363,2.871,2.421,2.058c2.951-0.861,2.407-2.785,1.192-3.429
	C51.015,162.81,51.648,160.039,51.88,157.202z"/>
<path fill="none" stroke="#000000" stroke-miterlimit="10" d="M100.096,214.886c0.047,0.113,0.042,0.318,0.203,0.451
	c0.305,0.252-0.153,0.999,2.598-0.124c2.517-1.028,4.913-2.25,4.851-2.897c-0.029-0.308-0.202-0.56-0.201-0.88
	c0.005-1.644-4.257-1.388-5.684-2.401c-0.487-0.344,0.619-1.917-2.742-0.46c-3.562,1.544-3.042,2.561-1.641,2.549
	C101.49,211.086,100.557,213.034,100.096,214.886z"/>
<path fill="none" stroke="#000000" stroke-miterlimit="10" d="M76.65,308.142c0-0.276,0.064-0.694-0.014-1.105
	c-0.147-0.779,0.411-1.941-1.939-1.941c-2.151-0.001-4.271,0.502-4.419,1.895c-0.071,0.663-0.02,1.33-0.116,1.992
	c-0.495,3.396,2.702,6.473,3.444,9.777c0.253,1.125-1.027,3.445,1.87,3.271c3.07-0.184,2.994-2.729,1.964-3.889
	C74.492,314.825,75.759,311.584,76.65,308.142z"/>
<path fill="none" stroke="#000000" stroke-miterlimit="10" d="M89.102,34.419c-0.043-0.181-0.046-0.47-0.188-0.723
	c-0.27-0.476,0.1-1.372-2.23-0.81c-2.132,0.515-4.153,1.353-4.079,2.303c0.035,0.451,0.191,0.877,0.201,1.335
	c0.047,2.349,3.705,3.602,4.964,5.594c0.429,0.678,0.58,6.69,3.424,5.881c3.013-0.855,1.483-6.689,0.279-7.204
	C88.024,39.325,88.765,36.894,89.102,34.419z"/>
<path fill="none" stroke="#000000" stroke-miterlimit="10" d="M54.144,67.354c0.049,0.118,0.083,0.313,0.202,0.47
	c0.226,0.297,0.089,0.932,1.517,0.35c1.307-0.533,2.506-1.275,2.353-1.908c-0.073-0.301-0.221-0.574-0.278-0.882
	c-0.294-1.578-2.774-2.102-3.803-3.333c-0.351-0.419,0.021-1.73-1.708-0.937c-1.833,0.84-1.341,1.911-0.512,2.153
	C54.284,63.956,54.083,65.659,54.144,67.354z"/>
</svg>
