<?xml version="1.0" encoding="utf-8"?>
<!-- Generator: Adobe Illustrator 16.0.0, SVG Export Plug-In . SVG Version: 6.00 Build 0)  -->
<!DOCTYPE svg PUBLIC "-//W3C//DTD SVG 1.1//EN" "http://www.w3.org/Graphics/SVG/1.1/DTD/svg11.dtd">
<svg version="1.1" id="Layer_1" xmlns="http://www.w3.org/2000/svg" xmlns:xlink="http://www.w3.org/1999/xlink" x="0px" y="0px"
	 width="243px" height="495px" viewBox="433.5 67.5 243 495" enable-background="new 433.5 67.5 243 495" xml:space="preserve">
<g id="outlines">
	<g>
		<g>
			<g>
				<g>
					<path fill="none" stroke="#000000" stroke-miterlimit="10" d="M492.383,340.443c0,0-1.755-6.677-9.942,0.58
						c-3.217,2.611-5.119,15.529,0.292,23.365c4.094,5.515,16.667,20.172,18.13,23.801c1.169-1.161,2.778-7.691,6.286-13.062
						c2.631-5.224,6.286-17.269-0.876-28.589C501.739,340.298,497.646,335.074,492.383,340.443z"/>
					<path fill="none" stroke="#000000" stroke-miterlimit="10" d="M479.369,352.054c0,0-10.672-2.902-12.133,17.996
						c-0.148,3.337-0.001,10.159,8.187,21.044c2.193,2.903,5.118,8.998,5.263,12.916c0.292,0.437,1.17,1.452,2.779-1.74
						c1.463-2.903,4.386-4.646,8.335-7.983c3.361-2.758,6.87-6.966,6.726-10.014"/>
					<path fill="none" stroke="#000000" stroke-miterlimit="10" d="M467.235,370.049c0,0-5.118-10.884-1.756-24.671
						c1.608-6.097,12.868-15.82,19.154-6.097"/>
					<path fill="none" stroke="#000000" stroke-miterlimit="10" d="M508.027,327.382c0,0-7.164,0.145-3.509,11.465
						c0.585,2.468,3.654,8.562,10.234,12.917c3.51,2.757,8.919,6.819,12.574,9.286c0.29-0.725,0.145-9.434-1.17-21.625
						C524.402,333.186,523.087,324.479,508.027,327.382z"/>
					<path fill="none" stroke="#000000" stroke-miterlimit="10" d="M526.304,341.023c0,0,7.748,6.677,8.917,8.127
						c1.023-3.048,5.267-12.916-2.339-24.817c-2.192-3.483-8.772-8.707-10.38-1.741c-1.022-0.581-15.499-0.291-15.645,2.466
						c0.438,1.018,1.169,2.323,1.169,2.323"/>
					<path fill="none" stroke="#000000" stroke-miterlimit="10" d="M467.526,341.314c-2.193,1.886-5.993,6.386-7.458,8.418
						c-0.438-13.643,5.41-20.317,11.697-26.268c9.212-8.564,14.476-3.63,14.476-3.63s5.996-2.61,10.382,4.064
						c0.146,2.903-8.188,7.691-8.774,13.787"/>
					<path fill="none" stroke="#000000" stroke-miterlimit="10" d="M489.019,337.686c0,0-0.729-2.032,0.587-4.644"/>
					<path fill="none" stroke="#000000" stroke-miterlimit="10" d="M492.383,340.443c0,0-1.463-6.676-0.439-9.725
						c1.9-1.741,7.018-4.788,15.206-5.226"/>
					<path fill="none" stroke="#000000" stroke-miterlimit="10" d="M496.624,323.898c0,0,19.591-6.966,26.317-2.611"/>
					<path fill="none" stroke="#000000" stroke-miterlimit="10" d="M513.876,319.979c0,0,0.291-5.369-0.731-8.128
						c0.878,0.146,5.849,1.889,5.41,8.128"/>
					<path fill="none" stroke="#000000" stroke-miterlimit="10" d="M503.786,321.723l-1.17-2.032c0,0,4.388-7.255-9.064-6.819
						c-1.169,0.144-3.655,2.177-5.849,3.337c1.316,0.726,5.555,5.806,15.059,3.483"/>
					<path fill="none" stroke="#000000" stroke-miterlimit="10" d="M494.722,312.579c0,0,7.164-6.096,14.621-2.903
						c0.878,1.017,1.607,2.904,0.146,4.935c0,0,2.632,3.193,3.362,5.225"/>
					<path fill="none" stroke="#000000" stroke-miterlimit="10" d="M503.495,317.368c0,0,4.971-0.58,5.994-2.757"/>
					<path fill="none" stroke="#000000" stroke-miterlimit="10" d="M534.345,326.366c0,0,5.85-0.29,6.58,4.645
						c-0.146,0.436-2.049,1.305-4.532,0.579"/>
					<path fill="none" stroke="#000000" stroke-miterlimit="10" d="M536.962,339.571c0,0,13.86,12.346,14.429,27.272
						c0.853,9.297,1.137,34.088,1.137,34.088s-1.703,11.127-2.557,14.509"/>
					<path fill="none" stroke="#000000" stroke-miterlimit="10" d="M547.635,353.604c0,0-11.002,0.283-11.002,8.453
						c3.688,0,9.364,0.562,10.5,2.816c1.703,3.38,3.122,3.945,4.258,4.227"/>
					<path fill="none" stroke="#000000" stroke-miterlimit="10" d="M556.498,360.365c0,0,1.986,13.802,9.367,11.55
						C568.418,370.225,572.959,360.365,556.498,360.365z"/>
					<path fill="none" stroke="#000000" stroke-miterlimit="10" d="M541.456,262.893c0,0-14.474,17.183,1.703,19.438"/>
					<path fill="none" stroke="#000000" stroke-miterlimit="10" d="M545.996,259.792c0,0,10.502-8.451,22.705-12.958
						c-0.568,6.197-3.12,25.917-20.717,34.931"/>
					<path fill="none" stroke="#000000" stroke-miterlimit="10" d="M550.253,280.921c0,0,2.555,4.226,3.974,5.353"/>
					<path fill="none" stroke="#000000" stroke-miterlimit="10" d="M557.065,275.005c0,0,0.853,2.819,1.985,2.819"/>
					<path fill="none" stroke="#000000" stroke-miterlimit="10" d="M596.799,182.886c0,0-17.595,19.722-19.015,29.018
						c-0.853,7.887-0.567,18.029-6.812,41.128c-0.284,5.071-1.985,11.833-1.703,16.341c2.84-2.255,33.771-33.524,33.771-33.524"/>
					<path fill="none" stroke="#000000" stroke-miterlimit="10" d="M599.354,246.555c-3.404,3.38-26.11,25.915-26.11,25.915
						s-0.853,2.817,2.554,0c5.109-2.816,18.731-10.987,35.762-8.731c14.762,1.691,21.287,4.226,29.803,1.128
						c2.84,0.562,2.271,4.506,0.565,4.789c-3.122-0.281-18.163,0-23.271-1.408"/>
					<path fill="none" stroke="#000000" stroke-miterlimit="10" d="M614.112,265.993c0,0-4.259-2.818-7.379,1.69
						c-1.138,3.098-0.568,7.042,0.852,9.86c3.121-0.283,16.177-2.818,10.217-11.27C616.383,265.71,615.815,265.147,614.112,265.993z
						"/>
					<path fill="none" stroke="#000000" stroke-miterlimit="10" d="M628.587,265.428c0,0-15.326-1.971-9.933-9.86
						c4.256-7.043,6.242-10.143,6.524-12.114c3.122,0.564,17.312,7.606,12.486,16.058c-2.836,3.945-4.539,4.79-7.944,3.945
						C629.723,264.583,628.587,265.428,628.587,265.428z"/>
					<path fill="none" stroke="#000000" stroke-miterlimit="10" d="M637.385,269.373c3.689,0,3.405,3.38,3.405,8.169
						c-1.42,16.62-14.19,17.465-16.177,16.902c0.565-1.408-1.42-2.818-3.977-10.705c0,0-3.688-10.706,2.271-14.932"/>
					<path fill="none" stroke="#000000" stroke-miterlimit="10" d="M603.893,263.737c0,0-1.134-5.351,0.854-9.859
						c3.974,0.845,10.786,2.535,9.935,10.142"/>
					<path fill="none" stroke="#000000" stroke-miterlimit="10" d="M599.637,244.019c0,0-2.271,8.169,5.108,9.859
						c3.122-1.127,4.825-5.353-0.854-11.269C601.339,242.329,599.637,244.019,599.637,244.019z"/>
					<path fill="none" stroke="#000000" stroke-miterlimit="10" d="M603.893,242.609c0,0-0.563-6.761,9.652-7.606
						c9.079,0.845,11.92,4.225,12.771,5.071c-3.692,2.535-10.785,7.606-19.583,6.198"/>
					<path fill="none" stroke="#000000" stroke-miterlimit="10" d="M601.908,236.13c0,0-6.529-3.098-9.083-11.832
						c5.959,0,17.312-1.41,19.3,10.705C608.15,236.13,604.462,237.258,601.908,236.13z"/>
					<path fill="none" stroke="#000000" stroke-miterlimit="10" d="M606.733,267.683c0,0-33.49,4.506-43.425,21.409
						c-1.42,3.945-2.271,57.472-1.42,71.558"/>
					<path fill="none" stroke="#000000" stroke-miterlimit="10" d="M562.174,371.915l0.567,27.889c0,0,0.852,15.213-1.276,21.553"/>
					<path fill="none" stroke="#000000" stroke-miterlimit="10" d="M495.054,247.68c-8.165,2.575-12.37-4.619-16.978-9.551
						c2.036,1.278,4.838,0.48,6.334,2.367"/>
					<path fill="none" stroke="#000000" stroke-miterlimit="10" d="M495.903,247.68c-9.102-2.418-18.458-13.986-20.699-22.755
						c7.812-0.403,16.424,4.21,19.85,11.346"/>
					<path fill="none" stroke="#000000" stroke-miterlimit="10" d="M486.112,227.397c-5.028-4.176-7.027-9.851-7.643-16.057
						c-0.674-6.809,2.204-10.234,4.652-16.322c1.729,3.143,6.352,3.14,9.28,4.584c3.11,1.535,5.738,3.88,7.649,6.782
						c3.141,4.766,6.556,15.004,2.66,20.168"/>
					<path fill="none" stroke="#000000" stroke-miterlimit="10" d="M502.716,226.129c2.451-1.05,4.519-3.717,6.406-5.768
						c-0.355,3.949,0.848,6.146-1.191,9.663c-1.677,2.889-4.238,4.873-6.489,7.091"/>
					<path fill="none" stroke="#000000" stroke-miterlimit="10" d="M501.439,236.693c0.16,1.547,0.757,2.093,2.496,1.753
						c-0.487,3.087-3.701,6.868-6.756,7.544"/>
					<path fill="none" stroke="#000000" stroke-miterlimit="10" d="M502.716,272.612c-4.996-0.193-10.396-2.72-15.312-1.254
						c-4.772,1.419-9.188,6.005-9.75,10.911c6.122,0.307,11.649-0.124,15.271-5.431"/>
					<path fill="none" stroke="#000000" stroke-miterlimit="10" d="M493.775,271.767c-4.473,6.335,3.834,10.292,6.705,14.749
						c1.6-3.669,2.968-10.236,1.384-13.903"/>
					<path fill="none" stroke="#000000" stroke-miterlimit="10" d="M614.252,235.003c-1.494-9.102,15.064-12.461,21.286-11.831
						c9.539,0.966,16.231,4.157,23.808,10.056c-5.042-0.113-10.481,3.732-15.271,5.168c-4.531,1.357-14.054,2.651-18.327,0.832"/>
					<path fill="none" stroke="#000000" stroke-miterlimit="10" d="M618.512,227.397c-3.803-2.875-10.052-7.354-12.253-11.936
						c-2.559-5.329-1.455-12.88-0.433-18.446c5.384,2.729,10.498,6.144,13.217,11.683c2.463,5.018,3.389,11.277,5.428,16.163"/>
					<path fill="none" stroke="#000000" stroke-miterlimit="10" d="M625.748,224.017c-4.324-20.105,14.035-26.226,28.435-34.185
						c-0.984,6.745-0.079,14.595-2.062,21.062c-2.004,6.527-6.615,9.112-11.471,13.123"/>
					<path fill="none" stroke="#000000" stroke-miterlimit="10" d="M610.848,230.778c2.281-0.718,4.904-2.717,6.387-4.648"/>
					<path fill="none" stroke="#000000" stroke-miterlimit="10" d="M595.096,184.718c2.633-1.733,5.105-4.852,7.205-7.098
						c-1.399-0.203-2.924-0.099-4.088,0.274c3.192-3.328,9.736-3.843,13.891-5.959c4.13-2.103,8.5-4.638,11.794-7.933
						c-2.614-0.417-5.156-1.017-7.896-0.919c5.318-7.053,18.333-8.542,25.883-10.541c-1.125-3.496-5.038-3.83-8.012-4.681
						c3.126-1.803,6.628-5.7,8.746-8.813c-5.488-1.339-9.465,1.166-13.806,4.216c-0.125-1.882-0.101-3.819-0.055-5.725
						c-6.062,4.408-11.743,9.823-14.524,16.605c0.043-2.6,0.099-5.255-0.053-7.825c-4.752,1.71-10.934,14.195-13.019,18.495
						c-0.633-1.433-1.134-2.945-1.714-4.153c-0.408,2.766-2.936,4.63-3.831,7.248c-0.892,2.604-0.15,5.693-1.03,8.314
						c-0.845-1.015-2.202-1.699-3.238-2.449c-1.235,4.054-0.649,8.692-2.531,12.315c-1.72,3.303-4.659,7.672-6.916,10.46
						c0,0,0.852-31.692,1.274-35.073"/>
					<path fill="none" stroke="#000000" stroke-miterlimit="10" d="M579.345,159.787c0,0-0.852,32.538-0.852,37.608
						c-1.276,5.494-7.663,24.932-7.663,31.693c-0.853,0.845-7.662-10.564-10.217-20.283"/>
					<path fill="none" stroke="#000000" stroke-miterlimit="10" d="M559.336,218.946c0,0,2.98,8.874,7.237,13.099
						c0.852,6.339-0.427,15.635-0.427,15.635"/>
					<path fill="none" stroke="#000000" stroke-miterlimit="10" d="M540.604,246.412c-0.492-0.323-2.439-1.983-2.938-3.317
						c0.889-0.073,2.041-0.234,2.938-0.062"/>
					<path fill="none" stroke="#000000" stroke-miterlimit="10" d="M544.861,246.412c1.813-0.033,3.228-1.128,3.766-2.872
						c-1.091-0.505-2.508-0.951-3.766-0.931"/>
					<path fill="none" stroke="#000000" stroke-miterlimit="10" d="M540.604,226.552l0.569,12.396
						c-0.853,50.144,7.094,61.695,10.784,69.301c0,0-19.018-12.959-27.531-19.72c-25.26-18.311-26.961-37.749-27.245-41.974
						c0,0-1.419,0-2.27,1.125c-0.567,21.691,19.583,38.031,30.366,46.765c16.178,15.212,27.247,21.412,28.666,20.284
						c0,0,0,33.521,0,41.976c-5.679-11.271-17.879-23.944-17.879-23.944"/>
					<path fill="none" stroke="#000000" stroke-miterlimit="10" d="M544.438,227.82l0.426,11.691c0,0-0.566,49.298,9.936,65.638
						c0.282-10.141-2.556-18.312,1.418-24.509c4.824-5.352,9.082-9.577,9.082-9.577c1.136-7.606,0.852-10.706,0.852-10.706"/>
					<path fill="none" stroke="#000000" stroke-miterlimit="10" d="M531.239,163.589c0,0-8.089,13.522-3.406,27.467
						c-4.258-4.226-9.792-3.803-9.792-3.803c0.854,7.606,2.129,17.325,9.792,27.044c-3.406-2.113-3.406-2.113-3.406-2.113
						c0.854,5.916-1.702,16.058,16.18,14.368c3.831,1.268,17.026,3.38,20.435-13.521c-2.555-1.69-5.536-0.845-5.536-0.845
						c5.11-3.38,18.308-6.338,19.585-19.438c-5.96-0.845-10.219-2.113-12.347,0.422c0-4.225,0-4.225,0-4.225
						c-3.405,0-5.959-1.69-9.366,1.267C552.95,183.45,547.842,167.393,531.239,163.589z"/>
					<path fill="none" stroke="#000000" stroke-miterlimit="10" d="M541.456,238.807c-3.613-0.019-6.98-3.628-8.555-6.571
						c2.363-0.355,4.861-0.19,7.275-0.19"/>
					<path fill="none" stroke="#000000" stroke-miterlimit="10" d="M544.861,238.807c2.854-0.285,4.715-3.334,5.961-5.494"/>
					<path fill="none" stroke="#000000" stroke-miterlimit="10" d="M544.438,231.2c2.092,0.522,4.332,1.012,5.959,2.536"/>
					<path fill="none" stroke="#000000" stroke-miterlimit="10" d="M535.921,131.052c7.153,3.803,8.276,28.219,8.276,39.7"/>
					<path fill="none" stroke="#000000" stroke-miterlimit="10" d="M546.139,129.362c-4.683,5.071,0.474,37.301,1.278,45.027"/>
					<path fill="none" stroke="#000000" stroke-miterlimit="10" d="M543.159,149.723c1.532-13.606,24.735,3.227,29.374,4.993"/>
					<path fill="none" stroke="#000000" stroke-miterlimit="10" d="M542.306,148.875c-6.604-10.376-16.562,5.319-16.602,10.911"/>
					<path fill="none" stroke="#000000" stroke-miterlimit="10" d="M525.704,159.787c-2.514,1.697-3.552,4.156-3.771,7.045
						c1.314-1.875,3.208-4.854,3.77-6.263c-0.281,2.691,0.351,5.089,1.301,7.54c-0.042-2.441-0.004-4.886-0.042-7.329
						c0.698,1.284,1.734,2.456,2.923,3.188c-0.291-2.235-2.812-3.163-3.755-5.028"/>
					<path fill="none" stroke="#000000" stroke-miterlimit="10" d="M542.306,148.25c-2.648-4.028-19.441-7.998-23.839-6.211"/>
					<path fill="none" stroke="#000000" stroke-miterlimit="10" d="M510.325,144.67c-4.729-0.65-3.107-4.579,0.479-5.167
						c4.046-0.662,9.864,1.472,6.31,6.01C515.45,147.631,508.652,149.279,510.325,144.67z"/>
					<path fill="none" stroke="#000000" stroke-miterlimit="10" d="M524.854,121.333c2.146,4.313,3.937,8.814,6.291,13.204
						c6.48,9.917,8.184,9.712,11.163,15.048"/>
					<path fill="none" stroke="#000000" stroke-miterlimit="10" d="M517.189,121.333c-1.397,1.582-3.705,2.539-5.46,3.328
						c-0.683-3.299-2.882-6.833-4.716-9.58c2.473-0.165,6.441-0.721,8.057,0.772c1.638,1.516,1.526,5.264,2.119,7.17"/>
					<path fill="none" stroke="#000000" stroke-miterlimit="10" d="M512.508,114.572c-0.307-2.889,0.521-5.712,1.252-8.303
						c1.378,2.791,4.541,5.17,7.219,6.729c-1.231,1.987-3.646,3.407-4.64,5.378"/>
					<path fill="none" stroke="#000000" stroke-miterlimit="10" d="M520.596,113.727c2.372-0.027,4.455,1.226,6.322,2.643
						c-0.798,1.67-1.119,3.559-1.713,5.333c-3.061-1.071-5.96-2.905-8.441-5.018"/>
					<path fill="none" stroke="#000000" stroke-miterlimit="10" d="M521.874,121.333c-4.364,3.026-1.974,4.91-3.363,8.788
						c3.239,0.57,6.787,1.627,8.057-2.017c1.111-3.203-1.278-6.21-3.843-7.616"/>
					<path fill="none" stroke="#000000" stroke-miterlimit="10" d="M512.933,124.713c-1.726,2.694-0.978,7.768-0.767,10.944
						c1.588-1.43,4.761-3.314,5.778-5.029c1.547-2.604,0.227-5.181,0.882-7.964c-0.815,0.104-2.161-0.477-2.487-0.485"/>
					<path fill="none" stroke="#000000" stroke-miterlimit="10" d="M524.854,114.572c-0.301-1.705-0.712-3.608-0.361-5.43
						c5.142,0.242,9.249-1.916,12.622-5.523c0.007,2.251,0.721,4.253,1.748,6.199c-3.066,1.792-9.96,6.014-8.536,9.337
						c-0.938,0.054-2.72-0.126-3.705-0.421c0.23-1.554-0.062-2.985-0.915-4.163"/>
					<path fill="none" stroke="#000000" stroke-miterlimit="10" d="M529.962,118.375c0,2.319-0.894,6.768-0.011,8.874
						c1.181,2.813,4.393,2.912,7.175,3.326c-0.223-2.86,0.927-5.313,1.286-7.913c-3.5-0.292-3.598-4.271-8.45-3.864"/>
					<path fill="none" stroke="#000000" stroke-miterlimit="10" d="M536.771,120.488c-0.848-3.091,1.462-4.153,4.189-3.866
						c-0.234-1.932-1.495-4.056-2.487-5.853"/>
					<path fill="none" stroke="#000000" stroke-miterlimit="10" d="M540.179,116.685c2.082-0.447,3.871,0.788,4.576,2.503
						c1.065-3.624,2.588-3.091,1.384-6.73c-0.777-2.357-2.378-5.071-3.299-7.148c-0.417,2.333-1.766,4.082-3.938,5.037"/>
					<path fill="none" stroke="#000000" stroke-miterlimit="10" d="M546.99,113.727c2.126,2.369,4.999,4.041,7.171,6.443
						c-1.865,2.059-4.902,3.58-6.662,5.777c-0.537-2.379-2.317-3.976-3.488-5.882"/>
					<path fill="none" stroke="#000000" stroke-miterlimit="10" d="M547.842,125.136c-0.849,3.893-3.144,5.651-6.386,8.283
						c-1.005-1.291-3.188-2.657-3.831-2.79"/>
					<path fill="none" stroke="#000000" stroke-miterlimit="10" d="M537.625,122.178c2.042,1.313,4.982-0.667,6.812-1.69"/>
					<path fill="none" stroke="#000000" stroke-miterlimit="10" d="M557.207,108.233c-1.616-2.031-3.63-3.673-6.322-3.74
						c-0.286,5.601-1.127,9.293,4.512,11.283C556.622,113.366,556.543,110.946,557.207,108.233"/>
					<path fill="none" stroke="#000000" stroke-miterlimit="10" d="M555.503,115.417c0.012,3.637,0.255,10.266,5.898,8.811
						c0.087-1.722,0.834-5.949-0.022-7.457c-1.189-2.09-3.897-1.095-4.172-4.312"/>
					<path fill="none" stroke="#000000" stroke-miterlimit="10" d="M552.95,105.275c0-3.535,0.081-8.196,2.15-12.107
						c1.055,4.789,1.187,7.099,4.233,10.417c2.109,2.293,2.373,1.376,2.555,5.071c0.118,2.381,0,4.799,0,7.184"/>
					<path fill="none" stroke="#000000" stroke-miterlimit="10" d="M557.633,113.727c0.011-3.083-0.456-6.232,2.555-8.029"/>
					<path fill="none" stroke="#000000" stroke-miterlimit="10" d="M571.257,155.139c-1.653,0.789-5.854-1.377-5.885,1.617
						c2.112,0.845,4.679,0.568,6.799,0.076c-1.755,0.795-0.686,7.629,1.765,6.035c1.521-0.991-0.775-7.005-1.4-8.151"/>
					<path fill="none" stroke="#000000" stroke-miterlimit="10" d="M578.493,161.054c-0.367-3.347-6.076-2.991-5.99-5.903
						c0.066-2.284,5.223-3.407,6.842-3.816"/>
					<path fill="none" stroke="#000000" stroke-miterlimit="10" d="M578.919,162.745c0.63-4.269,1.608-8.709,1.277-13.1
						c-0.311-4.082-3.138-7.048-2.557-11.409"/>
					<path fill="none" stroke="#000000" stroke-miterlimit="10" d="M582.751,164.012c0-4.509,0.59-9.508-0.095-13.944
						c-0.648-4.19-3.797-7.755-4.163-11.832"/>
					<path fill="none" stroke="#000000" stroke-miterlimit="10" d="M577.217,139.081c-1.271-4.623-8.722-8.445-6.748-13.459
						c6.327,0.361,7.26-6.218,13.062-7.615c0.416,3.77-3.821,6.917-4.619,10.5c-0.845,3.795,0.01,8.783,0.01,12.687"/>
					<path fill="none" stroke="#000000" stroke-miterlimit="10" d="M578.919,128.094c-1.464,1.854-5.457,2.848-6.386,0"/>
					<path fill="none" stroke="#000000" stroke-miterlimit="10" d="M573.385,124.713c2.627-7.816,1.768-15.806,2.191-24.022
						c0.556-0.049,1.018-0.057,1.576,0c0.343,6.752,0.962,14.455,0.487,21.064"/>
					<path fill="none" stroke="#000000" stroke-miterlimit="10" d="M582.751,157.674c5.288-5.259,7.22-15.661,10.334-22.398
						c3.388-7.332,6.717-14.914,8.823-22.394"/>
					<path fill="none" stroke="#000000" stroke-miterlimit="10" d="M587.432,148.377c-1.473-0.036-3.075-0.812-4.199-1.657
						c0.681,2.642,1.167,5.349,2.501,7.573"/>
					<path fill="none" stroke="#000000" stroke-miterlimit="10" d="M585.731,153.026c2.405,0,6.492,0.779,8.138-0.847
						c-1.511-1.502-3.378-2.891-5.158-4.224"/>
					<path fill="none" stroke="#000000" stroke-miterlimit="10" d="M588.711,145.842c-2.382-1.308-6.11-4.622-5.896-7.543
						c3.104-0.155,5.908,0.271,8.877,0.36"/>
					<path fill="none" stroke="#000000" stroke-miterlimit="10" d="M588.711,146.264c5,0,9.368,0.519,13.58-2.218
						c-2.718-2.871-6.822-4.755-10.175-5.81"/>
					<path fill="none" stroke="#000000" stroke-miterlimit="10" d="M592.542,136.545c-2.097-2.413-4.163-5.954-6.066-8.759
						c-2.432-3.588-1.981-6.603-2.798-10.532c4.762,3.027,10.031,4.896,14.824,6.614"/>
					<path fill="none" stroke="#000000" stroke-miterlimit="10" d="M592.967,135.701c5.485,3.432,18.563,0.832,23.798-2.642
						c-2.87-3.066-7.29-4.854-10.132-8.261c10.135-0.656,21.097-6.539,24.489-16.924c-7.602-0.381-16.274-0.231-22.123,4.108
						c7.312-8.897,12.175-20.271,8.162-31.583c-10.44,5.04-24.612,14.754-20.787,28.68"/>
					<path fill="none" stroke="#000000" stroke-miterlimit="10" d="M598.075,123.868c-8.191-9.509-12.594-22.272-4.99-33.68
						c0.884,2.734,3.371,4.152,4.565,6.636"/>
					<path fill="none" stroke="#000000" stroke-miterlimit="10" d="M530.388,468.682c0,0-6.812-14.365-17.88,0.425
						c-2.129,3.381-5.107,12.677,6.812,12.677C526.13,481.781,532.94,479.246,530.388,468.682z"/>
					<path fill="none" stroke="#000000" stroke-miterlimit="10" d="M528.684,478.823c0,0,9.365,6.762,24.269-5.915
						c8.089-7.606,25.117-32.538,7.237-53.244c0,0-15.326-11.831-29.375-0.422c-8.938,9.296-13.623,21.551-11.92,43.945"/>
					<path fill="none" stroke="#000000" stroke-miterlimit="10" d="M483.984,447.554c0,0-0.854-8.026,9.791-14.79
						c4.684-1.268,14.898-0.422,15.752,13.945c0,6.76-2.129,13.521-14.049,18.593C491.646,465.725,483.984,466.992,483.984,447.554z
						"/>
					<path fill="none" stroke="#000000" stroke-miterlimit="10" d="M552.95,399.382c0,0-5.96,10.143-16.604,10.563
						c-8.089,2.111-27.672,18.171-28.947,28.732"/>
					<path fill="none" stroke="#000000" stroke-miterlimit="10" d="M552.099,406.565c0,0-6.386,5.915-14.474,6.761
						c-5.961,2.11-22.139,11.408-22.989,19.858c-0.426,5.915-1.275,8.874-4.683,9.721"/>
					<path fill="none" stroke="#000000" stroke-miterlimit="10" d="M563.168,404.875c-1.032,4.138,6.995,6.397,9.695,8.545
						c3.493,2.773,5.259,6.966,9.151,9.086c8.065,4.387,19.438,5.8,26.702,12.371"/>
					<path fill="none" stroke="#000000" stroke-miterlimit="10" d="M563.168,402.762c8.896-1.124,18.746,6.313,23.53,13.406
						c5.021,7.445,4.424,16.033,11.377,22.934"/>
					<path fill="none" stroke="#000000" stroke-miterlimit="10" d="M592,426.001c15-4.334,18.232-15.457,21.297-18.686
						c5.843-6.15,10.905-4.414,17.134,0.094"/>
					<path fill="none" stroke="#000000" stroke-miterlimit="10" d="M611.699,409.522c5.271-0.02,9.763-1.611,13.197,3.381"/>
					<path fill="none" stroke="#000000" stroke-miterlimit="10" d="M609.146,414.171c4.726-0.41,10.355,3.877,13.194,7.186"/>
					<path fill="none" stroke="#000000" stroke-miterlimit="10" d="M605.738,418.396c0.697,2.661,6.862,3.008,9.461,4.144
						c3.051,1.334,6.341,4.089,3.134,7.794c-3.769,4.354-5.448-0.213-6.729-2.641c-1.668-3.163-5.133-6.062-6.291-9.297"/>
					<path fill="none" stroke="#000000" stroke-miterlimit="10" d="M562.741,415.438c6.451,2.866,12.729,7.419,16.604,13.523
						c1.982,3.128,2.703,6.803,4.354,10.14c1.924,3.896,5.203,6.68,7.566,10.145"/>
					<path fill="none" stroke="#000000" stroke-miterlimit="10" d="M562.741,423.045c1.577,1.981,1.967,5.098,3.917,6.657
						c2.291,1.83,5.935,1.46,8.43,2.64c2.693,1.274,4.832,3.561,7.663,4.668c3.027,1.188,6.086,0.646,8.089,4.206"/>
					<path fill="none" stroke="#000000" stroke-miterlimit="10" d="M566.573,428.96c1.661,3.86,6.408,4.425,9.259,6.865
						c3.207,2.747,4.695,6.685,6.053,10.46c3.143,8.722-1.405,17.96,2.145,26.2"/>
					<path fill="none" stroke="#000000" stroke-miterlimit="10" d="M534.645,480.514c-0.755,4.83-7.271,11.439-8.938,16.48"/>
					<path fill="none" stroke="#000000" stroke-miterlimit="10" d="M532.94,484.739c2.99,0.525,8.657,6.09,10.644,8.451"/>
					<path fill="none" stroke="#000000" stroke-miterlimit="10" d="M525.704,496.994c-3.579,1.959-8.342,3.38-10.218,7.184"/>
					<path fill="none" stroke="#000000" stroke-miterlimit="10" d="M526.13,501.643"/>
					<path fill="none" stroke="#000000" stroke-miterlimit="10" d="M516.339,502.486c0,0-5.535-13.521-14.475-0.422
						c-2.556,4.226,0.852,9.297,7.663,9.72C513.358,511.361,516.339,508.403,516.339,502.486z"/>
					<path fill="none" stroke="#000000" stroke-miterlimit="10" d="M526.556,512.206"/>
					<path fill="none" stroke="#000000" stroke-miterlimit="10" d="M538.901,496.994c0,0,2.979-5.071,10.644-7.186
						c4.682,0,14.048,5.07,20.436,23.663c1.276,4.228,1.701,15.638-12.771,10.144C549.545,520.657,529.536,512.629,538.901,496.994z
						"/>
					<path fill="none" stroke="#000000" stroke-miterlimit="10" d="M576.79,475.021c0,0,9.792-5.493,22.138-1.27
						c6.388,3.381,25.117,25.354,12.771,46.061c-5.109,9.72-10.217,27.468-23.415,19.859c-5.96-5.493-19.583-22.816-23.415-42.256
						C565.297,491.923,562.741,487.275,576.79,475.021z"/>
					<path fill="none" stroke="#000000" stroke-miterlimit="10" d="M595.521,444.173c0,0,0-7.184,10.217-7.184
						c5.536,0.846,18.73,5.916,20.01,25.775c0,5.07-6.388,19.438-23.415,9.721C598.502,468.26,590.84,461.498,595.521,444.173z"/>
					<path fill="none" stroke="#000000" stroke-width="0.5" stroke-miterlimit="10" d="M491.944,341.967
						c-1.878,6.646,2.463,14.154,4.338,20.075c2.098,6.623,2.95,13.752,3.985,20.644c0.197,1.319,0.52,2.739,0.669,4.126"/>
					<path fill="none" stroke="#000000" stroke-width="0.5" stroke-miterlimit="10" d="M491.505,343.273
						c-2.151-0.456-3.978-0.099-5.872,0.924c-1.731,0.935-3.383,2.466-5.532,2.123"/>
					<path fill="none" stroke="#000000" stroke-width="0.5" stroke-miterlimit="10" d="M491.287,346.974
						c-5.266-2.836-9.95,4.718-12.283,8.056"/>
					<path fill="none" stroke="#000000" stroke-width="0.5" stroke-miterlimit="10" d="M491.725,347.845
						c-2.886-0.406-3.828,2.124-5.703,3.702"/>
					<path fill="none" stroke="#000000" stroke-width="0.5" stroke-miterlimit="10" d="M492.383,350.457
						c-6.61-0.019-7.755,11.02-9.432,15.238"/>
					<path fill="none" stroke="#000000" stroke-width="0.5" stroke-miterlimit="10" d="M493.918,355.465
						c-0.198,3.043-3.095,5.287-4.118,8.104c-0.918,2.53-1.178,7.098-0.269,9.748"/>
					<path fill="none" stroke="#000000" stroke-width="0.5" stroke-miterlimit="10" d="M485.584,366.35
						c1.245-0.049,3.129-1.036,3.729-1.525"/>
					<path fill="none" stroke="#000000" stroke-width="0.5" stroke-miterlimit="10" d="M489.312,364.824
						c0.892,1.388,2.135,2.608,3.07,3.919"/>
					<path fill="none" stroke="#000000" stroke-width="0.5" stroke-miterlimit="10" d="M496.33,362.43
						c1.732,1.889-2.104,10.186-4.604,11.103"/>
					<path fill="none" stroke="#000000" stroke-width="0.5" stroke-miterlimit="10" d="M494.796,370.049
						c-0.274,2.921,0.218,6.303,0.218,9.36"/>
					<path fill="none" stroke="#000000" stroke-width="0.5" stroke-miterlimit="10" d="M497.646,367.437
						c3.986,0.955,5.249,6.591,9.212,7.402"/>
					<path fill="none" stroke="#000000" stroke-width="0.5" stroke-miterlimit="10" d="M495.673,360.253
						c3.531,1.229,9.441,3.521,11.185,7.401"/>
					<path fill="none" stroke="#000000" stroke-width="0.5" stroke-miterlimit="10" d="M503.348,364.172
						c1.064,0.544,2.623-0.474,3.51-1.089"/>
					<path fill="none" stroke="#000000" stroke-width="0.5" stroke-miterlimit="10" d="M498.085,361.124
						c-0.145-0.003-0.54-0.016-0.403-0.064c2.577,1.02,4.839,0.722,5.666-2.329"/>
					<path fill="none" stroke="#000000" stroke-width="0.5" stroke-miterlimit="10" d="M492.163,350.675
						c3.372-0.36,5.982,1.516,8.383,3.653c2.309,2.055,6.089,5.217,7.189,8.104"/>
					<path fill="none" stroke="#000000" stroke-width="0.5" stroke-miterlimit="10" d="M491.725,346.539
						c3.253-1.21,6.057-0.468,8.778,1.529c1.998,1.465,6.735,3.829,7.67,6.09"/>
					<path fill="none" stroke="#000000" stroke-width="0.5" stroke-miterlimit="10" d="M499.401,347.628
						c-0.088,1.916-3.416,0.481-3.947,2.829"/>
					<path fill="none" stroke="#000000" stroke-width="0.5" stroke-miterlimit="10" d="M499.401,347.628
						c0.161-1.121-1.103-2.639,0.214-3.224c0.8-0.354,2.549,1.333,3.295,1.699"/>
					<path fill="none" stroke="#000000" stroke-width="0.5" stroke-miterlimit="10" d="M483.391,364.39
						c-0.627,2.205,0.187,6.707,0.22,9.359c0.038,3.241,0.219,6.501,0.219,9.799c0,3.284-0.33,6.362-0.657,9.578
						c-0.3,2.939-1.931,6.908-0.877,9.796"/>
					<path fill="none" stroke="#000000" stroke-width="0.5" stroke-miterlimit="10" d="M482.733,364.39
						c-0.863-0.235-2.48,1.437-3.503,2.013c-1.354,0.764-2.961,1.125-4.392,1.743c-2.383,1.027-3.86,3.79-6.142,4.518"/>
					<path fill="none" stroke="#000000" stroke-width="0.5" stroke-miterlimit="10" d="M472.425,365.695
						c2.267-0.208,4.109,2.098,6.36,0.654"/>
					<path fill="none" stroke="#000000" stroke-width="0.5" stroke-miterlimit="10" d="M477.469,361.56
						c1.285,0.681,3.103,1.553,4.387,0.87"/>
					<path fill="none" stroke="#000000" stroke-width="0.5" stroke-miterlimit="10" d="M480.101,358.729
						c-3.55-0.144-6.504,1.902-8.333,4.791"/>
					<path fill="none" stroke="#000000" stroke-width="0.5" stroke-miterlimit="10" d="M475.715,356.988
						c1.372,0.566,2.608,1.452,3.947,1.96"/>
					<path fill="none" stroke="#000000" stroke-width="0.5" stroke-miterlimit="10" d="M483.172,372.662
						c-2.813-1.26-10.456,5.372-11.842,8.271"/>
					<path fill="none" stroke="#000000" stroke-width="0.5" stroke-miterlimit="10" d="M470.013,375.709
						c1.323-0.785,3.248,0.938,4.166,1.96"/>
					<path fill="none" stroke="#000000" stroke-width="0.5" stroke-miterlimit="10" d="M474.399,371.573
						c0.523,1.314,1.877,2.544,3.069,3.266"/>
					<path fill="none" stroke="#000000" stroke-width="0.5" stroke-miterlimit="10" d="M478.565,370.268
						c0.892,0.463,1.79,1.168,1.974,2.177"/>
					<path fill="none" stroke="#000000" stroke-width="0.5" stroke-miterlimit="10" d="M483.391,378.54
						c-1.725-0.336-5.523,1.216-7.019,2.829"/>
					<path fill="none" stroke="#000000" stroke-width="0.5" stroke-miterlimit="10" d="M479.882,377.669
						c-0.01,0.716,0.056,1.312,0.219,1.959"/>
					<path fill="none" stroke="#000000" stroke-width="0.5" stroke-miterlimit="10" d="M476.592,390.295
						c-0.388-4.375,5.098-9.247,9.053-6.81c3.903,2.407,3.292,6.794,4.765,10.509"/>
					<path fill="none" stroke="#000000" stroke-width="0.5" stroke-miterlimit="10" d="M473.96,385.07
						c1.688,0.228,3.503-0.219,5.265-0.219"/>
					<path fill="none" stroke="#000000" stroke-width="0.5" stroke-miterlimit="10" d="M479.224,384.634
						c0.408,1.803,1.342,3.48,1.973,5.227"/>
					<path fill="none" stroke="#000000" stroke-width="0.5" stroke-miterlimit="10" d="M484.268,374.185
						c-0.311-0.129-0.564-0.174-0.787-0.457c3.731,2.072,6.066,3.133,8.031,7.205c1.376,2.854,1.191,7.228,3.064,9.579"/>
					<path fill="none" stroke="#000000" stroke-width="0.5" stroke-miterlimit="10" d="M487.559,376.362
						c0.007,2.148,0.407,4.023,0.656,6.096"/>
					<path fill="none" stroke="#000000" stroke-width="0.5" stroke-miterlimit="10" d="M479.443,347.409
						c-2.435,0-4.965-0.514-7.237,0.001c-3.03,0.687-4.529,3.012-6.799,5.007"/>
					<path fill="none" stroke="#000000" stroke-width="0.5" stroke-miterlimit="10" d="M481.855,341.532
						c-0.925-5.274-10.358,0.179-12.062,2.612"/>
					<path fill="none" stroke="#000000" stroke-width="0.5" stroke-miterlimit="10" d="M474.838,340.879
						c-0.149,0.828-0.811,2.707-0.658,4.136"/>
					<path fill="none" stroke="#000000" stroke-width="0.5" stroke-miterlimit="10" d="M478.347,339.571
						c0.65-0.718,0.921-2.207,0.438-3.046"/>
					<path fill="none" stroke="#000000" stroke-width="0.5" stroke-miterlimit="10" d="M508.173,328.688
						c4.426,4.036,8.151,8.169,10.912,13.547c3.05,5.938,4.969,11.819,7.511,17.802"/>
					<path fill="none" stroke="#000000" stroke-width="0.5" stroke-miterlimit="10" d="M509.489,330.212
						c-0.39-0.19-3.837,1.077-4.561,2.606c-1.021,2.157,0.029,5.914,0.394,8.061"/>
					<path fill="none" stroke="#000000" stroke-width="0.5" stroke-miterlimit="10" d="M511.683,332.171
						c-5.36-0.124-3.947,9.047-3.947,12.408"/>
					<path fill="none" stroke="#000000" stroke-width="0.5" stroke-miterlimit="10" d="M513.437,333.913
						c-0.283,1.619-2.488,2.821-3.728,1.523"/>
					<path fill="none" stroke="#000000" stroke-width="0.5" stroke-miterlimit="10" d="M515.191,336.525
						c-4.541-0.075-4.148,9.451-3.509,12.407"/>
					<path fill="none" stroke="#000000" stroke-width="0.5" stroke-miterlimit="10" d="M509.489,338.268
						c0.779,0.198,1.988,0.305,2.851,0.653"/>
					<path fill="none" stroke="#000000" stroke-width="0.5" stroke-miterlimit="10" d="M516.288,344.797
						c-0.087,3.06,0.203,6.868,1.535,9.58"/>
					<path fill="none" stroke="#000000" stroke-width="0.5" stroke-miterlimit="10" d="M519.797,356.334
						c0-2.404-0.787-6.664,0.487-8.657c1.502-2.351,5.192,0.469,6.092,2.346"/>
					<path fill="none" stroke="#000000" stroke-width="0.5" stroke-miterlimit="10" d="M518.919,342.839
						c2.437-0.068,5.479,0.499,6.58,2.829"/>
					<path fill="none" stroke="#000000" stroke-width="0.5" stroke-miterlimit="10" d="M515.631,336.525
						c3.175-0.025,7.718,0,9.648,2.829"/>
					<path fill="none" stroke="#000000" stroke-width="0.5" stroke-miterlimit="10" d="M512.779,333.042
						c1.64-2.66,8.79-1.417,10.308,0.87"/>
					<path fill="none" stroke="#000000" stroke-width="0.5" stroke-miterlimit="10" d="M509.928,330.212
						c0.097-0.816,0.537-1.506,1.316-1.742"/>
					<path fill="none" stroke="#000000" stroke-width="0.5" stroke-miterlimit="10" d="M522.867,322.811
						c7.566,1.979,8.296,15.073,9.869,20.898"/>
					<path fill="none" stroke="#000000" stroke-width="0.5" stroke-miterlimit="10" d="M531.858,339.137
						c-0.512,1.082-1.175,2.091-1.974,3.048"/>
					<path fill="none" stroke="#000000" stroke-width="0.5" stroke-miterlimit="10" d="M532.079,338.92
						c1.256,0.103,2.125,1.245,3.288,1.741"/>
					<path fill="none" stroke="#000000" stroke-width="0.5" stroke-miterlimit="10" d="M530.543,333.477
						c1.406,0.548,2.855,1.604,3.948,2.831"/>
					<path fill="none" stroke="#000000" stroke-width="0.5" stroke-miterlimit="10" d="M529.009,328.47
						c1.316,0.864,3.337,1.846,4.385,3.049"/>
					<path fill="none" stroke="#000000" stroke-width="0.5" stroke-miterlimit="10" d="M528.789,328.688
						c-2.12-0.181-3.023,2.088-4.168,3.483"/>
					<path fill="none" stroke="#000000" stroke-width="0.5" stroke-miterlimit="10" d="M530.762,333.913
						c-2.75,1.733-4.699,3.391-3.946,6.966"/>
					<path fill="none" stroke="#000000" stroke-width="0.5" stroke-miterlimit="10" d="M525.5,324.117
						c-1.9-0.464-5.051,2.465-5.266,4.57"/>
					<path fill="none" stroke="#000000" stroke-width="0.5" stroke-miterlimit="10" d="M524.623,324.334
						c1.574-0.587,4.928-0.965,6.578-0.436"/>
					<path fill="none" stroke="#000000" stroke-width="0.5" stroke-miterlimit="10" d="M519.139,322.375
						c-0.786,0.89-0.786,2.118-1.097,3.266"/>
					<path fill="none" stroke="#000000" stroke-width="0.5" stroke-miterlimit="10" d="M514.973,323.028
						c-1.479,0.698-3.126,2.237-3.29,3.918"/>
					<path fill="none" stroke="#000000" stroke-width="0.5" stroke-miterlimit="10" d="M486.462,319.979
						c0.14,0.377-0.042,0.691,0.196,1.046c-6.858-0.271-10.173,8.794-11.383,14.193"/>
					<path fill="none" stroke="#000000" stroke-width="0.5" stroke-miterlimit="10" d="M463.872,337.395
						c3.489-1.58,7.185-1.958,11.185-1.958"/>
					<path fill="none" stroke="#000000" stroke-width="0.5" stroke-miterlimit="10" d="M465.188,333.042
						c1.62-0.646,3.526-0.946,5.264-1.464c2.127-0.633,3.45-0.133,5.483-0.06"/>
					<path fill="none" stroke="#000000" stroke-width="0.5" stroke-miterlimit="10" d="M470.013,327.382
						c3.547,0,6.5-0.809,9.649-2.177"/>
					<path fill="none" stroke="#000000" stroke-width="0.5" stroke-miterlimit="10" d="M491.066,322.811
						c-4.321,1.864-8.957,1.767-11.622,6.312"/>
					<path fill="none" stroke="#000000" stroke-width="0.5" stroke-miterlimit="10" d="M487.338,324.553
						c1.144,1.424,3.043,2.136,3.728,3.917"/>
					<path fill="none" stroke="#000000" stroke-width="0.5" stroke-miterlimit="10" d="M489.971,329.559
						c-2.454-0.929-8.487-0.035-10.527,1.741"/>
					<path fill="none" stroke="#000000" stroke-width="0.5" stroke-miterlimit="10" d="M492.163,323.898
						c0.2,5.692-5.924,7.756-7.018,13.062"/>
					<path fill="none" stroke="#000000" stroke-width="0.5" stroke-miterlimit="10" d="M478.785,333.694
						c2.774,0.02,5.892-0.725,8.554-1.523"/>
					<path fill="none" stroke="#000000" stroke-width="0.5" stroke-miterlimit="10" d="M501.813,318.892
						c-1.381-2.827-9.569-4.838-11.843-2.395"/>
					<path fill="none" stroke="#000000" stroke-width="0.5" stroke-miterlimit="10" d="M500.278,316.933
						c-1.401-0.094-3.036,0.19-3.948,1.306"/>
					<path fill="none" stroke="#000000" stroke-width="0.5" stroke-miterlimit="10" d="M496.33,315.844
						c-1.412,0.25-2.816,0.276-4.167,0.871"/>
					<path fill="none" stroke="#000000" stroke-width="0.5" stroke-miterlimit="10" d="M495.892,315.627
						c-0.411-0.797-1.243-1.319-1.755-1.959"/>
					<path fill="none" stroke="#000000" stroke-width="0.5" stroke-miterlimit="10" d="M499.62,316.279
						c-0.114-0.686-0.33-1.32-0.658-1.959"/>
					<path fill="none" stroke="#000000" stroke-width="0.5" stroke-miterlimit="10" d="M508.611,313.667
						c-3.013-2.603-8.508-1.071-12.062-0.87"/>
					<path fill="none" stroke="#000000" stroke-width="0.5" stroke-miterlimit="10" d="M506.857,312.579
						c-0.802-0.875-1.191-1.979-2.193-2.612"/>
					<path fill="none" stroke="#000000" stroke-width="0.5" stroke-miterlimit="10" d="M502.69,312.361
						c-1.009-0.668-2.293-1.147-3.51-1.089"/>
					<path fill="none" stroke="#000000" stroke-width="0.5" stroke-miterlimit="10" d="M506.639,312.797
						c-0.646,0.604-0.964,1.461-1.536,2.177"/>
					<path fill="none" stroke="#000000" stroke-width="0.5" stroke-miterlimit="10" d="M503.786,312.361
						c-0.753,0.596-1.557,1.24-2.413,1.74"/>
					<path fill="none" stroke="#000000" stroke-width="0.5" stroke-miterlimit="10" d="M631.282,218.946
						c3.912-6.134,8.88-17.385,16.178-19.86"/>
					<path fill="none" stroke="#000000" stroke-width="0.5" stroke-miterlimit="10" d="M618.938,223.594
						c-4.309-4.624-8.048-9.204-8.09-15.635"/>
					<path fill="none" stroke="#000000" stroke-width="0.5" stroke-miterlimit="10" d="M607.441,234.158
						c-2.654-0.336-6.787-2.089-8.09-4.648"/>
					<path fill="none" stroke="#000000" stroke-width="0.5" stroke-miterlimit="10" d="M616.383,233.313
						c7.759-6.003,26.52-9.111,34.482-2.113"/>
					<path fill="none" stroke="#000000" stroke-width="0.5" stroke-miterlimit="10" d="M605.312,241.342
						c3.397-3.523,10.229-2.225,14.476-0.845"/>
					<path fill="none" stroke="#000000" stroke-width="0.5" stroke-miterlimit="10" d="M633.837,214.72
						c-0.375-3.514,0.923-6.503,2.129-9.719"/>
					<path fill="none" stroke="#000000" stroke-width="0.5" stroke-miterlimit="10" d="M638.945,207.114
						c0.421-1.622,1.593-3.1,2.979-4.226"/>
					<path fill="none" stroke="#000000" stroke-width="0.5" stroke-miterlimit="10" d="M632.985,215.988
						c4.062,0,8.177,0.457,11.919-1.269"/>
					<path fill="none" stroke="#000000" stroke-width="0.5" stroke-miterlimit="10" d="M636.391,211.34
						c3.662-0.675,7.484-1.047,10.645-3.381"/>
					<path fill="none" stroke="#000000" stroke-width="0.5" stroke-miterlimit="10" d="M616.383,220.213
						c-0.212-1.867,0.05-3.806,0.852-5.494"/>
					<path fill="none" stroke="#000000" stroke-width="0.5" stroke-miterlimit="10" d="M613.402,215.143
						c0.815-2.536,1.59-5.167,2.554-7.606"/>
					<path fill="none" stroke="#000000" stroke-width="0.5" stroke-miterlimit="10" d="M612.552,215.143
						c-2.12-0.28-3.522-2.188-4.685-3.803"/>
					<path fill="none" stroke="#000000" stroke-width="0.5" stroke-miterlimit="10" d="M627.024,228.665
						c0.438,2.254,1.736,4.493,2.555,6.761"/>
					<path fill="none" stroke="#000000" stroke-width="0.5" stroke-miterlimit="10" d="M628.303,228.242
						c0.91-1.492,2.17-2.776,3.831-3.381"/>
					<path fill="none" stroke="#000000" stroke-width="0.5" stroke-miterlimit="10" d="M639.37,227.397
						c0.995,2.418,2.847,4.364,3.832,6.761"/>
					<path fill="none" stroke="#000000" stroke-width="0.5" stroke-miterlimit="10" d="M640.223,227.82
						c0.574-0.598,1.517-1.339,2.128-1.69"/>
					<path fill="none" stroke="#000000" stroke-width="0.5" stroke-miterlimit="10" d="M610.422,240.497
						c0.896,0.804,1.812,1.713,2.554,2.536"/>
					<path fill="none" stroke="#000000" stroke-width="0.5" stroke-miterlimit="10" d="M613.402,239.229
						c1.146,0.707,2.352,1.605,3.403,2.536"/>
					<path fill="none" stroke="#000000" stroke-width="0.5" stroke-miterlimit="10" d="M614.252,237.961
						c0.93-0.126,1.829-0.584,2.556-1.268"/>
					<path fill="none" stroke="#000000" stroke-width="0.5" stroke-miterlimit="10" d="M605.738,233.313
						c-1.07-1.229-1.558-2.951-1.276-4.648"/>
					<path fill="none" stroke="#000000" stroke-width="0.5" stroke-miterlimit="10" d="M601.908,232.891
						c-0.901,0.099-1.745-0.042-2.555-0.423"/>
					<path fill="none" stroke="#000000" stroke-width="0.5" stroke-miterlimit="10" d="M542.308,226.552
						c0-19.055-3.832-37.793-3.832-56.624"/>
					<path fill="none" stroke="#000000" stroke-width="0.5" stroke-miterlimit="10" d="M533.793,166.97
						c0.98,2.898,4.138,5.605,6.28,7.563c0.632-1.327,1.373-2.575,2.232-3.76"/>
					<path fill="none" stroke="#000000" stroke-width="0.5" stroke-miterlimit="10" d="M532.09,174.999
						c2.146,3.179,4.527,7,7.143,9.686c1.029-3.724,3.671-6.609,6.48-9.264"/>
					<path fill="none" stroke="#000000" stroke-width="0.5" stroke-miterlimit="10" d="M530.388,181.76
						c2.223,1.879,4.938,8.765,8.535,8.491c2.745-0.208,7.394-8.079,8.919-10.181"/>
					<path fill="none" stroke="#000000" stroke-width="0.5" stroke-miterlimit="10" d="M530.812,186.831
						c2.075,2.482,5.143,9.897,8.941,9.725c2.922-0.132,8.968-7.48,9.79-10.148"/>
					<path fill="none" stroke="#000000" stroke-width="0.5" stroke-miterlimit="10" d="M529.962,191.479
						c3.938,4.564,6.366,11.75,10.652,15.592c1.481-5.176,7.33-12.782,11.482-16.437"/>
					<path fill="none" stroke="#000000" stroke-width="0.5" stroke-miterlimit="10" d="M520.596,189.789
						c0.799,4.907,7.077,11.049,10.194,14.883c2.919,3.59,6.625,6.772,10.24,9.625"/>
					<path fill="none" stroke="#000000" stroke-width="0.5" stroke-miterlimit="10" d="M527.833,202.043
						c-0.011-2.443-0.065-4.797-0.426-7.184"/>
					<path fill="none" stroke="#000000" stroke-width="0.5" stroke-miterlimit="10" d="M532.517,207.959
						c0.087-3.129-0.701-6.193-0.427-9.296"/>
					<path fill="none" stroke="#000000" stroke-width="0.5" stroke-miterlimit="10" d="M537.625,211.762
						c-0.173-2.007-0.646-3.979-1.277-5.916"/>
					<path fill="none" stroke="#000000" stroke-width="0.5" stroke-miterlimit="10" d="M522.725,200.775
						c1.824,0.393,3.787,0.429,5.534,0.845"/>
					<path fill="none" stroke="#000000" stroke-width="0.5" stroke-miterlimit="10" d="M527.407,206.691
						c2.314,0.581,4.524,1.116,6.812,1.69"/>
					<path fill="none" stroke="#000000" stroke-width="0.5" stroke-miterlimit="10" d="M532.94,212.185
						c2.116,0.275,4.409,0.738,6.388,1.268"/>
					<path fill="none" stroke="#000000" stroke-width="0.5" stroke-miterlimit="10" d="M533.368,219.368
						c2.97,1.322,6.028,3.067,9.364,2.958"/>
					<path fill="none" stroke="#000000" stroke-width="0.5" stroke-miterlimit="10" d="M542.308,222.326
						c5.39-0.017,10.606-1.144,13.195-6.338"/>
					<path fill="none" stroke="#000000" stroke-width="0.5" stroke-miterlimit="10" d="M546.564,221.481
						c1.604-0.644,2.898-3.285,3.83-5.071"/>
					<path fill="none" stroke="#000000" stroke-width="0.5" stroke-miterlimit="10" d="M549.118,221.903
						c1.832-0.687,3.52,0.02,5.536,0"/>
					<path fill="none" stroke="#000000" stroke-width="0.5" stroke-miterlimit="10" d="M538.476,222.326
						c-0.479-1.575-0.982-3.371-2.128-4.648"/>
					<path fill="none" stroke="#000000" stroke-width="0.5" stroke-miterlimit="10" d="M537.625,221.059
						c-2.708-0.041-5.396,0.865-8.089,1.268"/>
					<path fill="none" stroke="#000000" stroke-width="0.5" stroke-miterlimit="10" d="M544.011,212.607
						c1.396-6.114,7.947-16.846,14.476-18.592"/>
					<path fill="none" stroke="#000000" stroke-width="0.5" stroke-miterlimit="10" d="M552.95,209.649
						c2.979-5.242,5.938-10.442,8.938-15.634"/>
					<path fill="none" stroke="#000000" stroke-width="0.5" stroke-miterlimit="10" d="M555.079,208.804
						c4.593-4.536,8.872-9.965,14.898-12.677"/>
					<path fill="none" stroke="#000000" stroke-width="0.5" stroke-miterlimit="10" d="M483.984,198.24
						c2.44,7.722,7.719,14.531,9.271,22.49c1.295,6.644,4.033,18.476,1.371,25.26"/>
					<path fill="none" stroke="#000000" stroke-width="0.5" stroke-miterlimit="10" d="M480.579,227.82
						c2.559,2.839,6.299,4.447,8.948,7.207c2.42,2.516,3.979,5.647,5.949,8.428"/>
					<path fill="none" stroke="#000000" stroke-width="0.5" stroke-miterlimit="10" d="M495.903,239.229
						c0.84-5.668,5.486-8.187,8.938-11.832"/>
					<path fill="none" stroke="#000000" stroke-width="0.5" stroke-miterlimit="10" d="M486.538,224.439
						c3.396,1.04,5.808,4.13,8.95,5.734c1.062-3.047,3.773-5.728,5.521-8.692"/>
					<path fill="none" stroke="#000000" stroke-width="0.5" stroke-miterlimit="10" d="M483.558,218.523
						c3.978,1.416,7.46,4.252,11.068,6.381c2.423-2.166,3.652-5.431,5.535-8.072"/>
					<path fill="none" stroke="#000000" stroke-width="0.5" stroke-miterlimit="10" d="M481.855,213.875
						c4.199,0.238,7.997,4.731,11.855,4.585c0.272-3.585,3.306-5.361,4.746-8.389"/>
					<path fill="none" stroke="#000000" stroke-width="0.5" stroke-miterlimit="10" d="M480.579,208.804
						c3.312,0.584,8.102,2.988,10.674,5.345c0.474-3.136,2.46-6.21,3.374-9.148"/>
					<path fill="none" stroke="#000000" stroke-width="0.5" stroke-miterlimit="10" d="M481.004,204.579
						c2.772,1.707,6.573,2.238,8.874,4.522c-0.878-2.658,0.414-4.694,1.771-7.058"/>
					<path fill="none" stroke="#000000" stroke-width="0.5" stroke-miterlimit="10" d="M482.707,201.621
						c1.516,0.464,3.148,1.644,4.609,2.059c-0.074-1.522,0.387-2.946,1.351-4.171"/>
					<path fill="none" stroke="#000000" stroke-width="0.5" stroke-miterlimit="10" d="M630.856,270.499
						c0.247,3.634,1.135,6.795,0.4,10.563c-0.729,3.753-3.589,6.795-4.232,10.565"/>
					<path fill="none" stroke="#000000" stroke-width="0.5" stroke-miterlimit="10" d="M630.004,285.711
						c0.879,1.392,1.682,2.95,1.703,4.648"/>
					<path fill="none" stroke="#000000" stroke-width="0.5" stroke-miterlimit="10" d="M630.856,282.331
						c1.104,0.675,2.445,3.102,2.554,5.071"/>
					<path fill="none" stroke="#000000" stroke-width="0.5" stroke-miterlimit="10" d="M628.729,286.556
						c-1.13-0.739-2.612-0.587-3.83,0.423"/>
					<path fill="none" stroke="#000000" stroke-width="0.5" stroke-miterlimit="10" d="M630.856,282.331
						c-3.202-0.074-5.453-0.081-7.663,2.536"/>
					<path fill="none" stroke="#000000" stroke-width="0.5" stroke-miterlimit="10" d="M630.856,278.105
						c-4.14,0.112-7.955,2.895-10.646,5.916"/>
					<path fill="none" stroke="#000000" stroke-width="0.5" stroke-miterlimit="10" d="M630.004,277.683
						c1.854-0.555,5.651,4.4,5.962,6.761"/>
					<path fill="none" stroke="#000000" stroke-width="0.5" stroke-miterlimit="10" d="M622.768,277.683
						c1.458-1.481,5.228-4.391,7.236-4.67c3.911-0.546,5.113,2.96,7.238,5.938"/>
					<path fill="none" stroke="#000000" stroke-width="0.5" stroke-miterlimit="10" d="M622.342,272.612
						c2.688-1.28,6.314-2.12,9.365-1.691c3.932,0.552,3.872,2.381,6.812,4.649"/>
					<path fill="none" stroke="#000000" stroke-width="0.5" stroke-miterlimit="10" d="M627.876,264.583
						c0.565-6.623,1.394-12.271-0.852-18.593"/>
					<path fill="none" stroke="#000000" stroke-width="0.5" stroke-miterlimit="10" d="M628.303,261.202
						c1.639-2.175,4.455-3.956,5.107-6.761"/>
					<path fill="none" stroke="#000000" stroke-width="0.5" stroke-miterlimit="10" d="M628.303,256.131
						c1.209-2.651,3.082-5.536,3.404-8.451"/>
					<path fill="none" stroke="#000000" stroke-width="0.5" stroke-miterlimit="10" d="M628.303,260.78
						c-1.878-1.769-4.122-3.559-5.961-5.493"/>
					<path fill="none" stroke="#000000" stroke-width="0.5" stroke-miterlimit="10" d="M627.876,254.019
						c-1.893-0.571-2.611-2.733-2.979-4.648"/>
					<path fill="none" stroke="#000000" stroke-width="0.5" stroke-miterlimit="10" d="M615.104,266.696
						c-1.648,3.697-4.739,6.728-8.515,8.451"/>
					<path fill="none" stroke="#000000" stroke-width="0.5" stroke-miterlimit="10" d="M608.294,263.737
						c1.288-1.97-0.604-5.067-2.556-6.338"/>
					<path fill="none" stroke="#000000" stroke-width="0.5" stroke-miterlimit="10" d="M539.328,278.105
						c0.597-1.796,2.67-4.214,4.256-5.916"/>
					<path fill="none" stroke="#000000" stroke-width="0.5" stroke-miterlimit="10" d="M545.713,270.921
						c4.776-5.701,9.821-12.427,16.178-16.902"/>
					<path fill="none" stroke="#000000" stroke-width="0.5" stroke-miterlimit="10" d="M548.694,266.696
						c1.093,2.037,2.718,3.965,2.979,6.338"/>
					<path fill="none" stroke="#000000" stroke-width="0.5" stroke-miterlimit="10" d="M552.95,262.47
						c1.66-0.178,3.994,2.928,5.106,4.648"/>
					<path fill="none" stroke="#000000" stroke-width="0.5" stroke-miterlimit="10" d="M558.059,257.399
						c0.916-0.018,3.15,0.792,4.685,1.267"/>
					<path fill="none" stroke="#000000" stroke-width="0.5" stroke-miterlimit="10" d="M553.803,262.047
						c-1.534-0.25-2.688-1.464-3.832-2.535"/>
					<path fill="none" stroke="#000000" stroke-width="0.5" stroke-miterlimit="10" d="M559.762,256.554
						c-1.188-0.343-2.165-0.902-2.979-1.689"/>
					<path fill="none" stroke="#000000" stroke-width="0.5" stroke-miterlimit="10" d="M548.268,267.541
						c-0.499-0.703-1.143-1.502-1.701-2.113"/>
					<path fill="none" stroke="#000000" stroke-width="0.5" stroke-miterlimit="10" d="M541.456,273.034
						c-1.021-0.129-1.963-0.261-2.98-0.422"/>
					<path fill="none" stroke="#000000" stroke-width="0.5" stroke-miterlimit="10" d="M595.947,178.802
						c5.122-7.421,12.376-13.583,18.719-19.953c5.876-5.899,12.95-14.163,21.725-16.388"/>
					<path fill="none" stroke="#000000" stroke-width="0.5" stroke-miterlimit="10" d="M617.66,155.561
						c1.575-1.992,2.229-5.079,4.257-7.184"/>
					<path fill="none" stroke="#000000" stroke-width="0.5" stroke-miterlimit="10" d="M621.917,151.335
						c0.821-2.251,2.315-4.502,3.831-6.338"/>
					<path fill="none" stroke="#000000" stroke-width="0.5" stroke-miterlimit="10" d="M624.471,149.222
						c2.137-0.759,4.602-0.049,6.812-0.845"/>
					<path fill="none" stroke="#000000" stroke-width="0.5" stroke-miterlimit="10" d="M621.064,153.448
						c2.302-0.017,4.477-0.634,6.812-0.422"/>
					<path fill="none" stroke="#000000" stroke-width="0.5" stroke-miterlimit="10" d="M616.383,157.251
						c1.366-0.38,2.783-0.522,4.256-0.423"/>
					<path fill="none" stroke="#000000" stroke-width="0.5" stroke-miterlimit="10" d="M608.294,165.28
						c2.484,0.128,4.818-0.562,7.237-0.845"/>
					<path fill="none" stroke="#000000" stroke-width="0.5" stroke-miterlimit="10" d="M602.759,170.351
						c2.432-0.178,4.773-0.726,7.237-0.845"/>
					<path fill="none" stroke="#000000" stroke-width="0.5" stroke-miterlimit="10" d="M607.867,165.702
						c0.007-2.123-0.271-4.348,0.427-6.338"/>
					<path fill="none" stroke="#000000" stroke-width="0.5" stroke-miterlimit="10" d="M604.462,168.66c0-0.987,0-1.97,0-2.958"/>
					<path fill="none" stroke="#000000" stroke-width="0.5" stroke-miterlimit="10" d="M599.354,174.577
						c-0.447-1.59-0.549-3.357-0.852-5.071"/>
					<path fill="none" stroke="#000000" stroke-width="0.5" stroke-miterlimit="10" d="M616.383,85.415
						c-2.565,4.632-6.756,8.441-9.474,13.111c-2.938,5.054-3.043,10.905-4.576,16.468"/>
					<path fill="none" stroke="#000000" stroke-width="0.5" stroke-miterlimit="10" d="M598.928,120.065
						c-1.876-7.008-12.526-16.552-5.534-24.509"/>
					<path fill="none" stroke="#000000" stroke-width="0.5" stroke-miterlimit="10" d="M601.057,120.488
						c7.67-4.514,17.357-6.713,25.117-12.254"/>
					<path fill="none" stroke="#000000" stroke-width="0.5" stroke-miterlimit="10" d="M596.374,130.207
						c3.482,2.022,9.477,0.619,14.048,0.423"/>
					<path fill="none" stroke="#000000" stroke-width="0.5" stroke-miterlimit="10" d="M596.799,131.052
						c-4.401-0.865-8.42-4.587-10.217-8.452"/>
					<path fill="none" stroke="#000000" stroke-width="0.5" stroke-miterlimit="10" d="M594.67,130.207
						c-1.375-2.028-1.092-4.896-1.703-7.184"/>
					<path fill="none" stroke="#000000" stroke-width="0.5" stroke-miterlimit="10" d="M592.116,128.939
						c-0.622-1.758-1.038-3.74-2.129-5.071"/>
					<path fill="none" stroke="#000000" stroke-width="0.5" stroke-miterlimit="10" d="M601.057,131.475
						c-0.578-1.213,0.098-3.049,0.428-4.648"/>
					<path fill="none" stroke="#000000" stroke-width="0.5" stroke-miterlimit="10" d="M603.186,130.63
						c1.844-0.88,3.908-1.966,5.108-3.381"/>
					<path fill="none" stroke="#000000" stroke-width="0.5" stroke-miterlimit="10" d="M601.057,131.475
						c0.145,1.26,0.765,2.482,1.702,3.38"/>
					<path fill="none" stroke="#000000" stroke-width="0.5" stroke-miterlimit="10" d="M605.738,130.63
						c0.57,1.189,1.658,2.116,2.979,2.535"/>
					<path fill="none" stroke="#000000" stroke-width="0.5" stroke-miterlimit="10" d="M603.186,108.656
						c-0.477-1.983-1.326-3.87-1.701-5.916"/>
					<path fill="none" stroke="#000000" stroke-width="0.5" stroke-miterlimit="10" d="M605.312,101.473
						c0.144-1.713,0.444-3.338,0.426-5.071"/>
					<path fill="none" stroke="#000000" stroke-width="0.5" stroke-miterlimit="10" d="M609.57,95.557
						c0.187-2.316,0.938-4.542,1.704-6.761"/>
					<path fill="none" stroke="#000000" stroke-width="0.5" stroke-miterlimit="10" d="M605.738,105.275
						c1.301-2.213,3.488-3.902,5.961-4.648"/>
					<path fill="none" stroke="#000000" stroke-width="0.5" stroke-miterlimit="10" d="M605.312,101.473
						c1.322-2.678,5.834-5.154,8.516-6.339"/>
					<path fill="none" stroke="#000000" stroke-width="0.5" stroke-miterlimit="10" d="M597.225,114.572c0-1.69,0-3.38,0-5.071"/>
					<path fill="none" stroke="#000000" stroke-width="0.5" stroke-miterlimit="10" d="M496.33,273.034
						c2.848,1.641,4.37,4.795,4.258,8.028"/>
					<path fill="none" stroke="#000000" stroke-width="0.5" stroke-miterlimit="10" d="M492.073,273.879
						c-2.634,1.274-5.279,2.367-7.238,4.648"/>
					<path fill="none" stroke="#000000" stroke-width="0.5" stroke-miterlimit="10" d="M554.654,416.707
						c1.237,8.096-15.931,9.444-16.181,19.438"/>
					<path fill="none" stroke="#000000" stroke-width="0.5" stroke-miterlimit="10" d="M542.732,421.776
						c-0.472,5.304,5.938,12.688,10.194,15.148c2.304,1.331,4.179,0.454,5.875,3.435c1.574,2.766,1.856,9.578,0.107,11.843"/>
					<path fill="none" stroke="#000000" stroke-width="0.5" stroke-miterlimit="10" d="M557.633,420.51
						c0,6.234-1.014,8.808-3.736,14.272c-2.787,5.6-4.845,13.264-4.352,19.532"/>
					<path fill="none" stroke="#000000" stroke-width="0.5" stroke-miterlimit="10" d="M555.503,417.975
						c0.846,4.245-3.979,9.374-6.289,13.521c-2.668,4.791-4.758,9.912-5.618,15.307c-1.833,11.502,0.266,21.188-10.228,28.643"/>
					<path fill="none" stroke="#000000" stroke-width="0.5" stroke-miterlimit="10" d="M539.753,469.104
						c2.229,1.225,4.473,4.979,4.258,7.606"/>
					<path fill="none" stroke="#000000" stroke-width="0.5" stroke-miterlimit="10" d="M543.159,457.695
						c1.406,0.079,3.229,1.247,5.106,1.688"/>
					<path fill="none" stroke="#000000" stroke-width="0.5" stroke-miterlimit="10" d="M553.803,441.216
						c-0.398,4.296,0.906,8.22,3.099,11.841c1.688,2.791,5.67,8.126,2.012,10.979"/>
					<path fill="none" stroke="#000000" stroke-width="0.5" stroke-miterlimit="10" d="M524.427,435.722
						c6.107,0.037,9.22,2.08,13.198,6.339"/>
					<path fill="none" stroke="#000000" stroke-width="0.5" stroke-miterlimit="10" d="M557.207,423.891
						c0.237,4.178,4.271,4.697,6.718,7.187c3.882,3.95,4.201,10.499,0.521,14.788"/>
					<path fill="none" stroke="#000000" stroke-width="0.5" stroke-miterlimit="10" d="M538.476,510.938
						c-1.708-1.928-0.617-5.273,1.703-6.761"/>
					<path fill="none" stroke="#000000" stroke-width="0.5" stroke-miterlimit="10" d="M541.882,513.896
						c-0.686-1.686-0.083-3.331,1.277-4.648"/>
					<path fill="none" stroke="#000000" stroke-width="0.5" stroke-miterlimit="10" d="M547.842,519.39
						c-0.442-1.282-0.427-2.506,0-3.803"/>
					<path fill="none" stroke="#000000" stroke-width="0.5" stroke-miterlimit="10" d="M555.931,522.348
						c-0.733-1.316-0.301-3.347,0-5.068"/>
					<path fill="none" stroke="#000000" stroke-width="0.5" stroke-miterlimit="10" d="M562.316,525.306
						c-0.019-1.587,0.289-3.176,0.852-4.646"/>
					<path fill="none" stroke="#000000" stroke-width="0.5" stroke-miterlimit="10" d="M568.276,511.784
						c-0.528-0.602-1.972-0.381-3.407,0.422"/>
					<path fill="none" stroke="#000000" stroke-width="0.5" stroke-miterlimit="10" d="M566.573,507.136
						c-0.944-0.593-2.273-0.38-3.405,0.422"/>
					<path fill="none" stroke="#000000" stroke-width="0.5" stroke-miterlimit="10" d="M565.297,502.486
						c-1.666-0.156-3.207,0.192-4.258,1.269"/>
					<path fill="none" stroke="#000000" stroke-width="0.5" stroke-miterlimit="10" d="M563.168,498.685
						c-1.631-0.301-3.104,0.118-4.257,1.27"/>
					<path fill="none" stroke="#000000" stroke-width="0.5" stroke-miterlimit="10" d="M560.188,494.881
						c-2.053-0.45-3.728,0.946-5.106,2.113"/>
					<path fill="none" stroke="#000000" stroke-width="0.5" stroke-miterlimit="10" d="M555.931,492.346
						c-2.302-0.251-4.018,1.357-5.533,2.957"/>
					<path fill="none" stroke="#000000" stroke-width="0.5" stroke-miterlimit="10" d="M551.247,491.078
						c-2.508-0.411-3.933,1.436-5.534,2.958"/>
					<path fill="none" stroke="#000000" stroke-width="0.5" stroke-miterlimit="10" d="M506.547,508.403
						c0.896,1.09,1.925,2.112,2.98,2.958"/>
					<path fill="none" stroke="#000000" stroke-width="0.5" stroke-miterlimit="10" d="M509.953,508.403
						c0.354-0.015,1.723,0.405,2.555,0.845"/>
					<path fill="none" stroke="#000000" stroke-width="0.5" stroke-miterlimit="10" d="M512.082,505.445
						c0.994,0.16,2.021,0.452,2.979,0.845"/>
					<path fill="none" stroke="#000000" stroke-width="0.5" stroke-miterlimit="10" d="M512.933,501.643
						c1.186,0.187,2.405,0.043,3.406-0.423"/>
					<path fill="none" stroke="#000000" stroke-width="0.5" stroke-miterlimit="10" d="M502.29,501.22
						c0.332,1.007,1.085,1.648,2.129,1.69"/>
					<path fill="none" stroke="#000000" stroke-width="0.5" stroke-miterlimit="10" d="M505.696,497.417
						c0.003,0.904,0.498,1.708,1.274,2.112"/>
					<path fill="none" stroke="#000000" stroke-width="0.5" stroke-miterlimit="10" d="M509.102,496.571
						c0.095,0.766,0.396,1.483,0.854,2.111"/>
					<path fill="none" stroke="#000000" stroke-width="0.25" stroke-miterlimit="10" d="M548.268,471.218
						c0.92,1.312,1.632,2.708,2.13,4.228"/>
					<path fill="none" stroke="#000000" stroke-width="0.25" stroke-miterlimit="10" d="M550.822,468.26
						c0.585,1.311,1.31,2.603,2.128,3.805"/>
					<path fill="none" stroke="#000000" stroke-width="0.25" stroke-miterlimit="10" d="M553.803,464.879
						c0.103,1.439,0.784,2.922,1.7,3.803"/>
					<path fill="none" stroke="#000000" stroke-width="0.25" stroke-miterlimit="10" d="M555.931,463.611
						c-0.031-0.096,0.918,2.186,1.276,2.958"/>
					<path fill="none" stroke="#000000" stroke-width="0.25" stroke-miterlimit="10" d="M557.633,461.498
						c0.284,0.81,0.901,1.438,1.703,1.688"/>
					<path fill="none" stroke="#000000" stroke-width="0.25" stroke-miterlimit="10" d="M560.613,455.16
						c0.588,0.823,1.179,1.703,1.703,2.535"/>
					<path fill="none" stroke="#000000" stroke-width="0.25" stroke-miterlimit="10" d="M561.891,452.625
						c0.524,0.911,1.263,1.658,2.128,2.112"/>
					<path fill="none" stroke="#000000" stroke-width="0.25" stroke-miterlimit="10" d="M564.019,449.667
						c0.2,0.859,0.837,1.49,1.703,1.689"/>
					<path fill="none" stroke="#000000" stroke-width="0.25" stroke-miterlimit="10" d="M519.318,458.118
						c1.089-0.537,2.295-0.565,3.404,0"/>
					<path fill="none" stroke="#000000" stroke-width="0.25" stroke-miterlimit="10" d="M519.745,454.314
						c0.812-0.726,2.117-1.039,3.405-0.848"/>
					<path fill="none" stroke="#000000" stroke-width="0.25" stroke-miterlimit="10" d="M519.745,450.512
						c1.223-0.998,2.93-1.004,4.682-0.845"/>
					<path fill="none" stroke="#000000" stroke-width="0.25" stroke-miterlimit="10" d="M520.596,446.285
						c1.066-1.003,2.586-1.123,4.258-0.844"/>
					<path fill="none" stroke="#000000" stroke-width="0.25" stroke-miterlimit="10" d="M521.021,441.638
						c1.574-0.753,3.426-0.429,5.106,0"/>
					<path fill="none" stroke="#000000" stroke-width="0.25" stroke-miterlimit="10" d="M522.298,438.258
						c0.881-0.44,2.502-0.621,3.832-0.423"/>
					<path fill="none" stroke="#000000" stroke-width="0.25" stroke-miterlimit="10" d="M523.575,434.877
						c0.017-1.491,2.304-0.827,4.258-0.846"/>
					<path fill="none" stroke="#000000" stroke-width="0.25" stroke-miterlimit="10" d="M525.278,430.651c1.275,0,2.555,0,3.832,0"
						/>
					<path fill="none" stroke="#000000" stroke-width="0.25" stroke-miterlimit="10" d="M527.407,427.693
						c0.854-0.243,2.7-0.652,3.832-0.848"/>
					<path fill="none" stroke="#000000" stroke-width="0.25" stroke-miterlimit="10" d="M529.11,423.891
						c1.101,0.33,2.215,0.471,3.404,0.422"/>
					<path fill="none" stroke="#000000" stroke-width="0.25" stroke-miterlimit="10" d="M531.239,421.354c1.134,0,2.271,0,3.405,0"
						/>
					<path fill="none" stroke="#000000" stroke-width="0.25" stroke-miterlimit="10" d="M532.94,418.396
						c1.374,0.028,2.909,0.54,3.831,1.268"/>
					<path fill="none" stroke="#000000" stroke-width="0.25" stroke-miterlimit="10" d="M536.771,417.129
						c0.627-0.162,1.961,0.217,2.979,0.846"/>
					<path fill="none" stroke="#000000" stroke-width="0.25" stroke-miterlimit="10" d="M541.03,415.438
						c0.313-0.01,1.668,0.616,2.554,1.271"/>
					<path fill="none" stroke="#000000" stroke-width="0.25" stroke-miterlimit="10" d="M544.861,414.593
						c0.671,0.396,1.15,0.902,1.703,1.691"/>
					<path fill="none" stroke="#000000" stroke-width="0.25" stroke-miterlimit="10" d="M548.268,414.171
						c0.344,0.442,0.834,1.095,1.277,1.69"/>
					<path fill="none" stroke="#000000" stroke-width="0.25" stroke-miterlimit="10" d="M517.616,478.823
						c0.273,0.132,1.082,1.455,1.275,2.536"/>
					<path fill="none" stroke="#000000" stroke-width="0.25" stroke-miterlimit="10" d="M521.874,477.556
						c0.521,1.326,1.411,2.746,1.701,4.228"/>
					<path fill="none" stroke="#000000" stroke-width="0.25" stroke-miterlimit="10" d="M524.854,476.288
						c1.037,0.872,2.161,1.988,2.979,2.958"/>
					<path fill="none" stroke="#000000" stroke-width="0.25" stroke-miterlimit="10" d="M528.684,474.598
						c-0.281-0.697,1.234,1.869,1.704,2.536"/>
					<path fill="none" stroke="#000000" stroke-width="0.25" stroke-miterlimit="10" d="M527.407,470.795
						c0.942,0.325,1.969,1.19,2.555,2.113"/>
					<path fill="none" stroke="#000000" stroke-width="0.25" stroke-miterlimit="10" d="M527.407,466.992
						c0.909,0.672,1.768,1.383,2.555,2.11"/>
					<path fill="none" stroke="#000000" stroke-width="0.25" stroke-miterlimit="10" d="M519.318,463.611
						c0.818,0.4,1.627,1.04,2.128,1.688"/>
					<path fill="none" stroke="#000000" stroke-width="0.25" stroke-miterlimit="10" d="M516.764,465.302
						c0.855,0.08,1.683,0.579,2.13,1.27"/>
					<path fill="none" stroke="#000000" stroke-width="0.25" stroke-miterlimit="10" d="M515.913,466.569
						c0.759,0.545,1.374,1.299,1.703,2.11"/>
					<path fill="none" stroke="#000000" stroke-width="0.25" stroke-miterlimit="10" d="M514.21,468.682
						c0.199,0.861,0.838,1.49,1.703,1.69"/>
					<path fill="none" stroke="#000000" stroke-width="0.25" stroke-miterlimit="10" d="M512.508,470.372
						c0.8,0.771,1.521,1.625,2.128,2.536"/>
					<path fill="none" stroke="#000000" stroke-width="0.25" stroke-miterlimit="10" d="M512.082,472.908
						c0.127,0.623,0.426,1.211,0.851,1.688"/>
					<path fill="none" stroke="#000000" stroke-width="0.25" stroke-miterlimit="10" d="M511.655,474.598
						c-0.089,0.712,0.22,1.303,0.853,1.69"/>
					<path fill="none" stroke="#000000" stroke-width="0.25" stroke-miterlimit="10" d="M482.148,322.884
						c-1.106-1.771-3.997-1.163-5.85-1.163"/>
				</g>
				<path fill="none" stroke="#000000" stroke-width="0.5" stroke-miterlimit="10" d="M514.666,434.667
					c0,4.619,0.012,8.633,1.334,13"/>
				<path fill="none" stroke="#000000" stroke-width="0.5" stroke-miterlimit="10" d="M565.666,454.001
					c0.859,3.674,5.59,7.699,8,10.666"/>
				<path fill="none" stroke="#000000" stroke-width="0.5" stroke-miterlimit="10" d="M570.333,460.001
					c-0.708,1.421,0.354,3.297,0.667,5"/>
				<path fill="none" stroke="#000000" stroke-width="0.5" stroke-miterlimit="10" d="M570.333,460.334
					c0.762,0.801,2.13,0.747,3.333,1"/>
				<path fill="none" stroke="#000000" stroke-width="0.5" stroke-miterlimit="10" d="M566.333,456.667
					c2.585-0.715,6.444-0.452,9,0.334"/>
				<path fill="none" stroke="#000000" stroke-width="0.5" stroke-miterlimit="10" d="M572.666,456.667
					c0.823,0.846,1.415,1.892,1.667,3"/>
				<path fill="none" stroke="#000000" stroke-width="0.5" stroke-miterlimit="10" d="M545.666,478.334
					c0.337,1.963-0.323,5.834,0.334,8.667"/>
				<path fill="none" stroke="#000000" stroke-width="0.5" stroke-miterlimit="10" d="M545.666,479.667
					c2.194,1.451,3.771,3.26,5.667,5"/>
				<path fill="none" stroke="#000000" stroke-width="0.5" stroke-miterlimit="10" d="M549,481.667
					c-0.01,1.161,0.098,2.231,0.333,3.334"/>
				<path fill="none" stroke="#000000" stroke-width="0.5" stroke-miterlimit="10" d="M549,482.334c1.222,0,2.444,0,3.666,0"/>
				<path fill="none" stroke="#000000" stroke-width="0.5" stroke-miterlimit="10" d="M529.333,490.668c1.744,2.346,2.983,6.106,4,9
					"/>
				<path fill="none" stroke="#000000" stroke-width="0.5" stroke-miterlimit="10" d="M532.333,496.334
					c-0.89,1.146-0.931,2.749-1,4.334"/>
			</g>
			<g>
				<path fill="none" stroke="#000000" stroke-miterlimit="10" d="M547.25,114.25c0.762-0.808,2.661-1.953,4.25-1.75"/>
				<path fill="none" stroke="#000000" stroke-miterlimit="10" d="M562,112c1.277,0.005,2.547-0.088,3.75,0.25"/>
			</g>
		</g>
	</g>
</g>
</svg>
