<svg width="250" height="450" xmlns="http://www.w3.org/2000/svg">
 <g>
  <title>Solanum tuberosum</title>
  <g id="outlines">
   <g id="svg_1">
    <g id="svg_2">
     <g id="svg_3">
      <g id="svg_4">
       <path id="svg_5" d="m63.651939,250.80838c0,0 -1.626045,-6.084137 -9.211418,0.528488c-2.980621,2.379196 -4.742863,14.150192 0.270531,21.290421c3.793159,5.025299 15.442253,18.38089 16.797729,21.687653c1.083107,-1.057922 2.573883,-7.008118 5.824097,-11.902222c2.437675,-4.760132 5.824097,-15.735626 -0.811638,-26.050507c-4.20079,-5.685944 -7.993042,-10.446091 -12.869301,-5.553833z" stroke-miterlimit="10" fill="none" stroke="#000000"/>
       <path id="svg_6" d="m51.594238,261.388428c0,0 -9.887787,-2.644348 -11.241428,16.398102c-0.137135,3.04071 -0.000931,9.256958 7.585407,19.175476c2.031845,2.645233 4.741898,8.199036 4.876259,11.769135c0.270538,0.398224 1.084007,1.32309 2.574783,-1.58548c1.355476,-2.645233 4.06369,-4.233459 7.722511,-7.27417c3.114014,-2.513123 6.365166,-6.347504 6.231766,-9.124847" stroke-miterlimit="10" fill="none" stroke="#000000"/>
       <path id="svg_7" d="m40.351879,277.785645c0,0 -4.741898,-9.917603 -1.626949,-22.480408c1.489815,-5.555664 11.922405,-14.415344 17.746475,-5.555664" stroke-miterlimit="10" fill="none" stroke="#000000"/>
       <path id="svg_8" d="m78.146378,238.907089c0,0 -6.637566,0.132111 -3.251144,10.446991c0.542,2.248886 3.385483,7.801773 9.481979,11.770065c3.252083,2.512238 8.263611,6.213531 11.650002,8.461517c0.26873,-0.660645 0.134361,-8.596344 -1.084007,-19.704895c-1.625137,-5.685013 -2.843513,-13.618912 -16.796829,-10.973679z" stroke-miterlimit="10" fill="none" stroke="#000000"/>
       <path id="svg_9" d="m95.080338,251.336899c0,0 7.178642,6.084152 8.261749,7.405411c0.947838,-2.777374 4.87999,-11.769196 -2.167114,-22.61348c-2.030945,-3.173737 -8.12738,-7.933899 -9.617256,-1.586411c-0.946869,-0.529404 -14.360077,-0.265182 -14.495346,2.24704c0.405807,0.927612 1.083107,2.11673 1.083107,2.11673" stroke-miterlimit="10" fill="none" stroke="#000000"/>
       <path id="svg_10" d="m40.62151,251.602051c-2.031845,1.718552 -5.552628,5.819 -6.909973,7.670563c-0.405804,-12.431641 5.012463,-18.513016 10.83749,-23.935638c8.535049,-7.803589 13.412247,-3.307663 13.412247,-3.307663s5.555397,-2.378265 9.619087,3.70314c0.135292,2.645233 -7.586311,7.008087 -8.12925,12.56282" stroke-miterlimit="10" fill="none" stroke="#000000"/>
       <path id="svg_11" d="m60.535149,248.296188c0,0 -0.67543,-1.851578 0.543869,-4.231659" stroke-miterlimit="10" fill="none" stroke="#000000"/>
       <path id="svg_12" d="m63.651939,250.80838c0,0 -1.355476,-6.083221 -0.406738,-8.861511c1.760376,-1.586411 6.502304,-4.362854 14.088608,-4.761948" stroke-miterlimit="10" fill="none" stroke="#000000"/>
       <path id="svg_13" d="m67.581291,235.732452c0,0 18.151375,-6.347473 24.383141,-2.37915" stroke-miterlimit="10" fill="none" stroke="#000000"/>
       <path id="svg_14" d="m83.565552,232.161423c0,0 0.26963,-4.892288 -0.677299,-7.406296c0.81353,0.133041 5.419197,1.721252 5.012482,7.406296" stroke-miterlimit="10" fill="none" stroke="#000000"/>
       <path id="svg_15" d="m74.217026,233.750565l-1.084038,-1.851593c0,0 4.065559,-6.610794 -8.397949,-6.213531c-1.083099,0.131226 -3.386414,1.983704 -5.419197,3.04071c1.219307,0.661545 5.146797,5.290482 13.952438,3.173737" stroke-miterlimit="10" fill="none" stroke="#000000"/>
       <path id="svg_16" d="m65.819054,225.418488c0,0 6.637566,-5.554733 13.5466,-2.645248c0.813477,0.926727 1.488914,2.646164 0.135269,4.496841c0,0 2.438583,2.90947 3.114983,4.761032" stroke-miterlimit="10" fill="none" stroke="#000000"/>
       <path id="svg_17" d="m73.947395,229.782272c0,0 4.605721,-0.528488 5.553558,-2.512192" stroke-miterlimit="10" fill="none" stroke="#000000"/>
       <path id="svg_18" d="m102.530418,237.981308c0,0 5.420105,-0.264267 6.096497,4.232559c-0.135262,0.397278 -1.898438,1.189148 -4.199013,0.527588" stroke-miterlimit="10" fill="none" stroke="#000000"/>
       <path id="svg_19" d="m104.955116,250.013824c0,0 12.841515,11.249786 13.368736,24.850494c0.790283,8.471497 1.053406,31.061279 1.053406,31.061279s-1.57785,10.139008 -2.36911,13.220703" stroke-miterlimit="10" fill="none" stroke="#000000"/>
       <path id="svg_20" d="m114.843864,262.800812c0,0 -10.19355,0.257843 -10.19355,7.702454c3.416985,0 8.675919,0.512085 9.728432,2.565918c1.577858,3.079895 2.892586,3.594727 3.945107,3.851715" stroke-miterlimit="10" fill="none" stroke="#000000"/>
       <path id="svg_21" d="m123.055573,268.961487c0,0 1.840073,12.576477 8.67868,10.524445c2.365433,-1.539917 6.572708,-10.524445 -8.67868,-10.524445z" stroke-miterlimit="10" fill="none" stroke="#000000"/>
       <path id="svg_22" d="m109.118904,180.14418c0,0 -13.410408,15.657303 1.577858,17.712082" stroke-miterlimit="10" fill="none" stroke="#000000"/>
       <path id="svg_23" d="m113.325272,177.318512c0,0 9.730301,-7.700623 21.036591,-11.807449c-0.52626,5.646774 -2.890732,23.615784 -19.194702,31.829422" stroke-miterlimit="10" fill="none" stroke="#000000"/>
       <path id="svg_24" d="m117.26947,196.571442c0,0 2.367249,3.850769 3.681976,4.877686" stroke-miterlimit="10" fill="none" stroke="#000000"/>
       <path id="svg_25" d="m123.580917,191.18074c0,0 0.790344,2.568695 1.839127,2.568695" stroke-miterlimit="10" fill="none" stroke="#000000"/>
       <path id="svg_26" d="m160.395157,107.241127c0,0 -16.302109,17.970856 -17.617737,26.44146c-0.790283,7.186691 -0.52536,16.428162 -6.311447,37.476166c-0.263123,4.620743 -1.839127,10.782318 -1.577866,14.890045c2.631332,-2.054749 31.289459,-30.547333 31.289459,-30.547333" stroke-miterlimit="10" fill="none" stroke="#000000"/>
       <path id="svg_27" d="m162.76239,165.256851c-3.153854,3.07988 -24.191345,23.613968 -24.191345,23.613968s-0.790344,2.566864 2.366287,0c4.733582,-2.565964 17.354614,-10.011444 33.134125,-7.95578c13.677261,1.540863 19.722763,3.850784 27.612961,1.027863c2.631332,0.512085 2.104126,4.105896 0.523483,4.363754c-2.892532,-0.256027 -16.828293,0 -21.560974,-1.282974" stroke-miterlimit="10" fill="none" stroke="#000000"/>
       <path id="svg_28" d="m176.435928,182.968933c0,0 -3.946014,-2.56778 -6.836792,1.539948c-1.054382,2.822922 -0.52626,6.416718 0.789444,8.984497c2.891632,-0.257858 14.988266,-2.56778 9.466202,-10.269302c-1.314743,-0.513031 -1.840988,-1.026031 -3.418854,-0.255142z" stroke-miterlimit="10" fill="none" stroke="#000000"/>
       <path id="svg_29" d="m189.847244,182.454102c0,0 -14.199799,-1.796005 -9.203079,-8.984512c3.943237,-6.417648 5.783325,-9.242401 6.044586,-11.038376c2.892593,0.513916 16.039871,6.930649 11.568451,14.632187c-2.627594,3.594696 -4.205399,4.36467 -7.360214,3.594696c0.002823,1.026031 -1.049744,1.796005 -1.049744,1.796005z" stroke-miterlimit="10" fill="none" stroke="#000000"/>
       <path id="svg_30" d="m197.998764,186.048798c3.417953,0 3.154816,3.079895 3.154816,7.443665c-1.315689,15.144287 -13.147278,15.914246 -14.988266,15.40126c0.523483,-1.283005 -1.315689,-2.56781 -3.684799,-9.754501c0,0 -3.416977,-9.755402 2.104111,-13.606171" stroke-miterlimit="10" fill="none" stroke="#000000"/>
       <path id="svg_31" d="m166.967865,180.913239c0,0 -1.050659,-4.875885 0.791245,-8.983597c3.681976,0.769974 9.993423,2.309906 9.204941,9.241455" stroke-miterlimit="10" fill="none" stroke="#000000"/>
       <path id="svg_32" d="m163.024612,162.94603c0,0 -2.104111,7.443665 4.732635,8.983612c2.892593,-1.026932 4.470444,-4.877716 -0.79126,-10.268417c-2.364471,-0.255142 -3.941376,1.284805 -3.941376,1.284805z" stroke-miterlimit="10" fill="none" stroke="#000000"/>
       <path id="svg_33" d="m166.967865,161.661224c0,0 -0.521622,-6.16069 8.942719,-6.930649c8.41188,0.769958 11.044113,3.849854 11.832596,4.620728c-3.420715,2.309921 -9.992523,6.930649 -18.143982,5.647675" stroke-miterlimit="10" fill="none" stroke="#000000"/>
       <path id="svg_34" d="m165.128738,155.757507c0,0 -6.049225,-2.822922 -8.415558,-10.781418c5.521088,0 16.039871,-1.28479 17.88176,9.754486c-3.682877,1.026932 -7.09993,2.054779 -9.466202,1.026932z" stroke-miterlimit="10" fill="none" stroke="#000000"/>
       <path id="svg_35" d="m169.599136,184.508881c0,0 -31.029053,4.105881 -40.233994,19.508057c-1.315689,3.594727 -2.104111,52.368958 -1.315689,65.204254" stroke-miterlimit="10" fill="none" stroke="#000000"/>
       <path id="svg_36" d="m128.314499,279.485962l0.525345,25.412689c0,0 0.789383,13.862183 -1.182236,19.639282" stroke-miterlimit="10" fill="none" stroke="#000000"/>
       <path id="svg_37" d="m66.126656,166.281952c-7.565018,2.346359 -11.461014,-4.208862 -15.730404,-8.702957c1.886372,1.164536 4.482502,0.437393 5.868572,2.156845" stroke-miterlimit="10" fill="none" stroke="#000000"/>
       <path id="svg_38" d="m66.913292,166.281952c-8.433174,-2.203293 -17.101654,-12.744156 -19.177979,-20.734543c7.237961,-0.367218 15.217125,3.836197 18.391373,10.338577" stroke-miterlimit="10" fill="none" stroke="#000000"/>
       <path id="svg_39" d="m57.841751,147.799927c-4.658508,-3.805206 -6.510643,-8.976303 -7.081371,-14.631271c-0.624454,-6.204422 2.042049,-9.32531 4.310162,-14.872742c1.601952,2.863922 5.885231,2.861191 8.598076,4.176979c2.881454,1.398697 5.31636,3.535484 7.086922,6.179817c2.91021,4.342804 6.074242,13.671768 2.464539,18.377243" stroke-miterlimit="10" fill="none" stroke="#000000"/>
       <path id="svg_40" d="m73.225647,146.644516c2.270882,-0.956772 4.186913,-3.386963 5.935272,-5.255859c-0.328926,3.598373 0.785675,5.600296 -1.103493,8.805023c-1.553772,2.632462 -3.926582,4.440308 -6.012184,6.46138" stroke-miterlimit="10" fill="none" stroke="#000000"/>
       <path id="svg_41" d="m72.042473,156.270508c0.148247,1.409637 0.701393,1.907166 2.312592,1.597351c-0.451218,2.812897 -3.429031,6.258179 -6.25956,6.874161" stroke-miterlimit="10" fill="none" stroke="#000000"/>
       <path id="svg_42" d="m73.225647,189.000214c-4.628883,-0.175858 -9.632072,-2.478485 -14.186844,-1.142654c-4.421341,1.293015 -8.512825,5.471817 -9.033539,9.9422c5.67215,0.279724 10.793015,-0.113007 14.148834,-4.948761" stroke-miterlimit="10" fill="none" stroke="#000000"/>
       <path id="svg_43" d="m64.94165,188.23024c-4.14431,5.772491 3.552246,9.378143 6.21228,13.439407c1.482437,-3.343231 2.749916,-9.327118 1.282303,-12.668518" stroke-miterlimit="10" fill="none" stroke="#000000"/>
       <path id="svg_44" d="m176.565659,154.730576c-1.384232,-8.293808 13.957077,-11.354553 19.721848,-10.780487c8.838043,0.880219 15.038254,3.787888 22.058502,9.163101c-4.671494,-0.102966 -9.710846,3.400635 -14.148834,4.709122c-4.198059,1.236511 -13.021286,2.415619 -16.980301,0.758133" stroke-miterlimit="10" fill="none" stroke="#000000"/>
       <path id="svg_45" d="m180.512634,147.799927c-3.523529,-2.61972 -9.313354,-6.701035 -11.352615,-10.87619c-2.370972,-4.85582 -1.348099,-11.736366 -0.401169,-16.808144c4.988342,2.486687 9.726563,5.598457 12.245758,10.645653c2.282028,4.572449 3.139954,10.275696 5.029114,14.727844" stroke-miterlimit="10" fill="none" stroke="#000000"/>
       <path id="svg_46" d="m187.216873,144.720047c-4.006241,-18.319855 13.003693,-23.897354 26.345505,-31.149666c-0.911697,6.146095 -0.073181,13.299095 -1.910492,19.191872c-1.856705,5.947464 -6.128891,8.302933 -10.628082,11.957794" stroke-miterlimit="10" fill="none" stroke="#000000"/>
       <path id="svg_47" d="m173.411804,150.880722c2.113388,-0.654251 4.543625,-2.475754 5.917679,-4.235291" stroke-miterlimit="10" fill="none" stroke="#000000"/>
       <path id="svg_48" d="m158.817291,108.910461c2.439514,-1.579124 4.729843,-4.421181 6.675568,-6.467758c-1.296188,-0.184967 -2.709137,-0.09021 -3.787613,0.249672c2.957458,-3.032501 9.020599,-3.501778 12.870239,-5.429893c3.826523,-1.916267 7.875397,-4.226181 10.927353,-7.228615c-2.421936,-0.379967 -4.77713,-0.926697 -7.315781,-0.837402c4.927216,-6.42675 16.98584,-7.783539 23.981033,-9.605034c-1.042328,-3.185585 -4.667816,-3.489929 -7.423264,-4.265381c2.896317,-1.642906 6.140991,-5.193886 8.103348,-8.030472c-5.084763,-1.220108 -8.769516,1.062469 -12.791534,3.84166c-0.115814,-1.714897 -0.093521,-3.479904 -0.050949,-5.216675c-5.616547,4.016609 -10.880066,8.950798 -13.456711,15.130615c0.039856,-2.369133 0.091721,-4.788391 -0.049088,-7.130203c-4.402832,1.558167 -10.130554,12.934608 -12.062363,16.852791c-0.586487,-1.305756 -1.050659,-2.683502 -1.588043,-3.784248c-0.377991,2.520409 -2.72023,4.218903 -3.549484,6.604439c-0.826431,2.372795 -0.139008,5.187515 -0.954285,7.575798c-0.782928,-0.924889 -2.040207,-1.548149 -3.000092,-2.231552c-1.144241,3.694038 -0.601303,7.920219 -2.345032,11.221535c-1.593582,3.009712 -4.316635,6.990784 -6.407745,9.531227c0,0 0.789383,-28.878014 1.180374,-31.958809" stroke-miterlimit="10" fill="none" stroke="#000000"/>
       <path id="svg_49" d="m144.223679,86.19313c0,0 -0.789383,29.648895 -0.789383,34.268723c-1.182236,5.006187 -7.099915,22.718246 -7.099915,28.878937c-0.790283,0.769974 -7.098969,-9.626007 -9.466202,-18.482056" stroke-miterlimit="10" fill="none" stroke="#000000"/>
       <path id="svg_50" d="m125.685028,140.099304c0,0 2.761002,8.086075 6.705215,11.935913c0.789383,5.776154 -0.39563,14.246735 -0.39563,14.246735" stroke-miterlimit="10" fill="none" stroke="#000000"/>
       <path id="svg_51" d="m108.329521,165.126556c-0.455849,-0.294327 -2.259796,-1.806931 -2.722099,-3.022476c0.823654,-0.066513 1.890984,-0.213242 2.722099,-0.056488" stroke-miterlimit="10" fill="none" stroke="#000000"/>
       <path id="svg_52" d="m112.27372,165.126556c1.679764,-0.030075 2.990822,-1.027847 3.48925,-2.617004c-1.010826,-0.460144 -2.323692,-0.866547 -3.48925,-0.848328" stroke-miterlimit="10" fill="none" stroke="#000000"/>
       <path id="svg_53" d="m108.329521,147.029953l0.527161,11.295334c-0.790291,45.69165 6.572762,56.21701 9.991554,63.147659c0,0 -17.620445,-11.808334 -25.507889,-17.969009c-23.403854,-16.685165 -24.979851,-34.397232 -25.242981,-38.24707c0,0 -1.314728,0 -2.10318,1.025101c-0.525352,19.765015 18.14399,34.65416 28.134583,42.612671c14.989227,13.861298 25.244812,19.510803 26.559555,18.482941c0,0 0,30.544601 0,38.248886c-5.261703,-10.270203 -16.56517,-21.817963 -16.56517,-21.817963" stroke-miterlimit="10" fill="none" stroke="#000000"/>
       <path id="svg_54" d="m111.881775,148.185379l0.394714,10.652939c0,0 -0.524445,44.920761 9.205856,59.809906c0.261261,-9.240585 -2.368149,-16.686066 1.313828,-22.332809c4.469498,-4.876785 8.414597,-8.726639 8.414597,-8.726639c1.052505,-6.930679 0.789383,-9.755402 0.789383,-9.755402" stroke-miterlimit="10" fill="none" stroke="#000000"/>
       <path id="svg_55" d="m99.652702,89.657547c0,0 -7.494591,12.32135 -3.155724,25.028152c-3.945107,-3.850761 -9.072449,-3.465317 -9.072449,-3.465317c0.791245,6.930641 1.972527,15.786682 9.072449,24.642715c-3.155724,-1.925385 -3.155724,-1.925385 -3.155724,-1.925385c0.791245,5.390717 -1.576904,14.632187 14.991035,13.092239c3.549484,1.155426 15.774887,3.079895 18.93338,-12.320435c-2.367249,-1.539948 -5.129211,-0.769974 -5.129211,-0.769974c4.734543,-3.079895 16.962708,-5.775238 18.145859,-17.712074c-5.522064,-0.769974 -9.468079,-1.925392 -11.439697,0.384521c0,-3.849846 0,-3.849846 0,-3.849846c-3.154816,0 -5.521103,-1.53994 -8.67778,1.154503c-0.39653,-6.161598 -5.129211,-20.79287 -20.512138,-24.259102z" stroke-miterlimit="10" fill="none" stroke="#000000"/>
       <path id="svg_56" d="m109.118904,158.196823c-3.347481,-0.017319 -6.467072,-3.305862 -7.926346,-5.987549c2.189339,-0.323486 4.503761,-0.173141 6.740379,-0.173141" stroke-miterlimit="10" fill="none" stroke="#000000"/>
       <path id="svg_57" d="m112.27372,158.196823c2.644287,-0.259705 4.368553,-3.037979 5.522972,-5.00618" stroke-miterlimit="10" fill="none" stroke="#000000"/>
       <path id="svg_58" d="m111.881775,151.265244c1.938255,0.475662 4.013702,0.92215 5.521103,2.310822" stroke-miterlimit="10" fill="none" stroke="#000000"/>
       <path id="svg_59" d="m103.990654,60.009556c6.627396,3.465321 7.667862,25.713383 7.667862,36.174969" stroke-miterlimit="10" fill="none" stroke="#000000"/>
       <path id="svg_60" d="m113.457771,58.469612c-4.338867,4.620735 0.439163,33.988976 1.184097,41.028984" stroke-miterlimit="10" fill="none" stroke="#000000"/>
       <path id="svg_61" d="m110.696762,77.022736c1.419411,-12.397911 22.917389,2.940468 27.21553,4.54966" stroke-miterlimit="10" fill="none" stroke="#000000"/>
       <path id="svg_62" d="m109.906479,76.250023c-6.118721,-9.454704 -15.344986,4.846718 -15.382027,9.942192" stroke-miterlimit="10" fill="none" stroke="#000000"/>
       <path id="svg_63" d="m94.524399,86.19313c-2.329247,1.54631 -3.290993,3.786972 -3.493896,6.419456c1.217468,-1.708511 2.972275,-4.423004 3.492989,-5.706894c-0.260361,2.452057 0.325165,4.637146 1.205368,6.870506c-0.03891,-2.224258 -0.003677,-4.452156 -0.03891,-6.678246c0.646706,1.169991 1.60659,2.237923 2.708244,2.904938c-0.26963,-2.036552 -2.605377,-2.882164 -3.47908,-4.581558" stroke-miterlimit="10" fill="none" stroke="#000000"/>
       <path id="svg_64" d="m109.906479,75.680519c-2.45343,-3.670349 -18.012398,-7.287849 -22.087227,-5.659515" stroke-miterlimit="10" fill="none" stroke="#000000"/>
       <path id="svg_65" d="m80.27552,72.418388c-4.3815,-0.592278 -2.878685,-4.172417 0.443802,-4.708206c3.748711,-0.603226 9.139183,1.341301 5.846321,5.476357c-1.541725,1.929939 -7.840187,3.431618 -6.290123,-0.76815z" stroke-miterlimit="10" fill="none" stroke="#000000"/>
       <path id="svg_66" d="m93.736877,51.153519c1.988304,3.930046 3.647713,8.031395 5.828735,12.031601c6.003815,9.036446 7.582581,8.849648 10.342674,13.711868" stroke-miterlimit="10" fill="none" stroke="#000000"/>
       <path id="svg_67" d="m86.635147,51.153519c-1.294319,1.441532 -3.432762,2.31356 -5.058777,3.032505c-0.63282,-3.006081 -2.670242,-6.226288 -4.369453,-8.729378c2.291267,-0.150352 5.967705,-0.656982 7.46492,0.703449c1.517639,1.381397 1.413872,4.7966 1.96331,6.533367" stroke-miterlimit="10" fill="none" stroke="#000000"/>
       <path id="svg_68" d="m82.298096,44.992836c-0.284454,-2.632481 0.482704,-5.204819 1.160011,-7.565762c1.276726,2.543182 4.207329,4.710953 6.688515,6.131523c-1.140556,1.81057 -3.378075,3.104485 -4.299049,4.900478" stroke-miterlimit="10" fill="none" stroke="#000000"/>
       <path id="svg_69" d="m89.791771,44.222866c2.197708,-0.024605 4.127655,1.117146 5.85746,2.408329c-0.739388,1.521717 -1.036789,3.242989 -1.587135,4.859474c-2.836098,-0.975903 -5.522057,-2.647068 -7.820709,-4.572449" stroke-miterlimit="10" fill="none" stroke="#000000"/>
       <path id="svg_70" d="m90.975876,51.153519c-4.043335,2.757317 -1.828941,4.47403 -3.115852,8.007702c3.000946,0.519382 6.288254,1.482536 7.464897,-1.837906c1.029381,-2.918602 -1.184052,-5.658611 -3.56057,-6.939766" stroke-miterlimit="10" fill="none" stroke="#000000"/>
       <path id="svg_71" d="m82.691849,54.233402c-1.599182,2.454796 -0.906128,7.07827 -0.710663,9.972263c1.471321,-1.303024 4.411194,-3.019741 5.353432,-4.582458c1.433319,-2.372791 0.210304,-4.720978 0.8172,-7.256866c-0.755112,0.094761 -2.002213,-0.434654 -2.304245,-0.44194" stroke-miterlimit="10" fill="none" stroke="#000000"/>
       <path id="svg_72" d="m93.736877,44.992836c-0.278908,-1.553612 -0.659653,-3.28764 -0.334496,-4.947861c4.764183,0.220516 8.569382,-1.745876 11.694511,-5.0326c0.0065,2.051132 0.668022,3.87537 1.619537,5.648579c-2.840683,1.632889 -9.228073,5.480007 -7.908707,8.507954c-0.869118,0.049206 -2.520149,-0.114811 -3.432762,-0.383617c0.213081,-1.416019 -0.057449,-2.719959 -0.847794,-3.793362" stroke-miterlimit="10" fill="none" stroke="#000000"/>
       <path id="svg_73" d="m98.469498,48.458164c0,2.113094 -0.828285,6.167057 -0.010178,8.086063c1.094193,2.563225 4.070198,2.653435 6.647751,3.030678c-0.206635,-2.606056 0.858879,-4.841248 1.191513,-7.210388c-3.242813,-0.266071 -3.333633,-3.891773 -7.829086,-3.520916" stroke-miterlimit="10" fill="none" stroke="#000000"/>
       <path id="svg_74" d="m104.778175,50.383549c-0.785706,-2.816544 1.354546,-3.784248 3.881203,-3.522732c-0.216812,-1.760452 -1.385139,-3.695862 -2.304245,-5.333305" stroke-miterlimit="10" fill="none" stroke="#000000"/>
       <path id="svg_75" d="m107.93576,46.918221c1.929039,-0.40731 3.586578,0.718033 4.239731,2.280762c0.986748,-3.302223 2.397842,-2.816551 1.282333,-6.132439c-0.71994,-2.14772 -2.203247,-4.620735 -3.056587,-6.513317c-0.386353,2.125847 -1.636223,3.719551 -3.648613,4.589756" stroke-miterlimit="10" fill="none" stroke="#000000"/>
       <path id="svg_76" d="m114.246246,44.222866c1.969757,2.158657 4.631683,3.682194 6.644073,5.870914c-1.727951,1.876179 -4.541824,3.262131 -6.172501,5.264053c-0.497528,-2.167763 -2.146698,-3.622963 -3.231674,-5.359726" stroke-miterlimit="10" fill="none" stroke="#000000"/>
       <path id="svg_77" d="m115.035629,54.618847c-0.786613,3.547337 -2.912956,5.149239 -5.916725,7.547543c-0.931152,-1.176369 -2.953728,-2.421093 -3.549477,-2.542278" stroke-miterlimit="10" fill="none" stroke="#000000"/>
       <path id="svg_78" d="m105.569427,51.923492c1.891937,1.196411 4.615898,-0.607777 6.31144,-1.539944" stroke-miterlimit="10" fill="none" stroke="#000000"/>
       <path id="svg_79" d="m123.712448,39.21669c-1.497269,-1.850662 -3.363251,-3.34687 -5.857452,-3.407925c-0.264938,5.103683 -1.044144,8.467865 4.180466,10.28117c1.13501,-2.196014 1.061844,-4.401138 1.676987,-6.873245" stroke-miterlimit="10" fill="none" stroke="#000000"/>
       <path id="svg_80" d="m122.133682,45.76281c0.011139,3.314068 0.236267,9.354465 5.464615,8.028656c0.080582,-1.569103 0.77269,-5.420776 -0.020416,-6.794876c-1.101593,-1.90443 -3.610611,-0.997772 -3.865433,-3.929134" stroke-miterlimit="10" fill="none" stroke="#000000"/>
       <path id="svg_81" d="m119.768311,36.521336c0,-3.221123 0.075043,-7.468262 1.992035,-11.032001c0.977463,4.363779 1.099731,6.468666 3.921921,9.492058c1.954025,2.089401 2.198608,1.253822 2.367233,4.620735c0.109314,2.169594 0,4.372894 0,6.54612" stroke-miterlimit="10" fill="none" stroke="#000000"/>
       <path id="svg_82" d="m124.107178,44.222866c0.010178,-2.809258 -0.422485,-5.678646 2.367233,-7.316093" stroke-miterlimit="10" fill="none" stroke="#000000"/>
       <path id="svg_83" d="m136.730057,81.95784c-1.53154,0.718941 -5.423828,-1.254738 -5.45256,1.473427c1.956802,0.769974 4.33519,0.517555 6.299408,0.069252c-1.626053,0.724411 -0.635574,6.951607 1.635315,5.49913c1.409225,-0.903 -0.718079,-6.383003 -1.29715,-7.427254" stroke-miterlimit="10" fill="none" stroke="#000000"/>
       <path id="svg_84" d="m143.434296,87.347626c-0.340027,-3.049812 -5.629501,-2.725418 -5.54982,-5.37886c0.061127,-2.0812 4.839157,-3.104485 6.339203,-3.477165" stroke-miterlimit="10" fill="none" stroke="#000000"/>
       <path id="svg_85" d="m143.829025,88.888474c0.58371,-3.889946 1.489868,-7.935707 1.183136,-11.936829c-0.288116,-3.719559 -2.90741,-6.422203 -2.369049,-10.395981" stroke-miterlimit="10" fill="none" stroke="#000000"/>
       <path id="svg_86" d="m147.37941,90.042976c0,-4.108643 0.546661,-8.66378 -0.087997,-12.705887c-0.600388,-3.81797 -3.517975,-7.066429 -3.857117,-10.781425" stroke-miterlimit="10" fill="none" stroke="#000000"/>
       <path id="svg_87" d="m142.25206,67.325638c-1.177597,-4.212517 -8.081055,-7.69516 -6.252121,-12.263958c5.862045,0.328945 6.726532,-5.66589 12.102173,-6.93885c0.385391,3.435261 -3.540253,6.30283 -4.279587,9.567688c-0.782944,3.458035 0.009262,8.003147 0.009262,11.560497" stroke-miterlimit="10" fill="none" stroke="#000000"/>
       <path id="svg_88" d="m143.829025,57.314194c-1.356415,1.689369 -5.055984,2.595116 -5.916733,0" stroke-miterlimit="10" fill="none" stroke="#000000"/>
       <path id="svg_89" d="m138.701675,54.233402c2.433975,-7.122002 1.638092,-14.402561 2.029984,-21.889046c0.515167,-0.044651 0.943207,-0.051937 1.460236,0c0.317764,6.152477 0.891296,13.17152 0.451218,19.193691" stroke-miterlimit="10" fill="none" stroke="#000000"/>
       <path id="svg_90" d="m147.37941,84.267738c4.899445,-4.792046 6.689484,-14.270432 9.574615,-20.409241c3.139038,-6.680981 6.22345,-13.589764 8.174652,-20.405598" stroke-miterlimit="10" fill="none" stroke="#000000"/>
       <path id="svg_91" d="m151.716461,75.796234c-1.364777,-0.032799 -2.849045,-0.739891 -3.890427,-1.509865c0.630936,2.40741 1.081238,4.874054 2.3172,6.900581" stroke-miterlimit="10" fill="none" stroke="#000000"/>
       <path id="svg_92" d="m150.140472,80.032448c2.228302,0 6.014954,0.709824 7.539993,-0.771797c-1.399963,-1.368629 -3.129761,-2.634308 -4.778992,-3.848938" stroke-miterlimit="10" fill="none" stroke="#000000"/>
       <path id="svg_93" d="m152.901474,73.48632c-2.206985,-1.191856 -5.661011,-4.211601 -5.462738,-6.873245c2.8759,-0.141235 5.473877,0.246948 8.224701,0.328041" stroke-miterlimit="10" fill="none" stroke="#000000"/>
       <path id="svg_94" d="m152.901474,73.870865c4.632584,0 8.679596,0.472916 12.582108,-2.021065c-2.51828,-2.616081 -6.320709,-4.332787 -9.427292,-5.294121" stroke-miterlimit="10" fill="none" stroke="#000000"/>
       <path id="svg_95" d="m156.450958,65.014816c-1.942902,-2.198738 -3.857117,-5.425327 -5.620239,-7.981266c-2.253296,-3.269421 -1.835449,-6.016712 -2.592422,-9.596851c4.412094,2.758228 9.2939,4.461277 13.734711,6.02673" stroke-miterlimit="10" fill="none" stroke="#000000"/>
       <path id="svg_96" d="m156.844711,64.245766c5.081924,3.127258 17.198929,0.758125 22.049225,-2.407413c-2.659103,-2.793774 -6.754288,-4.423008 -9.387436,-7.5275c9.390259,-0.597752 19.546722,-5.958385 22.689499,-15.421288c-7.043442,-0.347172 -15.078186,-0.210491 -20.497391,3.743248c6.774704,-8.107025 11.280334,-18.471109 7.562225,-28.778695c-9.672791,4.592492 -22.803436,13.443967 -19.259491,26.133454" stroke-miterlimit="10" fill="none" stroke="#000000"/>
       <path id="svg_97" d="m161.577393,53.463428c-7.589081,-8.664677 -11.668549,-20.29443 -4.623322,-30.689491c0.819016,2.491238 3.123276,3.783331 4.229553,6.046774" stroke-miterlimit="10" fill="none" stroke="#000000"/>
       <path id="svg_98" d="m98.86422,367.660858c0,0 -6.311447,-13.089508 -16.566124,0.387268c-1.972557,3.08078 -4.73172,11.551361 6.31144,11.551361c6.309578,-0.002716 12.619156,-2.312622 10.254684,-11.938629z" stroke-miterlimit="10" fill="none" stroke="#000000"/>
       <path id="svg_99" d="m97.285454,376.901398c0,0 8.676826,6.161591 22.485619,-5.389801c7.494598,-6.930634 23.271332,-29.648895 6.705215,-48.516357c0,0 -14.199799,-10.780518 -27.216446,-0.384521c-8.281197,8.470581 -12.621925,19.637421 -11.044067,40.04306" stroke-miterlimit="10" fill="none" stroke="#000000"/>
       <path id="svg_100" d="m55.870132,348.408813c0,0 -0.791252,-7.313354 9.071541,-13.476776c4.339798,-1.155396 13.80323,-0.384521 14.594482,12.706818c0,6.15976 -1.972549,12.320435 -13.016647,16.942108c-3.550415,0.385437 -10.649376,1.539948 -10.649376,-16.17215z" stroke-miterlimit="10" fill="none" stroke="#000000"/>
       <path id="svg_101" d="m119.768311,304.514099c0,0 -5.522064,9.242371 -15.383896,9.625061c-7.494583,1.923584 -25.638573,16.557587 -26.819878,26.180878" stroke-miterlimit="10" fill="none" stroke="#000000"/>
       <path id="svg_102" d="m118.979828,311.059326c0,0 -5.916725,5.389801 -13.4104,6.160645c-5.522972,1.922668 -20.512146,10.395081 -21.299713,18.094788c-0.394669,5.389801 -1.181274,8.08609 -4.338867,8.85788" stroke-miterlimit="10" fill="none" stroke="#000000"/>
       <path id="svg_103" d="m129.235474,309.519379c-0.956146,3.770569 6.480988,5.828979 8.98259,7.786285c3.236313,2.526764 4.872528,6.347443 8.478561,8.279236c7.472366,3.997467 18.009628,5.285004 24.739822,11.272552" stroke-miterlimit="10" fill="none" stroke="#000000"/>
       <path id="svg_104" d="m129.235474,307.593994c8.242294,-1.0242 17.368469,5.752441 21.80098,12.215637c4.652039,6.783936 4.098862,14.609406 10.540939,20.897644" stroke-miterlimit="10" fill="none" stroke="#000000"/>
       <path id="svg_105" d="m155.948792,328.769562c13.897751,-3.949158 16.892242,-14.084534 19.732025,-17.026855c5.413651,-5.603912 10.103699,-4.022064 15.874969,0.085663" stroke-miterlimit="10" fill="none" stroke="#000000"/>
       <path id="svg_106" d="m174.200226,313.753754c4.883667,-0.018219 9.045578,-1.467957 12.227264,3.080811" stroke-miterlimit="10" fill="none" stroke="#000000"/>
       <path id="svg_107" d="m171.834839,317.98996c4.378738,-0.373596 9.59407,3.532776 12.224503,6.547943" stroke-miterlimit="10" fill="none" stroke="#000000"/>
       <path id="svg_108" d="m168.677261,321.839813c0.645798,2.424744 6.357758,2.740906 8.765762,3.776062c2.826828,1.215546 5.875061,3.725922 2.903748,7.101959c-3.492081,3.967377 -5.047668,-0.194092 -6.234543,-2.406525c-1.545456,-2.882141 -4.755814,-5.523712 -5.828735,-8.471497" stroke-miterlimit="10" fill="none" stroke="#000000"/>
       <path id="svg_109" d="m128.839844,319.14444c5.976959,2.611542 11.79364,6.760284 15.383896,12.322296c1.836349,2.85025 2.504379,6.198914 4.034058,9.239624c1.782639,3.550079 4.820679,6.086884 7.01001,9.244232" stroke-miterlimit="10" fill="none" stroke="#000000"/>
       <path id="svg_110" d="m128.839844,326.07605c1.461151,1.805084 1.822449,4.645325 3.629166,6.065887c2.122665,1.667511 5.498871,1.330383 7.810532,2.405609c2.495102,1.160858 4.476959,3.244812 7.09993,4.25351c2.804535,1.08252 5.638779,0.588654 7.494583,3.83255" stroke-miterlimit="10" fill="none" stroke="#000000"/>
       <path id="svg_111" d="m132.390244,331.46582c1.53894,3.517242 5.937134,4.032074 8.578583,6.255432c2.971375,2.503082 4.350006,6.091431 5.608246,9.53125c2.912048,7.94754 -1.301773,16.365295 1.987396,23.873657" stroke-miterlimit="10" fill="none" stroke="#000000"/>
       <path id="svg_112" d="m102.808418,378.442261c-0.699524,4.401154 -6.736702,10.423309 -8.281197,15.016724" stroke-miterlimit="10" fill="none" stroke="#000000"/>
       <path id="svg_113" d="m101.228691,382.292114c2.770279,0.478394 8.020844,5.549255 9.861832,7.700623" stroke-miterlimit="10" fill="none" stroke="#000000"/>
       <path id="svg_114" d="m94.524399,393.458954c-3.315987,1.785095 -7.728989,3.079895 -9.467171,6.546112" stroke-miterlimit="10" fill="none" stroke="#000000"/>
       <path id="svg_115" d="m94.919113,397.69519" stroke-miterlimit="10" fill="none" stroke="#000000"/>
       <path id="svg_116" d="m85.847572,398.463318c0,0 -5.128273,-12.320435 -13.411339,-0.384521c-2.368179,3.850739 0.789413,8.471497 7.099892,8.856934c3.549484,-0.385437 6.311447,-3.08078 6.311447,-8.472412z" stroke-miterlimit="10" fill="none" stroke="#000000"/>
       <path id="svg_117" d="m95.313835,407.320282" stroke-miterlimit="10" fill="none" stroke="#000000"/>
       <path id="svg_118" d="m106.751663,393.458954c0,0 2.760094,-4.620728 9.861832,-6.547943c4.337952,0 13.015732,4.619843 18.934326,21.561951c1.182236,3.85257 1.576004,14.249481 -11.832535,9.243286c-7.101791,-2.695374 -25.64045,-10.010498 -16.963623,-24.257294z" stroke-miterlimit="10" fill="none" stroke="#000000"/>
       <path id="svg_119" d="m141.856445,373.436981c0,0 9.072449,-5.005249 20.51123,-1.157227c5.918594,3.08078 23.271332,23.102783 11.83255,41.971191c-4.733582,8.856903 -9.466217,25.029083 -21.694382,18.095673c-5.522064,-5.00528 -18.143982,-20.790161 -21.694427,-38.504028c0.396576,-5.004364 -1.971573,-9.239655 11.045029,-20.405609z" stroke-miterlimit="10" fill="none" stroke="#000000"/>
       <path id="svg_120" d="m159.211044,345.328033c0,0 0,-6.546112 9.466217,-6.546112c5.129196,0.770874 17.353699,5.390717 18.539612,23.486389c0,4.619843 -5.918594,17.712067 -21.694382,8.857849c-3.549484,-3.849823 -10.648438,-10.011444 -6.311447,-25.798126z" stroke-miterlimit="10" fill="none" stroke="#000000"/>
       <path id="svg_121" d="m63.245201,252.197083c-1.73999,6.055878 2.282021,12.897247 4.019241,18.292511c1.943825,6.034912 2.733208,12.530945 3.692154,18.810974c0.182518,1.201874 0.481781,2.495819 0.61985,3.759644" stroke-miterlimit="10" stroke-width="0.5" fill="none" stroke="#000000"/>
       <path id="svg_122" d="m62.838463,253.387115c-1.992935,-0.415497 -3.685684,-0.09021 -5.440514,0.84198c-1.60379,0.851959 -3.134407,2.24704 -5.125481,1.934479" stroke-miterlimit="10" stroke-width="0.5" fill="none" stroke="#000000"/>
       <path id="svg_123" d="m62.636467,256.759491c-4.879028,-2.584198 -9.218857,4.299072 -11.380402,7.340698" stroke-miterlimit="10" stroke-width="0.5" fill="none" stroke="#000000"/>
       <path id="svg_124" d="m63.042297,257.553162c-2.673912,-0.369965 -3.546707,1.935394 -5.283928,3.373291" stroke-miterlimit="10" stroke-width="0.5" fill="none" stroke="#000000"/>
       <path id="svg_125" d="m63.651939,259.933228c-6.124268,-0.017334 -7.185143,10.041504 -8.738914,13.88501" stroke-miterlimit="10" stroke-width="0.5" fill="none" stroke="#000000"/>
       <path id="svg_126" d="m65.074142,264.496552c-0.183449,2.772827 -2.867569,4.817596 -3.815407,7.38443c-0.85054,2.305359 -1.091415,6.467773 -0.249214,8.882446" stroke-miterlimit="10" stroke-width="0.5" fill="none" stroke="#000000"/>
       <path id="svg_127" d="m57.35257,274.41507c1.153503,-0.044647 2.899063,-0.944031 3.454979,-1.389587" stroke-miterlimit="10" stroke-width="0.5" fill="none" stroke="#000000"/>
       <path id="svg_128" d="m60.806618,273.024567c0.826454,1.264771 1.978127,2.376434 2.844414,3.571045" stroke-miterlimit="10" stroke-width="0.5" fill="none" stroke="#000000"/>
       <path id="svg_129" d="m67.308891,270.843109c1.604721,1.721283 -1.949394,9.281586 -4.265686,10.117157" stroke-miterlimit="10" stroke-width="0.5" fill="none" stroke="#000000"/>
       <path id="svg_130" d="m65.887619,277.785645c-0.253853,2.661621 0.201965,5.743347 0.201965,8.5289" stroke-miterlimit="10" stroke-width="0.5" fill="none" stroke="#000000"/>
       <path id="svg_131" d="m68.528198,275.405548c3.693085,0.870209 4.863281,6.005798 8.53508,6.744781" stroke-miterlimit="10" stroke-width="0.5" fill="none" stroke="#000000"/>
       <path id="svg_132" d="m66.700188,268.859406c3.271538,1.119904 8.747253,3.208374 10.363091,6.743866" stroke-miterlimit="10" stroke-width="0.5" fill="none" stroke="#000000"/>
       <path id="svg_133" d="m73.811195,272.43045c0.985809,0.495697 2.430237,-0.431915 3.252083,-0.99231" stroke-miterlimit="10" stroke-width="0.5" fill="none" stroke="#000000"/>
       <path id="svg_134" d="m68.934937,269.653076c-0.134338,-0.002716 -0.500328,-0.014557 -0.373405,-0.058319c2.387657,0.929443 4.483437,0.657898 5.249664,-2.122192" stroke-miterlimit="10" stroke-width="0.5" fill="none" stroke="#000000"/>
       <path id="svg_135" d="m63.448105,260.131866c3.124222,-0.328033 5.542419,1.381378 7.766983,3.328644c2.13932,1.872528 5.641556,4.753754 6.660728,7.38443" stroke-miterlimit="10" stroke-width="0.5" fill="none" stroke="#000000"/>
       <path id="svg_136" d="m63.042297,256.363129c3.013954,-1.10257 5.611923,-0.426453 8.13298,1.393219c1.851166,1.33493 6.240082,3.489014 7.106369,5.549255" stroke-miterlimit="10" stroke-width="0.5" fill="none" stroke="#000000"/>
       <path id="svg_137" d="m70.154236,257.355408c-0.081543,1.74588 -3.164993,0.438293 -3.656952,2.57782" stroke-miterlimit="10" stroke-width="0.5" fill="none" stroke="#000000"/>
       <path id="svg_138" d="m70.154236,257.355408c0.149185,-1.021454 -1.021942,-2.404694 0.198265,-2.937744c0.741234,-0.322571 2.361702,1.214661 3.052887,1.548157" stroke-miterlimit="10" stroke-width="0.5" fill="none" stroke="#000000"/>
       <path id="svg_139" d="m55.320694,272.62912c-0.58094,2.009186 0.173271,6.111481 0.203835,8.527985c0.035202,2.953247 0.202904,5.923767 0.202904,8.928925c0,2.992401 -0.30574,5.797119 -0.608711,8.72757c-0.277969,2.67804 -1.789101,6.294617 -0.812569,8.926178" stroke-miterlimit="10" stroke-width="0.5" fill="none" stroke="#000000"/>
       <path id="svg_140" d="m54.711052,272.62912c-0.799591,-0.214172 -2.297768,1.309387 -3.245583,1.834259c-1.254505,0.696167 -2.743412,1.025116 -4.069256,1.588226c-2.207916,0.935791 -3.57637,3.453461 -5.690666,4.116821" stroke-miterlimit="10" stroke-width="0.5" fill="none" stroke="#000000"/>
       <path id="svg_141" d="m45.160503,273.818237c2.100414,-0.189545 3.807068,1.911713 5.892666,0.595917" stroke-miterlimit="10" stroke-width="0.5" fill="none" stroke="#000000"/>
       <path id="svg_142" d="m49.833862,270.050385c1.190575,0.620514 2.874977,1.4151 4.064621,0.792725" stroke-miterlimit="10" stroke-width="0.5" fill="none" stroke="#000000"/>
       <path id="svg_143" d="m52.272469,267.470764c-3.28915,-0.131226 -6.026062,1.733124 -7.720669,4.36557" stroke-miterlimit="10" stroke-width="0.5" fill="none" stroke="#000000"/>
       <path id="svg_144" d="m48.208752,265.884338c1.271191,0.515747 2.416359,1.323059 3.656956,1.78595" stroke-miterlimit="10" stroke-width="0.5" fill="none" stroke="#000000"/>
       <path id="svg_145" d="m55.11779,280.166595c-2.606285,-1.148132 -9.687656,4.89502 -10.971825,7.536621" stroke-miterlimit="10" stroke-width="0.5" fill="none" stroke="#000000"/>
       <path id="svg_146" d="m42.925755,282.943085c1.22578,-0.715302 3.009315,0.854706 3.859859,1.78595" stroke-miterlimit="10" stroke-width="0.5" fill="none" stroke="#000000"/>
       <path id="svg_147" d="m46.989449,279.174316c0.484577,1.197327 1.739082,2.318115 2.843479,2.975983" stroke-miterlimit="10" stroke-width="0.5" fill="none" stroke="#000000"/>
       <path id="svg_148" d="m50.849331,277.985199c0.82645,0.421875 1.658474,1.06427 1.828945,1.983673" stroke-miterlimit="10" stroke-width="0.5" fill="none" stroke="#000000"/>
       <path id="svg_149" d="m55.320694,285.522705c-1.598251,-0.306152 -5.117165,1.108032 -6.503235,2.57782" stroke-miterlimit="10" stroke-width="0.5" fill="none" stroke="#000000"/>
       <path id="svg_150" d="m52.069542,284.729034c-0.009277,0.652435 0.051888,1.195526 0.202904,1.785065" stroke-miterlimit="10" stroke-width="0.5" fill="none" stroke="#000000"/>
       <path id="svg_151" d="m49.02132,296.233948c-0.359489,-3.986511 4.723377,-8.425934 8.387768,-6.205322c3.61618,2.193268 3.050087,6.190765 4.414841,9.575897" stroke-miterlimit="10" stroke-width="0.5" fill="none" stroke="#000000"/>
       <path id="svg_152" d="m46.58271,291.4729c1.56395,0.207733 3.245579,-0.199554 4.878098,-0.199554" stroke-miterlimit="10" stroke-width="0.5" fill="none" stroke="#000000"/>
       <path id="svg_153" d="m51.4599,291.075592c0.378014,1.642914 1.243401,3.171021 1.828011,4.762878" stroke-miterlimit="10" stroke-width="0.5" fill="none" stroke="#000000"/>
       <path id="svg_154" d="m56.133263,281.554382c-0.288155,-0.117554 -0.522552,-0.158569 -0.729156,-0.416412c3.456818,1.888 5.620232,2.854797 7.440865,6.565247c1.274864,2.600586 1.103462,6.586212 2.838837,8.728455" stroke-miterlimit="10" stroke-width="0.5" fill="none" stroke="#000000"/>
       <path id="svg_155" d="m59.182411,283.538086c0.006477,1.957275 0.377106,3.665802 0.607803,5.554718" stroke-miterlimit="10" stroke-width="0.5" fill="none" stroke="#000000"/>
       <path id="svg_156" d="m51.662804,257.155853c-2.256065,0 -4.600151,-0.468353 -6.7052,0.000916c-2.807346,0.626007 -4.19619,2.744568 -6.2994,4.562408" stroke-miterlimit="10" stroke-width="0.5" fill="none" stroke="#000000"/>
       <path id="svg_157" d="m53.897583,251.800705c-0.857018,-4.805725 -9.596867,0.163101 -11.175663,2.380081" stroke-miterlimit="10" stroke-width="0.5" fill="none" stroke="#000000"/>
       <path id="svg_158" d="m47.396214,251.205673c-0.138069,0.754486 -0.751411,2.466644 -0.609638,3.768784" stroke-miterlimit="10" stroke-width="0.5" fill="none" stroke="#000000"/>
       <path id="svg_159" d="m50.647335,250.013824c0.60223,-0.654266 0.853313,-2.011032 0.405804,-2.775528" stroke-miterlimit="10" stroke-width="0.5" fill="none" stroke="#000000"/>
       <path id="svg_160" d="m78.281647,240.097122c4.100761,3.677643 7.552017,7.443665 10.110168,12.344147c2.825867,5.410751 4.603859,10.769577 6.959061,16.221329" stroke-miterlimit="10" stroke-width="0.5" fill="none" stroke="#000000"/>
       <path id="svg_161" d="m79.500954,241.485825c-0.361359,-0.173141 -3.555054,0.981369 -4.225845,2.374619c-0.945976,1.965469 0.026855,5.388885 0.365059,7.34523" stroke-miterlimit="10" stroke-width="0.5" fill="none" stroke="#000000"/>
       <path id="svg_162" d="m81.53373,243.270859c-4.966141,-0.112976 -3.656952,8.243698 -3.656952,11.306259" stroke-miterlimit="10" stroke-width="0.5" fill="none" stroke="#000000"/>
       <path id="svg_163" d="m83.158844,244.8582c-0.262222,1.475235 -2.305183,2.570496 -3.454056,1.387772" stroke-miterlimit="10" stroke-width="0.5" fill="none" stroke="#000000"/>
       <path id="svg_164" d="m84.78392,247.238266c-4.207298,-0.068344 -3.843201,8.611832 -3.251152,11.305344" stroke-miterlimit="10" stroke-width="0.5" fill="none" stroke="#000000"/>
       <path id="svg_165" d="m79.500954,248.826523c0.721748,0.180405 1.841919,0.277908 2.64151,0.595032" stroke-miterlimit="10" stroke-width="0.5" fill="none" stroke="#000000"/>
       <path id="svg_166" d="m85.800354,254.775787c-0.080582,2.7883 0.188087,6.258179 1.42218,8.729401" stroke-miterlimit="10" stroke-width="0.5" fill="none" stroke="#000000"/>
       <path id="svg_167" d="m89.051476,265.288422c0,-2.190552 -0.729156,-6.072296 0.45121,-7.888306c1.391647,-2.142273 4.810493,0.427338 5.644325,2.137665" stroke-miterlimit="10" stroke-width="0.5" fill="none" stroke="#000000"/>
       <path id="svg_168" d="m88.237999,252.991638c2.257935,-0.061966 5.076393,0.454681 6.096504,2.57782" stroke-miterlimit="10" stroke-width="0.5" fill="none" stroke="#000000"/>
       <path id="svg_169" d="m85.191589,247.238266c2.941681,-0.022766 7.150879,0 8.939049,2.57782" stroke-miterlimit="10" stroke-width="0.5" fill="none" stroke="#000000"/>
       <path id="svg_170" d="m82.549171,244.064529c1.519501,-2.423813 8.144066,-1.291168 9.550522,0.79274" stroke-miterlimit="10" stroke-width="0.5" fill="none" stroke="#000000"/>
       <path id="svg_171" d="m79.907692,241.485825c0.089882,-0.743561 0.497528,-1.372269 1.219307,-1.587326" stroke-miterlimit="10" stroke-width="0.5" fill="none" stroke="#000000"/>
       <path id="svg_172" d="m91.895889,234.741974c7.01001,1.803284 7.686401,13.734634 9.143814,19.042435" stroke-miterlimit="10" stroke-width="0.5" fill="none" stroke="#000000"/>
       <path id="svg_173" d="m100.226173,249.618347c-0.474396,0.985931 -1.088646,1.905334 -1.828941,2.777359" stroke-miterlimit="10" stroke-width="0.5" fill="none" stroke="#000000"/>
       <path id="svg_174" d="m100.430939,249.420639c1.163689,0.093842 1.968849,1.134445 3.046417,1.586411" stroke-miterlimit="10" stroke-width="0.5" fill="none" stroke="#000000"/>
       <path id="svg_175" d="m99.007858,244.460907c1.302689,0.499344 2.645187,1.461578 3.65789,2.57962" stroke-miterlimit="10" stroke-width="0.5" fill="none" stroke="#000000"/>
       <path id="svg_176" d="m97.586525,239.898499c1.219276,0.787292 3.091766,1.682098 4.06279,2.778275" stroke-miterlimit="10" stroke-width="0.5" fill="none" stroke="#000000"/>
       <path id="svg_177" d="m97.382721,240.097122c-1.964211,-0.164932 -2.800873,1.902618 -3.861748,3.173737" stroke-miterlimit="10" stroke-width="0.5" fill="none" stroke="#000000"/>
       <path id="svg_178" d="m99.210762,244.8582c-2.547928,1.579117 -4.353683,3.08989 -3.656021,6.347473" stroke-miterlimit="10" stroke-width="0.5" fill="none" stroke="#000000"/>
       <path id="svg_179" d="m94.335403,235.932007c-1.760406,-0.422791 -4.679863,2.246124 -4.879028,4.16423" stroke-miterlimit="10" stroke-width="0.5" fill="none" stroke="#000000"/>
       <path id="svg_180" d="m93.522835,236.129745c1.458313,-0.534882 4.565857,-0.879318 6.094635,-0.397293" stroke-miterlimit="10" stroke-width="0.5" fill="none" stroke="#000000"/>
       <path id="svg_181" d="m88.441811,234.344681c-0.728256,0.810989 -0.728256,1.929947 -1.01638,2.975998" stroke-miterlimit="10" stroke-width="0.5" fill="none" stroke="#000000"/>
       <path id="svg_182" d="m84.581978,234.939713c-1.370316,0.636017 -2.896294,2.038376 -3.048248,3.570114" stroke-miterlimit="10" stroke-width="0.5" fill="none" stroke="#000000"/>
       <path id="svg_183" d="m58.166039,232.161423c0.12973,0.343506 -0.038902,0.629654 0.18161,0.95311c-6.354057,-0.246933 -9.425461,8.013184 -10.546539,12.932785" stroke-miterlimit="10" stroke-width="0.5" fill="none" stroke="#000000"/>
       <path id="svg_184" d="m37.236023,248.031021c3.232632,-1.439697 6.657024,-1.784164 10.363091,-1.784164" stroke-miterlimit="10" stroke-width="0.5" fill="none" stroke="#000000"/>
       <path id="svg_185" d="m38.455299,244.064529c1.500954,-0.588638 3.266899,-0.862015 4.877193,-1.334c1.970688,-0.576813 3.196468,-0.121216 5.080093,-0.054703" stroke-miterlimit="10" stroke-width="0.5" fill="none" stroke="#000000"/>
       <path id="svg_186" d="m42.925755,238.907089c3.286354,0 6.022362,-0.737167 8.939953,-1.983704" stroke-miterlimit="10" stroke-width="0.5" fill="none" stroke="#000000"/>
       <path id="svg_187" d="m62.431725,234.741974c-4.003494,1.698471 -8.298813,1.610092 -10.76799,5.751526" stroke-miterlimit="10" stroke-width="0.5" fill="none" stroke="#000000"/>
       <path id="svg_188" d="m58.977676,236.3293c1.059944,1.297562 2.819389,1.94632 3.454048,3.569199" stroke-miterlimit="10" stroke-width="0.5" fill="none" stroke="#000000"/>
       <path id="svg_189" d="m61.417191,240.890793c-2.273682,-0.846497 -7.86335,-0.031906 -9.753456,1.586411" stroke-miterlimit="10" stroke-width="0.5" fill="none" stroke="#000000"/>
       <path id="svg_190" d="m63.448105,235.732452c0.185287,5.186584 -5.488701,7.067352 -6.502304,11.902222" stroke-miterlimit="10" stroke-width="0.5" fill="none" stroke="#000000"/>
       <path id="svg_191" d="m51.053169,244.658646c2.570145,0.018219 5.45903,-0.660629 7.925407,-1.387787" stroke-miterlimit="10" stroke-width="0.5" fill="none" stroke="#000000"/>
       <path id="svg_192" d="m72.388985,231.170929c-1.279533,-2.575974 -8.865837,-4.408432 -10.972725,-2.182327" stroke-miterlimit="10" stroke-width="0.5" fill="none" stroke="#000000"/>
       <path id="svg_193" d="m70.966805,229.385895c-1.29805,-0.085648 -2.812881,0.173126 -3.657883,1.190033" stroke-miterlimit="10" stroke-width="0.5" fill="none" stroke="#000000"/>
       <path id="svg_194" d="m67.308891,228.39357c-1.308228,0.227798 -2.609077,0.251495 -3.860786,0.793671" stroke-miterlimit="10" stroke-width="0.5" fill="none" stroke="#000000"/>
       <path id="svg_195" d="m66.903091,228.195862c-0.380814,-0.726242 -1.151672,-1.201889 -1.626045,-1.78508" stroke-miterlimit="10" stroke-width="0.5" fill="none" stroke="#000000"/>
       <path id="svg_196" d="m70.35714,228.789948c-0.105606,-0.625092 -0.30574,-1.202805 -0.609634,-1.78508" stroke-miterlimit="10" stroke-width="0.5" fill="none" stroke="#000000"/>
       <path id="svg_197" d="m78.687454,226.409866c-2.791595,-2.371872 -7.882805,-0.975922 -11.175659,-0.79274" stroke-miterlimit="10" stroke-width="0.5" fill="none" stroke="#000000"/>
       <path id="svg_198" d="m77.06234,225.418488c-0.743065,-0.797302 -1.103485,-1.803284 -2.031845,-2.380081" stroke-miterlimit="10" stroke-width="0.5" fill="none" stroke="#000000"/>
       <path id="svg_199" d="m73.201553,225.219833c-0.93486,-0.608688 -2.124504,-1.045166 -3.252083,-0.992294" stroke-miterlimit="10" stroke-width="0.5" fill="none" stroke="#000000"/>
       <path id="svg_200" d="m76.860374,225.617126c-0.598526,0.550369 -0.89315,1.331268 -1.423141,1.983688" stroke-miterlimit="10" stroke-width="0.5" fill="none" stroke="#000000"/>
       <path id="svg_201" d="m74.217026,225.219833c-0.697662,0.543076 -1.442596,1.129883 -2.23568,1.585495" stroke-miterlimit="10" stroke-width="0.5" fill="none" stroke="#000000"/>
       <path id="svg_202" d="m192.344208,140.099304c3.624527,-5.589355 8.227478,-15.841354 14.989182,-18.096603" stroke-miterlimit="10" stroke-width="0.5" fill="none" stroke="#000000"/>
       <path id="svg_203" d="m180.907288,144.334595c-3.992386,-4.21344 -7.456589,-8.386765 -7.495544,-14.24675" stroke-miterlimit="10" stroke-width="0.5" fill="none" stroke="#000000"/>
       <path id="svg_204" d="m170.255112,153.960617c-2.458969,-0.306168 -6.288254,-1.903519 -7.495544,-4.235306" stroke-miterlimit="10" stroke-width="0.5" fill="none" stroke="#000000"/>
       <path id="svg_205" d="m178.540039,153.190643c7.188889,-5.470001 24.571259,-8.302032 31.948166,-1.9254" stroke-miterlimit="10" stroke-width="0.5" fill="none" stroke="#000000"/>
       <path id="svg_206" d="m168.282593,160.506729c3.147354,-3.21019 9.477341,-2.027435 13.412277,-0.769974" stroke-miterlimit="10" stroke-width="0.5" fill="none" stroke="#000000"/>
       <path id="svg_207" d="m194.711456,136.248535c-0.347443,-3.201996 0.855209,-5.925598 1.97258,-8.856033" stroke-miterlimit="10" stroke-width="0.5" fill="none" stroke="#000000"/>
       <path id="svg_208" d="m199.444138,129.317886c0.390076,-1.477982 1.475952,-2.824738 2.760101,-3.850769" stroke-miterlimit="10" stroke-width="0.5" fill="none" stroke="#000000"/>
       <path id="svg_209" d="m193.922073,137.403961c3.763519,0 7.576126,0.416412 11.043167,-1.156326" stroke-miterlimit="10" stroke-width="0.5" fill="none" stroke="#000000"/>
       <path id="svg_210" d="m197.077789,133.168655c3.392899,-0.615082 6.934067,-0.954041 9.862793,-3.080795" stroke-miterlimit="10" stroke-width="0.5" fill="none" stroke="#000000"/>
       <path id="svg_211" d="m178.540039,141.253799c-0.196396,-1.701233 0.046326,-3.468063 0.789383,-5.00618" stroke-miterlimit="10" stroke-width="0.5" fill="none" stroke="#000000"/>
       <path id="svg_212" d="m175.778076,136.633987c0.755127,-2.310822 1.47319,-4.708206 2.366348,-6.930664" stroke-miterlimit="10" stroke-width="0.5" fill="none" stroke="#000000"/>
       <path id="svg_213" d="m174.99057,136.633987c-1.964218,-0.255142 -3.263168,-1.993713 -4.340729,-3.465317" stroke-miterlimit="10" stroke-width="0.5" fill="none" stroke="#000000"/>
       <path id="svg_214" d="m188.399109,148.955338c0.405807,2.053864 1.608444,4.094055 2.367233,6.160675" stroke-miterlimit="10" stroke-width="0.5" fill="none" stroke="#000000"/>
       <path id="svg_215" d="m189.584106,148.569901c0.843109,-1.359528 2.010529,-2.52951 3.549484,-3.080811" stroke-miterlimit="10" stroke-width="0.5" fill="none" stroke="#000000"/>
       <path id="svg_216" d="m199.837891,147.799927c0.921875,2.203308 2.637787,3.976517 3.550446,6.16069" stroke-miterlimit="10" stroke-width="0.5" fill="none" stroke="#000000"/>
       <path id="svg_217" d="m200.628235,148.185379c0.531799,-0.544907 1.405502,-1.220123 1.971619,-1.539948" stroke-miterlimit="10" stroke-width="0.5" fill="none" stroke="#000000"/>
       <path id="svg_218" d="m173.017075,159.736755c0.830154,0.732605 1.678864,1.560898 2.366348,2.310822" stroke-miterlimit="10" stroke-width="0.5" fill="none" stroke="#000000"/>
       <path id="svg_219" d="m175.778076,158.581345c1.061798,0.644226 2.179169,1.462494 3.152954,2.310822" stroke-miterlimit="10" stroke-width="0.5" fill="none" stroke="#000000"/>
       <path id="svg_220" d="m176.565659,157.425934c0.861649,-0.114807 1.69458,-0.53215 2.368149,-1.155426" stroke-miterlimit="10" stroke-width="0.5" fill="none" stroke="#000000"/>
       <path id="svg_221" d="m168.677261,153.190643c-0.991394,-1.119888 -1.443512,-2.68898 -1.182251,-4.235306" stroke-miterlimit="10" stroke-width="0.5" fill="none" stroke="#000000"/>
       <path id="svg_222" d="m165.128738,152.806107c-0.834793,0.09021 -1.616776,-0.038254 -2.367249,-0.385422" stroke-miterlimit="10" stroke-width="0.5" fill="none" stroke="#000000"/>
       <path id="svg_223" d="m109.908287,147.029953c0,-17.363083 -3.550438,-34.437294 -3.550438,-51.596268" stroke-miterlimit="10" stroke-width="0.5" fill="none" stroke="#000000"/>
       <path id="svg_224" d="m102.019035,92.738335c0.907974,2.640678 3.833931,5.107323 5.818558,6.891472c0.585518,-1.209183 1.272095,-2.346367 2.067978,-3.426147" stroke-miterlimit="10" stroke-width="0.5" fill="none" stroke="#000000"/>
       <path id="svg_225" d="m100.441177,100.05442c1.988304,2.896736 4.194321,6.378464 6.618118,8.825974c0.953377,-3.393356 3.40126,-6.022186 6.003807,-8.441444" stroke-miterlimit="10" stroke-width="0.5" fill="none" stroke="#000000"/>
       <path id="svg_226" d="m98.86422,106.215103c2.059669,1.712158 4.575134,7.98674 7.907799,7.737068c2.543343,-0.189537 6.850708,-7.361649 8.263611,-9.277016" stroke-miterlimit="10" stroke-width="0.5" fill="none" stroke="#000000"/>
       <path id="svg_227" d="m99.257072,110.835838c1.922539,2.26162 4.765083,9.018234 8.283974,8.861496c2.707275,-0.12027 8.309021,-6.815834 9.070633,-9.246941" stroke-miterlimit="10" stroke-width="0.5" fill="none" stroke="#000000"/>
       <path id="svg_228" d="m98.469498,115.071144c3.648613,4.158752 5.898239,10.706703 9.86924,14.207558c1.372192,-4.716408 6.791389,-11.647064 10.638329,-14.977524" stroke-miterlimit="10" stroke-width="0.5" fill="none" stroke="#000000"/>
       <path id="svg_229" d="m89.791771,113.531204c0.740303,4.471298 6.556984,10.067932 9.444946,13.561508c2.704453,3.27124 6.138176,6.1707 9.487526,8.770386" stroke-miterlimit="10" stroke-width="0.5" fill="none" stroke="#000000"/>
       <path id="svg_230" d="m96.496979,124.697151c-0.010178,-2.226082 -0.060226,-4.371071 -0.394722,-6.546127" stroke-miterlimit="10" stroke-width="0.5" fill="none" stroke="#000000"/>
       <path id="svg_231" d="m100.8368,130.08786c0.080589,-2.851166 -0.649475,-5.643112 -0.395622,-8.470604" stroke-miterlimit="10" stroke-width="0.5" fill="none" stroke="#000000"/>
       <path id="svg_232" d="m105.569427,133.553177c-0.160263,-1.828796 -0.598534,-3.625702 -1.183144,-5.390717" stroke-miterlimit="10" stroke-width="0.5" fill="none" stroke="#000000"/>
       <path id="svg_233" d="m91.764297,123.541733c1.689941,0.358093 3.508705,0.390907 5.127342,0.769966" stroke-miterlimit="10" stroke-width="0.5" fill="none" stroke="#000000"/>
       <path id="svg_234" d="m96.102257,128.932434c2.143982,0.529419 4.191551,1.016907 6.311447,1.539948" stroke-miterlimit="10" stroke-width="0.5" fill="none" stroke="#000000"/>
       <path id="svg_235" d="m101.228691,133.938629c1.960541,0.25058 4.085014,0.67247 5.918594,1.155411" stroke-miterlimit="10" stroke-width="0.5" fill="none" stroke="#000000"/>
       <path id="svg_236" d="m101.625221,140.483826c2.751732,1.20462 5.58506,2.794678 8.675919,2.695374" stroke-miterlimit="10" stroke-width="0.5" fill="none" stroke="#000000"/>
       <path id="svg_237" d="m109.908287,143.179199c4.993942,-0.015503 9.826653,-1.042435 12.225395,-5.775238" stroke-miterlimit="10" stroke-width="0.5" fill="none" stroke="#000000"/>
       <path id="svg_238" d="m113.851585,142.409225c1.486137,-0.586823 2.685051,-2.993332 3.548576,-4.620743" stroke-miterlimit="10" stroke-width="0.5" fill="none" stroke="#000000"/>
       <path id="svg_239" d="m116.217865,142.793747c1.697357,-0.625992 3.261353,0.018234 5.129211,0" stroke-miterlimit="10" stroke-width="0.5" fill="none" stroke="#000000"/>
       <path id="svg_240" d="m106.357903,143.179199c-0.44381,-1.435165 -0.909836,-3.071686 -1.971619,-4.235306" stroke-miterlimit="10" stroke-width="0.5" fill="none" stroke="#000000"/>
       <path id="svg_241" d="m105.569427,142.024689c-2.509018,-0.037354 -4.999489,0.788208 -7.494591,1.155426" stroke-miterlimit="10" stroke-width="0.5" fill="none" stroke="#000000"/>
       <path id="svg_242" d="m111.486145,134.323151c1.293419,-5.571121 7.363052,-15.350227 13.412277,-16.941185" stroke-miterlimit="10" stroke-width="0.5" fill="none" stroke="#000000"/>
       <path id="svg_243" d="m119.768311,131.627808c2.760101,-4.776566 5.501648,-9.514847 8.281189,-14.245842" stroke-miterlimit="10" stroke-width="0.5" fill="none" stroke="#000000"/>
       <path id="svg_244" d="m121.740829,130.857834c4.255508,-4.13324 8.220078,-9.080193 13.803268,-11.551392" stroke-miterlimit="10" stroke-width="0.5" fill="none" stroke="#000000"/>
       <path id="svg_245" d="m55.870132,121.231827c2.260704,7.036346 7.151779,13.240768 8.589737,20.493088c1.199852,6.054062 3.736664,16.83548 1.270256,23.01712" stroke-miterlimit="10" stroke-width="0.5" fill="none" stroke="#000000"/>
       <path id="svg_246" d="m52.715347,148.185379c2.370941,2.586914 5.836136,4.052139 8.290466,6.567078c2.242188,2.292603 3.686615,5.145599 5.511856,7.679672" stroke-miterlimit="10" stroke-width="0.5" fill="none" stroke="#000000"/>
       <path id="svg_247" d="m66.913292,158.581345c0.778275,-5.164719 5.08287,-7.460052 8.281204,-10.781418" stroke-miterlimit="10" stroke-width="0.5" fill="none" stroke="#000000"/>
       <path id="svg_248" d="m58.236443,145.104568c3.146446,0.947662 5.381195,3.76329 8.292313,5.224869c0.983971,-2.776443 3.495758,-5.219391 5.115326,-7.920212" stroke-miterlimit="10" stroke-width="0.5" fill="none" stroke="#000000"/>
       <path id="svg_249" d="m55.475441,139.713852c3.685684,1.290283 6.911812,3.874466 10.254684,5.814438c2.244957,-1.973679 3.383644,-4.948776 5.128273,-7.355286" stroke-miterlimit="10" stroke-width="0.5" fill="none" stroke="#000000"/>
       <path id="svg_250" d="m53.897583,135.478561c3.89045,0.216873 7.409363,4.310928 10.983864,4.177902c0.252022,-3.266693 3.063065,-4.884995 4.397255,-7.644135" stroke-miterlimit="10" stroke-width="0.5" fill="none" stroke="#000000"/>
       <path id="svg_251" d="m52.715347,130.857834c3.068634,0.532135 7.50663,2.722687 9.889648,4.870407c0.439171,-2.857559 2.279228,-5.658615 3.12606,-8.335739" stroke-miterlimit="10" stroke-width="0.5" fill="none" stroke="#000000"/>
       <path id="svg_252" d="m53.1091,127.007965c2.568314,1.555435 6.089996,2.039276 8.221909,4.120483c-0.813477,-2.421997 0.383575,-4.277222 1.640854,-6.431313" stroke-miterlimit="10" stroke-width="0.5" fill="none" stroke="#000000"/>
       <path id="svg_253" d="m54.686966,124.312622c1.404587,0.422806 2.916679,1.498024 4.270325,1.876175c-0.068573,-1.386856 0.358551,-2.684425 1.251709,-3.800652" stroke-miterlimit="10" stroke-width="0.5" fill="none" stroke="#000000"/>
       <path id="svg_254" d="m191.949554,187.074829c0.228851,3.311325 1.051605,6.191635 0.370621,9.625076c-0.67543,3.419785 -3.325317,6.191681 -3.921021,9.626923" stroke-miterlimit="10" stroke-width="0.5" fill="none" stroke="#000000"/>
       <path id="svg_255" d="m191.160172,200.936127c0.814423,1.268402 1.558395,2.68808 1.57785,4.235306" stroke-miterlimit="10" stroke-width="0.5" fill="none" stroke="#000000"/>
       <path id="svg_256" d="m191.949554,197.856247c1.022873,0.615051 2.265335,2.826553 2.366333,4.620712" stroke-miterlimit="10" stroke-width="0.5" fill="none" stroke="#000000"/>
       <path id="svg_257" d="m189.978836,201.7061c-1.046967,-0.673386 -2.420059,-0.534882 -3.548584,0.385452" stroke-miterlimit="10" stroke-width="0.5" fill="none" stroke="#000000"/>
       <path id="svg_258" d="m191.949554,197.856247c-2.966736,-0.067444 -5.052307,-0.073807 -7.09993,2.310837" stroke-miterlimit="10" stroke-width="0.5" fill="none" stroke="#000000"/>
       <path id="svg_259" d="m191.949554,194.005493c-3.8358,0.102051 -7.370468,2.637939 -9.863708,5.390686" stroke-miterlimit="10" stroke-width="0.5" fill="none" stroke="#000000"/>
       <path id="svg_260" d="m191.160172,193.620956c1.717758,-0.505707 5.235748,4.009323 5.523865,6.160675" stroke-miterlimit="10" stroke-width="0.5" fill="none" stroke="#000000"/>
       <path id="svg_261" d="m184.455872,193.620956c1.350861,-1.349503 4.843857,-4.001099 6.7043,-4.255341c3.623611,-0.497513 4.737259,2.697189 6.7061,5.410767" stroke-miterlimit="10" stroke-width="0.5" fill="none" stroke="#000000"/>
       <path id="svg_262" d="m184.061142,189.000214c2.490479,-1.166351 5.850052,-1.931763 8.676834,-1.540863c3.643066,0.502991 3.587479,2.169601 6.311432,4.236221" stroke-miterlimit="10" stroke-width="0.5" fill="none" stroke="#000000"/>
       <path id="svg_263" d="m189.188492,181.684128c0.523483,-6.034927 1.29155,-11.181427 -0.789383,-16.942093" stroke-miterlimit="10" stroke-width="0.5" fill="none" stroke="#000000"/>
       <path id="svg_264" d="m189.584106,178.603317c1.518539,-1.981857 4.127655,-3.604736 4.73172,-6.160675" stroke-miterlimit="10" stroke-width="0.5" fill="none" stroke="#000000"/>
       <path id="svg_265" d="m189.584106,173.982605c1.120148,-2.415619 2.85556,-5.044449 3.15387,-7.700638" stroke-miterlimit="10" stroke-width="0.5" fill="none" stroke="#000000"/>
       <path id="svg_266" d="m189.584106,178.218796c-1.73999,-1.611938 -3.819107,-3.242981 -5.522964,-5.005264" stroke-miterlimit="10" stroke-width="0.5" fill="none" stroke="#000000"/>
       <path id="svg_267" d="m189.188492,172.058121c-1.753906,-0.520309 -2.419159,-2.490341 -2.760101,-4.235306" stroke-miterlimit="10" stroke-width="0.5" fill="none" stroke="#000000"/>
       <path id="svg_268" d="m177.355042,183.609512c-1.526917,3.368729 -4.390778,6.130615 -7.889313,7.700623" stroke-miterlimit="10" stroke-width="0.5" fill="none" stroke="#000000"/>
       <path id="svg_269" d="m171.045456,180.913239c1.193375,-1.795074 -0.559616,-4.617081 -2.368149,-5.775253" stroke-miterlimit="10" stroke-width="0.5" fill="none" stroke="#000000"/>
       <path id="svg_270" d="m107.147285,194.005493c0.553116,-1.63652 2.473785,-3.839828 3.943237,-5.390732" stroke-miterlimit="10" stroke-width="0.5" fill="none" stroke="#000000"/>
       <path id="svg_271" d="m113.063103,187.459351c4.425041,-5.194794 9.099312,-11.323593 14.989174,-15.40123" stroke-miterlimit="10" stroke-width="0.5" fill="none" stroke="#000000"/>
       <path id="svg_272" d="m115.825012,183.609512c1.012695,1.856125 2.518295,3.612946 2.760101,5.775223" stroke-miterlimit="10" stroke-width="0.5" fill="none" stroke="#000000"/>
       <path id="svg_273" d="m119.768311,179.758743c1.537994,-0.162201 3.700531,2.668015 4.730804,4.235306" stroke-miterlimit="10" stroke-width="0.5" fill="none" stroke="#000000"/>
       <path id="svg_274" d="m124.501892,175.137985c0.848709,-0.016403 2.918549,0.72168 4.340729,1.154495" stroke-miterlimit="10" stroke-width="0.5" fill="none" stroke="#000000"/>
       <path id="svg_275" d="m120.558594,179.373291c-1.421265,-0.227798 -2.490463,-1.334 -3.550385,-2.309921" stroke-miterlimit="10" stroke-width="0.5" fill="none" stroke="#000000"/>
       <path id="svg_276" d="m126.079758,174.368011c-1.100693,-0.312531 -2.00589,-0.821899 -2.760101,-1.539017" stroke-miterlimit="10" stroke-width="0.5" fill="none" stroke="#000000"/>
       <path id="svg_277" d="m115.430344,184.379456c-0.462349,-0.640579 -1.059006,-1.368607 -1.575989,-1.925385" stroke-miterlimit="10" stroke-width="0.5" fill="none" stroke="#000000"/>
       <path id="svg_278" d="m109.118904,189.384735c-0.945969,-0.117538 -1.818764,-0.237808 -2.761002,-0.384521" stroke-miterlimit="10" stroke-width="0.5" fill="none" stroke="#000000"/>
       <path id="svg_279" d="m159.605774,103.519753c4.745621,-6.762077 11.466553,-12.376945 17.34346,-18.181343c5.444199,-5.375214 11.998413,-12.905434 20.128555,-14.932884" stroke-miterlimit="10" stroke-width="0.5" fill="none" stroke="#000000"/>
       <path id="svg_280" d="m179.72319,82.342361c1.459274,-1.815132 2.065201,-4.628036 3.944199,-6.546127" stroke-miterlimit="10" stroke-width="0.5" fill="none" stroke="#000000"/>
       <path id="svg_281" d="m183.667389,78.4916c0.760651,-2.051125 2.144882,-4.102257 3.549484,-5.775238" stroke-miterlimit="10" stroke-width="0.5" fill="none" stroke="#000000"/>
       <path id="svg_282" d="m186.033722,76.566208c1.979996,-0.691605 4.263824,-0.044647 6.311447,-0.769974" stroke-miterlimit="10" stroke-width="0.5" fill="none" stroke="#000000"/>
       <path id="svg_283" d="m182.877106,80.416977c2.132843,-0.015488 4.147995,-0.577713 6.311432,-0.384529" stroke-miterlimit="10" stroke-width="0.5" fill="none" stroke="#000000"/>
       <path id="svg_284" d="m178.540039,83.882309c1.265656,-0.346252 2.578522,-0.475655 3.943253,-0.385445" stroke-miterlimit="10" stroke-width="0.5" fill="none" stroke="#000000"/>
       <path id="svg_285" d="m171.045456,91.198395c2.301483,0.116638 4.463959,-0.5121 6.7052,-0.769974" stroke-miterlimit="10" stroke-width="0.5" fill="none" stroke="#000000"/>
       <path id="svg_286" d="m165.91716,95.81913c2.253296,-0.162186 4.422272,-0.661537 6.7052,-0.769974" stroke-miterlimit="10" stroke-width="0.5" fill="none" stroke="#000000"/>
       <path id="svg_287" d="m170.649841,91.582924c0.0065,-1.934502 -0.251083,-3.961929 0.395615,-5.775238" stroke-miterlimit="10" stroke-width="0.5" fill="none" stroke="#000000"/>
       <path id="svg_288" d="m167.49501,94.278282c0,-0.899361 0,-1.795082 0,-2.695358" stroke-miterlimit="10" stroke-width="0.5" fill="none" stroke="#000000"/>
       <path id="svg_289" d="m162.76239,99.669891c-0.414169,-1.448814 -0.508667,-3.058922 -0.789383,-4.620735" stroke-miterlimit="10" stroke-width="0.5" fill="none" stroke="#000000"/>
       <path id="svg_290" d="m178.540039,18.424736c-2.376511,4.220715 -6.259521,7.691513 -8.777817,11.946854c-2.722092,4.605247 -2.819366,9.936726 -4.239731,15.005783" stroke-miterlimit="10" stroke-width="0.5" fill="none" stroke="#000000"/>
       <path id="svg_291" d="m162.367676,49.998108c-1.738129,-6.38575 -11.60556,-15.082321 -5.127335,-22.332808" stroke-miterlimit="10" stroke-width="0.5" fill="none" stroke="#000000"/>
       <path id="svg_292" d="m164.340256,50.383549c7.106369,-4.113197 16.081558,-6.11694 23.271332,-11.165947" stroke-miterlimit="10" stroke-width="0.5" fill="none" stroke="#000000"/>
       <path id="svg_293" d="m160.001389,59.239582c3.226135,1.842468 8.780594,0.564041 13.015686,0.385445" stroke-miterlimit="10" stroke-width="0.5" fill="none" stroke="#000000"/>
       <path id="svg_294" d="m160.395157,60.009556c-4.077606,-0.7882 -7.80127,-4.179718 -9.466217,-7.701538" stroke-miterlimit="10" stroke-width="0.5" fill="none" stroke="#000000"/>
       <path id="svg_295" d="m158.422577,59.239582c-1.273972,-1.847931 -1.011749,-4.461277 -1.577866,-6.54612" stroke-miterlimit="10" stroke-width="0.5" fill="none" stroke="#000000"/>
       <path id="svg_296" d="m156.05629,58.084167c-0.576309,-1.601902 -0.961746,-3.407921 -1.972519,-4.620739" stroke-miterlimit="10" stroke-width="0.5" fill="none" stroke="#000000"/>
       <path id="svg_297" d="m164.340256,60.395c-0.535522,-1.105293 0.09082,-2.778271 0.39653,-4.235291" stroke-miterlimit="10" stroke-width="0.5" fill="none" stroke="#000000"/>
       <path id="svg_298" d="m166.312775,59.625027c1.708496,-0.801868 3.62085,-1.791439 4.732635,-3.080799" stroke-miterlimit="10" stroke-width="0.5" fill="none" stroke="#000000"/>
       <path id="svg_299" d="m164.340256,60.395c0.134369,1.148132 0.708801,2.261631 1.57695,3.079891" stroke-miterlimit="10" stroke-width="0.5" fill="none" stroke="#000000"/>
       <path id="svg_300" d="m168.677261,59.625027c0.528122,1.083424 1.536179,1.928116 2.760086,2.309902" stroke-miterlimit="10" stroke-width="0.5" fill="none" stroke="#000000"/>
       <path id="svg_301" d="m166.312775,39.602127c-0.441925,-1.806927 -1.228546,-3.526371 -1.575989,-5.390709" stroke-miterlimit="10" stroke-width="0.5" fill="none" stroke="#000000"/>
       <path id="svg_302" d="m168.282593,33.056919c0.133408,-1.560898 0.411346,-3.041611 0.394714,-4.620735" stroke-miterlimit="10" stroke-width="0.5" fill="none" stroke="#000000"/>
       <path id="svg_303" d="m172.227692,27.66621c0.173279,-2.110359 0.869064,-4.138708 1.578766,-6.160681" stroke-miterlimit="10" stroke-width="0.5" fill="none" stroke="#000000"/>
       <path id="svg_304" d="m168.677261,36.521336c1.205414,-2.01651 3.231659,-3.555534 5.522964,-4.235298" stroke-miterlimit="10" stroke-width="0.5" fill="none" stroke="#000000"/>
       <path id="svg_305" d="m168.282593,33.056919c1.224869,-2.440216 5.405289,-4.696367 7.890213,-5.776146" stroke-miterlimit="10" stroke-width="0.5" fill="none" stroke="#000000"/>
       <path id="svg_306" d="m160.78981,44.992836c0,-1.539936 0,-3.07988 0,-4.620735" stroke-miterlimit="10" stroke-width="0.5" fill="none" stroke="#000000"/>
       <path id="svg_307" d="m67.308891,189.384735c2.63871,1.495285 4.048874,4.369263 3.945107,7.315201" stroke-miterlimit="10" stroke-width="0.5" fill="none" stroke="#000000"/>
       <path id="svg_308" d="m63.364716,190.154709c-2.440445,1.160904 -4.891075,2.156845 -6.706131,4.235306" stroke-miterlimit="10" stroke-width="0.5" fill="none" stroke="#000000"/>
       <path id="svg_309" d="m121.347076,320.300781c1.146103,7.377167 -14.760376,8.605469 -14.992004,17.712067" stroke-miterlimit="10" stroke-width="0.5" fill="none" stroke="#000000"/>
       <path id="svg_310" d="m110.30114,324.919708c-0.437302,4.833038 5.501656,11.561401 9.444893,13.802979c2.134705,1.21283 3.871918,0.413666 5.443283,3.130005c1.458374,2.520386 1.719635,8.72757 0.099182,10.791443" stroke-miterlimit="10" stroke-width="0.5" fill="none" stroke="#000000"/>
       <path id="svg_311" d="m124.107178,323.766113c0,5.680481 -0.939468,8.02594 -3.461502,13.004791c-2.582184,5.102753 -4.488937,12.086273 -4.032181,17.797699" stroke-miterlimit="10" stroke-width="0.5" fill="none" stroke="#000000"/>
       <path id="svg_312" d="m122.133682,321.456207c0.783844,3.868073 -3.686615,8.541656 -5.826859,12.320435c-2.471924,4.365631 -4.408371,9.031921 -5.205162,13.947876c-1.698311,10.480743 0.246445,19.306671 -9.47644,26.099762" stroke-miterlimit="10" stroke-width="0.5" fill="none" stroke="#000000"/>
       <path id="svg_313" d="m107.541046,368.04538c2.065208,1.116241 4.144325,4.536896 3.945099,6.930634" stroke-miterlimit="10" stroke-width="0.5" fill="none" stroke="#000000"/>
       <path id="svg_314" d="m110.696762,357.649414c1.302689,0.071991 2.99173,1.136261 4.73082,1.538086" stroke-miterlimit="10" stroke-width="0.5" fill="none" stroke="#000000"/>
       <path id="svg_315" d="m120.558594,342.633606c-0.368759,3.91452 0.839432,7.490112 2.871277,10.789612c1.56395,2.543182 5.253342,7.40448 1.864182,10.00415" stroke-miterlimit="10" stroke-width="0.5" fill="none" stroke="#000000"/>
       <path id="svg_316" d="m93.341255,337.627411c5.658234,0.033691 8.542458,1.895294 12.228172,5.776154" stroke-miterlimit="10" stroke-width="0.5" fill="none" stroke="#000000"/>
       <path id="svg_317" d="m123.712448,326.846893c0.219589,3.807037 3.957153,4.279938 6.224365,6.548859c3.596695,3.599274 3.892288,9.566772 0.482712,13.474945" stroke-miterlimit="10" stroke-width="0.5" fill="none" stroke="#000000"/>
       <path id="svg_318" d="m106.357903,406.164856c-1.582497,-1.756805 -0.571663,-4.80481 1.577858,-6.160675" stroke-miterlimit="10" stroke-width="0.5" fill="none" stroke="#000000"/>
       <path id="svg_319" d="m109.513626,408.860229c-0.635567,-1.536285 -0.076912,-3.035248 1.183136,-4.235321" stroke-miterlimit="10" stroke-width="0.5" fill="none" stroke="#000000"/>
       <path id="svg_320" d="m115.035629,413.866425c-0.409538,-1.168152 -0.395622,-2.283478 0,-3.465332" stroke-miterlimit="10" stroke-width="0.5" fill="none" stroke="#000000"/>
       <path id="svg_321" d="m122.530273,416.561768c-0.679108,-1.199127 -0.2789,-3.049805 0,-4.617981" stroke-miterlimit="10" stroke-width="0.5" fill="none" stroke="#000000"/>
       <path id="svg_322" d="m128.44603,419.257141c-0.017578,-1.446075 0.267776,-2.894043 0.789383,-4.23349" stroke-miterlimit="10" stroke-width="0.5" fill="none" stroke="#000000"/>
       <path id="svg_323" d="m133.968094,406.93573c-0.489212,-0.548523 -1.827072,-0.347137 -3.156616,0.384552" stroke-miterlimit="10" stroke-width="0.5" fill="none" stroke="#000000"/>
       <path id="svg_324" d="m132.390244,402.700439c-0.874619,-0.540344 -2.105988,-0.346252 -3.15477,0.384521" stroke-miterlimit="10" stroke-width="0.5" fill="none" stroke="#000000"/>
       <path id="svg_325" d="m131.207993,398.463318c-1.543579,-0.142151 -2.971298,0.174957 -3.945099,1.156342" stroke-miterlimit="10" stroke-width="0.5" fill="none" stroke="#000000"/>
       <path id="svg_326" d="m129.235474,394.999817c-1.511124,-0.274261 -2.875916,0.107544 -3.944199,1.157227" stroke-miterlimit="10" stroke-width="0.5" fill="none" stroke="#000000"/>
       <path id="svg_327" d="m126.474411,391.5336c-1.902115,-0.410065 -3.454071,0.862 -4.730804,1.925385" stroke-miterlimit="10" stroke-width="0.5" fill="none" stroke="#000000"/>
       <path id="svg_328" d="m122.530273,389.223694c-2.132843,-0.228729 -3.722748,1.236511 -5.126434,2.694427" stroke-miterlimit="10" stroke-width="0.5" fill="none" stroke="#000000"/>
       <path id="svg_329" d="m118.190445,388.068268c-2.3237,-0.374512 -3.643974,1.308502 -5.127342,2.695374" stroke-miterlimit="10" stroke-width="0.5" fill="none" stroke="#000000"/>
       <path id="svg_330" d="m76.775124,403.85495c0.830154,0.993225 1.783539,1.9245 2.761032,2.695374" stroke-miterlimit="10" stroke-width="0.5" fill="none" stroke="#000000"/>
       <path id="svg_331" d="m79.930847,403.85495c0.327988,-0.013641 1.596382,0.369049 2.367249,0.769989" stroke-miterlimit="10" stroke-width="0.5" fill="none" stroke="#000000"/>
       <path id="svg_332" d="m81.903374,401.159607c0.920975,0.145782 1.872482,0.411865 2.760094,0.769958" stroke-miterlimit="10" stroke-width="0.5" fill="none" stroke="#000000"/>
       <path id="svg_333" d="m82.691849,397.69519c1.098824,0.17041 2.228249,0.039185 3.155724,-0.385437" stroke-miterlimit="10" stroke-width="0.5" fill="none" stroke="#000000"/>
       <path id="svg_334" d="m72.830956,397.309753c0.307602,0.917572 1.005264,1.501678 1.972549,1.539948" stroke-miterlimit="10" stroke-width="0.5" fill="none" stroke="#000000"/>
       <path id="svg_335" d="m75.986679,393.844421c0.002769,0.8237 0.461388,1.556335 1.180367,1.924469" stroke-miterlimit="10" stroke-width="0.5" fill="none" stroke="#000000"/>
       <path id="svg_336" d="m79.142372,393.073547c0.08802,0.697968 0.366898,1.351318 0.791245,1.923553" stroke-miterlimit="10" stroke-width="0.5" fill="none" stroke="#000000"/>
       <path id="svg_337" d="m115.430344,369.971649c0.852386,1.195526 1.5121,2.46756 1.973495,3.8526" stroke-miterlimit="10" stroke-width="0.25" fill="none" stroke="#000000"/>
       <path id="svg_338" d="m117.796692,367.276337c0.542023,1.19458 1.21373,2.371857 1.971619,3.467133" stroke-miterlimit="10" stroke-width="0.25" fill="none" stroke="#000000"/>
       <path id="svg_339" d="m120.558594,364.195526c0.095459,1.311218 0.726395,2.662537 1.575089,3.465332" stroke-miterlimit="10" stroke-width="0.25" fill="none" stroke="#000000"/>
       <path id="svg_340" d="m122.530273,363.0401c-0.028732,-0.087494 0.850571,1.991913 1.182236,2.695374" stroke-miterlimit="10" stroke-width="0.25" fill="none" stroke="#000000"/>
       <path id="svg_341" d="m124.107178,361.114716c0.263123,0.738068 0.834793,1.310333 1.57785,1.538116" stroke-miterlimit="10" stroke-width="0.25" fill="none" stroke="#000000"/>
       <path id="svg_342" d="m126.868179,355.339478c0.5448,0.749939 1.092377,1.551788 1.57785,2.309937" stroke-miterlimit="10" stroke-width="0.25" fill="none" stroke="#000000"/>
       <path id="svg_343" d="m128.052277,353.029572c0.485489,0.830109 1.170197,1.510773 1.971619,1.924469" stroke-miterlimit="10" stroke-width="0.25" fill="none" stroke="#000000"/>
       <path id="svg_344" d="m130.023895,350.334198c0.185318,0.782745 0.775467,1.357697 1.577866,1.539032" stroke-miterlimit="10" stroke-width="0.25" fill="none" stroke="#000000"/>
       <path id="svg_345" d="m88.607674,358.034851c1.008965,-0.489319 2.126335,-0.514832 3.153854,0" stroke-miterlimit="10" stroke-width="0.25" fill="none" stroke="#000000"/>
       <path id="svg_346" d="m89.003296,354.568604c0.752342,-0.66153 1.961441,-0.946747 3.154816,-0.772705" stroke-miterlimit="10" stroke-width="0.25" fill="none" stroke="#000000"/>
       <path id="svg_347" d="m89.003296,351.104187c1.133148,-0.909393 2.714684,-0.914856 4.337959,-0.769989" stroke-miterlimit="10" stroke-width="0.25" fill="none" stroke="#000000"/>
       <path id="svg_348" d="m89.791771,347.252502c0.987648,-0.91391 2.395973,-1.023285 3.945107,-0.769043" stroke-miterlimit="10" stroke-width="0.25" fill="none" stroke="#000000"/>
       <path id="svg_349" d="m90.185532,343.018127c1.458313,-0.686127 3.174271,-0.3909 4.730812,0" stroke-miterlimit="10" stroke-width="0.25" fill="none" stroke="#000000"/>
       <path id="svg_350" d="m91.368675,339.938232c0.816238,-0.40094 2.318153,-0.565857 3.550385,-0.385437" stroke-miterlimit="10" stroke-width="0.25" fill="none" stroke="#000000"/>
       <path id="svg_351" d="m92.551872,336.857452c0.015717,-1.358612 2.134712,-0.753571 3.945107,-0.770874" stroke-miterlimit="10" stroke-width="0.25" fill="none" stroke="#000000"/>
       <path id="svg_352" d="m94.12973,333.006683c1.181335,0 2.367249,0 3.550446,0" stroke-miterlimit="10" stroke-width="0.25" fill="none" stroke="#000000"/>
       <path id="svg_353" d="m96.102257,330.31131c0.791252,-0.221436 2.50161,-0.594116 3.550385,-0.772705" stroke-miterlimit="10" stroke-width="0.25" fill="none" stroke="#000000"/>
       <path id="svg_354" d="m97.680115,326.846893c1.020111,0.30069 2.052261,0.429199 3.153862,0.384521" stroke-miterlimit="10" stroke-width="0.25" fill="none" stroke="#000000"/>
       <path id="svg_355" d="m99.652702,324.535187c1.050644,0 2.104111,0 3.154755,0" stroke-miterlimit="10" stroke-width="0.25" fill="none" stroke="#000000"/>
       <path id="svg_356" d="m101.228691,321.839813c1.273056,0.025543 2.695236,0.492065 3.549484,1.155426" stroke-miterlimit="10" stroke-width="0.25" fill="none" stroke="#000000"/>
       <path id="svg_357" d="m104.778175,320.685303c0.58094,-0.147583 1.816895,0.197754 2.760094,0.770905" stroke-miterlimit="10" stroke-width="0.25" fill="none" stroke="#000000"/>
       <path id="svg_358" d="m108.724243,319.14444c0.289986,-0.009094 1.545456,0.56131 2.366341,1.158142" stroke-miterlimit="10" stroke-width="0.25" fill="none" stroke="#000000"/>
       <path id="svg_359" d="m112.27372,318.374481c0.621712,0.36084 1.065521,0.82193 1.577866,1.540863" stroke-miterlimit="10" stroke-width="0.25" fill="none" stroke="#000000"/>
       <path id="svg_360" d="m115.430344,317.98996c0.318726,0.40274 0.772705,0.997772 1.183151,1.539948" stroke-miterlimit="10" stroke-width="0.25" fill="none" stroke="#000000"/>
       <path id="svg_361" d="m87.030769,376.901398c0.252953,0.12027 1.002525,1.325836 1.181335,2.310852" stroke-miterlimit="10" stroke-width="0.25" fill="none" stroke="#000000"/>
       <path id="svg_362" d="m90.975876,375.746918c0.482712,1.208252 1.307327,2.502167 1.575996,3.85257" stroke-miterlimit="10" stroke-width="0.25" fill="none" stroke="#000000"/>
       <path id="svg_363" d="m93.736877,374.591492c0.960785,0.794586 2.002213,1.811493 2.760101,2.695374" stroke-miterlimit="10" stroke-width="0.25" fill="none" stroke="#000000"/>
       <path id="svg_364" d="m97.285454,373.051544c-0.260353,-0.635101 1.143333,1.703033 1.578766,2.310822" stroke-miterlimit="10" stroke-width="0.25" fill="none" stroke="#000000"/>
       <path id="svg_365" d="m96.102257,369.586243c0.872795,0.296112 1.824303,1.084351 2.367241,1.925385" stroke-miterlimit="10" stroke-width="0.25" fill="none" stroke="#000000"/>
       <path id="svg_366" d="m96.102257,366.120911c0.842201,0.612335 1.638084,1.260193 2.367241,1.922638" stroke-miterlimit="10" stroke-width="0.25" fill="none" stroke="#000000"/>
       <path id="svg_367" d="m88.607674,363.0401c0.757881,0.364471 1.507454,0.947662 1.971619,1.538116" stroke-miterlimit="10" stroke-width="0.25" fill="none" stroke="#000000"/>
       <path id="svg_368" d="m86.241333,364.580963c0.792152,0.072876 1.559311,0.527588 1.97348,1.157227" stroke-miterlimit="10" stroke-width="0.25" fill="none" stroke="#000000"/>
       <path id="svg_369" d="m85.452911,365.735474c0.703201,0.496613 1.273056,1.183655 1.577858,1.922607" stroke-miterlimit="10" stroke-width="0.25" fill="none" stroke="#000000"/>
       <path id="svg_370" d="m83.875046,367.660858c0.184357,0.784546 0.776436,1.357697 1.577866,1.539948" stroke-miterlimit="10" stroke-width="0.25" fill="none" stroke="#000000"/>
       <path id="svg_371" d="m82.298096,369.200806c0.741196,0.702515 1.409225,1.480713 1.971619,2.310822" stroke-miterlimit="10" stroke-width="0.25" fill="none" stroke="#000000"/>
       <path id="svg_372" d="m81.903374,371.511597c0.117676,0.567688 0.394722,1.103485 0.788475,1.538116" stroke-miterlimit="10" stroke-width="0.25" fill="none" stroke="#000000"/>
       <path id="svg_373" d="m81.507774,373.051544c-0.082451,0.648773 0.203835,1.187317 0.790321,1.539948" stroke-miterlimit="10" stroke-width="0.25" fill="none" stroke="#000000"/>
       <path id="svg_374" d="m54.169052,234.808487c-1.024719,-1.613754 -3.7033,-1.059738 -5.420132,-1.059738" stroke-miterlimit="10" stroke-width="0.25" fill="none" stroke="#000000"/>
      </g>
      <path id="svg_375" d="m84.297531,336.666077c0,4.208862 0.011147,7.866455 1.235962,11.845703" stroke-miterlimit="10" stroke-width="0.5" fill="none" stroke="#000000"/>
      <path id="svg_376" d="m131.549896,354.283386c0.795898,3.347809 5.17926,7.015411 7.41214,9.718964" stroke-miterlimit="10" stroke-width="0.5" fill="none" stroke="#000000"/>
      <path id="svg_377" d="m135.873947,359.750641c-0.655975,1.29483 0.327988,3.004272 0.617981,4.556061" stroke-miterlimit="10" stroke-width="0.5" fill="none" stroke="#000000"/>
      <path id="svg_378" d="m135.873947,360.054077c0.706024,0.729889 1.973495,0.680695 3.088089,0.911224" stroke-miterlimit="10" stroke-width="0.5" fill="none" stroke="#000000"/>
      <path id="svg_379" d="m132.167877,356.712677c2.395065,-0.65152 5.970505,-0.411865 8.338654,0.304321" stroke-miterlimit="10" stroke-width="0.5" fill="none" stroke="#000000"/>
      <path id="svg_380" d="m138.035522,356.712677c0.762527,0.770874 1.311005,1.723999 1.544495,2.733612" stroke-miterlimit="10" stroke-width="0.5" fill="none" stroke="#000000"/>
      <path id="svg_381" d="m113.019562,376.455841c0.31221,1.788696 -0.299263,5.31601 0.309441,7.89743" stroke-miterlimit="10" stroke-width="0.5" fill="none" stroke="#000000"/>
      <path id="svg_382" d="m113.019562,377.670471c2.032806,1.322144 3.493896,2.970551 5.250565,4.55603" stroke-miterlimit="10" stroke-width="0.5" fill="none" stroke="#000000"/>
      <path id="svg_383" d="m116.108551,379.492889c-0.009277,1.057922 0.09082,2.032867 0.308548,3.037933" stroke-miterlimit="10" stroke-width="0.5" fill="none" stroke="#000000"/>
      <path id="svg_384" d="m116.108551,380.100677c1.132187,0 2.264389,0 3.396637,0" stroke-miterlimit="10" stroke-width="0.5" fill="none" stroke="#000000"/>
      <path id="svg_385" d="m97.886749,387.694672c1.615868,2.137695 2.763832,5.563812 3.70607,8.200867" stroke-miterlimit="10" stroke-width="0.5" fill="none" stroke="#000000"/>
      <path id="svg_386" d="m100.666306,392.857605c-0.824615,1.04422 -0.862564,2.504883 -0.926521,3.949188" stroke-miterlimit="10" stroke-width="0.5" fill="none" stroke="#000000"/>
     </g>
     <g id="svg_387">
      <path id="svg_388" d="m114.487152,44.699429c0.706024,-0.736252 2.465469,-1.779591 3.937698,-1.594612" stroke-miterlimit="10" fill="none" stroke="#000000"/>
      <path id="svg_389" d="m128.153275,42.649212c1.183136,0.004555 2.359833,-0.080185 3.474442,0.227802" stroke-miterlimit="10" fill="none" stroke="#000000"/>
     </g>
    </g>
   </g>
  </g>
 </g>
</svg>