<?xml version="1.0" encoding="utf-8"?>
<!-- Generator: Adobe Illustrator 16.0.0, SVG Export Plug-In . SVG Version: 6.00 Build 0)  -->
<!DOCTYPE svg PUBLIC "-//W3C//DTD SVG 1.1//EN" "http://www.w3.org/Graphics/SVG/1.1/DTD/svg11.dtd">
<svg version="1.1" id="Layer_1" xmlns="http://www.w3.org/2000/svg" xmlns:xlink="http://www.w3.org/1999/xlink" x="0px" y="0px"
	 width="328px" height="620px" viewBox="60.5 0 328 620" enable-background="new 60.5 0 328 620" xml:space="preserve">
<g id="outlines">
	
		<path fill="none" stroke="#000000" stroke-width="0.75" stroke-linecap="round" stroke-linejoin="round" stroke-miterlimit="10" d="
		M179.333,78.333c-0.777-1.807,4.501-4.792,5.463-6.5c1.626-2.889,2.487-5.024,5.204-7.167"/>
	
		<path fill="none" stroke="#000000" stroke-width="0.75" stroke-linecap="round" stroke-linejoin="round" stroke-miterlimit="10" d="
		M172,78.333c-5.167-1.331-8.935-0.898-13.667,1.875c-2.247,1.317-4.23,2.914-6.2,4.581c-1.828,1.546-4.854,3.795-5.634,6.045"/>
	
		<path fill="none" stroke="#000000" stroke-width="0.75" stroke-linecap="round" stroke-linejoin="round" stroke-miterlimit="10" d="
		M178.333,82c-1.489,3.904-3.808,7.846-5.292,11.871c-1.62,4.39-0.163,9.804-2.208,13.963"/>
	
		<path fill="none" stroke="#000000" stroke-width="0.75" stroke-linecap="round" stroke-linejoin="round" stroke-miterlimit="10" d="
		M196.833,80.833c0.038-0.01-0.421,0.203-0.604,0.338c2.576,1.784,5.697-4.385,7.937-3.005"/>
	
		<path fill="none" stroke="#000000" stroke-width="0.75" stroke-linecap="round" stroke-linejoin="round" stroke-miterlimit="10" d="
		M196.667,81.5c-0.02-0.115-0.296-0.021-0.141-0.309c5.486,1.185,0.943,11.622,0.974,15.142"/>
	
		<path fill="none" stroke="#000000" stroke-width="0.75" stroke-linecap="round" stroke-linejoin="round" stroke-miterlimit="10" d="
		M235.333,78.667c-0.276,2.666,4.244,5.371,6.333,6.371c3.032,1.45,6.185,1.347,9.146,2.441c-2.481-6.633-8.231-9.104-14.479-10.979
		"/>
	
		<path fill="none" stroke="#000000" stroke-width="0.75" stroke-linecap="round" stroke-linejoin="round" stroke-miterlimit="10" d="
		M254.333,72.333c0.151,2.427,0.618,4.13,2,6.167"/>
	
		<path fill="none" stroke="#000000" stroke-width="0.75" stroke-linecap="round" stroke-linejoin="round" stroke-miterlimit="10" d="
		M254.667,72.5c2.843,0.023,3.962,1.572,5.333,4c1.071,1.897,3.315,3.931,3.479,6.141c-1.164,0.261-1.903-0.794-2.645-1.475"/>
	
		<path fill="none" stroke="#000000" stroke-width="0.75" stroke-linecap="round" stroke-linejoin="round" stroke-miterlimit="10" d="
		M201.333,140c1.274-1.464,3.395-3.938,5.167-4.667"/>
	
		<path fill="none" stroke="#000000" stroke-width="0.75" stroke-linecap="round" stroke-linejoin="round" stroke-miterlimit="10" d="
		M299.333,90.667c-1.886,1.804-2.892,4.373-4.125,6.63c-1.537,2.812-3.177,5.478-4.583,8.37c-2.336,4.804-6.182,9.937-6.458,15.333"
		/>
	
		<path fill="none" stroke="#000000" stroke-width="0.75" stroke-linecap="round" stroke-linejoin="round" stroke-miterlimit="10" d="
		M310.333,89.5c1.052-0.52,5.397,1.994,6.63,2.545c2.285,1.023,4.391,1.996,6.546,3.242c4.114,2.379,8.193,5.149,11.366,8.509
		c2.521,2.67,5.528,4.16,7.746,7.241c2.197,3.051,4.327,5.811,4.712,9.629"/>
	
		<path fill="none" stroke="#000000" stroke-width="0.75" stroke-linecap="round" stroke-linejoin="round" stroke-miterlimit="10" d="
		M153.333,159.167c1.565-0.097,2.917-0.366,4.5-0.167"/>
	
		<path fill="none" stroke="#000000" stroke-width="0.75" stroke-linecap="round" stroke-linejoin="round" stroke-miterlimit="10" d="
		M157.667,156c5.473-2.375,12.36,1.159,17.5,2.995c3.551,1.269,6.699,3.122,10,4.838c2.478,1.289,5.351,1.557,7.171,3.838
		c0.172,0.215,0.336,0.438,0.496,0.662"/>
	
		<path fill="none" stroke="#000000" stroke-width="0.75" stroke-linecap="round" stroke-linejoin="round" stroke-miterlimit="10" d="
		M188.5,167.5c1.411-0.048,2.346,1.562,2.833,2.667"/>
	
		<path fill="none" stroke="#000000" stroke-width="0.75" stroke-linecap="round" stroke-linejoin="round" stroke-miterlimit="10" d="
		M119.667,207.333c1.192-2.817,4.226-5.129,6.379-7.296c2.002-2.014,4.363-3.796,6.788-5.246c5.662-3.384,12.858-5.007,19.167-6.755
		c9.144-2.533,17.129,0.733,24.333,6.297"/>
	
		<path fill="none" stroke="#000000" stroke-width="0.75" stroke-linecap="round" stroke-linejoin="round" stroke-miterlimit="10" d="
		M165,210.167c-1.433,2.542-0.921,7.157-0.667,10c0.299,3.346,0.545,6.51-0.292,9.837c-0.92,3.661-2.653,7.259-4,10.83
		c-2.182,5.784-3.062,11.476-4.042,17.5"/>
	
		<path fill="none" stroke="#000000" stroke-width="0.75" stroke-linecap="round" stroke-linejoin="round" stroke-miterlimit="10" d="
		M156.833,265.833c-1.099,3.12-0.033,9.044,0.833,12.167"/>
	
		<path fill="none" stroke="#000000" stroke-width="0.75" stroke-linecap="round" stroke-linejoin="round" stroke-miterlimit="10" d="
		M167.167,212.5c-0.59,1.783-0.225,3.983-0.5,5.833c-0.315,2.118-0.964,4.2-1.5,6.333"/>
	
		<path fill="none" stroke="#000000" stroke-width="0.75" stroke-linecap="round" stroke-linejoin="round" stroke-miterlimit="10" d="
		M182.833,198.833c0.855,0.017,1.424,0.628,2.167,0.833"/>
	
		<path fill="none" stroke="#000000" stroke-width="0.75" stroke-linecap="round" stroke-linejoin="round" stroke-miterlimit="10" d="
		M186.167,201.667c0-0.072-0.279-0.047-0.146-0.313c1.654,0.564,3.737,3.892,4.767,5.35c1.448,2.049,2.756,4.181,4.045,6.296"/>
	
		<path fill="none" stroke="#000000" stroke-width="0.75" stroke-linecap="round" stroke-linejoin="round" stroke-miterlimit="10" d="
		M197.833,215.5c1.371,2.802,5.15,4.538,6.995,7.167c1.729,2.464,2.327,5.317,3.509,8c2.55,5.79,6.689,8.989,11.451,12.875
		c1.804,1.472,3.866,3.048,5.379,4.792"/>
	
		<path fill="none" stroke="#000000" stroke-width="0.75" stroke-linecap="round" stroke-linejoin="round" stroke-miterlimit="10" d="
		M297.833,196.667c0.747,1.894,0.472,5.616,0.333,7.833c-0.189,3.035-1.868,5.583-3.125,8.296
		c-2.54,5.479-6.603,12.921-5.542,19.038"/>
	
		<path fill="none" stroke="#000000" stroke-width="0.75" stroke-linecap="round" stroke-linejoin="round" stroke-miterlimit="10" d="
		M288.833,235.167c-0.896,1.145-0.759,3.369-1.167,4.851c-0.423,1.538-0.967,3.15-1.495,4.649c-1.091,3.101-1.22,6.878-0.505,10.167
		"/>
	
		<path fill="none" stroke="#000000" stroke-width="0.75" stroke-linecap="round" stroke-linejoin="round" stroke-miterlimit="10" d="
		M292.667,154c0,6.965,2.088,13.725,2.167,20.667c0.036,3.177,0.133,6.371,0.167,9.5c0.031,2.866,0.339,5.053-0.5,7.833"/>
	
		<path fill="none" stroke="#000000" stroke-width="0.75" stroke-linecap="round" stroke-linejoin="round" stroke-miterlimit="10" d="
		M325.5,187.167c0.575-1.995,2.157-2.601,3.509-4.004c1.264-1.311,2.25-3.032,3.366-4.487c2.059-2.686,3.514-7.076,6.125-9.175"/>
	
		<path fill="none" stroke="#000000" stroke-width="0.75" stroke-linecap="round" stroke-linejoin="round" stroke-miterlimit="10" d="
		M330.5,190.667c2.635,8.492-0.341,16.897-2,25.167"/>
	
		<path fill="none" stroke="#000000" stroke-width="0.75" stroke-linecap="round" stroke-linejoin="round" stroke-miterlimit="10" d="
		M294,270.833c-1.874,1.262-1.5,3.037-1.5,5.167"/>
	
		<path fill="none" stroke="#000000" stroke-width="0.75" stroke-linecap="round" stroke-linejoin="round" stroke-miterlimit="10" d="
		M309.167,311.167c-0.284,1.515-1.774,3.131-2.546,4.504c-0.756,1.347-1.715,2.465-2.825,3.491
		c-2.591,2.396-5.492,4.444-8.125,6.875c-5.777,5.335-11.241,11.295-16.046,17.468c-1.64,2.107-1.771,4.204-3.958,5.995"/>
	
		<path fill="none" stroke="#000000" stroke-width="0.75" stroke-linecap="round" stroke-linejoin="round" stroke-miterlimit="10" d="
		M131.833,310.334c-1.103,0.559-1.79,2.756-2.533,3.833c-0.956,1.386-1.981,2.394-2.467,4.029
		c-1.283,4.314-1.797,9.339-2.167,13.804"/>
	
		<path fill="none" stroke="#000000" stroke-width="0.75" stroke-linecap="round" stroke-linejoin="round" stroke-miterlimit="10" d="
		M124.333,340.168c0.882,3.704,1.411,7.641,3.166,11.036c1.254,2.428,2.921,4.831,4,7.297"/>
	
		<path fill="none" stroke="#000000" stroke-width="0.75" stroke-linecap="round" stroke-linejoin="round" stroke-miterlimit="10" d="
		M133.667,319.835c0.774,2.216,1.48,4.413,2.5,6.546c0.908,1.901,2.828,3.628,3.5,5.454"/>
	
		<path fill="none" stroke="#000000" stroke-width="0.75" stroke-linecap="round" stroke-linejoin="round" stroke-miterlimit="10" d="
		M169.333,294.667c3.196-1.647,5.712,1.433,8.167,3.167c3.251,2.297,6.297,4.732,9,7.667"/>
	
		<path fill="none" stroke="#000000" stroke-width="0.75" stroke-linecap="round" stroke-linejoin="round" stroke-miterlimit="10" d="
		M109.167,344.835c-3.906,5.196-2.493,21.472-1.879,22.537c0.478,0.829,0.575,0.967,0.878,1.796c0.095,0.26-1.094,8.535,2.166,9.638
		c0.108,0.047,0.219,0.058,0.333,0.029"/>
	
		<path fill="none" stroke="#000000" stroke-width="0.75" stroke-linecap="round" stroke-linejoin="round" stroke-miterlimit="10" d="
		M130.833,395.001c0.062,2.184,0.726,4.532,1.37,6.621c0.836,2.71,1.313,5.578,2.338,8.212c1.299,3.336,3.084,7.426,5.625,10"/>
	
		<path fill="none" stroke="#000000" stroke-width="0.75" stroke-linecap="round" stroke-linejoin="round" stroke-miterlimit="10" d="
		M139.667,390.167c-1.144,2.306,0.077,3.316,1.378,5.13c1.108,1.543,2.177,3.513,2.955,5.204"/>
	
		<path fill="none" stroke="#000000" stroke-width="0.75" stroke-linecap="round" stroke-linejoin="round" stroke-miterlimit="10" d="
		M141.833,396.001c-0.011,1.644-0.1,4.685-1.333,5.833"/>
	
		<path fill="none" stroke="#000000" stroke-width="0.75" stroke-linecap="round" stroke-linejoin="round" stroke-miterlimit="10" d="
		M130.167,422.001c-1.877,2.687-4.5,6.253-0.667,9"/>
	
		<path fill="none" stroke="#000000" stroke-width="0.75" stroke-linecap="round" stroke-linejoin="round" stroke-miterlimit="10" d="
		M84.5,408.501c1.579,3.249,3.096,6.563,5.163,9.504c1.595,2.271,3.167,5.376,5.337,7.162"/>
	
		<path fill="none" stroke="#000000" stroke-width="0.75" stroke-linecap="round" stroke-linejoin="round" stroke-miterlimit="10" d="
		M95.833,405.501c1.636,2.028,5.83,3.5,6.509,5.991c0.378,1.388-0.259,3.084-0.013,4.509c0.276,1.596,1.555,3.161,2.67,4.166"/>
	
		<path fill="none" stroke="#000000" stroke-width="0.75" stroke-linecap="round" stroke-linejoin="round" stroke-miterlimit="10" d="
		M146.167,423.168c1.065,2.388,3.732,4.164,5.167,6.333"/>
	
		<path fill="none" stroke="#000000" stroke-width="0.75" stroke-linecap="round" stroke-linejoin="round" stroke-miterlimit="10" d="
		M172.667,425.001c0.877,0.612,1.877,1.743,2,2.833"/>
	
		<path fill="none" stroke="#000000" stroke-width="0.75" stroke-linecap="round" stroke-linejoin="round" stroke-miterlimit="10" d="
		M107.333,436.334c0.002,1.383-0.942,3.09-1.167,4.63c-0.217,1.485-0.334,2.853-0.333,4.37"/>
	
		<path fill="none" stroke="#000000" stroke-width="0.75" stroke-linecap="round" stroke-linejoin="round" stroke-miterlimit="10" d="
		M105.333,458.667c0,2.111,0,4.223,0,6.334"/>
	
		<path fill="none" stroke="#000000" stroke-width="0.75" stroke-linecap="round" stroke-linejoin="round" stroke-miterlimit="10" d="
		M83.333,459.834c1.064-2.872,5.298-3.271,5.454-6.463c0.079-1.602-0.107-2.473,0.676-4.074c0.597-1.223,1-3.117,1.87-4.13"/>
	<path fill="none" stroke="#000000" stroke-linecap="round" stroke-linejoin="round" stroke-miterlimit="10" d="M161.171,76.125
		c-4.518,2.373-7.529,5.319-10.88,9.162c-1.602,1.837-2.747,3.593-3.787,5.708c-0.97,1.972-2.685,3.804-3.792,5.875
		c-1.293,2.418-2.073,4.796-2.583,7.426c-0.295,1.521-0.369,6.8,2.249,4.208c1.155-1.143,6.018-8.225,7.329-9.63
		c1.644-1.761,1.662-3.77,3.167-5.5c1.69-1.944,4.474-1.481,6.255-2.912c1.19-0.957,0.854-1.497,2.667-1.833
		c0.973-0.18,2.557-0.223,3.203-1.13c0.639-0.896,0.104-2.076,0.668-2.999c0.456-0.747,1.201-1.241,1.657-2.01
		c1.496-2.521,1.468-3,4.646-3.187c-0.403,0.024,1.559-1.236,1.441-1.046c0.509-0.824,0.545-0.721-0.072-1.75
		c-0.746-1.244-2.212-1.991-3.583-2.275C166.871,73.635,163.692,74.801,161.171,76.125z"/>
	<path fill="none" stroke="#000000" stroke-linecap="round" stroke-linejoin="round" stroke-miterlimit="10" d="M172.192,81.024
		c0.097,0.252-0.005,0.698,0.12,0.943c-1.532,0.42-2.328,0.688-3.136,1.875c-0.646,0.95-1.391,1.914-2.009,2.862
		c-0.629,0.965-0.935,2.197-1.337,3.296c-0.4,1.095-1.213,1.917-1.625,3.037c-0.487,1.328,0.199,2.205,0.499,3.426
		c0.342,1.396,0.177,2.519-0.162,3.875c-0.791,3.16,0.193,3.942,2.296,5.821c1.892,1.69,0.848,3.525-0.483,5.175
		c4.934,3.64,7.683-6.867,9.937-9.045c1.28-1.236,1.595-1.412,2.2-2.955c0.587-1.498,1.275-1.498,2.468-2.371
		c2.389-1.75,2.375-4.414,2.375-7.129c0-2.561-0.197-4.301-2.033-6.125c-0.677-0.672-1.432-1.504-2.301-1.875
		C178.483,81.613,172.137,80.881,172.192,81.024z"/>
	<path fill="none" stroke="#000000" stroke-linecap="round" stroke-linejoin="round" stroke-miterlimit="10" d="M173.5,78.667
		c0.2,2.69,3.485,0.429,4.658,0.167c1.589-0.354,1.198,0.323,2.204,0.795c0.819,0.384,2.101,0.501,2.967,0.542
		c0.938,0.044,1.951-0.176,2.796,0.205c0.677,0.305,1.037,1.168,1.7,1.467c1.599,0.721,4.426,0.49,6.199,0.492
		c-0.673,0.182-1.485,0.743-2.315,1.203c-1.065,0.59-1.172,0.768-2.713,0.634c-2.255-0.197-3.705-1.486-5.833-1.833
		c-2.117-0.345-4.111-0.681-6.167-1.167c-1.575-0.373-4.535-0.504-5.604-2.017c0.692-0.016,1.356-0.231,1.775-0.82L173.5,78.667z"/>
	<path fill="none" stroke="#000000" stroke-linecap="round" stroke-linejoin="round" stroke-miterlimit="10" d="M176.829,75.709
		c-1.021-1.016-1.983-0.406-1.866-2.375c0.127-2.143,0.875-4.359,2.705-5.833c1.91-1.539,2.744-3.8,5.166-4.337
		c2.285-0.507,4.425-2.234,6.833-2.333c2.098-0.086,4.718,2.651,4.67,4.837c-0.015,0.691-0.541,0.955-0.471,1.634
		c0.041,0.402,0.699,1.038,0.795,1.529c0.22,1.122-0.189,2.124-1.028,2.962c-0.919,0.918-2.097,1.407-2.926,2.547
		c-0.604,0.831-0.924,2.263-1.667,2.87c-1.75,1.429-5.419-0.105-7.504,1.005c-0.474,0.252-0.627,0.398-0.729,0.929
		C177.852,79.729,178.282,77.155,176.829,75.709z"/>
	<path fill="none" stroke="#000000" stroke-linecap="round" stroke-linejoin="round" stroke-miterlimit="10" d="M195.787,79.38
		c-1.02-0.486-2.067-0.168-2.124-1.546c-0.043-1.058,1.374-2.039,2.129-2.537c1.811-1.195,3.15-1.851,5.166-1.087
		c0.586,0.222,0.331,0.77,1.208,0.632c0.625-0.098,0.647-0.639,1.042-0.971c0.801-0.675,1.254-1.66,2.434-1.678
		c0.137,2.747-0.912,4.976-0.809,7.641c0.103,2.651,1.843,4.487,2.004,7.163c0.31,5.169-1.26,10.282-2.967,14.875
		c-1.076,2.894-2.95,9.185-6.509,9.937c-0.841-2.733-3.061-2.763-4.491-4.845c-1.438-2.094-0.282-5.075-1.246-7.254
		c-0.274-0.62-0.828-2.896-0.792-3.542c0.095-1.684-0.636-2.084-1.004-3.5c-0.441-1.697-0.134-5.271-0.004-6.675
		c0.014-0.136,1.211-1.676,1.347-1.841c0.88-1.078,1.548-1.508,2.878-1.937C195.65,81.698,198.864,80.846,195.787,79.38z"/>
	<path fill="none" stroke="#000000" stroke-linecap="round" stroke-linejoin="round" stroke-miterlimit="10" d="M206,94.5
		c1.885,1.132,4.745,4.131,5.841,6.117c-0.067-5.515,12.113-20.66,15.45-23.992c1.708-1.704,3.851-3.147,5.871-4.325
		c2.519-1.468,5.104-1.744,7.828-2.31c4.818-1,24.032-2.392,23.314,0.147c-3.076,1.24-7.139,0.387-10.445,0.555
		c0.023,0.234-0.082,0.55-0.05,0.783c-3.17,1.013-7.199-0.256-10.475,0.358c-1.847,0.346-8.395,1.21-8.809,3.633
		c0.464,0.47,0.917,0.934,1.417,1.375c-1.05-0.128-1.319,0.774-1.109,1.683c-0.18-0.955-1.709-1.292-2.833-1.19
		c-1.645,0.149-1.886,0.87-2.625,2.041c-1.213,1.919-2.941,3.655-4.416,5.422c-3.338,4-6.742,8.151-8.463,13.028
		c-0.849,2.406-2.765,7.785-3.145,7.701c1.032,2.802,3.413,5.653,4.129,8.446c-0.157,0.059-0.295,0.009-0.455,0.053
		c-0.651,1.935,0.312,2.729,1.521,4.275c1.046,1.337,1.621,2.797,2.288,4.375c0.615,1.456,1.059,2.578,2.038,3.608
		c1.101,1.159,1.922,2.215,2.813,3.483c-0.181-0.31-0.483-0.665-0.659-0.911c0.363,0.552,0.719,1.161,1.142,1.645"/>
	<path fill="none" stroke="#000000" stroke-linecap="round" stroke-linejoin="round" stroke-miterlimit="10" d="M205.167,98
		c4.431,2.137,6.04,7.315,7.667,11.667c0.491,1.314,0.676,2.596,1.167,3.842c0.421,1.07,1.273,1.782,1.792,2.833
		c1.126,2.282,1.753,4.995,2.922,7.492c0.563,1.203,1.329,2.133,2,3.3c0.849,1.478,0.326,1.826,0.084,3.33
		c-0.358,2.231,0.315,5.19,1,7.24c0.836,2.505,1.556,4.606,1.703,7.297c0.15,2.755-0.094,5.551,0.037,8.296
		c0.086,1.801-0.076,3.562-0.167,5.37c-0.045,0.899-0.157,1.931-0.037,2.833c0.126,0.95,0.623,1.339,0.842,2.158
		c0.438,1.637-0.304,3.344-1.046,4.805c-1.093,2.154-1.375,2.203-3.963,2.203"/>
	<path fill="none" stroke="#000000" stroke-linecap="round" stroke-linejoin="round" stroke-miterlimit="10" d="M241.829,88.875
		c2.498,1.493,12.743,6.371,12.838,0.791c0.072-4.207-3.027-8.899-5.958-11.874c-1.798-1.824-4.161-2.663-6.69-2.714
		c-1.24-0.025-2.477,0.146-3.693,0.372c-1.733,0.323-2.014,0.298-2.614,1.746C233.931,81.494,238.282,86.754,241.829,88.875z"/>
	<path fill="none" stroke="#000000" stroke-linecap="round" stroke-linejoin="round" stroke-miterlimit="10" d="M253.167,71.5
		c1.888,1.023,0.414,5.542,0.5,7.333c0.126,2.625,1.508,3.927,3.458,5.541c1.797,1.487,3.76,2.783,5.865,3.792
		c2.091,1.002,4.596,2.572,5.514-0.158c1.586-4.716,2.011-8.863-2.538-12.301c-1.507-1.139-3.724-2.647-5.504-3.171
		c-1.185-0.349-2.514-0.124-3.796-0.204c-1.386-0.086-1.932-0.646-3.143-1.15c0.097,0.523-0.243,0.302-0.357,0.483L253.167,71.5
		L253.167,71.5z"/>
	<path fill="none" stroke="#000000" stroke-linecap="round" stroke-linejoin="round" stroke-miterlimit="10" d="M226.5,116.5
		c0.555-0.384,0.908-0.96,0.809-1.642c-2.223-0.052,0.42-2.283,1.016-2.729c1.185-0.887,2.323-1.867,3.521-2.738
		c-0.042,1.823,0.564,3.982-0.674,5.067c-1.314,1.152-3.834,1.055-4.838,2.375L226.5,116.5z"/>
	<path fill="none" stroke="#000000" stroke-linecap="round" stroke-linejoin="round" stroke-miterlimit="10" d="M229.834,117.167
		c1.234-0.8,2.481-1.998,3.799-2.65c-0.106,1.118,1.178,1.632,1.2,2.983c0.019,1.104-0.425,2.455-1.463,3.049
		c-0.53,0.304-1.175,0.073-1.703,0.281c-0.444,0.175-0.758,0.816-1.2,0.966C226.571,123.117,227.754,118.515,229.834,117.167z"/>
	<path fill="none" stroke="#000000" stroke-linecap="round" stroke-linejoin="round" stroke-miterlimit="10" d="M231.667,124.333
		c0.294-1.05,0.303-2.383,0.358-3.475c2.366,0.18,2.635-1.582,3.004-3.337c1.838,0.455,3.625,0.577,4.449,2.616
		c-2.019-0.163-2.589-0.105-4.1,1.066c-1.202,0.931-2.925,1.443-3.878,2.63L231.667,124.333z"/>
	<path fill="none" stroke="#000000" stroke-linecap="round" stroke-linejoin="round" stroke-miterlimit="10" d="M238.333,123.167
		c1.018-0.461,1.208-1.443,2.333-1.666c0.957-0.189,2.697,0.386,2.692,1.474c1.211-0.106,3.589,0.056,4.495,0.684
		c-1.918,3.293-5.886,4.251-9.446,3.828c-1.33-0.158-3.318-0.271-3.548-1.873C234.503,123.14,237.038,123.753,238.333,123.167z"/>
	<path fill="none" stroke="#000000" stroke-linecap="round" stroke-linejoin="round" stroke-miterlimit="10" d="M234.359,128.858
		c0.088,2.369,1.913,2.856,3.812,3.767c1.798,0.862,3.089,2.563,4.788,3.416c1.335,0.671,1.365,0.406,1.541-1.208
		c0.107-0.979,0.197-2.618-0.157-3.509C243.309,128.723,236.636,128.199,234.359,128.858z"/>
	<path fill="none" stroke="#000000" stroke-linecap="round" stroke-linejoin="round" stroke-miterlimit="10" d="M217.5,114
		c1.83,0,3.492-0.232,5.309-0.142c0.256,0.785,1.444,3.469,0.824,4.275c-0.758,0.985-3.657,0.116-4.633,0.534"/>
	<path fill="none" stroke="#000000" stroke-linecap="round" stroke-linejoin="round" stroke-miterlimit="10" d="M222.655,108.896
		c0.52,0.685,0.987,1.408,1.512,2.083c0.95-0.638,1.875-2.437,2.971-2.624c-0.01,0.991,0.568,2.096,0.538,2.97
		c-0.041,1.144-0.784,1.841-1.153,2.813c1.535,0.195,0.48,1.671-0.005,2.337c0.467-0.244,0.962-0.308,1.441-0.449
		c0.234,0.679,0.308,1.372,0.351,2.112c-1.666,0.329-0.57,7.44-0.67,9.167c-1.034,0.306-1.32,1.457-1.804,2.303
		c-0.275-0.808-0.693-1.65-1.305-2.136c-0.166-2.837-0.317-5.727-0.17-8.576c0.478,0.119,1.063,0.232,1.461,0.368
		c-0.643-0.231-1.21-0.466-1.674-0.93c0.218-0.116,0.546-0.519,0.803-0.629C222.912,118.581,223.06,109.675,222.655,108.896z"/>
	<path fill="none" stroke="#000000" stroke-linecap="round" stroke-linejoin="round" stroke-miterlimit="10" d="M231.667,124
		c-0.211,0.175-1.187,1.272-1.617,1.55c-0.713,0.46-1.479,0.369-2.067,0.95c0.55,0.981-1.22,1.909-1.124,3.141
		c1.729,0.128,2.664-0.605,3.104-2.128c0.107,1.836,1.603,2.908,3.028,3.866c1.877,1.262,2.372,1.523,1.13,3.75
		c-0.912,1.637-1.939,1.591-3.246,2.58c-1.32,0.998-1.889,2.763-3.675,2.941c-0.056-0.729,0.045-1.488-0.201-2.15"/>
	<path fill="none" stroke="#000000" stroke-linecap="round" stroke-linejoin="round" stroke-miterlimit="10" d="M231,138
		c0.664-1.023,0.189-2.563,0.871-3.666c0.667-1.081,1.982-1.414,2.296-2.667"/>
	<path fill="none" stroke="#000000" stroke-linecap="round" stroke-linejoin="round" stroke-miterlimit="10" d="M242.833,136
		c0.608,4.683-4.423-0.915-6.138-1.145c0.14,1.443-1.062,1.843-1.821,2.808c-0.722,0.917-1.191,2.138-1.745,3.133
		c-1.175,2.114-2,3.972-2.671,6.2c-1.467,4.867-3.19,10.071-3.101,15.146c0.314,0.017,0.487,0.193,0.781,0.22
		c1.044,3.568,0.326,7.847,0.528,11.638c0.105,1.98,0.828,3.788,1.009,5.658c0.195,2.02,0.072,3.941,0.658,5.842"/>
	<path fill="none" stroke="#000000" stroke-linecap="round" stroke-linejoin="round" stroke-miterlimit="10" d="M205.163,131.663
		c-2.229,0.55-3.819-0.508-5.8-0.974c-0.184,1.677,2.215,2.323,1.762,3.774c-0.308,0.986-2.834,2.428-3.661,2.997
		c-1.354,0.931-2.974,1.903-0.472,2.383c1.75,0.336,3.413-0.306,4.991-0.483c-0.896,2.111-2.436,3.462-1.616,5.791
		c2-1.411,6.51-2.115,7.475-4.809c0.565-1.578,0.171-3.203,0.992-4.841c0.608-1.212,2.554-3.94,0.951-5.055
		C208.567,129.598,206.349,131.37,205.163,131.663z"/>
	<path fill="none" stroke="#000000" stroke-linecap="round" stroke-linejoin="round" stroke-miterlimit="10" d="M213.333,138.5
		c-1.112,2.601-6.022,1.663-7.017,4.167c1.435,1.435,1.109,2.682,1.208,4.642c2.351,0.356,2.494-3.008,4.3-3.649
		c0.872-0.31,1.982,0.464,2.841,0.508c1.123,0.057,2.151-0.109,3.158-0.5c1.805-0.703,3.825-2.728,0.842-3.167
		c-1.032-0.152-2.31,0.289-3.295-0.038c-0.799-0.265-1.608-1.224-2.205-1.629L213.333,138.5z"/>
	<path fill="none" stroke="#000000" stroke-linecap="round" stroke-linejoin="round" stroke-miterlimit="10" d="M213.167,139.333
		c0.154-1.768,0.939-4.087,1.875-5.662c1.325-2.23,3.386-2.164,5.792-2.172"/>
	<path fill="none" stroke="#000000" stroke-linecap="round" stroke-linejoin="round" stroke-miterlimit="10" d="M209.333,130.5
		c0.744-0.567,0.955-1.042,1.833-1.35c0.537-0.188,7.204-0.624,9.5-0.317"/>
	<path fill="none" stroke="#000000" stroke-linecap="round" stroke-linejoin="round" stroke-miterlimit="10" d="M239,119.333
		c4.842,1.874,9.229-4.672,12.042-7.625c1.556-1.633,2.802-3.493,4.417-5.083c1.703-1.676,3.903-2.812,5.875-4.125
		c4.086-2.723,7.739-6.17,12.208-8.292c2.332-1.107,4.747-1.863,7.125-2.583c1.231-0.372,2.584-0.695,3.829-0.954
		c0.662-0.138,3.38-1.104,3.878-0.805c-0.053-0.032,0.413,0.137,0.392,0.134c-1.002,0.876,0.098,1.588,0.583,2.333
		c-0.739,0.743-2.787,0.254-3.85,0.463c-1.244,0.246-2.333,0.817-3.463,1.417c-2.125,1.126-4.367,2.079-6.496,3.158
		c-4.497,2.278-8.149,4.984-11.916,8.422c-3.125,2.852-7.001,5.236-9.417,8.753c-1.839,2.679-3.982,8.424-7.042,9.788"/>
	<path fill="none" stroke="#000000" stroke-linecap="round" stroke-linejoin="round" stroke-miterlimit="10" d="M295.667,88.667
		c2.953-0.131,4.807-1.688,6.963,1.374c1.358,1.928,2.287,4.442,2.371,6.792c0.117,3.305-2.175,4.19-3.791,6.509
		c-1.407,2.019-0.354,4.814-1.917,6.783c-0.88,1.109-1.912,0.958-2.45,2.05c-0.531,1.08-0.536,2.506-1.004,3.667
		c-0.932,2.31-2.989,3.997-3.709,6.288c-0.789,2.512-1.228,4.384-2.833,6.658c-1.492,2.113-3.169,3.608-5.175,5.171
		c-1.034,0.805-2.027,1.657-3.111,2.412c-0.968,0.673-2.239,0.986-3.135,1.667c-1.395,1.061-1.527,2.017-2.582,0.003
		c-0.574-1.095-0.958-2.315-1.329-3.541c-0.77-2.547-0.963-5.324-0.963-8c0-5.708,2.328-9.912,4.13-15.037
		c0.487-1.384,1.269-1.849,2.004-3.004c0.652-1.025,0.448-2.374,0.992-3.462c0.675-1.351,1.85-1.571,2.833-2.537
		c1.082-1.063,0.746-2.02,0.746-3.329c-0.001-2.439,1.469-3.041,3.296-4.296c0.718-0.494,1.502-1.023,1.674-1.996
		c0.327-1.844-1.043-2.938,1.263-3.995C291.735,88.019,293.782,88.75,295.667,88.667z"/>
	<path fill="none" stroke="#000000" stroke-linecap="round" stroke-linejoin="round" stroke-miterlimit="10" d="M298.333,88.333
		c0.557-1.064,1.373-2.455,1.333-3.667c-0.039-1.207-0.893-2.128-1.458-3.172c-0.661-1.22-0.826-2.25-1.205-3.499
		c-0.292-0.961-1.397-2.198-0.971-3.333c0.427-1.135,2.255-1.508,3.3-1.176c1.546,0.492,1.249,1.692,2.629,0.309
		c0.913-0.914,0.78-2.234,2.712-1.805c0.963,0.214,1.904,1.379,2.538,1.963c1.287,1.186,1.153,1.422,2.333,0.092
		c0.708-0.798,1.35-2.199,2.754-1.679c0.971,0.359,1.19,2.17,2.709,1.809c1.087-0.259,1.637-1.829,2.205-2.639
		c1.687-2.407,4.266-1.937,6.95-1.7c1.629,0.144,2.097-0.43,3.5-0.674c1.494-0.26,1.998,0.668,3.009,1.329
		c0.781,0.51,2.243,0.958,3.121,1.72c1.009,0.876,1.142,1.277,2.537,1.626c2.789,0.698,3.908,1.072,5.671,3.495
		c0.844,1.159,5.11,3.441,4,4.5c-1.18,1.125-6.308-0.099-7.833-0.166c-9.66-0.425-21.015-6.456-29.879,0.125
		c-1.78,1.321-6.11,4.978-6.313,7.349c-1.395-0.337-2.659-0.984-4.309-0.808L298.333,88.333L298.333,88.333z"/>
	<path fill="none" stroke="#000000" stroke-linecap="round" stroke-linejoin="round" stroke-miterlimit="10" d="M301.833,88
		c1.406,0,2.828-0.077,4.167,0.204c1.389,0.291,2.535,1.207,4.004,1.126c1.565-0.086,1.443-1.126,2.867-1.788
		c1.003-0.466,2.951-0.323,3.962-0.042c2.617,0.729,0.351,0.938-0.337,2.125c-0.752,1.297,0.415,2.012,1.509,2.536
		c2.558,1.226,4.62-0.499,6.995-1.625c1.862-0.882,5.429-2.861,7.342-1.25c0.921,0.776,2.537,5.031,4.325,5.379
		c3.621,0.706-0.318,3.899,0.875,6.462c0.916,1.969,3.592,2.709,4.917,4.583c0.88,1.244,0.863,2.237,1.208,3.621
		c0.306,1.224,3.872,8.092,4,10.833c0.129,2.771,0.142,5.547,0.003,8.337c-0.126,2.554-0.016,5.581-1.004,8.005
		c-1.804,4.426-10.111,17.712-12.662,16.486c-2.771-1.331,0.815-4.086,1.704-5.62c1.355-2.342,2.658-9.454,2.5-10.583
		c-0.15-1.076-1.859-4.216-1.875-5.458c-0.007-0.606,0.411-0.619,0.124-1.292c-0.206-0.482-1.064-0.578-1.34-1.038
		c-0.76-1.266,0.821-5.977-1.592-5.813c-0.057,0.989,0.24,2.95-0.813,3.52c-1.037,0.562-2.656-0.905-2.882-1.875
		c-0.302-1.295,0.765-2.304,0.337-3.679c-0.398-1.284-1.661-6.246-2.209-7.455c-0.49-1.08-7.781-5.518-8.125-7.037
		c-0.511-2.263,4.346-5.12,3.211-6.545c-0.503-0.633-3.035-0.283-3.707-0.117c-1.059,0.261-5.623,0.235-5.805-1.004
		c-0.227-1.543,0.843-1.704,1.263-2.871c0.982-2.723-3.717-2.635-5.629-2.629c-0.598,0.002-1.088,0.072-1.642,0.141
		c-0.12-0.603-0.011-1.299,0.121-1.816c-1.02-0.661-2.556-0.191-3.646-0.649c-1.198-0.503-1.685-1.356-2.333-2.509L301.833,88z"/>
	<path fill="none" stroke="#000000" stroke-linecap="round" stroke-linejoin="round" stroke-miterlimit="10" d="M230,183.667
		c0.55,2.349,1.381,4.681,2,7c0.686,2.567,3.565,17.889,4.371,23.166c0.574,3.762,1.248,7.145,1.321,10.975
		c2.497,0.459,4.922-2.429,6.809-3.679c2.239-1.483,4.856-2.192,7.133-3.671c2.281-1.483,4.133-3.712,6.357-5.329
		c2.34-1.702,4.786-3.419,7.338-4.755c3.785-1.981,7.578-4.162,11.504-6.041c2.233-1.069,4.509-2.053,6.842-2.833
		c1.961-0.656,4.254-1.836,6.325-1.833"/>
	<path fill="none" stroke="#000000" stroke-linecap="round" stroke-linejoin="round" stroke-miterlimit="10" d="M194.5,169.5
		c1.553,0.594,2.511,3.216,3.792,4.375c1.354,1.225,3.164,1.918,4.499,3.1c1.143-2.626,4.853-4.95,7.542-5.483
		c3.192-0.633,6.537-0.991,9.833-0.991"/>
	<path fill="none" stroke="#000000" stroke-linecap="round" stroke-linejoin="round" stroke-miterlimit="10" d="M193.333,171.333
		c1.18,1.237,1.997,2.866,3.375,4.125c1.538,1.406,1.709,2.01,1.6,4.179c-4.434,1.435-9.06,4.749-13.142,7.07
		c-4.303,2.447-7.015,6.295-10.508,9.592c-1.833,1.73-2.921,3.945-4.617,5.741c-2.121,2.245-3.851,3.095-3.684,6.433
		c0.929-0.184,1.987-0.176,2.951-0.333c0.075-1.482-0.166-2.26,0.85-3.34c0.995-1.059,2.457-1.585,3.549-2.589
		c0.917-0.843,1.655-1.9,2.671-2.67c0.999-0.756,2.244-1.134,3.288-1.867c2.401-1.685,3.053-4.478,5-6.378
		c1.045-1.02,2.516-1.64,3.657-2.505c1.116-0.845,13.835-6.619,18.462-4.579c2.06,0.908,4.417,2.026,6.334,3.329
		c1.007,0.684,1.953,1.552,3.009,2.167c1.352,0.787,10.069,8.538,11,13.292c0.498,2.544,1.488,5.116,1.87,7.667
		c0.423,2.83,0.756,5.637,1.038,8.5c0.304,3.091,0.987,6.222,0.963,9.333"/>
	<path fill="none" stroke="#000000" stroke-linecap="round" stroke-linejoin="round" stroke-miterlimit="10" d="M213.833,173.325
		c3.146-0.662,6.975-0.212,9.979,0.704c-0.537,1.895-0.085,4.596,0.017,6.638c0.068,1.38,1.612,5.163,0.337,6.016
		c-1.397-0.656-2.58-1.842-3.962-2.558c-1.512-0.784-3.102-1.178-4.705-1.745c-1.504-0.532-2.806-1.334-4.292-1.921
		c-2.153-0.85-6.364-0.725-3.724-4.008C208.903,174.685,211.698,173.774,213.833,173.325z"/>
	<path fill="none" stroke="#000000" stroke-linecap="round" stroke-linejoin="round" stroke-miterlimit="10" d="M149.334,167.333
		c-0.36-0.824-0.411-3.154,0.032-3.967c0.442-0.81,1.468-1.675,2.009-2.528c0.66-1.042,1.369-1.416,2.333-2.13
		c1.985-1.471,3.873-3.067,5.747-4.754c1.885-1.698,3.566-4.12,6.212-4.462c2.767-0.358,5.138,0.555,7.667,1
		c2.366,0.417,5.624,0.428,7.67,1.718c2.519,1.586,2.216,4.42,3.163,6.791c1.142,2.86,2.791-2.206,5.5-0.824
		c1.065,0.543,1.218,1.835,1.334,3.157c0.043,0.492-0.239,1.582-0.012,2c0.408,0.749,1.041,0.554,1.636,1.042
		c1.274,1.045,2.722,5.068,1.338,6.291c-0.721,0.637-2.604,0.101-3.629,0.204c-1.658,0.167-2.028-0.031-3.375-0.829
		c-1.957-1.16-5.365-1.096-7.297,0.167c-1.252,0.819-1.399,1.354-2.996,1.459c-1.371,0.089-2.597-0.113-3.825-0.342
		c-2.034-0.379-1.664-0.637-2.716-2.292c-0.661-1.038-1.659-1.668-2.583-2.408c-1.854-1.482-3.585-3.138-5.546-4.463
		c-1.596-1.078-1.92-1.197-3.041,0.341c-0.931,1.277-1.33,1.897-2.789,2.455C154.694,165.521,150.333,169.617,149.334,167.333z"/>
	<path fill="none" stroke="#000000" stroke-linecap="round" stroke-linejoin="round" stroke-miterlimit="10" d="M123.634,195
		c1.349-2.572,3.557-4.819,5.866-6.666c2.146-1.716,4.874-1.779,7.121-3.38c2.093-1.49,3.585-3.319,5.505-4.995
		c2.124-1.856,4.719-1.876,7.366-1.45c2.501,0.402,4.548,2.164,7.342,1.825c2.607-0.316,4.137-2.137,6.879-0.879
		c4.738,2.174,10.916-1.297,14.412,4.388c1.017,1.654,2.126,5.242,1.25,7.033c-0.873,1.785-3.291,3.385-4.583,4.913
		c-1,1.181-2.504,3.856-3.763,4.357c-0.069-1.809-1.986-2.417-3.362-2.854c-1.464-0.464-2.286-1.703-3.625-2.101
		c-0.872,0.779-1.254,1.895-2.376,2.438c-1.273,0.617-2.751-0.012-3.958,0.57c-1.166,0.563-1.785,1.604-3.171,2.004
		c-1.416,0.408-2.421,0.009-3.871-0.078c-1.428-0.085-2.215,0.327-3.491,0.712c-1.431,0.431-2.434,0.039-3.842-0.167
		c-1.641-0.241-2.223-0.206-3.454,0.667c-1.017,0.72-1.761,1.458-3.046,1.787c-3.705,0.95-6.764-0.056-10.038,2.329
		c-1.499,1.092-6.675,6.571-8.183,3.527c-0.84-1.697,0.919-5.501,1.571-7.081C121.167,199.522,122.439,197.276,123.634,195z"/>
	<path fill="none" stroke="#000000" stroke-linecap="round" stroke-linejoin="round" stroke-miterlimit="10" d="M157.833,207
		c-2.827-0.14-5.673-0.512-7.504,1.67c-1.648,1.964-3.41,4.114-3.829,6.663c-0.186,1.131-0.403,2.76-0.045,3.878
		c0.144,0.45,0.98,2.577,0.874,3.285c-0.166,1.113-0.268,2.875-0.821,3.837c-1.023,1.78-1.726,1.296-0.883,3.537
		c1.128,3.001-1.982,4.031-3.163,6.593c-0.948,2.059,0.38,5.076,1.996,6.579c1.042,0.969,0.733,4.59,0.542,5.958
		c-0.817,5.858,1.248,10.857,2.037,16.333c0.375,2.606,1.107,5.458,2.422,7.829c1.379,2.488,6.004,7.345,7.749,7.046
		c-0.019,0.003,1.624-0.453,1.462-0.362c0.561-0.318,1.073-0.429,1.176-1.184c0.05-0.371,1.043-5.237,1.53-6.33
		c1.307-2.931,6.628-10.744,6.625-14c-0.003-2.927,0.179-5.423,3.163-6.542c1.518-0.569,2.481-0.185,3.379-1.587
		c0.726-1.133,0.836-2.323,1.633-3.504c0.734-1.088,3.147-4.049,4.488-4.529c3.525-1.263,2.278-3.921,1.842-6.672
		c-0.596-3.76,3.026-3.657,4.662-6.167c1.623-2.491-1.006-5.174-0.046-7.666c0.405-1.049,1.288-1.749,1.921-2.626
		c1.116-1.547,0.472-1.474-0.083-3c-0.801-2.204,0.687-5.681-1.333-7.5c-0.544-0.49-1.635-0.925-2.329-1.005
		c-1.405-0.161-1.542,0.418-2.671,0.925c-1.561,0.701-3.974,0.269-5.663,0.5c-1.867,0.256-3.925,0.583-5.759,0.167
		c-0.8-0.182-1.458-0.809-2.195-0.966c-0.976-0.208-3.419,0.747-3.039-0.965C163.275,207.016,160.54,207.134,157.833,207z"/>
	<path fill="none" stroke="#000000" stroke-linecap="round" stroke-linejoin="round" stroke-miterlimit="10" d="M177,199.167
		c1.383,0.3,2.789,0.363,4.142,0.191c-0.65,3.167,4.975,0.93,4.526,1.808c-0.499,0.974-0.922,1.305-0.858,2.642
		c-1.527,0.089-1.969-0.811-1.984,1.2c-0.007,0.953,0.352,2.142,0.334,3.267c2.21-2.928,4.999,0.831,5.332,2.892
		c0.246,1.516-0.061,3.227,0.468,4.675c0.251,0.691,0.889,0.997,0.911,1.788c0.019,0.672-0.485,1.132-0.683,1.837
		c0.985,0.651,0.925,1.938,1.638,2.746c0.998,1.129,1.966,1.438,2.674,2.963c1.043,2.248,1.587,4.664,2.705,6.954
		c0.589,1.208,1.094,2.553,1.667,3.704c0.749,1.508,1.538,1.028,2.671,2.121c1.921,1.854,3.001,4.204,5.325,5.838
		c2.32,1.632,4.621,2.179,7.3,2.745c2.637,0.557,4.706,2.079,7.176,2.962c1.799,0.643,6.094,0.886,6.666-1.491
		c0.373-1.55-2.173-5.24-2.842-6.666c-1.185-2.525-1.96-4.521-2.625-7.18c-0.625-2.5-0.644-5.299-1.204-7.83
		c-0.499-2.254-2.086-4.407-3.296-6.341c-1.309-2.091-1.933-4.378-3.408-6.122c-0.954-1.128-1.013-2.006-1.508-3.533
		c-0.42-1.296-0.791-2.069-1.951-2.875c-1.051-0.73-2.587-1.205-3.304-2.337c-0.667-1.054-0.449-2.625-0.862-3.801
		c-0.825-2.35-2.431-3.976-3.963-5.862c-1.378-1.698-2.24-5.415-4.379-6.132c-2.009-0.673-4.722,0.333-6.837-0.001
		c-1.186-0.187-1.729-0.584-2.871-0.036c-0.74,0.355-1.829,1.308-2.625,1.833c-1.849,1.219-2.239,3.042-3.621,4.588
		c-1.37,1.532-3.379,2.4-4.713,3.954L177,199.167L177,199.167z"/>
	<path fill="none" stroke="#000000" stroke-linecap="round" stroke-linejoin="round" stroke-miterlimit="10" d="M231,227
		c0,10.738-3.262,20.239-7.167,30.009c-0.995,2.489-5.374,11.817-6.292,14.329c-0.841,2.304-3.93,12.292-4.505,14.996
		c-0.56,2.63-1.85,4.984-2.361,7.509c-0.513,2.532-0.864,5.259-1.888,7.621c-0.901,2.077-1.813,4.486-3.121,6.37
		c-1.09,1.57-1.158,1.166-2.676,0.501c-1.122-0.491-2.271-0.815-3.491-1.009c-1.42-0.227-2.25-0.61-3.5-1.158"/>
	<path fill="none" stroke="#000000" stroke-linecap="round" stroke-linejoin="round" stroke-miterlimit="10" d="M289.5,198.5
		C272.667,206,257,219,242,230c-3,2-3,7-4,10c0,1-11,27-14,40c-1,5-1,10-1.809,14.774c2.425-4.116,0.638-2.336,0,0
		C224,292,227,291,229,290c6-1,35-7,38-9c2-2,3-5,5-6c5-2,10-4,15.5-4"/>
	<path fill="none" stroke="#000000" stroke-linecap="round" stroke-linejoin="round" stroke-miterlimit="10" d="M291.333,196
		c1.142-0.496,2.116-0.079,3.129-0.37c0.468-0.134,0.531-0.788,1.371-0.8c0.6-0.009,1.284,0.622,1.841,0.816
		c0.484-0.692,1.547-2.183,2.497-2.271c1.461-0.135,0.645,1.688,0.824,2.958c0.43,3.048,3.475,3.468,6.004,4
		c1.128,0.237,2.988,0.396,2.67,1.833c-0.186,0.841-2.061,1.958-2.711,2.458c-0.755,0.58-2.035,1.176-2.421,2.079
		c-0.426,0.997-0.207,3.024-0.204,4.129c0.003,1.026-0.224,2.335,0,3.333c0.209,0.925,1.36,1.845,0.354,2.704
		c0.725,1.108,1.492,2.256,0.942,3.588c-0.487,1.179-2,1.636-2.262,2.87c-0.102,0.481,0.352,1.088,0.169,1.708
		c-0.189,0.639-0.663,0.771-0.995,1.339c-0.471,0.804-1.421,2.273-1.671,3.162c-0.292,1.035,0.476,2.347-0.241,3.597
		c-0.613,1.068-2.047,1.62-3.13,2.158c-1.489,0.74-1.993,0.823-2.708,2.208c-0.616,1.192-1.038,2.446-1.666,3.629
		c-1.198,2.257-2.38,4.599-3.412,6.908c-1.166,2.608-1.693,4.917-2.546,7.455c-1.997,5.937-6.73-6.801-7.204-8.622
		c-1.204-4.629-2.711-10.157-1.959-15.203c0.389-2.611,0.667-4.794,2.284-7.033c1.44-1.995,4.021-3.634,4.583-6.097
		c0.542-2.382-1.333-2.25-2.329-3.912c-1.053-1.756,0.57-2.963,1.417-4.455c0.589-1.039,0.635-1.596,1.546-2.378
		c0.596-0.512,1.292-0.857,1.871-1.414c1.222-1.175,3.521-3.948,3.459-5.697C290.765,198.731,288.596,197.189,291.333,196z"/>
	<path fill="none" stroke="#000000" stroke-linecap="round" stroke-linejoin="round" stroke-miterlimit="10" d="M291.667,195.833
		c1.586-1.68,1.552-5.146,1.333-7.333c-0.329-3.289-1.738-3.56-3.833-5.834c-2.098-2.277,0.036-4.644-1.537-6.795
		c-1.458-1.995-4.158-2.379-4.792-5.037c-1.316-5.517-3.463-9.762,0.037-15.13c0.667-1.022,1.735-1.578,2.504-2.5
		c0.868-1.039,1.123-2.301,1.464-3.537c0.571-2.07,0.807-1.557,2.62-2.037c1.382-0.366,1.615-1.48,2.745-2.087
		c2.408-1.295,3.657,2.52,4.255,4.292c0.391,1.159,0.443,2.645,1.08,3.662c0.643,1.028,1.888,1.464,2.295,2.667
		c0.881,2.606-0.529,5.26,0.955,7.883c0.218,0.387,0.75,1.167,1.083,1.45c0.687,0.584,0.889,0.299,1.628,0.667
		c1.324,0.66,1.485,1.063,1.334,2.504c-0.149,1.418-0.537,2.019-0.375,3.371c0.139,1.159,0.554,2.87,0.004,3.967
		c-1.111,2.22-4.808,1.905-4.467,4.829c0.17,1.458,1.202,1.589,0.375,3.208c-0.607,1.187-1.682,1.513-2.55,2.422
		c-1.838,1.925-1.976,4.253-1.487,6.699c0.112,0.56,0.277,1.122,0.479,1.638c-1.118,0.234-1.563-0.101-2.483,0.359
		c-0.904,0.452-0.644,1.466-2.167,0.675h-0.5V195.833z"/>
	<path fill="none" stroke="#000000" stroke-linecap="round" stroke-linejoin="round" stroke-miterlimit="10" d="M296.833,193.667
		c1.238,0.508,4.722-1.056,6.166-1.542c2.117-0.712,4.315-1.184,6.504-1.621c4.14-0.827,8.417-1.219,12.771-1.349
		c-0.466,0.581-0.268,1.306,0.208,1.811c-2.057-0.128-3.626,0.564-5.649,0.867c-1.774,0.266-3.735,0.407-5.496,0.829
		c-3.597,0.861-6.943,1.96-10.504,2.671"/>
	<path fill="none" stroke="#000000" stroke-linecap="round" stroke-linejoin="round" stroke-miterlimit="10" d="M321.2,185.18
		c0.652,1.413,1.665,1.265,2.967,1.654c1.199,0.358,2.119,1.07,3.333,1.504c0.559,0.199,1.247,0.153,1.8,0.533
		c0.477,0.327,0.694,1.089,1.192,1.304c1.13,0.488,2.833-0.296,3.999,0.164c2.849,1.124,1.156,3.923,2.217,5.954
		c0.7,1.341,1.73,1.52,1.17,3.083c-0.157,0.438-0.847,0.731-1.044,1.292c-0.211,0.602,0.065,1.494-0.034,2.129
		c-0.395,2.536-0.134,4.978-0.134,7.704c0,1.18,0.185,2.586-0.167,3.667c-0.37,1.135-1.322,2.246-1.875,3.292
		c-1.142,2.164-2.708,4.193-3.754,6.412c-0.554,1.176-0.82,2.56-1.413,3.759c-0.534,1.08-1.521,1.902-2,2.987
		c-1.68-2.865-1.85-4.691-2.125-7.95c-0.236-2.807-2.728-3.934-3.375-6.496c-0.448-1.775,1.105-2.126,1.041-3.67
		c-0.058-1.383-1.466-1.502-2.212-2.288c-0.974-1.027-0.856-2.158-0.788-3.546c0.03-0.607-0.07-1.309,0.162-1.837
		c0.301-0.689,0.806-0.701,1.217-1.288c2.082-2.973-1.205-4.225-1.379-6.874c-0.13-1.986,1.933-2.694,2.36-4.41
		C322.975,189.792,321.06,187.564,321.2,185.18z"/>
	<path fill="none" stroke="#000000" stroke-linecap="round" stroke-linejoin="round" stroke-miterlimit="10" d="M324.833,187.5
		c1.49-2.076-0.545-5.934,0.704-8.129c0.586-1.03,2.227-1.451,2.92-2.575c0.762-1.234,0.803-2.545,0.875-3.962
		c0.072-1.409-0.362-2.78-0.167-4.167c0.264-1.867,1.001-1.634,2.342-2.667c1.788-1.379,1.917-4.855,4.483-5.342
		c2.663-0.504,5.02,1.455,6.634,3.217c0.729,0.795,1.731,1.783,2.083,2.788c0.444,1.267-0.07,2.444-0.005,3.838
		c0.059,1.261,0.151,2.677,0.296,4c0.142,1.294,0.762,2.172,0.833,3.5c0.075,1.39-0.361,2.801-0.509,4.167
		c-0.216,2.001-0.576,1.933-2.454,2.546c-1.476,0.482-2.298,0.651-3.872,0.417c-1.171-0.174-2.837-0.945-4.008-0.809
		c-2.086,0.243-4.491,2.679-5.658,4.345L324.833,187.5z"/>
	<path fill="none" stroke="#000000" stroke-linecap="round" stroke-linejoin="round" stroke-miterlimit="10" d="M335.167,121.833
		c0.751-0.845,1.099-1.95,1.333-3"/>
	<path fill="none" stroke="#000000" stroke-linecap="round" stroke-linejoin="round" stroke-miterlimit="10" d="M287.789,275.875
		c1.425,1.332,3.551,4.208,5.253,2.999c1.521-1.081,4.275-4.135,3.593-6.008c-0.872-2.392-5.063-3.386-7.31-3.06
		c-1.507,0.219-2.033,0.953-2.648,2.35C285.867,273.998,286.354,274.534,287.789,275.875z"/>
	<path fill="none" stroke="#000000" stroke-linecap="round" stroke-linejoin="round" stroke-miterlimit="10" d="M296,272.333
		c1.639,1.362,3.707,1.834,5.441,2.879c-1.613,0.641-3.521-0.857-5.107-0.046"/>
	<path fill="none" stroke="#000000" stroke-linecap="round" stroke-linejoin="round" stroke-miterlimit="10" d="M216.5,307
		c0.136-1.948,1.093-5.363,2.375-6.963c2.452-3.062,1.642,4.27,3.663,0.167c0.647-1.314,0.844-1.366,2.459-1.708
		c1.205-0.255,2.132-0.578,3.212-1.121c1.717-0.863,4.256-3.247,6.266-2.85c-0.01,1.167-3.064,2.079-1.141,3.141"/>
	<path fill="none" stroke="#000000" stroke-linecap="round" stroke-linejoin="round" stroke-miterlimit="10" d="M228.667,299.833
		c0.003-0.988-0.125-1.996,0.333-2.833"/>
	<path fill="none" stroke="#000000" stroke-linecap="round" stroke-linejoin="round" stroke-miterlimit="10" d="M235.333,297.667
		c0.632-1.391-1.098-1.766-1.5-2.833"/>
	<path fill="none" stroke="#000000" stroke-linecap="round" stroke-linejoin="round" stroke-miterlimit="10" d="M237.667,297.667
		c-0.207-2.049,1.884-2.319,1.475-4.307c-0.681,0.207-1.749,0.436-2.309,0.307"/>
	<path fill="none" stroke="#000000" stroke-linecap="round" stroke-linejoin="round" stroke-miterlimit="10" d="M239.667,292.5
		c-1.607,1.841,2.077,3.904,1,5.667"/>
	<path fill="none" stroke="#000000" stroke-linecap="round" stroke-linejoin="round" stroke-miterlimit="10" d="M239.667,292.5
		c0.806-0.29,1.63-0.488,2.474-0.596c-1.066,0.637-0.088,1.841,0.692,2.266c0.878,0.478,2.147-0.029,2.167,1.33"/>
	<path fill="none" stroke="#000000" stroke-linecap="round" stroke-linejoin="round" stroke-miterlimit="10" d="M242.5,291.333
		c1.054,0,2.891-0.316,3.646,0.296c-1.096,0.521-2.268,2.425-0.813,3.204"/>
	<path fill="none" stroke="#000000" stroke-linecap="round" stroke-linejoin="round" stroke-miterlimit="10" d="M249.167,292.333
		c0.286-0.95,0.945-2.258-0.187-2.829c0.638-0.607,3.524-0.204,4.666-0.146c-0.075,0.694-0.237,1.417-0.312,2.142"/>
	<path fill="none" stroke="#000000" stroke-linecap="round" stroke-linejoin="round" stroke-miterlimit="10" d="M247.333,293.333
		c0.29-0.602,0.57-1.181,0.667-1.833"/>
	<path fill="none" stroke="#000000" stroke-linecap="round" stroke-linejoin="round" stroke-miterlimit="10" d="M256.5,291.667
		c0.167-1.004,0.953-3.06-0.667-3.333"/>
	<path fill="none" stroke="#000000" stroke-linecap="round" stroke-linejoin="round" stroke-miterlimit="10" d="M259.833,289.667
		c0.246-0.73,0.375-1.683-0.5-2"/>
	<path fill="none" stroke="#000000" stroke-linecap="round" stroke-linejoin="round" stroke-miterlimit="10" d="M257.333,287.667
		c2.425,0.009,3.15-0.102,5-1.5"/>
	<path fill="none" stroke="#000000" stroke-linecap="round" stroke-linejoin="round" stroke-miterlimit="10" d="M261.5,287
		c0.031,0.509,0.086,1.001,0.167,1.5"/>
	<path fill="none" stroke="#000000" stroke-linecap="round" stroke-linejoin="round" stroke-miterlimit="10" d="M265.333,287.833
		c0.701-2.698,0.597-3.977,3.045-5.792c1.826-1.354,3.492-2.437,5.451-3.5c1.98-1.075,10.601-7.234,12.504-5.208"/>
	<path fill="none" stroke="#000000" stroke-linecap="round" stroke-linejoin="round" stroke-miterlimit="10" d="M216.667,305.5
		c0.066,2.316-0.795,5.068-1.366,7.333c-0.668,2.652-1.044,5.14-1.458,7.834c-0.828,5.377-1.747,10.695-1.175,16.333
		c0.367,3.612-0.356,7.084-0.167,10.667c0.194,3.696-0.106,7.479-0.008,11.108c1.966-2.154,4.601-3.067,7.045-4.563
		c2.43-1.487,4.876-2.64,7.463-3.834c5.292-2.444,10.775-4.409,16-6.749c4.698-2.104,9.432-3.754,14.167-5.422
		c2.465-0.868,5.512-0.474,7.799-1.75c1.752-0.978,3.432-3.483,5.671-3.096c0.523,1.786,2.219,0.929,3.529,0.805"/>
	<path fill="none" stroke="#000000" stroke-linecap="round" stroke-linejoin="round" stroke-miterlimit="10" d="M273.667,337.667
		c-0.98,0.665-1.635-0.55-2.458-0.975c-0.555,1.388-1.885,0.929-2.885,1.466c-1.436,0.771-1.594,1.249-3.454,1.379
		c-2.18,0.152-4.921,1.179-6.912,2.088c-2.479,1.133-4.498,2.465-7.125,3.25c-2.561,0.766-5.111,1.695-7.504,2.833
		c-9.294,4.421-20.772,8.127-27.796,16.171c-1.044,1.196-1.905,2.108-2.2,3.621c-0.324,1.665-0.076,3.234,0.2,4.816
		c1.894-1.79,5.108-2.283,7.467-3.024c2.634-0.827,5.167-1.393,7.833-1.994c5.262-1.188,10.19-3.017,15.667-3.298
		c2.508-0.129,4.863-0.197,7.333-0.333c1.197-0.065,2.279,0.083,3.324-0.371c1.02-0.441,1.684-1.328,2.842-1.462"/>
	<path fill="none" stroke="#000000" stroke-linecap="round" stroke-linejoin="round" stroke-miterlimit="10" d="M292.5,317
		c-2.965-0.405-10.989,5-12.666,5.499c-0.802,0.239-5.829,5.549-6.001,8.501c-0.154,2.657-0.042,5.348-0.167,8
		c-0.124,2.611-0.562,5.465-0.5,8.167c0.041,1.766,2.577,4.529,4.492,4.846c2.105,0.348,5.048-2.062,6.676-3.138
		c2.236-1.478,4.275-3.031,6.341-4.838c3.798-3.322,9.012-5.616,13.362-8.157c1.067-0.624,1.981-1.852,2.958-2.346
		c1.142-0.578,2.834-0.145,4.045-0.826c2.05-1.155,3.306-3.423,4.756-5.245c1.72-2.162,2.45-4.13,4.74-5.755
		c2.33-1.652,3.295-3.934,0.996-6.086c-1.045-0.979-2.189-0.991-3.407-1.414c-1.207-0.419-5.205-1.896-6.325-2.833
		c-0.855-0.716-7.314-1.383-9.967-1.379c-1.277,0.001-2.623-0.064-4,0.004c-1.6,0.08-7.457-0.989-9.208-0.374
		c-1.036,0.364-4.053,0.685-4.675,1.658c-1.929,3.02,7.293,4.672,8.549,5.216L292.5,317L292.5,317z"/>
	<path fill="none" stroke="#000000" stroke-linecap="round" stroke-linejoin="round" stroke-miterlimit="10" d="M314,330
		c0.877,0.253,2.42,0.556,3.667,0.5c1.239-0.056,16.591,1.159,18.542,3.622c0.715,0.902,12.21,5.03,13.254,5.414
		c0.775,0.285,5.037-0.537,5.879,1.122c0.414,0.815-0.009,3.601-0.009,4.176"/>
	<path fill="none" stroke="#000000" stroke-linecap="round" stroke-linejoin="round" stroke-miterlimit="10" d="M309.833,333
		c0.726-0.001,0.904,0.554,1.492,0.675c0.656,0.136,1.501-0.01,2.175-0.008c1.388,0.004,2.599-0.169,4-0.167
		c2.735,0.003,5.483-0.284,8.129,0.204c2.171,0.399,4.128,2.118,6.2,3.005c2.361,1.01,4.471,2.313,6.963,3.166
		c1.915,0.654,3.815,1.57,5.699,2.134c1.417,0.423,5.526,0.892,5.175,2.491"/>
	<path fill="none" stroke="#000000" stroke-linecap="round" stroke-linejoin="round" stroke-miterlimit="10" d="M356.5,344.667
		c1.135-0.901,1.549-5.297,3.5-4.833c1.19,0.282,0.813,5.174-0.804,4.862c-0.289,0.714-0.193,1.51-0.196,2.304"/>
	<path fill="none" stroke="#000000" stroke-linecap="round" stroke-linejoin="round" stroke-miterlimit="10" d="M360,344.333
		c1.185,0.206,5.748-0.168,5.125,1.292c-0.258,0.605-1.659,1.141-2.162,1.699c-0.661,0.733-1.106,1.594-1.296,2.509"/>
	<path fill="none" stroke="#000000" stroke-linecap="round" stroke-linejoin="round" stroke-miterlimit="10" d="M317.167,333.333
		c0.382,1.501,0.333,3.212,0.333,4.834"/>
	<path fill="none" stroke="#000000" stroke-linecap="round" stroke-linejoin="round" stroke-miterlimit="10" d="M319.833,333.5
		c0,1.333,0,2.667,0,4"/>
	<path fill="none" stroke="#000000" stroke-linecap="round" stroke-linejoin="round" stroke-miterlimit="10" d="M323.333,334
		c0.083,0.153-0.563,1.873-0.976,1.858c-0.034,0.501-0.02,1.023,0.142,1.476"/>
	<path fill="none" stroke="#000000" stroke-linecap="round" stroke-linejoin="round" stroke-miterlimit="10" d="M324,338.204
		c2.042,1.506,3.263,3.717,3.87,6.092c0.564,2.207,1.346,5.78,0.255,8c-2.142,4.36-8.929,5.658-13.467,4.713
		c-4.427-0.923-5.066-8.102-3.925-11.556C312.199,341.015,319.205,334.668,324,338.204z"/>
	<path fill="none" stroke="#000000" stroke-linecap="round" stroke-linejoin="round" stroke-miterlimit="10" d="M349.843,344.676
		c2.323-0.717,5.318-0.566,7.328,0.95c3.917,2.957,5.867,7.039,6.996,11.541c0.621,2.475,0.272,5.24-0.958,7.541
		c-0.905,1.693-2.868,4.427-4.583,5.417c-1.981,1.145-5.245,0.497-7.421,0.171c-3.042-0.456-4.064-1.414-5.703-4.055
		c-1.733-2.793-3.146-5.531-3.676-8.732C340.859,351.665,344.404,346.355,349.843,344.676z"/>
	<path fill="none" stroke="#000000" stroke-linecap="round" stroke-linejoin="round" stroke-miterlimit="10" d="M289.292,369.041
		c1.228,2.501,3.311,3.94,6.208,2.922c4.071-1.431,3.312-6.932,0.703-9.397c-1.731-1.638-4.059-1.779-6.068-0.411
		C287.837,363.719,288.157,366.729,289.292,369.041z"/>
	<path fill="none" stroke="#000000" stroke-linecap="round" stroke-linejoin="round" stroke-miterlimit="10" d="M291.333,360.834
		c0.249-0.857,1.375-4.866,2.967-4.637c2.18,0.312,1.661,4.693,1.533,5.97"/>
	<path fill="none" stroke="#000000" stroke-linecap="round" stroke-linejoin="round" stroke-miterlimit="10" d="M296.167,360.334
		c2.735-1.355,1.542,3.44,1.667,4.5"/>
	<path fill="none" stroke="#000000" stroke-linecap="round" stroke-linejoin="round" stroke-miterlimit="10" d="M298,364.834
		c0.415,0.573,1.565,1.076,1.792,1.708c0.37,1.031-0.559,1.612-0.958,2.625"/>
	<path fill="none" stroke="#000000" stroke-linecap="round" stroke-linejoin="round" stroke-miterlimit="10" d="M291.333,361
		c-1.072-1.369-3.635-3.978-5.491-2.462c-1.896,1.547,1.852,3.652,2.657,5.129"/>
	<path fill="none" stroke="#000000" stroke-linecap="round" stroke-linejoin="round" stroke-miterlimit="10" d="M258.781,357.506
		c0.234,0.465,1.427,2.023,1.89,2.336c0.875,0.592,0.542,0.604,1.659,0.154c1.645-0.663,1.091-2.198,1.67-3.938
		c0.182,0.536,1.119,3.038,1.533,3.249c1.223,0.62,1.908-1.207,2.125-1.833c0.189,0.744,1.188,4.019,0.642,4.49
		c-0.36,0.313-1.915-0.222-2.466-0.133c-1.288,0.207-0.865,0.636-1.789,1.212c-0.673,0.42-1.389,0.16-2.044,0.456
		c-0.727,0.327-0.666,0.771-1.289,1.207c-1.106,0.771-2.961,1.316-4.197,1.425c1.634-0.144,0.959-3.561,1.225-4.221
		c0.265-0.657,0.846-0.862,1.009-1.82C258.892,359.242,258.548,358.357,258.781,357.506z"/>
	<path fill="none" stroke="#000000" stroke-linecap="round" stroke-linejoin="round" stroke-miterlimit="10" d="M268.167,359.5
		c5.51-0.003,11.072-0.167,16.667-0.167"/>
	<path fill="none" stroke="#000000" stroke-linecap="round" stroke-linejoin="round" stroke-miterlimit="10" d="M287.5,363
		c-1.804-1.545-8.039-0.333-10.667-0.333c-1.934,0-4-0.003-5.833,0.504c-0.467,0.129-0.834-0.018-1.308,0.196
		c-0.142,0.062-0.079,0.742-0.521,0.933c-0.771,0.333-1.974-0.012-2.808,0.226c-0.222,1.143-2.663,0.362-3.696,0.476
		c-1.374,0.149-2.274,0.816-3.629,1.037c-2.553,0.415-5.241,0.677-7.871,0.962c-1.196,0.13-12.669,2.097-15.334,2.659
		c-1.209,0.256-11.787,4.98-14.166,5.712c-2.446,0.752-4.997,1.641-7.333,2.63c-1.442,0.611-1.926,0.778-2.167,2.333
		c-0.213,1.375,0.233,2.839-0.167,4.171c-0.303,1.01-1.115,10.375-0.667,12.663c0.984,5.025,0.171,29.329,0.171,29.329
		c0.675,2.204,1.158,20.702,1.125,23.004c-0.036,2.525-0.115,4.889,0.496,7.333c1.099,4.396,5.437,8.861,7.153,12.967
		c1.139-2.908,1.783-4.85,3.226-7.596c1.299-2.474,11.539-17.349,12.616-19.742c1.732-3.849,11.437-11.11,12.847-12.17
		c1.167-0.877,2.903-2.212,3.366-3.626"/>
	<path fill="none" stroke="#000000" stroke-linecap="round" stroke-linejoin="round" stroke-miterlimit="10" d="M245.959,302.201
		c6.128,8.95-1.458,20.902-9.955,25.337c-4.469,2.333-10.421,1.113-13.716-2.833c-2.848-3.411-4.126-10.278-2.917-14.667
		C222.226,299.682,238.664,291.547,245.959,302.201z"/>
	<path fill="none" stroke="#000000" stroke-linecap="round" stroke-linejoin="round" stroke-miterlimit="10" d="M241.667,298.501
		c1.824-1.36,3.222-3.227,5.329-4.459c2.336-1.365,4.97-2.404,7.671-2.375c4.566,0.049,9.983,5.501,10.842,9.833
		c0.817,4.127-1.305,12.221-4.842,15.004c-3.846,3.026-10.938,3.619-15,1.329"/>
	<path fill="none" stroke="#000000" stroke-linecap="round" stroke-linejoin="round" stroke-miterlimit="10" d="M257.833,292.334
		c3.397-4.417,8.614-5.873,13.833-3.833c5.136,2.006,7.826,6.541,7.833,12c0.01,7.201-8.154,14.604-15.667,11.833"/>
	<path fill="none" stroke="#000000" stroke-linecap="round" stroke-linejoin="round" stroke-miterlimit="10" d="M168.375,334.547
		c1.82-2.301,3.978-4.631,6.333-6.338c4.769-3.454,9.582-1.772,13.996,1.413c4.263,3.077,7.571,5.862,7.63,11.379
		c0.051,4.846-3.385,8.908-6.622,12.366c-3.3,3.524-10.047,4.832-14.712,3.764c-5.594-1.281-7.341-6.812-7.833-11.76
		C166.836,342.044,166.162,337.345,168.375,334.547z"/>
	<path fill="none" stroke="#000000" stroke-linecap="round" stroke-linejoin="round" stroke-miterlimit="10" d="M139.167,337.501
		c1.508-2.046,2.553-3.717,4.622-5.366c1.914-1.525,4.332-3.099,6.582-4.097c5.447-2.417,10.006,0.13,13.796,4.093
		c1.242,1.299,2.043,3.08,3.167,4.204"/>
	<path fill="none" stroke="#000000" stroke-linecap="round" stroke-linejoin="round" stroke-miterlimit="10" d="M139.833,336.501
		c-3.281,3.053-0.947,11.471,0.454,14.871c2.382,5.78,7.467,7.463,13.38,7.463c2.899,0,5.948-0.271,8.333-1.82
		c1.917-1.245,5.75-4.189,6-6.514"/>
	<path fill="none" stroke="#000000" stroke-linecap="round" stroke-linejoin="round" stroke-miterlimit="10" d="M146.5,330.501
		c-1.626-1.312-3.224-5.149-3.471-7.116c0.912,1.275,4.488,5.933,5.642,2.45c0.791-2.387-0.964-5.389,2.175-6.692
		c1.236,1.617-0.523,2.41-0.553,3.988c-0.011,0.571,0.013,1.535,1.049,1.212c1.024-0.318,0.294-1.343,0.53-1.842
		c0.66-1.397,2.231-1.646,2.499,0.167c0.213,1.448-0.365,3.133-0.037,4.667"/>
	<path fill="none" stroke="#000000" stroke-linecap="round" stroke-linejoin="round" stroke-miterlimit="10" d="M154.667,324.835
		c-0.19,0.003,0.728,0.203,0.974,0.19c0.146,0.317-0.067,0.323-0.141,0.476"/>
	<path fill="none" stroke="#000000" stroke-linecap="round" stroke-linejoin="round" stroke-miterlimit="10" d="M155.833,327.168
		c0-3.156-0.542-5.977,0.362-8.975c2.102-0.415,1.966,4.133,2.621,5.283c-0.055,0.077-0.367,0.026-0.463,0.053
		c0.05,0.15,0.161,0.443,0.121,0.612c-0.447-0.137-0.905-0.21-1.424-0.307c0.564,0.026,1.117,0.199,1.555,0.486
		c-0.201,0.907,0.285,2.218-1.08,2.038c-0.102,0.465-0.041,1.005,0.141,1.308"/>
	<path fill="none" stroke="#000000" stroke-linecap="round" stroke-linejoin="round" stroke-miterlimit="10" d="M158.667,323.668
		c1.477,0,2.56,0.021,3.805-0.696c-0.03-0.729,0.576-4.153,1.87-3.645c0.885,0.35,0.108,3.445,0.018,4.147
		c2.088,0.105,4.5-0.297,6.474,0.192"/>
	<path fill="none" stroke="#000000" stroke-linecap="round" stroke-linejoin="round" stroke-miterlimit="10" d="M158.333,326.668
		c0.459-0.248,1.028-0.246,1.479-0.008c-0.108,0.382-0.139,0.959-0.312,1.341"/>
	<path fill="none" stroke="#000000" stroke-linecap="round" stroke-linejoin="round" stroke-miterlimit="10" d="M160.667,329.001
		c0.799-1.414,2.768-2.012,3.196-3.604c2.258,0.458,4.587,0.03,6.804,0.104"/>
	<path fill="none" stroke="#000000" stroke-linecap="round" stroke-linejoin="round" stroke-miterlimit="10" d="M169.833,325.668
		c2.078,0.017,6.786-1.734,5.667,1.833"/>
	<path fill="none" stroke="#000000" stroke-linecap="round" stroke-linejoin="round" stroke-miterlimit="10" d="M171.333,325.501
		c0.073-0.87-0.103-1.626-0.438-2.345c1.842,0.187,1.715-3.492,1.8-4.967c0.138,0.114,0.636,0.282,0.808,0.461
		c0.412-1.083-0.395-2.392,0.372-3.419c0.474,0.376,0.778,0.516,1.436,0.462c-0.468,1.909,0.219,3.791,0.33,5.615
		c-0.576-0.199-0.898-0.048-1.333,0.191c2.298,0.921,0.781,1.273,0.849,3.107c0.241-0.21,0.101-0.345,0.175-0.607"/>
	<path fill="none" stroke="#000000" stroke-linecap="round" stroke-linejoin="round" stroke-miterlimit="10" d="M175.5,323.668
		c0.432-0.471,1.085-1.459,1.292-2.05c0.321-0.914,0.315-0.753-0.104-1.921c1.15,0.046,1.17-3.567,1.336-4.675
		c2.333,0.062,1.021,3.48,1.458,4.814c-0.604,0.228-1.217,0.348-1.816,0.663"/>
	<path fill="none" stroke="#000000" stroke-linecap="round" stroke-linejoin="round" stroke-miterlimit="10" d="M178.333,320.335
		c0.047,2.552,1.984,3.272,2,5.666"/>
	<path fill="none" stroke="#000000" stroke-linecap="round" stroke-linejoin="round" stroke-miterlimit="10" d="M180.833,325.501
		c-0.024-1.222-0.206-2.395-0.141-3.641c2.277,0.487,0.734-1.175,1-2.334c1.246-0.294,2.726,1.036,1.658,2.106
		c0.635-0.015,1.139-0.123,1.788-0.104c0.424,0.919,0.381,1.929,0.338,2.954c-0.368-0.302-0.913-0.3-1.283-0.458
		c-0.044,0.869-0.025,1.763-0.025,2.642"/>
	<path fill="none" stroke="#000000" stroke-linecap="round" stroke-linejoin="round" stroke-miterlimit="10" d="M182.167,326.001
		c0-1.056,0-2.11,0-3.166"/>
	<path fill="none" stroke="#000000" stroke-linecap="round" stroke-linejoin="round" stroke-miterlimit="10" d="M185.5,323.335
		c1.601,0.608,4.051,0.247,5.812,0.362c-0.233,0.568-0.938,0.759-1.465,0.934c1.086-0.043,2.048,0.509,1.342,1.549
		c0.605,0.215,2.178-0.171,2.656,0.272c0.448,0.415,0.112,2.053,0.305,2.689c-0.271-0.108-0.848-0.019-1.125-0.115
		c0.077,0.441-0.128,1.008-0.051,1.448c-0.737,0.084-1.364-0.193-1.941-0.624c0.057,0.421-0.044,0.738,0.113,1.128
		c-1.216-1.287-1.791-0.845-1.813-2.979"/>
	<path fill="none" stroke="#000000" stroke-linecap="round" stroke-linejoin="round" stroke-miterlimit="10" d="M187.167,328.501
		c0.194-0.845-0.162-1.4-1-1"/>
	<path fill="none" stroke="#000000" stroke-linecap="round" stroke-linejoin="round" stroke-miterlimit="10" d="M194.333,326.501
		c0.951,0.088,1.584-0.264,2.467,0.043c0.617,0.214,1.257,0.906,1.996,1.16c1.389,0.478,2.941,1.116,4.342,1.608
		c0.61-2.483,2.127-14.17-1.472-14.312"/>
	<path fill="none" stroke="#000000" stroke-linecap="round" stroke-linejoin="round" stroke-miterlimit="10" d="M194,334.001
		c0.965-0.577,2.64-1.057,3.796-0.629c0.669,0.247,1.095,0.973,1.704,1.346c0.457,0.279,1.519,0.352,1.841,0.608
		c2.008,1.604,1.179,5.342,0.993,7.508c-0.491,5.722-1.375,11.164-2,16.843c-0.198,1.796-0.167,3.646-0.167,5.491"/>
	<path fill="none" stroke="#000000" stroke-linecap="round" stroke-linejoin="round" stroke-miterlimit="10" d="M161.5,300.334
		c1.752-1.694,3.541-3.433,5.833-4.667c0.999-0.538,2.053-1.502,3.167-1.667c1.487-0.221,3.941-0.851,5.333-1.166
		c5.533-1.251,8.822,1.936,13,5.333c1.784,1.451,3,3.119,4.5,4.833c1.624,1.855,2.329,2.745,3.955,4.542
		c1.578,1.744,2.942,3.752,3.836,5.954c0.512,1.259,0.086,2.418,0.672,3.374c0.705,1.15,1.716,1.315,1.87,2.963
		c0.089,0.965-0.138,2.267-0.191,3.309c-1.485,0.271-4.952-2.344-6.141-3.309c-0.804-0.653-1.85-1.342-2.463-2.203
		c-0.736-1.033-0.885-2.242-2.042-2.958c-0.972-0.602-2.212-0.62-3.203-1.464c-0.735-0.626-1.218-1.798-2.08-2.254
		c-1.568-0.83-5.498,0.808-6.379,0.046c-0.872-0.754-0.52-1.091-1.833-1.333c-0.906-0.167-5.151,0.623-6.501,0.334
		c-2.024-0.435-1.607-0.632-2.204-2.463c-0.161-0.493-1.06-2.602-1.763-2.336c-1.211,0.458,0.924,2.743,1.008,3.428
		c0.483,3.913-3.273,0.396-4.337-0.675c-1.126-1.131-4.869-3.182-4.678-4.762c1.867-0.227,3.962,0.408,5.975,0.308
		c1.1-0.055,5.489-0.667,2.813-2.329c1.836-1.526,0.42-3.635-1.646-3.67c-1.806-0.031-3.645,1.004-3.692,2.974
		c-0.866-0.147-1.785-0.156-2.642-0.308L161.5,300.334z"/>
	<path fill="none" stroke="#000000" stroke-linecap="round" stroke-linejoin="round" stroke-miterlimit="10" d="M168.667,300.834
		c-1.61-0.011-3.689-0.032-5.167-0.5"/>
	<path fill="none" stroke="#000000" stroke-linecap="round" stroke-linejoin="round" stroke-miterlimit="10" d="M125.195,314.169
		c-0.548,1.12-0.144,2.941-0.158,4.166c-0.03,2.444-2.008,4.454-3.704,6.296c-3.378,3.67-7.984,7.873-8,13.204
		c-0.002,0.611,0.401,1.341,0.133,1.967c-0.229,0.537-1.056,0.472-1.313,1.029c-0.396,0.862-0.065,3.48,0.208,4.309
		c0.399,0.229,1.076,0.676,1.508,0.657c0.452-0.018,1.095-0.883,1.458-0.815c0.912,0.167,1.764,2.254,2.046,3.017
		c0.949,2.562,1.203,5.205,1.797,7.838c0.678,3.006,1.691,4.707,4.328,6.333c2.451,1.512,3.873,3.343,5.459,5.672
		c1.392,2.044,3.326,3.583,5.541,4.532c0.919,0.394,2.978,1.311,4.009,0.805c1.039-0.511,0.75-2.464,0.695-3.509
		c-0.144-2.731-0.376-5.578-0.37-8.333c0.003-1.429-0.115-2.759-0.167-4.167c-0.058-1.559-0.5-2.246-0.875-3.663
		c-0.353-1.335,0.155-2.824-0.122-4.174c-0.232-1.134-0.851-2.048-1.041-3.293c-0.421-2.747,0.23-5.159,0.875-7.707
		c0.32-1.265,0.247-2.631,0.954-3.829c0.689-1.168,1.515-1.775,1.837-3.167c0.5-2.16,1.241-5.863-0.003-7.788
		c-2.819-4.359-4.125-9.459-6.322-14.184C131.743,309.094,126.203,312.109,125.195,314.169z"/>
	<path fill="none" stroke="#000000" stroke-linecap="round" stroke-linejoin="round" stroke-miterlimit="10" d="M133.333,309.167
		c4.129-2.988,9.479-4.108,14.17-5.505c2.224-0.662,4.826-0.556,6.959-1.699c2.461-1.318,4.113-1.629,7.037-1.629"/>
	<path fill="none" stroke="#000000" stroke-linecap="round" stroke-linejoin="round" stroke-miterlimit="10" d="M134.667,311.334
		c4.188-2.768,8.418-3.55,13.342-4.342c2.386-0.383,8.337-3.334,9.491-3.5c1.113-0.159,2.294,0.171,3.333-0.158"/>
	<path fill="none" stroke="#000000" stroke-linecap="round" stroke-linejoin="round" stroke-miterlimit="10" d="M127.333,312.001
		c-1.634,1.08-3.688,1.897-5.375,3.129c-1.568,1.146-3.004,2.548-4.505,3.829c-2.805,2.396-5.866,3.912-7.621,7.209"/>
	<path fill="none" stroke="#000000" stroke-linecap="round" stroke-linejoin="round" stroke-miterlimit="10" d="M111.5,327.668
		c1.975-2.361,3.941-4.587,6.325-6.704c2.182-1.938,4.637-5.448,7.509-6.13"/>
	<path fill="none" stroke="#000000" stroke-linecap="round" stroke-linejoin="round" stroke-miterlimit="10" d="M109.333,326.501
		c0.835-0.023,1.602-0.068,2.308,0.361c0.945,2.743-0.301,6.916-0.975,9.472c-0.199,0.753-0.1,1.273-0.534,1.954
		c-0.556,0.872-1.202,1.006-1.466,2.046c-0.284,1.119-0.157,4.595,1.305,4.363c0.577,1.431,0.272,3.889,0.195,5.471
		c-0.094,1.934-0.29,3.746-0.296,5.629c-0.01,3.297-1.273,7.467-0.391,11.004c-0.491,0.174-0.569,0.553-0.913,0.826
		c0.638,0.843,1.646,1.737,1.937,2.707c0.377,1.257-0.308,2.729-0.142,3.971c1.307,0.604,1.039,1.723,0.98,2.863
		c-0.07,1.368-0.001,2.733,0.157,4.162c0.305,2.755,1.382,5.178,2.625,7.667c0.843,1.688,3.196,4.605,3.217,6.495
		c0.036,3.287-4.006-0.285-5.222-1.117c-2.178-1.49-3.414-2.79-6.121-2.874c-1.743-0.054-3.898-3.772-4.459-4.879
		c-1.035-2.041-2.556-4.107-3.536-6.459c-0.489-1.173-0.989-2.25-2.167-2.87c-0.783-0.411-1.216-0.069-1.666-0.793
		c-0.367-0.589-0.132-1.498-0.172-2.165c-0.326-5.416,0.795-10.7,2.339-15.829c0.778-2.585,2.051-4.563,3.37-6.968
		c1.346-2.452,1.711-4.455,1.958-7.204c0.268-2.981-0.553-8.02,0.709-10.624c1.054-2.177,7.633-5.182,6.625-7.542L109.333,326.501z"
		/>
	<path fill="none" stroke="#000000" stroke-linecap="round" stroke-linejoin="round" stroke-miterlimit="10" d="M200.167,363.667
		c1.108,2.587,1.212,17.755,0.808,20.975c-0.759,0.122-2.083,0.083-2.808-0.141c-1.189-0.367-5.734-1.877-7.521-2.938
		c0.322,0.577,0.494,1.124,0.521,1.771"/>
	<path fill="none" stroke="#000000" stroke-linecap="round" stroke-linejoin="round" stroke-miterlimit="10" d="M190.833,381.501
		c-1.691,0.334-1.747,3.206-1.809,4.808c1.473-0.618,4.983,1.631,6.471,2.646c2.005,1.37,5.285,3.232,4.717,5.717
		c-0.127,0.557-1.813,8.397-2.05,8.995c-0.235,0.594-0.751,4.521-0.83,5.834c-0.251,4.167,0.581,16.848,0.996,18.838
		c0.19,0.911,1.22,5.804-1.329,4.328"/>
	<path fill="none" stroke="#000000" stroke-linecap="round" stroke-linejoin="round" stroke-miterlimit="10" d="M157.509,385.997
		c4.743-2.11,10.136-0.949,14.648,1.216c2.093,1.005,4.276,1.947,5.976,3.667c1.816,1.837,2.221,4.833,2.367,7.287
		c0.312,5.239-1.14,10.414-5.545,13.625c-3.811,2.777-8.973,5.684-13.797,3.876c-4.449-1.668-9.107-4.333-10.328-9.167
		c-0.981-3.884-3.237-7.894-1.793-11.846C150.455,390.772,153.778,387.657,157.509,385.997z"/>
	<path fill="none" stroke="#000000" stroke-linecap="round" stroke-linejoin="round" stroke-miterlimit="10" d="M139.167,389.668
		c-0.624-1.306,2.181-4.105,3.125-5.041c1.716-1.698,4.196-2.648,6.375-3.247c4.648-1.278,7.985,1.053,11.667,3.621"/>
	<path fill="none" stroke="#000000" stroke-linecap="round" stroke-linejoin="round" stroke-miterlimit="10" d="M143.333,384.168
		c0.919-1.493-1.917-4.14-2.771-5.347c2.603-0.231,3.542,1.854,4.604,3.68"/>
	<path fill="none" stroke="#000000" stroke-linecap="round" stroke-linejoin="round" stroke-miterlimit="10" d="M146.833,381.668
		c0-2.756-0.233-5.382,0.029-8.117c1.523,1.776,2.821,3.526,3.333,5.754c1.944,0.043,3.173-2.588,2.813-4.312
		c-0.315-1.511-2.344-3.669-1.805-5.287c1.294-3.884,6.013,5.512,6.63,6.312c0.484-0.561,0.746-4.062,2.341-3.693
		c0.991,0.229,1.25,3.994,1.351,4.819c1.019,0.033,1.411-1.371,1.982-2.082c-0.015,0.987,0.242,2.328-0.004,3.277
		c-0.242,0.937-1.12,1.619-1.509,2.491c-0.119,0.269-0.454,0.946-0.462,1.213c-0.011,0.38,0.691,0.644,0.645,0.955
		c-0.105,0.715-1.124,1.664-1.512,2.337"/>
	<path fill="none" stroke="#000000" stroke-linecap="round" stroke-linejoin="round" stroke-miterlimit="10" d="M162.167,382.668
		c0.5,0,1,0,1.5,0"/>
	<path fill="none" stroke="#000000" stroke-linecap="round" stroke-linejoin="round" stroke-miterlimit="10" d="M163.667,384.501
		c0.019-2.769,2.644-5.385,4.837-6.982c0.564,1.218-0.818,2.268-1.212,3.309c-0.491,1.302-0.292,2.779-0.792,4.008"/>
	<path fill="none" stroke="#000000" stroke-linecap="round" stroke-linejoin="round" stroke-miterlimit="10" d="M167.5,385.001
		c-0.808-0.991,2.815-3.442,3.971-3.812c-0.096,1.274,0.5,1.735,0.857,2.808c0.362,1.086,0.096,1.806-0.329,3.004"/>
	<path fill="none" stroke="#000000" stroke-linecap="round" stroke-linejoin="round" stroke-miterlimit="10" d="M172.333,385.168
		c0.569-1.496,2.196-1.267,3.3-2.046c1.11-0.784,1.257-2.096,2.079-2.908c1.499-1.48,1.489,0.083,1.75,1.491
		c0.271,1.459,0.87,2.882,0.704,4.463"/>
	<path fill="none" stroke="#000000" stroke-linecap="round" stroke-linejoin="round" stroke-miterlimit="10" d="M175.5,388.501
		c1.285-1.503,1.501-3.566,0.667-5.167"/>
	<path fill="none" stroke="#000000" stroke-linecap="round" stroke-linejoin="round" stroke-miterlimit="10" d="M174,380.168
		c0.173-1.567,3.535-0.902,4.5-0.334"/>
	<path fill="none" stroke="#000000" stroke-linecap="round" stroke-linejoin="round" stroke-miterlimit="10" d="M180,383.668
		c1.055-1.343,2.885-4.552,4.471-5.146c0.11,1.343-0.514,2.499-0.675,3.812c-0.18,1.469,0.198,2.792,0.204,4.334"/>
	<path fill="none" stroke="#000000" stroke-linecap="round" stroke-linejoin="round" stroke-miterlimit="10" d="M184.833,381.001
		c1.196-0.408,2.392-0.782,3.34-1.609c-0.266,1.169-1.021,2.186-1.007,3.442"/>
	<path fill="none" stroke="#000000" stroke-linecap="round" stroke-linejoin="round" stroke-miterlimit="10" d="M188.833,387.001
		c-1.605,1.037-3.997,0.341-3.68-2.009c0.255-1.895,2.415-2.563,4.013-2.658"/>
	<path fill="none" stroke="#000000" stroke-linecap="round" stroke-linejoin="round" stroke-miterlimit="10" d="M175.5,389.001
		c1.527-2.748,3.435-2.5,6.5-2.5c2.854,0,4.544,0.478,6.829,2.208c1.729,1.31,3.651,2.877,4.712,4.75
		c1.159,2.047,1.008,5,1.125,7.375c0.257,5.214-1.127,9.621-4.834,13.329c-3.445,3.447-10.752,3.674-14.5,0.638
		c-0.671-0.544-1.606-1.494-1.833-2.3"/>
	<path fill="none" stroke="#000000" stroke-linecap="round" stroke-linejoin="round" stroke-miterlimit="10" d="M139.833,406.501
		c2.19,1.152,3.521,3.536,5.699,4.792c2.869,1.654,5.983,0.766,9.134,0.875"/>
	<path fill="none" stroke="#000000" stroke-linecap="round" stroke-linejoin="round" stroke-miterlimit="10" d="M130.5,386.168
		c1.273-1.396,3.71-0.607,4.879,0.454c1.432,1.301,2.466,2.045,4.287,2.878c3.815,1.747,5.29,5.337,8.333,8.001"/>
	<path fill="none" stroke="#000000" stroke-linecap="round" stroke-linejoin="round" stroke-miterlimit="10" d="M131,385.834
		c-0.919,0.699-2.265,0.549-3.208,1.292c-0.835,0.658-1.417,1.987-1.838,2.866c-1.085,2.266-2.579,4.699-1.083,6.999
		c0.639,0.982,2.498,1.854,1.628,3.018c-1.222,1.635-2.251-0.783-3.333-0.854c-2.413-0.157-2.395,4.934-2.129,6.475
		c0.517,3.003,3.629,5.279,5.963,7.038c1.274,0.96,2.479,1.602,4.004,1.829c0.683,0.103,1.451,0.335,2.13-0.029
		c0.679-0.364,0.466-1.119,1.329-1.278c0.796,2.315,6.723,10.197,9.387,7.312c-2.139-1.515-3.9-4.969-4.016-7.5
		c-0.138-3.013-0.702-6.995,0.529-9.638c1.86-0.037,4.576,1.345,6.471,1.934c2.054,0.638,2.876,2.418,4.833,3.204"/>
	<path fill="none" stroke="#000000" stroke-linecap="round" stroke-linejoin="round" stroke-miterlimit="10" d="M124.991,423.325
		c-1.749,0.518-5.104,2.281-5.491,3.842c-0.434,1.753,1.661,5.589,2.792,6.876c2.071,2.354,4.677,0.729,7.378,1.291
		c1.913,0.397,3.726,1.377,5.454,2.15c0.723-1.408,0.508-2.928,0.533-4.492c0.016-0.976,0.068-1.184-0.329-2.125
		c-0.254-0.604-0.709-0.957-0.82-1.7c-0.304-2.039,1.066-1.655,1.621-3.037c0.345-0.857,0.4-2.557,0.065-3.421
		c-0.695-1.79-1.256-0.809-2.906-0.677c-1.204,0.097-2.268-0.514-3.454-0.542C127.892,421.441,126.754,422.803,124.991,423.325z"/>
	<path fill="none" stroke="#000000" stroke-linecap="round" stroke-linejoin="round" stroke-miterlimit="10" d="M97.333,428.985
		c-1.447,0.838-3.043,1.38-4.462,2.053c-0.86,0.408-3.157,1.649-4.33,1.671c-0.9,0.016-2.664-1.239-3.875-1.541
		c-1.572-0.392-3.255-1.289-3.812-2.971c1.991-0.188,6.196-3.213,2.646-4.197c-2.34-0.648-5.38-0.498-5.671-3.666
		c-0.079-0.86,0.157-3.027,0.625-3.702c0.679-0.979,1.892-1.124,2.669-2.307c0.536-0.815,1.56-1.881,1.675-2.791
		c0.175-1.383-1.036-1.636,0.529-2.907c1.888-1.534,4.873-1.483,7.042-2.257c1.36-0.484,2.136-0.855,3.63-0.693
		c1.653,0.18,1.5,0.174,2.875-0.635c2.118-1.244,4.873-1.795,7.291-1.077c1.735,0.516,1.36,1.08,2.122,2.535
		c0.565,1.08,1.515,1.498,2.503,2.043c1.332,0.733,3.248,1.625,3.838,3.162c1.007,2.624-2.028,2.809-3.467,3.62
		c-0.102,0.058-0.551,0.667-0.82,0.852c-0.337,0.231-1.033,0.065-1.388,0.445c-0.743,0.794-0.202,1.736-0.454,2.712
		c-0.313,1.215-0.973,1.077-1.5,2.001c-0.388,0.68-0.625,2.514,0.308,2.695c0.165,1.396-1.579,2.145-2.475,2.646
		c-0.28,0.156-0.456-0.358-0.8-0.141c-0.308,0.196-0.123,0.562-0.408,0.79c-0.522,0.417-0.605,1.043-1.279,1.297
		c0.86,0.264,4.667,0.911,4.632,2.216c-0.035,1.339-2.812,2.347-3.873,2.123C99.055,432.526,98.739,430.052,97.333,428.985z"/>
	<path fill="none" stroke="#000000" stroke-linecap="round" stroke-linejoin="round" stroke-miterlimit="10" d="M140.63,426.63
		c-0.883,1.25-1.114,2.713-2,4.028c-0.803,1.191-1.482,2.254-2.445,3.309c2.6-0.382,4.533,0.024,6.691-1.592
		c2.216-1.658,3.956-3.236,6.774-2.684c-2.241,4.127-0.269,8.836,2.484,12.15c1.156,1.393,4.486,4.235,4.7,0.491
		c0.115-2.017-1.574-4.82,0.991-6.02c1.553,0.703,0.573,5.559,0.48,7.156c-0.23,0.056-0.384,0.168-0.612,0.229
		c0.755,2.26,2.962,4.191,4.178,6.26c1.396,2.373,2.022,4.804,2.296,7.541c0.229,2.283,0.256,5.85-1.042,7.787
		c-0.702,1.048-2.167,1.432-2.799,2.5c-0.404,0.682-0.446,2.641,0.5,3.054c1.544,0.675,4.898-3.51,5.845-4.643
		c1.454-1.737,2.794-4.082,3.955-6.073c2.676-4.595,0.742-10.995-0.329-15.755c-0.997-4.431-3.296-9.014-6.255-12.736
		c-1.483-1.866-3.052-3.532-4.708-5.301c-1.881-2.01-3.93-3.056-6.129-4.713c-0.373-0.281-0.906-0.872-1.371-0.954
		c-0.724-0.129-1.066,0.571-1.496,0.512c-0.607-0.084-0.651-0.813-1.339-0.974c-1.819-0.422-2.667,2.486-4.003,3.417
		C143.556,424.625,141.684,425.137,140.63,426.63z"/>
	<path fill="none" stroke="#000000" stroke-linecap="round" stroke-linejoin="round" stroke-miterlimit="10" d="M172.923,431.622
		c1.145,1.331,3.799,5.446,5.719,5.021c0.404-1.758,1.255-2.674,0.696-4.351c-0.315-0.944-0.612-1.086-0.504-2.291
		c0.076-0.846,0.143-1.745,0.191-2.651c0.653,0.302,1.423,0.336,2.079,0.495c-1.91-1.471-6.108-8.352-8.133-2.541
		c-1.748-0.206-2.358-0.896-4.281-0.329c-0.113-0.717-0.66-1.216-1.336-1.456c0.108,0.972,1.006,3.081,1.502,3.971
		C169.72,429.034,171.754,430.264,172.923,431.622z"/>
	<path fill="none" stroke="#000000" stroke-linecap="round" stroke-linejoin="round" stroke-miterlimit="10" d="M180,426.668
		c2.592,2.281,5.843,2.132,8.833,3.334c2.944,1.182,5.135,2.619,8.5,2.832"/>
	<path fill="none" stroke="#000000" stroke-linecap="round" stroke-linejoin="round" stroke-miterlimit="10" d="M143.667,420.167
		c1.861,1.623,5.176-0.168,7.167-0.166c2.23,0.002,4.787,1.115,7,1.537c2.608,0.497,5.275,0.936,7.842,1.454
		c2.427,0.491,4.76,0.357,6.991,1.342"/>
	<path fill="none" stroke="#000000" stroke-linecap="round" stroke-linejoin="round" stroke-miterlimit="10" d="M159.667,426.334
		c3.793,0,6.624,0.778,10,1.833"/>
	<path fill="none" stroke="#000000" stroke-linecap="round" stroke-linejoin="round" stroke-miterlimit="10" d="M136.333,424.501
		c1.909,0.471,4.302,0.333,6.333,0.333"/>
	<path fill="none" stroke="#000000" stroke-linecap="round" stroke-linejoin="round" stroke-miterlimit="10" d="M135,421.667
		c1.588,0.104,3.303-0.333,5-0.333c1.592,0,3.408,0.103,4.833-0.5"/>
	<path fill="none" stroke="#000000" stroke-linecap="round" stroke-linejoin="round" stroke-miterlimit="10" d="M121,425.167
		c-2.694,0.317-5.348,1.241-8.167,2.131c-2.539,0.801-6.009,1.358-8,3.036"/>
	<path fill="none" stroke="#000000" stroke-linecap="round" stroke-linejoin="round" stroke-miterlimit="10" d="M100.333,433.167
		c-0.943,0.943-2.322,2.178-2.667,3.5"/>
	<path fill="none" stroke="#000000" stroke-linecap="round" stroke-linejoin="round" stroke-miterlimit="10" d="M108.833,435.501
		c1.139-3.266,7.544-6.436,11-6.167"/>
	<path fill="none" stroke="#000000" stroke-linecap="round" stroke-linejoin="round" stroke-miterlimit="10" d="M97.297,436.87
		c-1.343-0.478-2.168-0.999-3.422-1.744c-1.848-1.098-5.6-1.743-7.166,0.246c-0.865,1.099-0.54,2.699-0.412,3.962
		c0.176,1.745,0.084,2.112-1.009,3.454c-1.914,2.349-2.703,4.962-1.745,7.874c0.241,0.731,0.722,0.668,0.67,1.505
		c-0.035,0.55-0.587,1.104-0.837,1.541c-0.584,1.024-1.381,1.889-1.008,3.256c0.182,0.664,0.862,0.989,0.966,1.703
		c0.083,0.573-0.275,1.255-0.332,1.834c-0.129,1.305-0.009,2.778,0.171,3.991c0.385,2.593,1.141,5.205,2.032,7.671
		c0.974,2.692,1.107,5.234,0.963,8.171c-0.062,1.258-0.031,2.634-0.333,3.833c-0.391,1.553-1.538,1.452-2.004,2.834
		c-0.276,0.818-0.211,3.42,0.18,4.166c0.742,1.413,1.995,0.697,3.324,0.158c0.882-0.357,2.199-1.306,3.045-0.666
		c0.66,0.498,0.85,2.371,1.496,3.134c1.634,1.928,3.57,2.602,4.301,5.208c0.348,1.238,0.222,2.891,1.783,1.791
		c0.792-0.558,1.406-2.075,1.545-2.958c0.375-2.395-1.957-4.453-3.504-6c-2.493-2.492-1.492-3.809-1.333-7
		c0.134-2.699-0.872-4.834-1.333-7.333c-0.228-1.232-0.237-2.548-0.491-3.843c-0.297-1.515-1.393-1.793-2.134-2.866
		c-1.089-1.578-0.277-1.973,1.292-2.125c1.521-0.148,2.104,0.037,3.208-1.121c3.349-3.514,4.262-9.903,2.458-14.379
		c-0.99-2.457-4.482-4.887-3.001-7.331C96.301,443.136,103.618,439.117,97.297,436.87z"/>
	<path fill="none" stroke="#000000" stroke-linecap="round" stroke-linejoin="round" stroke-miterlimit="10" d="M102.959,435.501
		c1.716-1.166,3.353-1.03,4.87,0.354c1.746-1.908,5.185-0.324,6.801,1.18c1.925,1.791,3.202,3.605,3.574,6.133
		c0.194,1.319,0.2,2.799,0.129,4.167c-0.086,1.668,0.321,2.037,0.796,3.5c0.925,2.849-0.502,4.5-2.004,6.658
		c-0.677,0.974-1.662,1.785-1.996,2.675c-0.42,1.12-0.307,2.838-0.472,3.991c-0.333,2.343-0.315,5.478-2.196,6.972
		c-1.268,1.006-1.295,0.841-1.295,2.871c0,1.427-0.08,2.77-0.204,4.166c-0.192,2.165,0.629,6.037-1.792,6.875
		c-3.944,1.364-8.074-8.299-9.171-11.05c-0.905-2.27-2.878-5.128-3.166-7.491c-0.302-2.48,1.608-4.771,1.833-7.167
		c0.174-1.852-0.396-3.404-0.504-5.167c-0.107-1.762-0.04-3.608-0.126-5.333c-0.083-1.671-0.289-3.669-0.046-5.333
		C98.328,441.191,100.997,436.835,102.959,435.501z"/>
	<path fill="none" stroke="#000000" stroke-linecap="round" stroke-linejoin="round" stroke-miterlimit="10" d="M179.667,433.001
		c1.946-0.169,4.964,1.076,6.704,1.791c2.425,0.997,4.869,2.159,7.292,3.079c0.885,0.336,3.083,0.987,3.678,1.755
		c0.649,0.838,0.37,2.772,0.493,3.875c0.306,2.756,0.966,5.314,1.462,8c0.903,4.888,1.03,9.908,2.042,14.666
		c0.51,2.399,1.834,4.636,2.199,7c0.304,1.974,1.894,4.774,1.796,6.334"/>
	<path fill="none" stroke="#000000" stroke-linecap="round" stroke-linejoin="round" stroke-miterlimit="10" d="M250.33,425.501
		c-0.248-1.622,1.079-0.949,1.715-1.787c0.706-0.931,0.377-3.724,0.317-5.023c1.703,0.247,3.26,1.21,4.921,1.482
		c-2.283,0.241-2.765,0.594-3.121,2.823c-0.145,0.907-0.161,3.446-1,4.036C252.382,427.581,250.492,426.565,250.33,425.501z"/>
	<path fill="none" stroke="#000000" stroke-linecap="round" stroke-linejoin="round" stroke-miterlimit="10" d="M257.333,420.168
		c1.933-0.013,1.57-0.286,2.7-1.5c0.867-0.931,2.093-1.212,3.3-1.334c2.247-0.227,4.516-0.797,5.833-3
		c0.751-1.258,0.314-2.217,1.833-2.963c0.581-0.285,1.075-0.028,1.667-0.407c0.478-0.307,0.95-1.185,1.333-1.63
		c1.206-1.396,4.005-3.775,5.809-3.975c0.088,1.642-1.941,2.293-2.771,3.475c-0.883,1.257-1.063,2.612-2.245,3.793
		c-2.047,2.043-4.448,3.901-6.292,6.207"/>
	<path fill="none" stroke="#000000" stroke-linecap="round" stroke-linejoin="round" stroke-miterlimit="10" d="M269.833,412.501
		c-0.324-0.797-1.229-0.215-1.8-0.871c-0.522-0.601,0.204-1.439-0.705-1.945c-1.785,2.303-3.834,2.471-6.474,1.626
		c0.459-1.139,2.851-4.729,4.183-5.104c2.065-0.58,1.627,1.548,2.663,1.762c0.754,0.155,2.197-1.735,2.759-2.174
		c0.603-0.469,2.098-2.38,2.841-1.795c0.681,0.536,0.082,1.166,0.08,1.707c-0.003,0.726,0.162,1.2,0.25,1.666
		c0.127,0.675,0.539,0.424,0.337,1.251c-0.078,0.316-0.982,1.127-1.259,1.42c-0.35,0.372-0.479,0.843-0.867,1.134
		c-0.564,0.426-1.451-0.089-1.808,0.988c-0.044,0.109-0.055,0.222-0.033,0.337"/>
	<path fill="none" stroke="#000000" stroke-linecap="round" stroke-linejoin="round" stroke-miterlimit="10" d="M264.659,418.372
		c-0.917,0.682-0.438,2.088-1.15,2.803c-0.173,0.174-1.151,0.076-1.512,0.321c-0.288,0.196-0.61,0.761-0.792,1.042
		c-0.515,0.792-1.034,1.969-0.846,2.938c0.839,0.314,1.797,0.375,2.614,0.72c0.408,1.132-0.577,2.804,1.371,2.017
		c1.209-0.488,1.536-1.747,1.658-2.878c0.198-1.842-0.208-2.232,1.333-2.999c1.098-0.546,1.767-0.119,1.758-1.813
		c-0.007-1.4-0.761-1.938-2.187-1.432C266.652,418.09,265.481,417.761,264.659,418.372z"/>
	<path fill="none" stroke="#000000" stroke-linecap="round" stroke-linejoin="round" stroke-miterlimit="10" d="M260.667,425.667
		c-2.663,3.171-8.576,4.564-11.208,9c-1.579,2.662-3.992,4.771-5.629,7.343c-1.414,2.221-10.808,15.689-13.701,20.148
		c-2.791,4.301-4.795,8.187-7.125,12.667c-0.595,1.145-0.989,2.356-0.504,3.676"/>
	<path fill="none" stroke="#000000" stroke-linecap="round" stroke-linejoin="round" stroke-miterlimit="10" d="M207.991,478.992
		c2.701-0.404,5.636-0.13,8.342,0.009c2.353,0.12,5.827-1.244,7.708,0.126c2.018,1.47,2.244,3.921,4.784,4.55
		c5.431,1.347,10.421,3.231,15.675,5.325c4.63,1.844,9.368,3.154,13.042,6.791c1.838,1.819,2.83,3.961,3.292,6.375
		c0.825,4.313-1.659,1.152-3.212-0.293c-1.494-1.389-2.806-3.162-4.613-4.083c-2.346-1.194-4.98-1.707-7.342-2.759
		c-4.867-2.166-9.649-4.239-13.971-7.511c0.782,2.092,1.908,4.846,3.096,6.819c0.774,1.286,1.714,2.149,2.004,3.658
		c0.26,1.351,0.109,2.795,0.241,4.167c0.493,5.129-0.296,11.341,0.954,16.342c0.559,2.236,1.259,4.48,2.389,6.621
		c1.226,2.321,1.725,4.608,2.657,7c1.5,3.85,3.912,10.315,0.325,13.82c0.072-1.729-0.728-1.94-1.237-3.242
		c-0.424-1.085-0.281-2.828-0.292-4.041c-0.03-3.203-0.435-4.896-1.871-7.663c-2.357-4.547-4.673-9.102-5.638-13.995
		c-1.051-5.332,0.306-11.329,0.046-16.676c-0.145-2.973-1.284-3.82-2.916-6.129c-0.691-0.979-1.429-2.001-2.089-3.038
		c-0.458-0.721-1.265-3.4-2.028-3.679c-2.37-0.863-0.578,2.084-0.208,2.684c0.58,0.941,0.945,1.823,1.663,2.703
		c1.72,2.108,2.578,3.749,2.708,6.459c0.266,5.542-0.377,11.006-0.333,16.5c0.021,2.63,0.823,5.548,1.342,8.167
		c0.307,1.55,2.934,5.962,1.825,7.183c-1.494-1.202-3.434-3.875-4.333-5.524c-1.17-2.148-0.447-5.008-0.667-7.49
		c-0.246-2.76-0.199-5.522-0.333-8.334c-0.121-2.53-1.917-4.514-2.17-6.829c-0.182-1.665,0.252-3.593,0.17-5.337
		c-0.085-1.805-0.984-3.133-1.537-4.834c-0.845-2.604-2.298-6.646-4.604-8.483c1.306,2.724,2.613,4.485,2.808,7.65
		c0.173,2.806,0.023,5.652,0.163,8.495c0.068,1.386,0.025,2.513-0.172,3.829c-0.258,1.729,0.24,2.308,0.638,3.843
		c0.631,2.433-0.317,5.834-0.462,8.333c-0.143,2.457-0.766,5.187-1.037,7.796c-0.268,2.572,0.263,5.318,1.325,7.703
		c2.219,4.981,4.172,9.842,5.707,15.01c0.482,1.623,0.737,3,0.646,4.803c-4.104-0.877-6.252-9.249-7.012-12.645
		c-0.61-2.729-2.201-4.821-3.337-7.293c-1.17-2.549-1.125-5.037-1.125-7.874c0-5.41,1.846-10.226,1.5-15.667
		c-0.331-5.216-0.958-10.543-1-15.833c-0.01-1.29-0.797-5.698-2.479-5.638c0.657,2.342,1.734,4.635,1.979,7.138
		c0.288,2.949-0.857,5.479-1,8.333c-0.255,5.1,1.453,11.426-0.833,16.001c-2.564,5.131-1.87,10.487-1.333,16.166
		c0.249,2.631,0.945,5.322,1.792,7.834c0.903,2.679,1.119,5.403,2.042,7.999c0.421,1.186,1.163,2.377,0.642,3.642
		c-3.033,0.679-1.677-3.416-4.114-3.444c-0.499,1.267,0.673,3.973-1.157,4.448c-0.889-1.441,0.11-4.123,0.129-5.812
		c0.022-2.023,0.064-4.051-0.158-6c-0.234-2.055-0.406-4.055-0.509-6.167c-0.102-2.087-0.769-3.854-1.033-5.819
		c-2.007,2.339-3.623,3.473-3.476,6.82c0.119,2.7,0.631,5.574,1.175,8.166c0.571,2.719,1.42,5.237,1.667,8
		c0.201,2.248,0.07,6.006-0.839,7.991c-0.543,1.188-2.53,3.351-3.627,3.996c-0.098-2.573,0.077-5.591,0.466-8.154
		c0.194-1.28,0.672-2.698,0.796-3.87c0.143-1.351-0.474-2.524-0.791-3.797c-1.185-4.742-2.667-10.675-1.375-15.666
		c0.563-2.175,1.972-4.081,3.249-5.955c1.711-2.511,1.712-4.705,1.296-7.545c-0.392-2.678-0.675-5.161-0.675-8
		c0-2.562-0.56-5.986,0.333-8.334c1.665-4.377,6.017-12.169,1.709-16.315c-1.012,2.293-0.091,5.854-0.209,8.315
		c-0.12,2.51-1.069,5-2.708,6.959c-1.176,1.406-1.364,1.691-1.458,3.541c-0.07,1.39,0.103,2.671,0.167,4
		c0.126,2.634,0.35,5.724,0,8.334c-0.221,1.646-1.264,2.482-2.642,3.314c-0.466-2.921,1.096-8.205-1.815-10.289
		c-1.117,1.6-0.59,5.177-0.875,7.141c-0.329,2.265-1.719,4.214-2.162,6.496c-0.459,2.362-0.856,4.717-1.005,7.171
		c-0.13,2.147-0.363,5.211-3.141,5.479c-0.082-1.865,0.128-3.806,0.312-5.646c0.131-1.309,0.979-4.588-0.009-5.521
		c-1.594,0.809-3.223,3.4-4.198,4.82c-1.136,1.655-1.976,3.463-2.13,5.482c0.016-2.844,0.389-5.899,1.463-8.486
		c1.149-2.767,3.2-3.401,5.412-5.089c1.6-1.221,3.674-3.514,4.116-5.374c0.637-2.687-0.462-5.239-0.325-8
		c0.078-1.557,0.303-3.795,1.125-5.176c0.512-0.858,1.556-1.198,2.175-1.992c0.499-0.64,0.857-1.604,1.2-2.323
		c0.856-1.797,1.964-3.496,2.13-5.509c0.09-1.089,1.467-4.171,0.865-4.691c-0.923,0.878-1.65,1.998-2.657,2.854
		c-1.157,0.982-2.753,1.645-3.175,3.171c-0.703,2.547,0.29,5.498-0.487,8.009c-0.76,2.456-1.065,4.864-1.801,7.324
		c-0.792,2.644-2.432,4.425-4.253,6.463c-1.224,1.37-2.083,1.588-3.768,1.842c0.484-1.282,2.19-2.478,2.938-3.801
		c0.951-1.682,1.744-3.487,2.041-5.337c0.381-2.371,1.636-8.722-0.667-10.35c-1.676,1.309-3.126,4.623-4.13,6.521
		c-1.208,2.282-2.274,4.708-3.163,7.162c-0.92,2.544-1.313,5.409-2.749,7.802c-0.717,1.194-1.199,1.547-1.292,3.032
		c-0.087,1.383,0.07,2.781,0,4.166c-0.177,3.505-0.735,6.361-2.004,9.662c-0.763,1.984-3.066,6.354-5.165,7.154
		c-0.985-3.585,9.96-17.978,2.203-19.458c-2.995,3.893-3.765,9.147-6.32,13.346c-2.011,3.302-5.771,9.364-10.367,8.601
		c1.495-1.801,2.939-3.623,4.362-5.604c1.627-2.27,2.283-4.104,3.292-6.7c0.982-2.526,2.15-5.135,4.009-7.17
		c1.933-2.116,4.345-3.42,6.324-5.459c3.619-3.729,4.917-8.229,6.671-13.032c1.785-4.889,3.18-9.467,6.374-13.843
		c3.085-4.228,8.05-6.81,11.325-10.653c2.502-2.938-0.57-4.086-3.167-2.963c-2.358,1.02-4.947,1.508-7.38,2.574
		c-2.163,0.947-4.543,1.703-5.028,4.213c-0.501,2.6-0.133,5.654-0.129,8.333c0.003,2.905-1.066,4.748-3.125,6.709
		c-2.169,2.065-3.62,4.708-5.088,7.291c-0.595,1.046-2.922,6.618-3.796,3.843c-0.533-1.693,2.368-6.238,3.305-7.675
		c1.469-2.254,3.66-4.105,4.046-6.834c0.374-2.641,0.759-5.499,0.658-8.167c-0.031-0.826,0.117-3.301-1.175-3.175
		c-0.815,0.08-1.594,2.373-1.87,2.971c-1.084,2.351-2.186,4.737-3.08,7.204c-1.785,4.925-4.278,10.007-7.663,14.037
		c-1.616,1.925-2.974,3.837-5.009,5.333c-2.14,1.573-4.464,2.617-6.87,3.756c-4.707,2.227-8.728,5.7-14.15,5.341
		c3.686-3.324,8.484-5.398,12.317-8.592c3.725-3.104,7.941-6.477,11.167-10.167c1.781-2.038,3.511-4.334,4.833-6.708
		c1.199-2.155,7.279-15.073,11.371-17.63c3.351-2.093,7.051-3.77,10.886-4.739C201.516,481.306,204.712,479.484,207.991,478.992z"/>
</g>
</svg>
